<?xml version="1.0" encoding="UTF-8" standalone="no"?>
<!-- Created with Inkscape (http://www.inkscape.org/) -->

<svg
   xmlns:dc="http://purl.org/dc/elements/1.1/"
   xmlns:cc="http://creativecommons.org/ns#"
   xmlns:rdf="http://www.w3.org/1999/02/22-rdf-syntax-ns#"
   xmlns:svg="http://www.w3.org/2000/svg"
   xmlns="http://www.w3.org/2000/svg"
   xmlns:xlink="http://www.w3.org/1999/xlink"
   xmlns:sodipodi="http://sodipodi.sourceforge.net/DTD/sodipodi-0.dtd"
   xmlns:inkscape="http://www.inkscape.org/namespaces/inkscape"
   width="194.9604mm"
   height="28.595404mm"
   viewBox="0 0 175.46436 25.735862"
   version="1.1"
   id="svg8"
   inkscape:version="0.92.3 (2405546, 2018-03-11)"
   sodipodi:docname="ruby hieroglyph.svg">
  <defs
     id="defs2">
    <linearGradient
       y2="325.47"
       y1="209"
       x2="-140"
       gradientUnits="userSpaceOnUse"
       xlink:href="#linearGradient60449"
       x1="-140"
       id="linearGradient60580" />
    <linearGradient
       y2="220.44"
       y1="308.44"
       x2="342.85999"
       gradientUnits="userSpaceOnUse"
       xlink:href="#linearGradient60459"
       x1="342.85999"
       id="linearGradient60582" />
    <linearGradient
       y2="869.51001"
       y1="949.51001"
       x2="51.429001"
       gradientUnits="userSpaceOnUse"
       xlink:href="#linearGradient60471"
       x1="51.429001"
       id="linearGradient60584" />
    <linearGradient
       y2="662.95001"
       y1="488"
       x2="101.02"
       gradientUnits="userSpaceOnUse"
       xlink:href="#linearGradient60490"
       x1="101.02"
       id="linearGradient60588" />
    <linearGradient
       y2="869.51001"
       y1="949.51001"
       gradientTransform="matrix(-0.55163,0,0,0.8347,508.65,-107.03)"
       x2="51.429001"
       gradientUnits="userSpaceOnUse"
       xlink:href="#linearGradient60471"
       x1="51.429001"
       id="linearGradient60594" />
    <linearGradient
       y2="869.51001"
       y1="996.38"
       x2="51.429001"
       gradientUnits="userSpaceOnUse"
       xlink:href="#linearGradient60471"
       x1="33.264999"
       id="linearGradient60596" />
    <linearGradient
       y2="141.7533"
       x2="132.27631"
       y1="215.5488"
       x1="174.0737"
       gradientUnits="userSpaceOnUse"
       id="XMLID_17_-9">
      <stop
         id="stop3272-4"
         style="stop-color:#FB7655"
         offset="0" />
      <stop
         id="stop3274-5"
         style="stop-color:#FB7655"
         offset="0" />
      <stop
         id="stop3276-1"
         style="stop-color:#E42B1E"
         offset="0.41" />
      <stop
         id="stop3278-0"
         style="stop-color:#990000"
         offset="0.99" />
      <stop
         id="stop3280-3"
         style="stop-color:#990000"
         offset="1" />
    </linearGradient>
    <linearGradient
       y2="117.4093"
       x2="141.0276"
       y1="153.5576"
       x1="194.895"
       gradientUnits="userSpaceOnUse"
       id="XMLID_18_-7">
      <stop
         id="stop3285-8"
         style="stop-color:#871101"
         offset="0" />
      <stop
         id="stop3287-8"
         style="stop-color:#871101"
         offset="0" />
      <stop
         id="stop3289-6"
         style="stop-color:#911209"
         offset="0.99" />
      <stop
         id="stop3291-0"
         style="stop-color:#911209"
         offset="1" />
    </linearGradient>
    <linearGradient
       y2="181.638"
       x2="97.929703"
       y1="217.7852"
       x1="151.79539"
       gradientUnits="userSpaceOnUse"
       id="XMLID_19_-4">
      <stop
         id="stop3296-6"
         style="stop-color:#871101"
         offset="0" />
      <stop
         id="stop3298-7"
         style="stop-color:#871101"
         offset="0" />
      <stop
         id="stop3300-6"
         style="stop-color:#911209"
         offset="0.99" />
      <stop
         id="stop3302-0"
         style="stop-color:#911209"
         offset="1" />
    </linearGradient>
    <linearGradient
       y2="181.66141"
       x2="47.046902"
       y1="127.3906"
       x1="38.696301"
       gradientUnits="userSpaceOnUse"
       id="XMLID_20_-9">
      <stop
         id="stop3307-7"
         style="stop-color:#FFFFFF"
         offset="0" />
      <stop
         id="stop3309-5"
         style="stop-color:#FFFFFF"
         offset="0" />
      <stop
         id="stop3311-9"
         style="stop-color:#E57252"
         offset="0.23" />
      <stop
         id="stop3313-7"
         style="stop-color:#DE3B20"
         offset="0.46" />
      <stop
         id="stop3315-8"
         style="stop-color:#A60003"
         offset="0.99" />
      <stop
         id="stop3317-5"
         style="stop-color:#A60003"
         offset="1" />
    </linearGradient>
    <linearGradient
       y2="132.1021"
       x2="99.209602"
       y1="76.715302"
       x1="96.132797"
       gradientUnits="userSpaceOnUse"
       id="XMLID_21_-3">
      <stop
         id="stop3322-3"
         style="stop-color:#FFFFFF"
         offset="0" />
      <stop
         id="stop3324-8"
         style="stop-color:#FFFFFF"
         offset="0" />
      <stop
         id="stop3326-3"
         style="stop-color:#E4714E"
         offset="0.23" />
      <stop
         id="stop3328-7"
         style="stop-color:#BE1A0D"
         offset="0.56" />
      <stop
         id="stop3330-9"
         style="stop-color:#A80D00"
         offset="0.99" />
      <stop
         id="stop3332-3"
         style="stop-color:#A80D00"
         offset="1" />
    </linearGradient>
    <linearGradient
       y2="65.216202"
       x2="156.3141"
       y1="25.521"
       x1="147.103"
       gradientUnits="userSpaceOnUse"
       id="XMLID_22_-7">
      <stop
         id="stop3337-8"
         style="stop-color:#FFFFFF"
         offset="0" />
      <stop
         id="stop3339-7"
         style="stop-color:#FFFFFF"
         offset="0" />
      <stop
         id="stop3341-4"
         style="stop-color:#E46342"
         offset="0.18" />
      <stop
         id="stop3343-1"
         style="stop-color:#C82410"
         offset="0.4" />
      <stop
         id="stop3345-9"
         style="stop-color:#A80D00"
         offset="0.99" />
      <stop
         id="stop3347-0"
         style="stop-color:#A80D00"
         offset="1" />
    </linearGradient>
    <linearGradient
       y2="-8.3048"
       x2="158.66859"
       y1="11.5415"
       x1="118.9761"
       gradientUnits="userSpaceOnUse"
       id="XMLID_23_-9">
      <stop
         id="stop3352-8"
         style="stop-color:#FFFFFF"
         offset="0" />
      <stop
         id="stop3354-8"
         style="stop-color:#FFFFFF"
         offset="0" />
      <stop
         id="stop3356-5"
         style="stop-color:#C81F11"
         offset="0.54" />
      <stop
         id="stop3358-8"
         style="stop-color:#BF0905"
         offset="0.99" />
      <stop
         id="stop3360-4"
         style="stop-color:#BF0905"
         offset="1" />
    </linearGradient>
    <linearGradient
       y2="146.2628"
       x2="7.1701999"
       y1="113.5547"
       x1="3.9033"
       gradientUnits="userSpaceOnUse"
       id="XMLID_24_-3">
      <stop
         id="stop3365-7"
         style="stop-color:#FFFFFF"
         offset="0" />
      <stop
         id="stop3367-1"
         style="stop-color:#FFFFFF"
         offset="0" />
      <stop
         id="stop3369-3"
         style="stop-color:#DE4024"
         offset="0.31" />
      <stop
         id="stop3371-8"
         style="stop-color:#BF190B"
         offset="0.99" />
      <stop
         id="stop3373-0"
         style="stop-color:#BF190B"
         offset="1" />
    </linearGradient>
    <linearGradient
       y2="-2.8092999"
       x2="135.0152"
       y1="155.10451"
       x1="-18.5557"
       gradientUnits="userSpaceOnUse"
       id="XMLID_25_-9">
      <stop
         id="stop3380-7"
         style="stop-color:#BD0012"
         offset="0" />
      <stop
         id="stop3382-9"
         style="stop-color:#BD0012"
         offset="0" />
      <stop
         id="stop3384-9"
         style="stop-color:#FFFFFF"
         offset="0.07" />
      <stop
         id="stop3386-3"
         style="stop-color:#FFFFFF"
         offset="0.17" />
      <stop
         id="stop3388-2"
         style="stop-color:#C82F1C"
         offset="0.27" />
      <stop
         id="stop3390-4"
         style="stop-color:#820C01"
         offset="0.33" />
      <stop
         id="stop3392-3"
         style="stop-color:#A31601"
         offset="0.46" />
      <stop
         id="stop3394-7"
         style="stop-color:#B31301"
         offset="0.72" />
      <stop
         id="stop3396-1"
         style="stop-color:#E82609"
         offset="0.99" />
      <stop
         id="stop3398-2"
         style="stop-color:#E82609"
         offset="1" />
    </linearGradient>
    <linearGradient
       y2="159.61659"
       x2="52.817699"
       y1="171.0332"
       x1="99.074699"
       gradientUnits="userSpaceOnUse"
       id="XMLID_26_-2">
      <stop
         id="stop3403-0"
         style="stop-color:#8C0C01"
         offset="0" />
      <stop
         id="stop3405-2"
         style="stop-color:#8C0C01"
         offset="0" />
      <stop
         id="stop3407-1"
         style="stop-color:#990C00"
         offset="0.54" />
      <stop
         id="stop3409-7"
         style="stop-color:#A80D0E"
         offset="0.99" />
      <stop
         id="stop3411-5"
         style="stop-color:#A80D0E"
         offset="1" />
    </linearGradient>
    <linearGradient
       y2="78.683998"
       x2="137.43269"
       y1="115.5146"
       x1="178.52589"
       gradientUnits="userSpaceOnUse"
       id="XMLID_27_-1">
      <stop
         id="stop3416-7"
         style="stop-color:#7E110B"
         offset="0" />
      <stop
         id="stop3418-4"
         style="stop-color:#7E110B"
         offset="0" />
      <stop
         id="stop3420-1"
         style="stop-color:#9E0C00"
         offset="0.99" />
      <stop
         id="stop3422-7"
         style="stop-color:#9E0C00"
         offset="1" />
    </linearGradient>
    <linearGradient
       y2="26.053801"
       x2="173.15421"
       y1="47.937"
       x1="193.6235"
       gradientUnits="userSpaceOnUse"
       id="XMLID_28_-1">
      <stop
         id="stop3427-1"
         style="stop-color:#79130D"
         offset="0" />
      <stop
         id="stop3429-1"
         style="stop-color:#79130D"
         offset="0" />
      <stop
         id="stop3431-7"
         style="stop-color:#9E120B"
         offset="0.99" />
      <stop
         id="stop3433-0"
         style="stop-color:#9E120B"
         offset="1" />
    </linearGradient>
    <radialGradient
       gradientUnits="userSpaceOnUse"
       r="50.357601"
       cy="79.388199"
       cx="143.8315"
       id="XMLID_29_-4">
      <stop
         id="stop3440-0"
         style="stop-color:#A80D00"
         offset="0" />
      <stop
         id="stop3442-8"
         style="stop-color:#A80D00"
         offset="0" />
      <stop
         id="stop3444-5"
         style="stop-color:#7E0E08"
         offset="0.99" />
      <stop
         id="stop3446-1"
         style="stop-color:#7E0E08"
         offset="1" />
    </radialGradient>
    <radialGradient
       gradientUnits="userSpaceOnUse"
       r="66.943703"
       cy="145.75101"
       cx="74.0923"
       id="XMLID_30_-6">
      <stop
         id="stop3451-6"
         style="stop-color:#A30C00"
         offset="0" />
      <stop
         id="stop3453-2"
         style="stop-color:#A30C00"
         offset="0" />
      <stop
         id="stop3455-1"
         style="stop-color:#800E08"
         offset="0.99" />
      <stop
         id="stop3457-9"
         style="stop-color:#800E08"
         offset="1" />
    </radialGradient>
    <linearGradient
       y2="140.742"
       x2="9.9886999"
       y1="197.33591"
       x1="26.669901"
       gradientUnits="userSpaceOnUse"
       id="XMLID_31_-6">
      <stop
         id="stop3462-4"
         style="stop-color:#8B2114"
         offset="0" />
      <stop
         id="stop3464-8"
         style="stop-color:#8B2114"
         offset="0" />
      <stop
         id="stop3466-0"
         style="stop-color:#9E100A"
         offset="0.43" />
      <stop
         id="stop3468-8"
         style="stop-color:#B3100C"
         offset="0.99" />
      <stop
         id="stop3470-1"
         style="stop-color:#B3100C"
         offset="1" />
    </linearGradient>
    <linearGradient
       y2="26.305901"
       x2="192.039"
       y1="9.7979002"
       x1="154.6411"
       gradientUnits="userSpaceOnUse"
       id="XMLID_32_-0">
      <stop
         id="stop3475-2"
         style="stop-color:#B31000"
         offset="0" />
      <stop
         id="stop3477-2"
         style="stop-color:#B31000"
         offset="0" />
      <stop
         id="stop3479-9"
         style="stop-color:#910F08"
         offset="0.44" />
      <stop
         id="stop3481-7"
         style="stop-color:#791C12"
         offset="0.99" />
      <stop
         id="stop3483-5"
         style="stop-color:#791C12"
         offset="1" />
    </linearGradient>
    <linearGradient
       inkscape:collect="always"
       xlink:href="#XMLID_17_-9"
       id="linearGradient3448"
       gradientUnits="userSpaceOnUse"
       x1="174.0737"
       y1="215.5488"
       x2="132.27631"
       y2="141.7533" />
  </defs>
  <sodipodi:namedview
     id="base"
     pagecolor="#ffffff"
     bordercolor="#666666"
     borderopacity="1.0"
     inkscape:pageopacity="0.0"
     inkscape:pageshadow="2"
     inkscape:zoom="1"
     inkscape:cx="311.82054"
     inkscape:cy="15.881194"
     inkscape:document-units="mm"
     inkscape:current-layer="layer1"
     showgrid="false"
     scale-x="0.9"
     fit-margin-top="0"
     fit-margin-left="0"
     fit-margin-right="0"
     fit-margin-bottom="0"
     inkscape:window-width="1366"
     inkscape:window-height="719"
     inkscape:window-x="0"
     inkscape:window-y="0"
     inkscape:window-maximized="1" />
  <metadata
     id="metadata5">
    <rdf:RDF>
      <cc:Work
         rdf:about="">
        <dc:format>image/svg+xml</dc:format>
        <dc:type
           rdf:resource="http://purl.org/dc/dcmitype/StillImage" />
        <dc:title></dc:title>
      </cc:Work>
    </rdf:RDF>
  </metadata>
  <g
     inkscape:label="Layer 1"
     inkscape:groupmode="layer"
     id="layer1"
     transform="translate(-23.96199,-29.192489)">
    <g
       transform="matrix(0.04541085,0,0,0.02415625,8.6401409,30.66902)"
       id="layer1-3"
       style="fill:#d40000;fill-opacity:1">
      <g
         transform="translate(150.21503,-46.400626)"
         id="g60563"
         style="fill:#d40000;fill-opacity:1">
        <path
           d="m 226.64,277.38 c -21.86,0 -39.45,17.59 -39.45,39.45 v 328.18 c 0,21.86 17.59,39.45 39.45,39.45 h 7.15 V 367.67 h 19.62 V 684.46 H 439.82 V 367.67 h 19.62 v 316.79 h 2.17 c 21.86,0 39.45,-17.59 39.45,-39.45 V 316.83 c 0,-21.86 -17.59,-39.45 -39.45,-39.45 z"
           id="path12233"
           inkscape:connector-curvature="0"
           style="fill:#d40000;fill-opacity:1;fill-rule:evenodd" />
        <path
           d="m 253.41,655.09 v 269.76 h 83.78 V 659.53 h 19.62 v 265.32 h 83.01 V 655.09 Z"
           id="path12235"
           inkscape:connector-curvature="0"
           style="fill:#d40000;fill-opacity:1;fill-rule:evenodd" />
        <polygon
           transform="matrix(0.031352,0.010901,-0.0090796,0.038159,142.1,-234.33)"
           points="8547,10557 7983,10466 7463,10281 6998,10013 6600,9670 6285,9260 6063,8795 5948,8282 5951,7755 6068,7253 6290,6786 6604,6366 7002,6004 7471,5713 8002,5504 8584,5389 9176,5378 9740,5469 10260,5654 10726,5922 11123,6265 11438,6675 11660,7140 11776,7654 11772,8180 11655,8682 11433,9149 11119,9569 10721,9931 10252,10222 9721,10431 9140,10547 "
           id="polygon12237"
           style="fill:#d40000;fill-opacity:1" />
        <path
           d="m 1077.3,502.66 a 13.8,13.97614 0 1 1 -27.6,0"
           transform="matrix(3.0336,0,0,3.4682,-2930.8,-819.23)"
           id="path12239"
           inkscape:connector-curvature="0"
           style="fill:#d40000;fill-opacity:1;fill-rule:evenodd" />
        <path
           d="m 1077.3,502.66 a 13.8,13.97614 0 1 1 -27.6,0"
           transform="matrix(3.0058,0,0,3.4682,-2798.3,-818.78)"
           id="path12241"
           inkscape:connector-curvature="0"
           style="fill:#d40000;fill-opacity:1;fill-rule:evenodd" />
        <path
           d="m 428.57,208.79 a 85.715,55.000642 0 1 1 -171.43,0 85.715,55.000642 0 1 1 171.43,0 z"
           transform="matrix(0.93333,0,0,1.1039,30,-27.407)"
           id="path60457"
           inkscape:connector-curvature="0"
           style="fill:#d40000;fill-opacity:1" />
        <path
           d="m 95.714,877.36 a 44.286,55 0 1 1 -88.571,0 44.286,55 0 1 1 88.571,0 z"
           transform="matrix(0.87097,0,0,1,251.64,37.857)"
           id="path60469"
           inkscape:connector-curvature="0"
           style="fill:#d40000;fill-opacity:1" />
        <path
           d="m 95.714,877.36 a 44.286,55 0 1 1 -88.571,0 44.286,55 0 1 1 88.571,0 z"
           transform="matrix(0.87097,0,0,1,353.78,37.857)"
           id="path60484"
           inkscape:connector-curvature="0"
           style="fill:#d40000;fill-opacity:1" />
        <path
           d="m 151.52,578.6 a 50.508,168.7 0 1 1 -101.01,0 h 50.51 z"
           transform="matrix(0,-3.64,0.42515,0,13.112,915.49)"
           id="path60488"
           inkscape:connector-curvature="0"
           style="fill:#d40000;fill-opacity:1" />
        <path
           d="m 151.52,578.6 a 50.508,168.7 0 1 1 -101.01,0 h 50.51 z"
           transform="matrix(0,-3.64,-0.42515,0,679.85,915.49)"
           id="path60518"
           inkscape:connector-curvature="0"
           style="fill:#d40000;fill-opacity:1" />
        <path
           d="m 86.558,928.19 c 0,30.36 -72.09,1.32 -72.09,-29.04 0,-30.36 12.515,-76.79 36.961,-76.79 24.445,0 35.129,75.47 35.129,105.83 z"
           transform="matrix(0.55163,0,0,0.8347,183.21,-105.01)"
           id="path60542"
           inkscape:connector-curvature="0"
           style="fill:#d40000;fill-opacity:1" />
        <path
           d="m 460.9,667.73 c 0,25.34 39.77,1.1 39.77,-24.24 0,-25.34 -6.91,-64.09 -20.39,-64.09 -13.49,0 -19.38,62.99 -19.38,88.33 z"
           id="path60549"
           inkscape:connector-curvature="0"
           style="fill:#d40000;fill-opacity:1" />
        <path
           d="m 95.714,877.36 a 44.286,55 0 1 1 -88.571,0 44.286,55 0 1 1 88.571,0 z"
           transform="matrix(-0.6201,0.50511,-0.67127,-0.36457,861.7,607.05)"
           id="path60555"
           inkscape:connector-curvature="0"
           style="fill:#d40000;fill-opacity:1" />
        <path
           d="m 95.714,877.36 a 44.286,55 0 1 1 -88.571,0 44.286,55 0 1 1 88.571,0 z"
           transform="matrix(0.6201,0.50511,0.67127,-0.36457,-177.93,605.03)"
           id="path60559"
           inkscape:connector-curvature="0"
           style="fill:#d40000;fill-opacity:1" />
      </g>
    </g>
    <g
       transform="matrix(0.0322062,0,0,0.0322062,68.940217,30.168627)"
       id="layer1-6">
      <g
         transform="matrix(2.3597,0,0,2.3597,-529.75,-458.56)"
         id="g2994">
        <rect
           x="320.16"
           y="205.12"
           width="269.48999"
           height="239.53"
           ry="43.280998"
           rx="42.951"
           id="rect4009"
           style="fill:#ff0000" />
        <rect
           x="337.5"
           y="221.78"
           width="234.94"
           height="164.69"
           ry="49.912998"
           rx="42.951"
           id="rect4519"
           style="fill:#ffffff" />
        <g
           transform="translate(4.0308)"
           id="g4563">
          <path
             d="m 292.52,334.68 c 0,5.0883 -4.1249,9.2132 -9.2132,9.2132 -5.0883,0 -9.2132,-4.1249 -9.2132,-9.2132 0,-5.0883 4.1249,-9.2132 9.2132,-9.2132 5.0883,0 9.2132,4.1249 9.2132,9.2132 z"
             transform="matrix(1.5625,0,0,1.5625,8.2055,-107.64)"
             id="path4523"
             inkscape:connector-curvature="0"
             style="fill:#ffffff" />
          <path
             d="m 265.46,341.3 c 0,3.9752 -3.2226,7.1978 -7.1978,7.1978 -3.9752,0 -7.1978,-3.2226 -7.1978,-7.1978 0,-3.9752 3.2226,-7.1978 7.1978,-7.1978 3.9753,0 7.1978,3.2226 7.1978,7.1978 z"
             transform="translate(192.61,73.994)"
             id="path4525"
             inkscape:connector-curvature="0"
             style="fill:#ff0000" />
        </g>
        <rect
           x="442.23001"
           y="432.57001"
           width="25.336"
           height="35.125"
           ry="0"
           rx="0"
           id="rect4551"
           style="fill:#ff0000" />
        <path
           d="m 574.1,481.81 c 0,8.1095 -52.077,14.684 -116.32,14.684 -64.24,0 -116.32,-6.5741 -116.32,-14.684 0,-8.1095 52.077,-14.684 116.32,-14.684 64.24,0 116.32,6.5741 116.32,14.684 z"
           transform="translate(-2.8791)"
           id="path4567"
           inkscape:connector-curvature="0"
           style="fill:#ff0000" />
        <g
           transform="translate(41.531,2.4794)"
           id="g4632"
           style="fill:#ffffff">
          <path
             d="m 469.06,360.54 c 0,1.4617 -1.1849,2.6466 -2.6466,2.6466 -1.4617,0 -2.6466,-1.1849 -2.6466,-2.6466 0,-1.4617 1.1849,-2.6466 2.6466,-2.6466 1.4617,0 2.6466,1.1849 2.6466,2.6466 z"
             transform="translate(19.951,64.028)"
             id="path4598"
             inkscape:connector-curvature="0" />
          <path
             d="m 469.06,360.54 c 0,1.4617 -1.1849,2.6466 -2.6466,2.6466 -1.4617,0 -2.6466,-1.1849 -2.6466,-2.6466 0,-1.4617 1.1849,-2.6466 2.6466,-2.6466 1.4617,0 2.6466,1.1849 2.6466,2.6466 z"
             transform="translate(27.62,64.028)"
             id="path4598-4"
             inkscape:connector-curvature="0" />
          <path
             d="m 469.06,360.54 c 0,1.4617 -1.1849,2.6466 -2.6466,2.6466 -1.4617,0 -2.6466,-1.1849 -2.6466,-2.6466 0,-1.4617 1.1849,-2.6466 2.6466,-2.6466 1.4617,0 2.6466,1.1849 2.6466,2.6466 z"
             transform="translate(35.288,64.028)"
             id="path4598-46"
             inkscape:connector-curvature="0" />
          <path
             d="m 469.06,360.54 c 0,1.4617 -1.1849,2.6466 -2.6466,2.6466 -1.4617,0 -2.6466,-1.1849 -2.6466,-2.6466 0,-1.4617 1.1849,-2.6466 2.6466,-2.6466 1.4617,0 2.6466,1.1849 2.6466,2.6466 z"
             transform="translate(42.956,64.028)"
             id="path4598-6"
             inkscape:connector-curvature="0" />
        </g>
      </g>
    </g>
    <path
       d="m 183.36242,52.744066 c -0.67992,-0.284428 0.33236,-1.611997 -0.83223,-1.315481 -0.95526,0.01352 -1.50107,-1.303393 -0.75929,-1.934114 0.72871,-0.728849 1.76232,-0.01352 2.47844,0.369759 0.28841,0.219719 0.58173,0.376155 0.90711,0.124437 3.3382,-1.333971 6.68236,-2.658695 9.9614,-4.132747 1.15335,-0.34558 0.86324,-1.567912 1.14127,-2.447506 0.54468,-0.816309 1.99739,-0.423087 2.37854,0.382556 0.48992,0.775779 -1.36028,1.496095 -0.49136,1.980334 0.50344,-1.517427 1.93056,0.394645 0.93577,1.092916 -0.62575,0.686894 -1.78407,0.449395 -2.22708,-0.321404 -0.56601,-0.729561 -1.50605,0.440152 -2.24057,0.548946 -2.5876,1.12847 -5.34371,1.837409 -7.86303,3.129425 -0.96855,0.233941 -1.78564,0.888839 -1.70387,1.934824 -0.40098,0.460775 -1.09163,0.654896 -1.68481,0.588055 z m 11.02587,-0.199099 c -1.06234,-0.300784 -0.11875,-2.086994 -1.14127,-2.394889 -0.70396,-0.235364 -2.06637,-0.767956 -2.26192,-1.218064 0.43091,-0.03769 0.89311,-0.581655 1.29344,-0.211899 0.82484,0.429486 1.77484,1.081538 2.71488,0.585923 0.83052,-0.566724 2.04076,-0.167101 2.33728,0.796399 0.11021,1.108561 -1.57075,-0.415976 -1.6767,0.241054 1.30837,-0.02276 1.62764,1.993845 0.26239,2.192943 -0.49562,0.106663 -1.03604,0.150748 -1.5281,0.0085 z m -6.57385,-4.539478 c -1.39598,-0.332072 -2.62656,-1.151226 -4.03575,-1.429254 -0.82783,0.666986 -2.36958,0.697563 -2.50134,-0.640673 -0.37552,-1.102161 0.76148,-1.400811 1.59571,-1.166868 0.58173,-0.06613 -0.48389,-1.102161 0.48268,-1.056652 1.03531,-0.573125 2.2787,0.478549 1.41041,1.507469 -0.41769,1.023233 1.23044,1.2074 1.88071,1.530227 0.79946,0.388955 2.18867,0.529037 2.62385,1.062339 -0.39962,0.428776 -0.94856,0.349138 -1.45627,0.193412 z m 3.71961,-1.926291 c -0.43091,-0.563168 -1.12207,-0.440152 -1.23158,0.277317 -0.43516,-0.433754 -0.97345,-1.146246 -1.29059,-0.22612 -0.84404,1.060917 -1.47682,-2.013043 -1.87424,-0.482817 0.13141,0.541835 -1.02337,0.486373 -0.90981,-0.06542 0.14292,-0.905195 -0.92639,-2.237742 0.0352,-2.841442 0.42829,0.106664 1.23883,0.29865 0.69721,-0.39891 -0.65959,-1.137714 -2.21122,0.546813 -2.8268,-0.904482 -0.76191,-0.797111 -0.53892,-2.027976 0.32063,-2.643763 0.21481,-0.267363 0.61507,-0.462907 0.49355,-0.860609 0.014,-0.375303 -0.0686,-0.782107 0.006,-1.137785 0.29928,-0.440722 0.99627,-1.001118 0.47392,-1.524892 -0.52647,-0.494834 0.20323,0.822851 -0.50066,0.98142 -0.71051,0.379926 -0.13823,2.086069 -0.85641,1.973009 -0.4339,-0.898368 -0.57703,-1.950894 -0.10621,-2.871803 0.72053,-2.008634 2.5728,-3.501883 4.67715,-3.820869 1.82105,-0.273663 3.76512,-0.263673 5.50013,0.413132 1.55725,0.685046 2.53355,2.266254 2.98935,3.846397 0.0797,0.518797 0.0682,1.045701 0.096,1.568765 -0.72599,0.511758 -0.47001,1.398392 -0.19695,2.101641 0.35624,0.999767 -0.25528,2.047174 -0.93435,2.746157 -0.79143,0.31145 -2.07278,-0.05049 -2.38138,1.029631 0.59943,0.113061 1.56009,0.12586 1.00332,1.091494 -0.41598,0.793556 -1.06803,2.008065 -2.14956,1.63973 -0.27306,0.559613 -0.47927,0.567436 -1.0332,0.110215 z m -1.54586,-4.295581 c 0.28442,-0.523349 0.40602,-1.390855 0.30576,-1.922737 -0.70894,0.146481 -1.329,2.498704 -0.30576,1.922737 z m 2.08272,0.06755 c 0.14364,-0.650631 -0.40317,-2.171611 -1.12207,-1.850208 0.31074,0.541837 0.0697,2.405554 1.12207,1.850208 z m -2.18441,-2.391333 c 0.63783,-0.589477 0.17492,-1.953028 -0.41313,-2.493513 -0.92866,-0.725364 -2.5061,-1.04179 -3.31174,0.03783 -0.66927,0.620409 -0.48297,1.674216 0.21246,2.191876 0.8326,0.627876 1.96298,0.387534 2.93644,0.403178 0.19768,-0.01351 0.40034,-0.03982 0.57597,-0.139371 z m 5.0422,-0.07822 c 0.78218,-0.356957 1.52739,-1.396472 0.87675,-2.201191 -0.6044,-0.979785 -1.90922,-1.194671 -2.89334,-0.68846 -1.07372,0.289264 -1.51316,1.368742 -1.54515,2.386924 0.31428,1.048119 1.84593,0.561035 2.68926,0.654185 0.29438,-0.01707 0.60015,-0.02418 0.87248,-0.151458 z"
       inkscape:connector-curvature="0"
       style="fill:#d40000;fill-opacity:1;stroke-width:0.0711071"
       id="path3265" />
    <g
       style="overflow:visible"
       id="g440"
       transform="matrix(0.09853245,0,0,0.09853245,135.99895,32.3264)">
      <polygon
         id="polygon3282"
         points="186.849,187.641 198.13,39.95 153.5,130.41 40.38,197.58 "
         style="clip-rule:evenodd;fill:url(#linearGradient3448);fill-rule:evenodd" />
      <polygon
         id="polygon3293"
         points="187.089,187.54 174.5,100.65 140.209,145.93 "
         style="clip-rule:evenodd;fill:url(#XMLID_18_-7);fill-rule:evenodd" />
      <polygon
         id="polygon3304"
         points="187.259,187.54 95.03,180.3 40.87,197.391 "
         style="clip-rule:evenodd;fill:url(#XMLID_19_-4);fill-rule:evenodd" />
      <polygon
         id="polygon3319"
         points="41,197.41 64.04,121.93 13.34,132.771 "
         style="clip-rule:evenodd;fill:url(#XMLID_20_-9);fill-rule:evenodd" />
      <polygon
         id="polygon3334"
         points="140.2,146.18 119,63.14 58.33,120.01 "
         style="clip-rule:evenodd;fill:url(#XMLID_21_-3);fill-rule:evenodd" />
      <polygon
         id="polygon3349"
         points="193.32,64.31 135.97,17.47 120,69.1 "
         style="clip-rule:evenodd;fill:url(#XMLID_22_-7);fill-rule:evenodd" />
      <polygon
         id="polygon3362"
         points="166.5,0.77 132.77,19.41 111.49,0.52 "
         style="clip-rule:evenodd;fill:url(#XMLID_23_-9);fill-rule:evenodd" />
      <polygon
         id="polygon3375"
         points="0,158.09 14.13,132.32 2.7,101.62 "
         style="clip-rule:evenodd;fill:url(#XMLID_24_-3);fill-rule:evenodd" />
      <path
         id="path3377"
         d="m 1.94,100.65 11.5,32.62 49.97,-11.211 57.05,-53.02 L 136.56,17.9 111.209,0 68.109,16.13 C 54.53,28.76 28.18,53.75 27.23,54.22 26.29,54.7 9.83,85.81 1.94,100.65 Z"
         inkscape:connector-curvature="0"
         style="clip-rule:evenodd;fill:#ffffff;fill-rule:evenodd" />
      <path
         id="path3400"
         d="m 42.32,42.05 c 29.43,-29.18 67.37,-46.42 81.93,-31.73 14.551,14.69 -0.88,50.39 -30.31,79.56 -29.43,29.17 -66.9,47.36 -81.45,32.67 -14.56,-14.68 0.4,-51.33 29.83,-80.5 z"
         inkscape:connector-curvature="0"
         style="clip-rule:evenodd;fill:url(#XMLID_25_-9);fill-rule:evenodd" />
      <path
         id="path3413"
         d="m 41,197.38 22.86,-75.72 75.92,24.39 C 112.33,171.79 81.8,193.55 41,197.38 Z"
         inkscape:connector-curvature="0"
         style="clip-rule:evenodd;fill:url(#XMLID_26_-2);fill-rule:evenodd" />
      <path
         id="path3424"
         d="m 120.56,68.89 19.49,77.2 C 162.98,121.98 183.56,96.06 193.639,64 Z"
         inkscape:connector-curvature="0"
         style="clip-rule:evenodd;fill:url(#XMLID_27_-1);fill-rule:evenodd" />
      <path
         id="path3435"
         d="m 193.44,64.39 c 7.8,-23.54 9.6,-57.31 -27.181,-63.58 l -30.18,16.67 z"
         inkscape:connector-curvature="0"
         style="clip-rule:evenodd;fill:url(#XMLID_28_-1);fill-rule:evenodd" />
      <path
         id="path3437"
         d="m 0,157.75 c 1.08,38.851 29.11,39.43 41.05,39.771 L 13.47,133.11 Z"
         inkscape:connector-curvature="0"
         style="clip-rule:evenodd;fill:#9e1209;fill-rule:evenodd" />
      <path
         id="path3448"
         d="m 120.669,69.01 c 17.62,10.83 53.131,32.58 53.851,32.98 1.119,0.63 15.31,-23.93 18.53,-37.81 z"
         inkscape:connector-curvature="0"
         style="clip-rule:evenodd;fill:url(#XMLID_29_-4);fill-rule:evenodd" />
      <path
         id="path3459"
         d="m 63.83,121.66 30.56,58.96 c 18.07,-9.8 32.22,-21.74 45.18,-34.53 z"
         inkscape:connector-curvature="0"
         style="clip-rule:evenodd;fill:url(#XMLID_30_-6);fill-rule:evenodd" />
      <path
         id="path3472"
         d="m 13.35,133.19 -4.33,51.56 c 8.17,11.16 19.41,12.13 31.2,11.26 -8.53,-21.23 -25.57,-63.68 -26.87,-62.82 z"
         inkscape:connector-curvature="0"
         style="clip-rule:evenodd;fill:url(#XMLID_31_-6);fill-rule:evenodd" />
      <path
         id="path3485"
         d="m 135.9,17.61 60.71,8.52 C 193.37,12.4 183.42,3.54 166.46,0.77 Z"
         inkscape:connector-curvature="0"
         style="clip-rule:evenodd;fill:url(#XMLID_32_-0);fill-rule:evenodd" />
    </g>
    <g
       aria-label="&gt;"
       style="font-style:normal;font-weight:normal;font-size:34.6756897px;line-height:1.25;font-family:sans-serif;letter-spacing:0px;word-spacing:0px;fill:#d40000;fill-opacity:1;stroke:none;stroke-width:0.86689222"
       id="text444">
      <path
         d="m 46.359546,35.863494 v -3.081531 l 21.70617,7.873143 v 2.810627 l -21.70617,7.873142 V 48.257344 L 63.79898,42.077351 Z"
         style="fill:#d40000;fill-opacity:1;stroke-width:0.86689222"
         id="path4211" />
    </g>
    <g
       aria-label="?"
       style="font-style:normal;font-weight:normal;font-size:34.6756897px;line-height:1.25;font-family:sans-serif;letter-spacing:0px;word-spacing:0px;fill:#d40000;fill-opacity:1;stroke:none;stroke-width:0.86689222"
       id="text444-3">
      <path
         d="m 114.258,50.627754 h 3.43709 v 4.300598 H 114.258 Z m 3.3355,-2.488929 h -3.23391 v -2.607449 q 0,-1.710081 0.47408,-2.810627 0.47408,-1.100547 1.99792,-2.556655 l 1.52383,-1.506903 q 0.96509,-0.897369 1.38838,-1.693149 0.44022,-0.79578 0.44022,-1.625423 0,-1.506902 -1.11748,-2.438134 -1.10054,-0.931232 -2.92915,-0.931232 -1.33758,0 -2.86142,0.592602 -1.5069,0.592602 -3.14925,1.727012 v -3.18312 q 1.59156,-0.965095 3.21698,-1.439176 1.64235,-0.474082 3.3863,-0.474082 3.11539,0 4.99479,1.642354 1.89632,1.642355 1.89632,4.334462 0,1.286793 -0.60953,2.455065 -0.60953,1.151342 -2.13337,2.60745 l -1.48997,1.456108 q -0.79578,0.79578 -1.13441,1.25293 -0.3217,0.440219 -0.45715,0.863506 -0.10159,0.355561 -0.15238,0.863506 -0.0508,0.507945 -0.0508,1.388382 z"
         style="fill:#d40000;fill-opacity:1;stroke-width:0.86689222"
         id="path4208" />
    </g>
    <g
       aria-label=":"
       style="font-style:normal;font-weight:normal;font-size:34.6756897px;line-height:1.25;font-family:sans-serif;letter-spacing:0px;word-spacing:0px;fill:#d40000;fill-opacity:1;stroke:none;stroke-width:0.86689222"
       id="text444-3-6">
      <path
         d="m 166.84044,46.725044 h 3.57255 v 4.300598 h -3.57255 z m 0,-13.629849 h 3.57255 v 4.300599 h -3.57255 z"
         style="fill:#d40000;fill-opacity:1;stroke-width:0.86689222"
         id="path4205" />
    </g>
  </g>
</svg>
