<?xml version="1.0" encoding="UTF-8" standalone="no"?>
<!-- Created with Inkscape (http://www.inkscape.org/) -->

<svg
   xmlns:dc="http://purl.org/dc/elements/1.1/"
   xmlns:cc="http://creativecommons.org/ns#"
   xmlns:rdf="http://www.w3.org/1999/02/22-rdf-syntax-ns#"
   xmlns:svg="http://www.w3.org/2000/svg"
   xmlns="http://www.w3.org/2000/svg"
   xmlns:sodipodi="http://sodipodi.sourceforge.net/DTD/sodipodi-0.dtd"
   xmlns:inkscape="http://www.inkscape.org/namespaces/inkscape"
   version="1.1"
   id="svg1695"
   xml:space="preserve"
   width="816"
   height="816"
   viewBox="0 0 816 816"
   sodipodi:docname="pink-ink-grunge.svg"
   inkscape:version="0.92.4 (5da689c313, 2019-01-14)"><metadata
     id="metadata1701"><rdf:RDF><cc:Work
         rdf:about=""><dc:format>image/svg+xml</dc:format><dc:type
           rdf:resource="http://purl.org/dc/dcmitype/StillImage" /><dc:title></dc:title></cc:Work></rdf:RDF></metadata><defs
     id="defs1699"><clipPath
       clipPathUnits="userSpaceOnUse"
       id="clipPath1711"><path
         d="M 0,612 H 612 V 0 H 0 Z"
         id="path1709"
         inkscape:connector-curvature="0" /></clipPath></defs><sodipodi:namedview
     pagecolor="#ffffff"
     bordercolor="#666666"
     borderopacity="1"
     objecttolerance="10"
     gridtolerance="10"
     guidetolerance="10"
     inkscape:pageopacity="0"
     inkscape:pageshadow="2"
     inkscape:window-width="1920"
     inkscape:window-height="1018"
     id="namedview1697"
     showgrid="false"
     inkscape:zoom="0.61630486"
     inkscape:cx="677.69492"
     inkscape:cy="376.88136"
     inkscape:window-x="-8"
     inkscape:window-y="-8"
     inkscape:window-maximized="1"
     inkscape:current-layer="g1703" /><g
     id="g1703"
     inkscape:groupmode="layer"
     inkscape:label="abstract-470-publicdomainvectors.org"
     transform="matrix(1.3333333,0,0,-1.3333333,0,816)"><g
       id="g1705"><g
         id="g1707"
         clip-path="url(#clipPath1711)"><path
           d="M 611.998,1.018 H 2.078 v 610.418 h 609.92 z"
           style="fill:#ec008c;fill-opacity:1;fill-rule:evenodd;stroke:none"
           id="path1713"
           inkscape:connector-curvature="0" /><path
           d="m 61.535,8.129 c -3.366,0.141 -3.667,3.353 -7.889,2.627 -4.099,-6.485 8.93,-7.735 7.889,-2.627 M 51.022,21.27 c 3.905,7.085 8.282,-7.211 13.136,-7.889 -2.007,9.385 -6.784,16.008 -13.136,21.025 3.412,-6.531 -7.719,-10.9 0,-13.136 m 23.649,42.066 c 7.425,2.16 6.808,-3.707 13.138,-2.627 0.332,4.711 -2.609,6.133 -7.873,5.252 3.459,7.269 -10.406,9.031 -2.625,5.264 0.092,-3.629 -1.249,-5.789 -2.64,-7.889 m 0,136.697 c 0.602,2.024 0.062,5.17 2.64,5.248 0.865,-11.609 16.094,-23.988 23.65,-13.135 -4.37,1.125 -3.341,6.438 -7.888,13.135 0.61,-0.924 -1.127,-3.826 -2.64,-2.623 -1.08,0.819 1.181,7.24 0,7.871 -5.666,3.028 -17.853,3.752 -26.275,0 6.747,-0.244 3.745,-10.265 10.513,-10.496 m 39.42,52.565 c 12.789,5.974 10.629,-1.975 13.153,-7.905 0.779,5.389 7.116,5.157 7.872,10.53 -2.956,0.539 -4.074,2.918 -5.263,5.263 -8.375,1.545 -8.105,-4.939 -13.123,0 0.102,-3.615 -1.228,-5.775 -2.639,-7.888 m 70.981,0 c 8.265,1.31 10.752,-6.207 13.136,2.625 -3.92,0.447 -9.709,-0.942 -10.497,2.638 5.419,-2.314 11.794,6.809 5.248,7.887 -2.354,-4.676 -10.674,-3.379 -7.887,-13.15 m -73.606,34.162 c -10.62,9.246 -6.19,-8.444 0,0 m 31.554,105.144 c -2.91,-2.315 7.302,-2.315 7.874,-2.608 1.312,-0.713 -0.487,-6.284 2.624,-5.281 6.861,3.706 -6.7,10.915 -10.498,7.889 m -13.167,49.956 c -3.458,0.016 -2.385,4.584 -5.234,5.248 -3.018,-5.386 4.114,-12.535 5.234,-5.248 m -18.387,5.248 c -0.077,0.448 -4.484,-1.081 -2.64,-2.624 2.61,-2.193 9.68,1.205 10.529,-2.624 2.107,5.14 -5.295,5.233 -5.264,7.872 0,-0.03 4.477,0.647 2.639,2.624 -1.891,2.083 -7.996,1.206 -10.527,2.641 -1.212,0.679 -2.008,9.803 -5.242,2.624 0.726,-2.964 9.826,-5.836 10.505,-10.513 m -86.75,18.385 h 5.264 v 5.281 h -5.264 z m -15.76,0 c 6.576,-0.417 8.219,4.061 10.512,7.905 -6.576,0.448 -8.22,-4.044 -10.512,-7.905 m 42.066,21.058 h 5.263 V 491.8 H 51.022 Z M 32.62,499.688 c 1.421,-1.575 8.328,0.957 7.873,2.624 0.919,-3.32 -12.805,8.353 -10.513,2.639 0.14,-0.307 2.355,0.249 2.64,0 0.903,-0.848 -0.841,-4.354 0,-5.263 m -15.777,44.674 c 13.33,-7.162 9.788,9.187 0,0 m 21.042,5.265 c -2.053,-0.585 -5.219,-0.077 -5.265,-2.624 8.012,1.885 9.564,-2.687 15.762,-2.641 1.536,7.056 -10.799,13.417 -13.137,7.89 1.597,-0.155 3.11,-0.386 2.64,-2.625 m 47.3,0 c -4.285,-6.437 -5.187,13.03 -7.874,7.873 -1.853,-3.473 2.162,-6.777 2.625,-7.873 1.165,-2.917 3.364,-2.856 5.249,0 m 73.597,-191.885 c 4.16,-0.233 2.053,-6.716 7.889,-5.265 v 7.904 c -3.096,-0.433 -7.465,0.432 -7.889,-2.639 m -49.956,55.204 c 0.302,4.971 8.7,1.822 7.904,7.872 -8.513,-3.241 -2.022,8.507 -10.527,5.265 -1.375,-6.716 -3.474,-9.202 2.623,-13.137 M 74.671,399.792 c 4.517,-0.124 6.731,2.022 7.889,5.265 -4.523,0.138 -6.754,-2.023 -7.889,-5.265 M 58.895,578.557 c 10.335,3.998 18.269,-7.75 21.041,-2.639 -5.774,4.353 -15.561,12.365 -21.041,2.639 M 0.372,563.197 c 5.553,6.394 13.934,12.024 19.096,10.095 1.898,-0.725 -3.474,-7.733 -2.625,-7.903 3.543,-0.68 8.538,7.998 7.873,7.903 4.477,-1.712 1.66,-6.051 -2.624,-5.278 0.425,-3.058 4.778,-2.209 7.888,-2.625 3.381,-0.047 0.965,3.349 0,2.625 7.18,5.293 10.513,4.553 13.138,10.543 1.133,2.531 -5.025,4.292 -5.233,5.249 -1.267,5.125 4.963,9.833 7.873,15.777 7.194,2.7 2.701,-7.95 2.624,-7.888 1.204,-0.942 5.641,4.63 10.513,0 0.903,-0.881 -3.906,-13 5.263,-7.889 -0.316,6.668 -3.827,10.187 -10.512,10.513 1.813,2.098 4.075,7.209 0,7.888 -0.463,5.712 9.324,1.205 13.137,2.625 -12.079,-6.406 9.973,-6.454 15.777,-10.513 0.471,-2.238 -1.026,-2.502 -2.624,-2.624 v -5.265 c -6.121,1.776 -7.04,8.738 -13.153,10.512 9.247,-10.033 12.389,-26.166 34.178,-23.65 0.486,-8.583 -6.182,-12.657 5.242,-13.151 -10.938,-1.328 -8.514,-15.993 -21.018,-15.779 4.5,-2.516 5.295,-8.72 10.512,-10.528 -0.053,-11.407 -22.987,-13.676 -18.386,-21.009 -1.188,-3.812 -3.334,0.91 -7.903,0 -3.559,-0.726 -0.464,-3.876 -2.625,-5.248 -3.165,-2.023 -8.475,2.376 -7.888,2.624 -4.601,-1.945 -5.489,-12.212 -13.137,-7.889 -9.974,-4.599 4.723,-17.522 -10.513,-15.761 1.976,-4.987 7.841,-1.823 2.64,-7.888 10.404,0.617 11.269,10.76 7.873,18.4 8.838,-1.838 8.614,5.387 13.137,7.888 7.726,-2.067 -2.671,-5.603 -2.625,-5.263 -0.362,-3.474 4.886,-1.003 5.265,-2.625 0.616,-2.793 -3.737,-21.349 7.873,-21.041 3.333,0.664 2.655,5.248 0,5.279 4.137,6.484 14.116,-3.211 13.152,-10.527 -5.697,5.928 -8.969,-2.193 -18.402,0 -3.071,4.817 -6.877,8.892 -10.512,13.137 -5.596,1.235 -4.994,-3.751 -5.264,-7.889 -2.44,-0.588 -5.504,0.757 -7.889,0 -3.381,-1.036 -0.441,-3.719 -2.608,-5.248 -7.65,-5.435 -2.401,2.562 0,-5.281 1.521,-4.985 -7.618,-15.328 5.233,-15.761 -2.085,-5.789 -5.264,-10.496 -13.138,-10.512 0.063,2.563 3.211,2.053 5.265,2.64 -3.05,4.833 -13.956,1.807 -10.529,13.137 -4.16,0.232 -10.019,-1.267 -10.498,2.624 -2.098,-0.278 -7.98,-8.693 -2.639,-7.889 -1.058,-8.86 -10.197,6.993 -7.889,-5.248 -1.145,0.198 -2.252,0.435 -3.318,0.714 v 101.193 c 3.484,-1.813 3.969,-6.614 8.584,-7.291 1.218,5.048 -8.105,11.331 2.623,10.527 -1.201,2.187 -6.982,1.715 -11.207,1.003 z m 0,-562.846 v 390.056 c 3.39,0.748 4.998,1.112 8.584,4.137 -0.904,-0.756 -3.606,1.035 -2.625,2.624 1.311,2.161 12.773,3.566 7.887,7.889 H 6.331 c 1.023,-5.994 -2.667,-7.271 -5.959,-8.945 v 7.316 c 0.241,0.528 0.468,1.071 0.679,1.629 -0.214,-0.07 -0.441,-0.127 -0.679,-0.172 v 28.811 c 3.003,0.625 5.972,1.662 8.584,2.899 -10.167,-5.015 -0.557,-9.712 5.262,-13.138 -0.301,-4.956 -8.69,-1.835 -7.887,-7.887 1.157,-2.362 2.307,-4.709 5.248,-5.265 4.145,0.355 0.016,2.84 0,2.641 0.811,5.601 10.83,13.816 2.639,21.009 1.692,4.477 6.022,1.652 5.25,-2.624 5.233,0.032 3.334,7.179 10.512,5.264 -0.239,-3.719 -0.424,-7.457 2.64,-7.872 0.424,-5.729 -9.324,-1.219 -13.152,-2.64 4.507,-7.781 0.556,-23.99 15.777,-21.026 -7.117,5.649 -7.649,7.858 -5.265,18.4 9.247,-3.302 14.418,-14.711 15.778,-18.4 -0.425,-3.088 -4.81,-2.209 -7.873,-2.624 0.493,-2.131 2.623,-2.626 2.608,-5.265 6.591,3.119 15.067,3.891 18.402,5.265 2.493,0.988 1.659,3.04 0,2.624 6.004,1.483 10.714,-5.389 21.041,2.624 6.714,-0.277 9.2,-4.815 13.137,-7.889 4.878,2.27 -8.49,9.742 2.624,13.154 -1.929,2.454 -4.779,3.967 -7.888,5.248 -0.254,7.517 8.961,3.752 13.152,5.263 1.258,0.449 5.372,5.266 5.242,5.266 3.542,0.216 8.274,-5.186 7.888,-5.266 6.662,1.56 5.681,9.434 13.153,7.874 -0.502,2.13 -2.641,2.61 -2.625,5.264 -8.614,-6.158 -5.611,-10.621 -7.889,2.625 -5.943,-1.467 3.181,-4.092 -2.639,-7.889 -4.662,2.346 -6.669,7.347 -15.754,5.264 -1.019,11.255 -9.965,14.604 -15.777,21.026 -0.749,7.179 15.691,-4.663 7.873,2.624 5.056,3.473 9.216,-1.744 10.528,13.153 7.109,-0.755 19.475,3.69 15.769,-7.905 6.909,-0.771 2.078,10.221 10.514,7.905 -0.927,-3.457 -4.632,-4.121 -5.265,-7.905 1.414,-2.082 2.741,-4.244 2.64,-7.872 4.13,4.631 14.087,3.457 18.401,7.872 1.127,4.37 -9.794,-0.215 -10.528,-2.592 -9.263,0.756 9.3,7.1 0,7.873 0.617,4.585 14.828,1.095 13.153,-5.281 7.873,1.747 -2.523,5.634 0,10.529 3.226,-1.142 5.396,-3.379 5.249,-7.874 6.969,2.672 0.192,19.113 13.168,15.763 -1.374,-9.725 -4.485,-6.608 5.232,-5.248 3.498,-6.578 -10.381,-8.229 -2.623,-10.515 -7.936,-6.962 -21.643,-8.165 -21.026,-23.664 6.421,-4.091 7.587,-13.431 15.761,-15.761 -1.914,-4.693 -4.77,-0.388 -7.888,0 -2.563,-9.541 14.704,-5.62 13.153,0 -11.347,2.098 -7.148,13.941 -5.265,23.633 6.576,-4.862 7.588,5.082 10.528,5.265 7.797,0.448 8.066,-9.588 18.387,-10.513 -2.185,-8.32 -7.651,-13.369 -13.137,-18.385 6.83,-3.382 -2.024,-15.731 2.639,-15.777 -5.341,-9.927 -7.541,9.06 -2.639,10.511 -0.064,2.548 -3.212,2.041 -5.25,2.626 -3.636,0.386 1.12,-10.683 -5.263,-2.626 -3.56,-4.382 1.489,-14.664 -13.153,-13.152 -0.093,4.493 1.945,6.81 5.264,7.889 -5.866,5.543 -12.443,10.343 -15.762,18.401 -9.794,2.811 -4.168,-9.849 -13.167,-7.872 2.607,-7.366 7.022,3.797 10.528,-2.64 -0.425,-3.089 -4.786,-2.224 -7.889,-2.626 0.841,-6.082 -0.409,-10.08 -2.639,-13.152 3.303,-0.895 10.798,-2.207 18.401,-5.248 1.25,5.603 -3.744,5.017 -7.873,5.248 -10.004,4.539 10.242,-0.185 7.873,5.265 2.338,-8.196 8.081,-12.968 10.528,-21.026 3.118,-1.097 1.374,4.676 2.624,5.248 -1.103,-0.494 7.981,-2.84 7.888,-2.624 0.078,-0.169 -3.334,-5.047 -2.623,-5.264 1.96,-0.556 8.853,4.153 13.152,2.64 0.804,-0.294 1.281,-8.768 2.624,-2.64 5.04,-1.066 0.24,-12.04 10.512,-7.889 -1.372,-13.646 6.067,-18.476 15.794,-21.011 -2.355,-10.063 -14.704,2.178 -13.169,-7.903 -3.812,3.195 -3.512,10.515 -10.512,10.529 1.373,3.89 3.906,6.606 5.249,10.513 -7.071,1.79 -5.08,-5.45 -7.874,-7.889 -5.056,-1.883 -3.773,10.791 -5.263,13.137 -0.98,1.544 -2.957,-1.683 -2.641,-2.624 -0.964,2.886 -4.268,5.156 2.641,5.248 -1.93,4.694 -4.778,0.371 -7.89,0 -1.551,-9.216 12.428,-8.643 5.249,-15.761 -2.447,1.929 -3.952,4.786 -5.249,7.889 -4.222,-5.002 2.247,-13.339 -10.512,-7.889 2.655,-5.235 11.632,-4.152 10.512,-13.153 5.249,4.384 3.351,-0.23 10.529,0 -1.451,-6.592 3.482,-8.983 2.624,-13.15 -0.571,-2.796 -6.484,-0.821 -7.904,-2.627 -0.439,-0.57 3.775,-6.298 0,-7.872 -3.064,0.431 -2.199,4.785 -2.609,7.872 h -13.152 c 7.133,-5.558 2.415,-1.636 0,-7.872 -0.516,-1.374 7.966,-9.154 -2.64,-7.889 4.918,4.663 -2.115,6.67 0,15.761 -5.596,1.235 -4.994,-3.749 -5.248,-7.872 -12.567,4.537 2.94,9.215 2.624,10.499 -1.359,5.756 -9.024,7.701 -7.873,7.902 -0.617,-0.124 -4.237,-4.461 -2.625,-5.265 -3.697,1.838 -0.062,5.712 -2.639,7.889 -0.302,0.231 -5.481,-3.519 -7.889,-2.624 -5.248,1.945 -1.929,2.192 -10.513,0 -0.439,-12.829 9.246,-3.258 13.137,-7.902 -7.109,-7.428 -11.887,-0.897 -21.025,-5.236 0.663,-3.318 5.233,-2.656 5.264,0 3.574,-0.817 2.185,-6.592 2.624,-10.528 -7.742,15.73 -5.781,-14.495 0,-5.248 6.044,-2.053 2.563,-16.287 -5.249,-13.137 9.502,-6.931 -2.292,-8.861 2.625,-15.777 3.088,0.432 2.216,4.786 2.624,7.871 16.317,-1.712 11.988,-12.441 5.265,-21.009 7.177,3.336 11.624,9.402 18.401,13.138 6.197,-3.877 4.885,-5.558 13.137,-2.638 -2.67,-3.444 -2.563,-9.682 -5.264,-13.139 7.054,-2.393 3.149,5.311 5.264,7.887 0.71,0.849 4.553,-0.879 5.28,0 2.384,2.949 1.088,6.871 5.232,10.529 3.845,-2.314 10.197,-2.098 7.89,-10.529 2.338,2.039 5.942,2.828 10.527,2.625 2.185,5.621 -5.403,5.974 -7.888,7.904 0.572,-0.463 -7.665,7.873 -7.889,7.873 -2.732,-0.031 -6.019,-7.844 -5.263,-7.873 -4.632,0.277 -2.671,9.434 -7.889,7.873 -6.291,1.049 1.474,-11.963 -7.888,-7.873 -0.819,13.971 16.248,10.035 18.4,21.009 2.734,-4.044 -0.616,-8.504 5.249,-10.51 3.638,-1.222 8.173,2.562 7.904,2.639 2.926,-0.836 2.532,-6.716 7.874,-5.265 6.846,-5.154 -7.497,-0.803 -10.498,0 1.219,-13.724 12.884,-5.017 15.761,-13.15 2.563,0.076 2.039,3.224 2.624,5.277 4.601,-0.648 1.121,-14.851 -5.249,-13.152 3.953,-5.635 6.43,1.883 13.137,-2.625 v -7.889 c -6.707,-0.107 -3.209,1.961 -2.622,5.25 -4.494,0.123 -6.817,-1.945 -7.89,-5.25 9.455,-5.23 -5.263,-17.09 18.401,-18.4 2.856,0.632 1.785,5.201 5.265,5.263 -1.928,2.438 -4.792,3.967 -7.889,5.25 -4.129,7.149 9.803,-5.744 18.418,-2.625 -0.813,-5.355 -5.265,-7.007 -7.889,-10.545 6.546,-3.041 11.13,-8.119 10.497,-18.384 -2.2,5.679 -16.757,-0.973 -18.402,5.234 -6.275,-6.439 -10.373,-5.066 -10.511,-13.121 -6.091,6.359 -9.062,-2.07 -13.153,-5.25 -7.373,0.029 6.274,7.162 -5.249,5.25 -0.425,7.437 7.904,6.141 7.887,13.121 -1.141,3.922 -3.365,-1.004 -7.887,0 -1.104,2.006 5.264,5.201 5.249,5.277 -0.842,5.327 -16.349,12.104 -21.027,7.873 0.742,5.42 7.017,5.282 10.529,7.92 0.826,6.098 -0.44,10.08 -2.639,13.137 -5.66,-6.961 -14.179,-4.908 -23.666,-2.623 -1.976,-5.805 10.691,-11.84 7.888,-2.627 5.759,-0.4 5.657,-6.65 5.265,-13.15 -7.179,2.855 -5.706,-3.133 -7.889,-5.28 -1.814,-1.761 -6.291,-0.586 -7.888,-2.625 -1.691,-2.115 -0.919,-3.457 -2.64,-5.248 -0.224,-0.263 -5.072,-9.187 -5.234,-13.136 -0.138,-3.368 11.462,-5.358 -2.639,-5.266 2.231,-6.297 1.691,-6.947 2.639,-18.385 -4.646,0.742 -8.158,-12.398 -10.528,-5.265 -5.356,-3.395 -4.771,-12.766 -15.762,-10.512 -1.813,7.07 5.427,5.094 7.889,7.871 -3.681,7.92 -13.608,-5.447 -18.416,2.641 -8.661,-3.936 8.791,-3.102 5.263,-10.512 -3.249,0.357 -9.91,-0.818 -10.505,-2.625 -0.663,-1.988 4.802,-5.432 5.242,-7.887 1.219,-6.777 -4.091,-21.723 7.888,-21.041 -2.293,-4.648 -8.784,-8.137 0,-10.5 7.387,0.031 -6.26,7.149 5.264,5.264 0.795,-6.93 -3.636,-8.643 -10.529,-7.918 -2.493,-8.707 7.101,-1.219 10.529,-5.248 5.442,-6.33 -4.948,0.695 -5.264,-2.625 -0.594,-6.576 3.165,-2.332 5.264,-5.266 6.314,-8.736 2.833,-27.353 15.761,-28.898 1.459,-5.832 -5.009,-3.748 -5.263,-7.889 1.489,-7.623 4.114,4.018 7.903,2.625 6.075,-1.605 15.855,-5.217 10.498,-10.514 8.791,3.493 12.635,11.92 18.417,18.405 18.607,3.24 17.243,-13.696 31.537,-7.891 -4.361,-5.23 0.24,-3.334 0,-10.514 -9.709,9.651 -12.11,-5.17 -21.024,5.25 -2.116,-0.494 -2.609,-2.623 -5.25,-2.623 1.057,-5.08 12.034,-0.216 7.889,-10.515 -2.562,4.465 -7.255,6.761 -15.761,5.267 -0.966,4.461 2.036,4.94 5.232,5.248 -0.501,2.129 -2.638,2.623 -2.623,5.262 -4.979,0.234 -3.096,-5.217 -5.265,-7.889 -0.695,-0.875 -4.422,0.819 -5.264,0 -0.757,-0.783 0.887,-4.629 0,-5.246 -1.405,-1.064 -6.098,0.383 -7.888,0 -7.572,-1.746 -6.562,-11.718 -21.01,-7.888 1.975,-4.94 20.045,-7.92 23.65,0 3.273,-0.246 3.512,-3.553 5.248,-5.264 -0.254,0.246 5.596,-3.566 5.264,-2.625 0.524,-1.496 -3.843,-3.426 -2.624,-5.266 1.767,-2.67 3.003,-0.648 5.28,-2.625 0.872,-0.785 -0.849,-4.412 0,-5.248 0.439,-0.476 5.094,0.496 5.232,0 0.742,-2.717 -14.333,-7.207 -2.623,-7.904 0.439,-5.68 -9.31,-1.172 -13.153,-2.625 11.762,5.113 4.885,5.666 -7.873,5.268 -0.487,10.048 2.153,0.941 7.873,2.621 -3.304,2.627 -16.711,13.556 -5.264,7.888 -0.65,10.733 -13.909,-4.045 -15.762,7.891 -9.099,-3.272 -4.831,-7.641 -7.873,-13.139 -2.354,2.024 -5.944,2.811 -10.528,2.627 6.043,5.774 -0.649,10.496 -7.888,10.512 -1.953,-8.106 7.224,-5.065 5.263,-13.139 -4.708,-0.353 -5.542,3.225 -10.505,2.627 -0.479,-1.095 4.438,-6.332 5.242,-5.267 -1.675,-2.192 -23.789,5.697 -36.795,2.64 2.223,-10.064 6.985,-17.582 10.528,-26.304 -3.073,2.211 -7.071,3.474 -13.153,2.625 0.648,-4.602 4.539,-5.975 10.528,-5.248 -1.52,-2.442 -7.34,-3.983 -2.64,-5.266 0.046,-3.75 -3.334,-0.477 -2.624,0 C 65.942,11.682 73.514,6.742 66.783,2.869 66.272,1.717 66.951,0.878 68.176,0.351 H 48.298 c 3.382,4.439 3.392,12.75 -2.54,13.03 -0.109,-3.613 1.235,-5.772 2.624,-7.887 H 43.118 V 0.351 Z m 75.542,0 c 1.225,0.527 1.906,1.366 1.397,2.518 2.5,0.27 2.329,-0.946 1.628,-2.518 z"
           style="fill:#ffffff;fill-opacity:1;fill-rule:evenodd;stroke:none"
           id="path1715"
           inkscape:connector-curvature="0" /><path
           d="m 539.991,63.124 c 3.536,-1.979 -1.383,-8.1 -2.529,-10.478 -4.549,2.912 -0.165,9.531 2.529,10.478"
           style="fill:#ffffff;fill-opacity:1;fill-rule:evenodd;stroke:none"
           id="path1717"
           inkscape:connector-curvature="0" /><path
           d="m 472.916,253.012 c -1.241,0.976 -4.151,2.127 -4.439,-0.182 -4.179,2.125 4.407,4.342 1.051,10.417 -4.961,3.372 -4.923,12.173 -15.221,9.748 0.538,5.523 8.097,3.474 8.756,3.337 1.116,-0.268 2.204,-3.652 3.145,-4.327 1.588,-1.144 4.988,-1.501 6.1,-4.188 0.677,-1.686 -1.192,-5.105 -1.242,-5.987 -0.064,-1.655 2.985,-0.843 3.023,-1.353 0.093,-1.608 -2.956,-5.989 -1.173,-7.465"
           style="fill:#ffffff;fill-opacity:1;fill-rule:evenodd;stroke:none"
           id="path1719"
           inkscape:connector-curvature="0" /><path
           d="m 455.645,240.449 c 2.845,-0.439 -0.871,-1.933 -2.894,-1.598 -2.846,0.44 0.87,1.916 2.894,1.598"
           style="fill:#ffffff;fill-opacity:1;fill-rule:evenodd;stroke:none"
           id="path1721"
           inkscape:connector-curvature="0" /><path
           d="m 442.16,244.333 c -0.308,-1.614 -2.904,-1.112 -2.842,-3.076 -4.117,0.458 -0.268,4.653 2.842,3.076"
           style="fill:#ffffff;fill-opacity:1;fill-rule:evenodd;stroke:none"
           id="path1723"
           inkscape:connector-curvature="0" /><path
           d="m 416.061,229.928 c -1.139,-4.069 -6.611,0.98 -3.077,2.832 1.632,-0.29 1.138,-2.896 3.077,-2.832"
           style="fill:#ffffff;fill-opacity:1;fill-rule:evenodd;stroke:none"
           id="path1725"
           inkscape:connector-curvature="0" /><path
           d="m 409.84,237.086 c 0.126,-0.1 1.465,0.147 1.484,0.061 1.148,-5.227 -6.57,-0.418 -4.5,1.294 -0.093,-0.082 2.854,-1.222 3.016,-1.355"
           style="fill:#ffffff;fill-opacity:1;fill-rule:evenodd;stroke:none"
           id="path1727"
           inkscape:connector-curvature="0" /><path
           d="m 405.825,334.724 c -0.333,-4.591 -7.684,3.583 -8.818,-1.842 -5.444,4.737 7.494,6.104 8.818,1.842"
           style="fill:#ffffff;fill-opacity:1;fill-rule:evenodd;stroke:none"
           id="path1729"
           inkscape:connector-curvature="0" /><path
           d="m 370.673,288.824 c 0.942,-3.251 -2.738,-2.219 -2.779,-4.57 -3.702,0.457 -0.325,5.739 2.779,4.57"
           style="fill:#ffffff;fill-opacity:1;fill-rule:evenodd;stroke:none"
           id="path1731"
           inkscape:connector-curvature="0" /><path
           d="m 326.189,217.338 c 2.33,0.513 2.406,-7.908 -1.294,-4.501 0.589,-0.542 1.399,4.522 1.294,4.501"
           style="fill:#ffffff;fill-opacity:1;fill-rule:evenodd;stroke:none"
           id="path1733"
           inkscape:connector-curvature="0" /><path
           d="m 297.735,260.631 c -2.296,-4.055 -3.904,-1.772 -8.696,-4.805 1.129,3.231 3.434,5.379 8.696,4.805"
           style="fill:#ffffff;fill-opacity:1;fill-rule:evenodd;stroke:none"
           id="path1735"
           inkscape:connector-curvature="0" /><path
           d="m 276.807,193.079 c -2.621,0.258 -3.476,2.399 -3.207,5.804 4.386,1.678 2.751,-3.177 3.207,-5.804"
           style="fill:#ffffff;fill-opacity:1;fill-rule:evenodd;stroke:none"
           id="path1737"
           inkscape:connector-curvature="0" /><path
           d="m 270.298,243.202 c -2.075,-3.715 -7.727,-1.919 -4.144,-7.586 -5.164,5.984 -4.55,-2.388 -11.763,-1.964 4.706,3.215 9.404,12.58 15.907,9.55"
           style="fill:#ffffff;fill-opacity:1;fill-rule:evenodd;stroke:none"
           id="path1739"
           inkscape:connector-curvature="0" /><path
           d="m 269.534,189.821 c -0.976,-2.685 -2.676,-0.318 -4.439,-0.181 0.969,2.668 2.676,0.318 4.439,0.181"
           style="fill:#ffffff;fill-opacity:1;fill-rule:evenodd;stroke:none"
           id="path1741"
           inkscape:connector-curvature="0" /><path
           d="m 256.032,193.714 c 3.437,-2.287 1.562,0.334 1.486,0.06 1.393,4.036 4.24,1.237 8.75,3.319 -0.765,-4.043 -6.026,-3.938 -5.561,-9.123 -2.217,1.206 -4.782,2.023 -4.675,5.744"
           style="fill:#ffffff;fill-opacity:1;fill-rule:evenodd;stroke:none"
           id="path1743"
           inkscape:connector-curvature="0" /><path
           d="m 260.829,185.008 c -2.108,-4.177 -9.969,3.054 -6.152,5.682 3.486,-0.326 3.489,-4.443 6.152,-5.682"
           style="fill:#ffffff;fill-opacity:1;fill-rule:evenodd;stroke:none"
           id="path1745"
           inkscape:connector-curvature="0" /><path
           d="m 231.115,186.753 c 0.576,1.851 1.769,3.119 4.318,3.145 -0.56,-1.85 -1.77,-3.11 -4.318,-3.145"
           style="fill:#ffffff;fill-opacity:1;fill-rule:evenodd;stroke:none"
           id="path1747"
           inkscape:connector-curvature="0" /><path
           d="m 200.299,179.56 c -2.449,-3.112 1.222,-2.857 -1.235,-5.987 -2.587,-0.558 -2.974,8.19 1.235,5.987"
           style="fill:#ffffff;fill-opacity:1;fill-rule:evenodd;stroke:none"
           id="path1749"
           inkscape:connector-curvature="0" /><path
           d="m 182.053,190.671 c 2.595,0.568 2.99,-8.188 -1.234,-5.986 1.084,1.359 1.452,3.411 1.234,5.986"
           style="fill:#ffffff;fill-opacity:1;fill-rule:evenodd;stroke:none"
           id="path1751"
           inkscape:connector-curvature="0" /><path
           d="m 104.198,65.952 c 5.657,-4.259 -4.286,-5.172 0,0"
           style="fill:#ffffff;fill-opacity:1;fill-rule:evenodd;stroke:none"
           id="path1753"
           inkscape:connector-curvature="0" /><path
           d="m 81.688,36.862 c -0.577,-1.841 -1.778,-3.109 -4.31,-3.134 -0.428,4.081 2.051,5.167 4.31,3.134"
           style="fill:#ffffff;fill-opacity:1;fill-rule:evenodd;stroke:none"
           id="path1755"
           inkscape:connector-curvature="0" /><path
           d="m 111.393,35.127 c 6.461,-0.719 9.097,2.053 11.66,4.916 -2.049,-0.136 -3.296,0.561 -4.519,1.294 -0.274,-1.16 0.094,-2.91 -1.346,-3.015 0.311,3.434 -4.334,1.468 -4.623,4.267 5.555,1.003 6.866,2.353 10.427,-1.068 -2.275,5.372 0.627,11.41 -2.155,16.22 -0.284,-1.16 0.077,-2.921 -1.365,-3.013 -4.368,2.535 -2.585,-0.629 -7.271,-3.26 0.502,0.264 -2.628,1.024 -4.431,-0.182 -0.949,-0.648 -1.018,-3.175 -2.841,-3.094 2.353,-3.905 -1.768,-10.132 4.925,-11.649 0.488,2.561 -2.354,3.705 -0.182,4.43 -0.178,-2.009 7.655,-2.645 3.137,-4.308 -0.133,1.56 -1.942,1.094 -1.416,-1.538 m 16.741,61.451 c 1.234,-3.77 3.201,11.054 1.043,10.417 -1.946,-2.004 -1.196,-6.49 -1.043,-10.417 m 26.994,-7.784 c 0.015,0.279 3.023,-1.356 3.023,-1.356 -0.637,-0.357 1.517,3.979 1.348,3.014 0.478,2.753 -0.65,2.063 -1.531,1.435 -0.226,-0.175 0.209,-1.262 0.062,-1.494 -0.795,-1.182 -2.768,0.452 -2.902,-1.599 m 2.537,10.477 c 2.179,0.36 1.208,3.626 1.226,5.969 -5.569,2.939 -6.346,-7.806 -1.226,-5.969 m 0.582,57.821 0.121,-2.954 2.963,0.121 -0.122,2.955 z m 0.365,-8.879 c 2.549,0.016 3.75,1.294 4.318,3.144 -2.251,2.033 -5.823,1.937 -4.318,-3.144 m 2.937,-35.448 c -0.258,-3.875 0.801,-6.347 4.682,-5.726 0.251,3.874 -0.799,6.337 -4.682,5.726 m 35.899,28.15 c 2.031,0.145 3.261,-0.562 4.493,-1.295 l -0.123,2.963 c -2.196,1.563 -3.678,1.432 -4.37,-1.668 m 7.394,0.303 c 4.316,-0.649 -2.181,-2.404 -1.294,-4.508 3.464,-0.641 10.084,2.825 5.724,4.69 -0.218,-5.239 -3.209,6.144 -4.43,-0.182 m 7.108,43.267 c 0.033,2.343 3.714,1.311 2.779,4.563 -2.196,-0.343 -5.487,0.305 -5.856,-1.721 1.151,-0.283 2.92,0.086 3.016,-1.364 -0.819,-0.016 -1.637,-1.259 0.061,-1.478 m 11.284,13.789 c 1.303,0.515 7.412,3.281 2.78,4.57 -0.649,-4.317 -2.404,2.181 -4.501,1.312 -0.322,-2.937 2.129,-2.853 3.147,-4.327 -3.109,0.673 -2.899,-5.896 -1.426,-1.555 m 109.698,71.21 c -4.616,1.307 3.115,2.574 2.787,4.571 -7.078,3.295 -6.842,-10.099 -2.787,-4.571 m 3.882,-22.068 c 0.175,-2.551 -0.998,-3.836 -2.788,-4.553 -0.369,1.134 -1.304,1.66 -3.014,1.356 -1.267,-4.125 8.449,-3.987 7.515,-2.651 -4.119,-0.812 3.483,5.661 -1.713,5.848 m 3.737,-19.115 c -2.738,5.841 -11.144,-2.633 -13.067,-6.455 5.152,-2.729 1.572,-2.877 -1.477,-0.061 -3.567,-7.666 -15.587,-15.035 -10.799,-25.639 -0.058,5.403 5.791,2.893 8.697,4.788 2.111,1.383 3.41,4.474 5.673,6.169 3.612,2.742 7.217,3.342 10.105,6.35 -0.522,9.5 4.357,14.018 5.005,22.434 -6.978,-0.287 -0.843,-5.989 -4.137,-7.586 m 4.639,31.313 c 5.241,-0.219 -5.047,-4.212 0.183,-4.43 2.328,1.793 4.452,5.996 7.281,3.257 0.358,5.272 -7.175,0.924 -7.464,1.173 m 6.552,21.017 c -2.128,0.496 -2.559,1.679 -4.432,-0.183 2.789,5.424 -7.165,7.069 -3.154,4.318 5.067,-4.691 -1.604,-2.459 -2.762,-4.561 3.194,-1.478 -1.877,-2.4 -1.322,-4.492 0.746,-2.658 6.02,-2.643 7.663,-5.62 -1.493,-0.062 -1.722,-1.273 -2.91,-1.599 1.41,3.817 -5.248,6.355 -6.039,2.728 1.804,-0.24 0.989,-1.613 0.122,-2.972 6.386,1.777 2.633,1.797 3.154,-4.309 11.554,0.946 0.716,13.702 9.68,16.69 m -6.351,10.104 c 2.051,0.033 3.22,0.837 4.387,1.669 0.378,-1.134 0.163,-2.9 1.599,-2.902 0.894,5.102 -5.886,5.555 -5.986,1.233 m 10.947,-49.93 c 0.85,6.222 -13.422,-2.946 -7.143,-6.212 0.343,3.948 3.678,5.155 7.143,6.212 m 58.853,-25.726 c 2.127,-0.278 2.603,-2.339 4.562,-2.771 -0.334,2.196 0.314,5.461 -1.721,5.846 0.064,-1.946 -2.542,-1.453 -2.841,-3.075 m 13.694,-8.349 c 7.209,0.766 -2.109,2.821 -2.963,-0.122 -0.026,2.558 -1.294,3.759 -3.146,4.328 l 0.365,-8.864 c 4.797,-1.107 2.92,3.942 5.744,4.658 m 5.16,-17.55 c 5.163,2.509 1.101,-4.994 4.632,-4.257 -0.619,3.403 -0.008,5.691 1.164,7.454 -2.756,-0.314 -4.904,-1.177 -5.796,-3.197 m 5.977,-1.234 c 9.843,2.972 2.728,7.326 0,0 m 2.538,10.469 c -1.187,-2.659 -4.764,-4.791 0.243,-5.916 0.283,1.16 -0.084,2.912 1.364,3.015 0.116,-0.892 0.281,-1.738 1.529,-1.417 l -0.121,2.963 c -1.477,-0.061 -1.804,1.127 -3.015,1.355 m 3.649,-88.758 c 6.118,4.237 1.156,-1.849 6.038,-2.711 1.165,1.754 1.784,4.033 1.183,7.446 -2.048,-0.145 -3.286,0.561 -4.51,1.312 2.659,-4.547 -7.204,-4.492 -2.711,-6.047 m -0.756,90.366 c 0.026,0.027 5.334,-2.288 1.416,1.538 8.005,3.226 1.249,3.279 -1.416,-1.538 M 468.191,79.44 c 2.06,-1.847 4.503,-0.738 5.865,1.719 -2.214,-0.343 -5.486,0.297 -5.865,-1.719 m -2.998,36.932 c -2.398,0.981 0.041,7.242 -4.682,5.727 -1.632,-1.391 1.081,-4.098 -5.787,-3.198 -0.212,-4.36 3.523,-4.416 3.319,-8.757 -1.485,-0.061 -1.814,1.127 -3.016,1.355 2.828,-10.136 -10.214,-3.449 -11.597,-6.413 6.338,-1.95 -0.708,-2.675 -1.225,-5.968 4.662,1.74 10.01,2.883 13.126,4.996 3.838,2.56 5.506,6.466 8.568,7.749 1.146,0.484 2.293,-1.811 3.015,-1.354 2.909,1.834 3.623,6.502 7.099,7.688 -3.037,0.833 -1.268,6.885 -4.744,7.22 3.215,-6.481 -2.872,-1.719 -4.076,-9.045 m -7.977,50.054 c 8.58,3.442 12.291,2.499 17.5,6.637 -0.675,-0.541 -3.209,0.556 -3.015,1.356 0.269,1.099 8.215,1.068 5.795,3.205 -7.683,-1.969 -23.824,-4.99 -20.28,-11.198 m 23,-90.948 c -0.072,1.972 2.533,1.462 2.833,3.093 -3.102,1.551 -6.96,-2.619 -2.833,-3.093 m -4.892,82.789 c 2.892,0.563 3.019,-1.877 4.562,-2.78 2.169,4.188 -4.105,6.489 -4.562,2.78 m 8.941,-1.112 c 2.745,0.323 4.911,1.178 5.802,3.198 -3.396,0.278 -5.554,-0.577 -5.802,-3.198 m 2.666,7.526 c 0.446,-0.905 4.59,-0.961 4.431,0.181 -0.001,0.018 -1.476,-0.087 -1.477,-0.06 -0.54,8.697 -3.246,0.44 -2.954,-0.121 M 475.533,81.22 c 3.578,-2.811 8.227,3.105 11.895,-0.99 -1.783,-0.248 -3.475,-0.596 -2.843,-3.093 2.691,2.286 9.808,0.472 11.729,3.46 -1.495,-0.045 -1.964,2.51 -0.121,2.952 0.892,0.124 1.73,0.29 1.416,1.538 -8.583,-0.162 -16.505,-0.932 -22.076,-3.867 m 20.077,88.263 c 0.723,2.51 -3.694,-0.316 -2.884,-1.597 1.017,-1.673 6.535,-2.299 2.945,0.121 -0.17,0.106 -1.401,-0.223 -1.469,-0.061 -0.651,1.445 1.302,1.159 1.408,1.537 m 7.463,-1.171 c 0.898,-2.13 -1.423,-7.727 1.79,-7.35 -1.587,6.844 3.908,-1.877 4.31,3.144 -2.874,0.483 -1.409,5.695 -6.1,4.206 m 77.551,23.927 c 2.579,-0.268 8.661,3.141 4.267,4.623 -0.051,-2.797 -4.85,-1.244 -4.267,-4.623 m 11.72,3.449 c -0.071,1.948 2.534,1.454 2.833,3.077 -3.102,1.569 -6.949,-2.627 -2.833,-3.077 m -126.664,17.011 2.962,0.121 c -0.07,1.494 1.11,1.805 1.355,3.034 -4.356,4.554 -3.605,2.148 -4.317,-3.155 m -6.769,20.469 c -2.657,-5.035 6.701,-2.318 2.954,0.121 1.61,-1.047 -3.559,-1.277 -2.954,-0.121 m -71.539,45.969 c -0.443,-4.683 4.982,-8.324 6.029,-2.711 -1.142,0.275 -2.912,-0.085 -3.005,1.355 5.975,-3.121 7.971,2.096 11.651,4.918 -6.145,-0.253 -6.239,-2.998 -14.675,-3.562 m -49.314,9.817 c -4.995,0.831 -5.294,-2.698 -5.674,-6.143 4.188,-0.071 3.538,4.324 5.674,6.143 m -15.11,-28.775 c 2.022,0.153 3.278,-0.544 4.5,-1.294 -0.328,2.745 -1.184,4.912 -3.205,5.803 0,-1.907 -1.809,-2.128 -1.295,-4.509 M 312.515,225.67 c 1.574,2.344 4.098,3.823 5.673,6.15 -2.577,-0.192 -4.619,0.159 -5.978,1.252 2.071,-3.588 -3.005,-7.32 0.305,-7.402 M 497.166,59.884 c 1.877,-4.588 -2.181,-3.686 -2.719,-6.049 2.516,1.479 7.935,0.293 7.211,4.753 -2.03,-0.153 -3.277,0.561 -4.492,1.296 m 115.595,121.023 c -0.708,-0.219 -1.377,-0.468 -1.988,-0.769 -1.161,-0.562 -0.732,-2.72 -1.365,-3.016 -1.246,-0.582 -3.163,0.315 -4.429,-0.183 -4.061,-1.576 -7.796,-4.505 -11.601,-6.403 -7.674,-3.832 -15.403,-6.96 -23.247,-11.338 -10.705,-5.958 -19.045,-10.974 -28.856,-18.967 -1.945,-1.585 -2.983,-1.306 -5.794,-3.206 -5.98,-4.004 -14.472,-9.959 -21.583,-15.69 -2.087,-1.688 -2.993,-3.379 -7.149,-6.231 -10.818,-7.388 -25.507,-16.33 -35.959,-26.681 2.529,-2.682 9.375,-0.92 14.856,-0.869 6.307,0.068 11.515,-0.048 13.31,0.548 4.558,-1.623 -0.802,-5.673 -1.164,-7.445 4.562,-0.892 5.325,1.715 8.81,1.841 -0.717,2.833 -6.783,-0.149 -4.683,5.726 2.361,-1.548 3.282,-4.67 7.576,-4.128 0.04,-3.505 0.026,-5.934 1.799,-7.341 3.034,-2.434 10.572,0.871 13.302,0.547 3.043,-0.344 2.949,-2.281 4.561,-2.772 0.97,-0.306 1.557,1.893 2.893,1.599 0.192,-0.026 0.495,-1.259 1.547,-1.417 2.022,-0.299 4.239,0.82 4.5,-1.293 -0.215,-5.996 -6.606,-0.42 -8.879,-0.365 -1.498,0.025 -4.697,-1.778 -7.325,-1.78 -2.506,-0.007 -4.729,1.563 -5.987,1.233 -6.57,-1.69 -10.342,-6.047 -15.916,-9.55 0.448,-6.003 6.268,-6.164 7.706,-7.098 1.872,0.408 1.757,4.494 -0.182,4.45 2.659,2.615 4.932,-0.808 3.198,-5.806 3.741,1.304 8.332,1.822 10.173,4.875 4.993,-3.328 -5.353,-4.449 -7.15,-6.229 2.932,-4.021 7.382,-6.415 7.941,-13.006 5.403,4.043 15.413,3.836 20.409,8.236 -3.567,4.015 1.341,9.315 5.491,10.6 0.363,-10.333 6.391,-25.68 -3.101,-32.729 -4.635,0.124 -10.82,-1.437 -13.371,0.939 -2.916,-2.531 -5.85,-5.053 -10.123,-6.335 -1.762,-4.536 -1.916,-10.564 -9.973,-9.313 -0.604,5.772 5.279,5.58 8.565,7.768 -4.018,5.465 1.092,12.629 2.224,17.872 -1.188,0.116 -6.844,-0.1 -13.249,-2.025 -1.495,-0.445 -3.373,-2.829 -4.319,-3.137 -4.633,-1.592 -7.934,-0.457 -8.625,-6.29 0.035,-1.921 1.897,-0.454 1.476,0.061 4.965,-6.071 5.529,-15.484 6.067,-25.439 H 120.88 c 1.329,5.131 1.577,12.205 1.721,14.489 0.115,-0.901 0.297,-1.746 1.546,-1.417 1.122,4.032 -3.006,1.582 -4.579,2.779 -0.422,0.331 0.359,2.705 -0.122,2.955 -1.476,0.8 -4.299,-0.83 -5.907,-0.243 -0.494,0.179 -0.468,4.801 -1.538,1.416 -0.274,-3.92 5.783,-0.937 4.683,-5.734 -1.486,-0.07 -1.813,1.118 -3.023,1.363 -0.727,-3.05 2.67,-2.701 3.145,-4.325 -0.1,0.317 -1.683,-2.672 -1.304,-4.502 0.344,-1.634 2.608,-4.663 3.9,-6.781 h -6.59 c -4.7,15.937 -10.6,30.495 -10.846,47.719 -1.135,1.347 -2.777,2.132 -4.553,2.79 -0.018,5.299 0.267,10.211 0.868,14.848 0.362,2.878 -5.854,12.432 5.491,10.6 0.01,-6.162 -2.033,-11.502 -3.639,-19.418 2.106,-0.862 0.624,4.283 1.286,4.492 0.875,0.297 2.004,-3.226 4.561,-2.773 2.886,0.502 0.127,3.906 4.196,6.11 1.851,-0.57 3.11,-1.771 3.137,-4.328 4.39,1.156 -1.539,3.113 -0.244,5.925 2.232,-3.25 8.07,-2.59 9.193,-7.037 2.687,-0.602 0.951,4.809 -0.243,5.927 -0.281,0.248 -2.873,-0.416 -2.973,-0.123 -0.586,1.77 2.517,0.8 2.912,1.6 1.443,2.982 -2.541,4.863 -4.701,5.724 1.257,2.662 2.552,5.256 7.22,4.752 0.229,16.875 2.158,32.186 7.063,44.737 2.017,-0.362 1.377,-3.651 1.72,-5.848 0.005,4.769 8.02,6.431 11.712,3.441 0.575,-3.849 -0.285,-6.383 -4.188,-6.082 -0.381,-2.592 4.027,-2.479 3.014,-1.373 2.889,-3.137 -1.659,-5.133 3.319,-8.74 6.676,-1.501 5.714,7.511 13.198,3.502 l -0.426,10.348 c -0.106,2.188 -1.832,0.107 -1.485,-0.062 -1.394,0.674 -2.768,7.815 -3.015,1.356 -3.196,-0.384 -0.884,5.211 -1.782,7.341 2.373,0.507 2.613,-1.294 4.493,-1.303 0.515,3.119 -1.17,3.885 -1.713,5.856 -2.103,-0.905 -3.519,-2.442 -4.265,-4.614 -0.237,-2.506 -2.119,0.095 -1.528,1.408 0.15,0.346 2.871,1.467 2.891,1.615 0.226,1.742 -0.705,7.012 -1.849,8.811 -2.075,3.248 -6.284,2.318 -7.698,7.09 2.335,2.689 5.139,-0.963 6.108,-4.188 2.657,-0.082 3.036,1.935 5.855,1.711 0.137,3.252 -1.41,4.668 -4.63,4.258 -5.526,0.207 4.218,3.863 2.962,0.121 5.208,2.451 1.984,9.533 2.407,13.44 0.389,3.646 2.862,8.9 2.537,10.479 -2.097,10.14 -0.69,25.862 -0.097,38.523 0.2,4.448 -5.463,10.132 2.468,11.955 -1.328,-11.925 3.633,-19.988 4.119,-27.993 0.218,-3.603 -2.384,-1.481 -2.842,-3.067 -1.198,-4.088 3.057,-9.56 3.571,-14.675 0.359,-3.641 -1.312,-7.024 -1.059,-10.417 2.096,-0.618 2.161,0.995 2.893,1.607 1.279,1.037 2.346,2.822 4.266,4.615 1.876,1.773 2.767,2.541 2.763,4.56 0.015,3.239 -2.429,10.17 2.606,8.992 -1.143,1.338 -2.785,2.141 -4.561,2.782 1.726,3.926 3.058,4.59 1.104,8.922 2.821,-0.024 1.234,-4.84 4.63,-4.231 3.134,0.59 -2.3,4.483 -3.206,5.785 3.215,5.816 2.392,-5.47 6.09,-4.204 0.017,-3.795 -5.411,-2.591 -7.211,-4.726 0.323,-1.728 2.762,-1.15 4.509,-1.304 1.067,-4.769 -5.144,-3.797 -1.173,-7.454 3.475,-3.208 2.553,-1.757 -1.18,-7.463 2.853,1.274 11.766,4.226 7.079,7.706 -4.002,2.732 5.96,1.098 3.146,-4.318 1.151,-1.346 2.795,-2.131 4.57,-2.78 -3.328,-4.392 0.583,-10.811 3.51,-13.189 -0.724,-5.016 -3.936,-7.759 -2.354,-14.918 2.082,3.332 2.442,9.588 2.963,0.122 2.45,-0.561 2.092,8.163 -0.304,7.403 1.63,4.549 5.68,-0.82 7.462,-1.181 2.108,1.879 0.246,16.902 2.165,19.357 -1.157,4.391 -3.106,-1.547 -5.918,-0.244 0.746,2.164 2.154,3.701 4.257,4.623 0.807,3.253 -4.397,4.518 1.295,4.5 -0.715,1.285 -1.412,2.588 -3.076,2.832 0.164,1.738 2.642,1.354 4.371,1.66 -2.437,4.416 -0.166,2.708 1.232,5.986 1.772,4.102 0.624,9.816 1.061,10.408 -0.091,-0.125 3.941,-1.665 4.44,0.183 0.359,11.998 -2.938,27.38 -0.044,37.055 1.322,18.41 2.002,-18.42 2.459,-23.623 0.312,-3.799 2.712,-6.059 0.303,-7.385 2.242,0.737 6.402,2.404 8.69,4.796 2.053,2.138 4.152,-0.073 8.818,1.843 2.789,1.158 4.584,6.21 7.262,3.275 -0.741,-1.859 -9.585,-3.293 -4.195,-6.109 -0.701,-4.345 -3.545,1.316 -3.006,1.355 -2.576,-0.21 0.03,-3.705 -1.305,-4.491 0.06,0.037 -11.314,2.389 -5.796,-3.197 4.145,0.187 -3.683,3.886 2.833,3.075 0.104,-1.439 1.856,-1.072 3.024,-1.355 0.443,-4.403 -5.309,-9.304 0.426,-10.373 -0.273,-3.51 -4.031,1.54 -5.977,1.233 1.202,-1.265 1.72,-3.272 1.729,-5.838 1.149,0.822 2.335,1.637 4.369,1.659 2.25,-2.632 -11.5,-2.632 -8.453,-10.721 2.659,-0.317 2.975,1.523 1.426,1.538 1.211,2.495 5.246,-0.394 8.818,1.842 -0.077,-0.046 0.513,2.571 1.408,1.538 1.498,-1.714 1.088,-0.435 1.416,1.545 l 7.402,0.305 c -3,-1.977 -6.089,-3.88 -8.637,-6.282 0.986,-2.98 3.963,-6.825 2.963,0.122 4.386,-1.883 -0.124,-7.333 -1.12,-8.94 5.964,1.611 4.179,6.107 5.56,9.123 -0.616,-3.019 4.876,-4.055 7.403,0.304 6.213,-3.166 -5.224,-1.634 -2.721,-6.039 0.609,-3.125 4.502,2.291 5.795,3.206 5.109,-1.452 -0.231,-5.762 3.269,-7.28 5.856,-0.02 -0.572,2.248 2.77,4.561 4.273,1.499 4.491,1.507 8.871,0.365 -5.435,2.648 -2.761,4.516 -4.847,10.166 2.979,-0.504 4.15,-2.936 7.514,-2.651 2.863,0.241 3.531,3.061 5.796,3.198 4.931,0.298 3.145,-3.873 7.454,-1.173 -0.067,-0.046 0.522,2.571 1.416,1.538 1.854,-2.117 15.677,7.563 15.969,8.08 0.799,1.338 -0.64,4.359 -0.243,5.907 0.136,0.52 5.928,5.492 -0.183,4.449 5.686,11.356 9.373,24.571 14.822,36.17 -0.527,2.623 1.257,3.08 1.417,1.537 -0.359,-4.435 -2.055,-7.612 -4.014,-10.539 0.963,-3.302 2.236,1.885 4.5,-1.295 2.244,3.618 2.561,9.036 5.43,12.079 -0.545,3.091 -3.866,-2.301 -5.977,1.232 -0.179,3.482 2.375,4.458 1.111,8.939 2.835,2.59 1.891,-0.051 5.916,0.245 -2.593,1.302 -3.19,4.795 -6.16,5.681 4.124,2.364 8.348,4.652 6.907,12.138 3.478,-0.327 3.654,3.858 5.675,6.151 2.877,3.252 -1.145,1.19 -0.244,5.916 0.208,1.053 2.209,3.182 2.79,4.555 0.425,1.088 0.565,3.182 1.293,4.508 2.41,4.469 7.547,10.137 9.671,16.699 0.78,2.381 0.064,6.712 1.128,8.94 0.312,0.657 2.682,1.05 2.895,1.599 0.307,0.77 -0.547,2.257 -0.123,2.962 0.343,0.563 2.704,1.112 2.893,1.599 0.294,0.708 -0.557,2.353 -0.121,2.954 1.822,2.468 5.68,3.888 7.15,6.23 1.912,3.011 -1.229,7.251 4.153,7.576 -1.897,-4.255 -3.519,-8.613 0.486,-11.833 0.109,-3.494 -4.07,0.372 -3.102,2.84 -5.251,-3.288 -3.724,-8.9 -5.359,-13.562 -0.116,-0.344 -2.838,0.223 -2.964,-0.121 -0.443,-1.29 2.356,-7.328 0.426,-10.357 -0.914,-1.465 -4.174,-0.938 -4.317,-3.145 1.182,-2.946 5.07,-0.975 7.403,0.304 1.114,0.611 2.14,2.777 2.84,3.085 1.648,0.755 4.289,-0.564 5.925,0.243 4.794,2.364 7.503,8.028 13.006,7.941 -4.407,-5.438 -10.937,-8.918 -17.28,-12.564 1.726,-3.889 7.998,-1.273 0.183,-4.439 -1.414,-2.035 1.685,-6.076 1.719,-5.856 -0.305,-1.649 -2.765,-1.097 -2.823,-3.084 -0.158,-5.69 3.114,-11.812 -0.687,-19.279 2.667,-0.082 3.036,1.926 5.847,1.719 -0.452,-3.604 2.835,-3.12 1.798,-7.34 -1.256,-0.331 -1.43,0.524 -1.553,1.415 -1.263,0.218 -1.368,-0.63 -1.426,-1.538 -2.668,0.97 -0.3,2.668 -0.183,4.449 -1.14,-0.84 -2.333,-1.663 -4.36,-1.676 -0.321,-0.693 -1.482,-4.814 -1.242,-5.97 0.827,-4.056 5.356,-5.193 4.856,-10.174 3.553,0.999 3.063,5.713 4.091,9.063 2.03,1.014 0.958,-4.216 1.66,-4.388 2.454,-0.612 12.205,5.837 14.423,9.487 0.79,1.313 3.809,3.037 2.902,1.6 1.201,1.894 -0.947,1.021 -0.122,2.97 0.951,2.233 4.022,1.018 1.225,5.969 -2.726,-2.705 -9.033,-2.111 -8.566,-7.767 -3.554,4.084 -6.217,1.129 -12.008,3.962 2.366,2.56 5.828,4.104 5.543,9.122 3.396,0.593 1.819,-4.223 4.623,-4.265 5.65,0.562 6.377,4.675 4.075,9.053 4.049,-4.943 7.671,-0.503 10.235,3.38 1.099,-5.778 9.655,2.024 6.099,-4.188 5.452,-0.742 5.541,3.44 10.225,3.379 0.659,-2.487 -1.04,-2.836 -2.833,-3.075 0.686,-6.474 11.944,2.284 7.212,4.735 0.977,2.694 2.684,0.336 4.44,0.183 2.236,0.221 -2.761,9.59 0.99,11.902 4.581,0.327 4.597,-4.284 4.805,-8.687 -5.538,-2.674 -8.44,-9.808 -12.772,-13.869 -1.482,-1.4 -3.981,-1.807 -5.786,-3.195 -3.291,-2.512 -5.369,-6.984 -8.523,-9.245 -1.488,-1.089 -4.559,-1.102 -5.847,-1.72 -4.593,-2.191 -6.955,-5.49 -11.469,-9.366 -1.673,-1.427 -4.772,0.29 -7.341,-1.782 -5.568,-4.51 -8.684,-9.32 -11.103,-18.244 -0.498,-1.867 -1.114,-3.806 -1.304,-4.493 -1.118,-4.345 -2.454,-12.267 0.791,-19.236 1.167,0.832 2.352,1.647 4.388,1.66 2.172,0.734 -0.669,1.869 -0.184,4.45 1.765,-1.182 4.042,-1.785 7.464,-1.192 -0.472,2.592 -2.685,3.267 -6.056,2.728 1.304,2.778 8.399,1.059 10.183,4.857 0.737,1.544 -0.038,5.604 1.129,8.941 0.723,2.119 3.648,4.406 4.18,6.107 0.545,1.736 -0.897,4.211 -0.244,5.908 1.178,3.06 5.08,4.282 4.136,7.586 2.484,-7.279 -9.005,-20.823 -6.238,-28.42 0.499,-3.06 6.506,-0.133 7.516,-2.65 1.726,0.314 1.13,2.754 1.294,4.492 1.367,-1.092 3.418,-1.443 5.977,-1.234 0.287,-8.448 10.078,-6.575 15.221,-9.748 3.294,0.353 -2.073,3.658 -0.304,7.402 1.04,4.76 2.055,-2.543 1.66,-4.387 2.295,-1.629 3.799,-4.117 7.576,-4.127 -1.606,2.893 -6.63,2.059 -6.221,7.158 1.977,-0.457 2.445,-2.509 4.562,-2.788 1.548,4.677 4.307,-0.606 4.256,4.631 7.495,-3.643 9.847,4.825 17.576,5.161 -2.308,-3.089 -4.708,-6.111 -10.113,-6.334 -4.076,-2.23 -4.464,-7.841 -2.476,-11.955 1.609,2.799 -0.838,7.895 4.014,10.539 2.489,0.642 2.838,-1.049 3.085,-2.849 4.076,0.994 3.909,5.886 5.552,9.123 l 7.402,0.303 c -1.051,0.785 -5.764,4.097 1.348,3.015 1.085,-0.155 1.686,-1.645 3.022,-1.355 4.149,0.92 -1.535,3.052 1.426,1.539 6.761,-0.82 -1.222,-2.888 -2.789,-4.554 -2.61,-2.771 -4.568,-5.958 -5.605,-7.646 -1.747,0.172 -1.371,2.651 -1.668,4.387 -0.81,-2.914 -11.956,-8.742 -5.551,-9.122 -10e-4,-3.777 -5.373,-3.727 -7.334,-1.781 -0.082,-2.667 1.936,-3.054 1.72,-5.864 8.703,3.394 17.562,6.605 20.105,15.656 6.711,-1.935 4.366,4.514 10.235,3.38 0.164,1.729 -0.428,2.61 -1.606,2.893 3.654,4.032 6.264,3.181 10.356,0.426 -0.258,-6.46 0.053,-6.812 -1.052,-10.418 0.525,-3.024 5.575,-1.163 6.1,-4.187 2.103,0.904 3.509,2.451 4.257,4.613 1.448,-3.065 6.422,-2.312 6.221,-7.142 -7.073,-2.222 -7.045,-8.792 -11.347,-12.329 -1.112,-0.906 -1.657,1.368 -1.538,1.426 -2.626,-0.926 -1.23,-3.549 -2.78,-4.57 -1.009,-0.66 -3.514,0.587 -4.44,-0.183 -0.758,-0.623 1.07,-1.889 1.538,-1.416 -1.304,-1.307 -6.66,-1.439 -4.188,-6.1 3.27,4.678 1.395,1.206 4.492,-1.294 -1.808,-4.313 -7.767,-0.363 -7.508,2.65 -3.814,-0.757 -4.292,-4.588 -8.704,-4.796 3.104,-2.909 -0.532,-2.937 -1.234,-5.985 -2.678,0.986 -0.32,2.683 -0.182,4.439 -1.908,-0.601 -2.214,-2.702 -4.311,-3.144 0.431,-1.594 2.979,-0.879 3.085,-2.834 2.411,2.563 8.315,2.249 11.711,3.441 1.306,0.471 1.164,1.57 1.348,3.023 6.227,-2.207 14.179,-0.878 23.614,2.459 7.515,2.641 22.96,6.732 28.341,-4.769 -4.19,-1.817 -9.056,-3.045 -14.665,-3.563 4.078,-2.904 9.383,-0.675 13.379,-0.929 2.12,-0.148 2.872,-1.475 4.501,-1.303 4.074,0.411 7.262,3.536 11.651,4.926 6.418,2.031 11.902,1.995 19.053,5.23 4.827,2.183 7.3,4.931 14.553,6.526 1.58,0.335 3.313,2.799 4.31,3.136 7.086,2.458 15.492,3.535 22.015,5.353 1.17,0.326 2.654,1.066 4.37,1.668 1.545,0.533 3.015,0.133 2.962,0.121 1.419,0.441 3.442,2.865 4.318,3.144 1.814,0.563 4.087,-0.335 5.909,0.245 3.414,1.063 6.681,3.432 10.616,5.038 v -13.325 c -0.476,-0.017 -0.935,-0.083 -1.364,-0.237 -1.551,-0.542 -1.91,-2.654 -2.84,-3.075 -1.632,-0.737 -1.886,1.428 -5.926,-0.244 -4.235,-1.767 -7.033,-5.867 -11.52,-7.888 -1.846,-0.825 -2.748,1.427 -3.033,1.363 -2.247,-0.563 -6.087,-4.549 -10.103,-6.342 -3.547,-1.591 -6.988,-1.096 -10.226,-3.389 -0.567,-0.397 -2.136,-1.01 -2.902,-1.598 -0.54,-0.424 -1.084,-2.865 -1.364,-3.023 -0.861,-0.471 -2.517,0.896 -4.431,-0.184 -1.064,-0.592 -2.199,-2.797 -2.833,-3.074 -1.674,-0.757 -4.181,0.307 -5.925,-0.244 -4.149,-1.303 -10.301,-5.576 -14.5,-8.012 -0.782,-0.458 -4.968,-0.883 -5.848,-1.719 -0.551,-0.537 0.821,-4.066 0.183,-4.44 -1.453,-0.852 -1.778,5.149 -5.978,1.233 -1.131,-1.055 -1.463,-2.949 0.122,-2.961 -2.53,-0.479 -14.994,-2.994 -17.515,-6.638 -0.641,-0.942 2.454,-1.484 3.023,-1.373 2.837,-4.426 -2.923,0.176 -4.43,-0.182 -3.278,-0.719 -7.309,-5.758 -11.652,-4.918 1.01,-1.473 3.452,-1.381 3.128,-4.31 -1.968,0.432 -2.436,2.502 -4.553,2.78 -2.704,0.358 -2.298,-4.027 -1.355,-3.023 -0.243,-0.245 -5.614,0.248 -5.863,-1.729 -0.109,-0.779 0.815,-2.056 1.537,-1.426 -1.774,-1.534 -1.197,0.96 -2.954,-0.121 -2.047,-1.233 0.072,-2.825 -1.305,-4.491 -1.135,-1.361 -4.512,-0.508 -5.854,-1.721 -1.049,-0.948 -0.647,-4.605 -2.711,-6.039 0.831,-1.158 1.644,-2.334 1.66,-4.369 2.531,0.025 3.794,1.252 4.317,3.137 -0.733,2.162 -1.869,-0.67 -4.439,-0.184 0.856,5.85 6.387,7.399 9.931,10.773 2.937,0.322 -3.57,-16.69 -2.721,-6.021 -3.665,-0.376 -0.237,-5.039 0.243,-5.924 3.224,0.35 3.027,3.848 2.66,7.515 1.968,-0.449 2.444,-2.511 4.569,-2.779 2.525,1.469 3.069,4.755 2.59,8.991 1.417,0.024 1.221,-1.75 1.607,-2.893 1.432,0.103 1.064,1.855 1.355,3.015 3.428,-6.743 19.115,3.528 10.052,7.837 0.281,3.528 4.063,-1.487 4.553,-2.781 11.265,1.804 17.057,4.47 27.742,10.019 5.496,2.862 11.328,5.6 15.977,8.071 1.261,0.669 1.98,2.658 2.841,3.084 2.395,1.24 5.483,0.818 7.325,1.782 0.561,0.301 7.606,4.446 4.265,4.63 1.238,0.992 6.483,0.642 11.702,3.449 1.168,0.615 2.099,2.732 2.843,3.076 4.269,1.977 9.307,-0.776 5.663,6.16 1.66,-4.58 11.958,-2.102 10.183,4.865 2.212,-0.691 3.826,-2.026 6.048,-2.719 1.221,2.409 5.439,2.057 8.026,3.21 z M 532.626,0.351 c 3.425,3.429 6.638,7.051 9.494,10.999 4.991,-2.022 -2.927,-3.757 -1.164,-7.473 6.573,0.594 5.791,7.96 13.014,7.96 -0.838,1.14 -1.654,2.324 -1.667,4.37 0.87,-3.602 5.996,1.073 2.97,0.122 4.692,1.489 7.728,2.781 10.288,1.902 0.539,-0.194 0.871,-4.864 1.545,-1.416 5.01,-5.928 4,-11.232 1.482,-16.464 z"
           style="fill:#ffffff;fill-opacity:1;fill-rule:evenodd;stroke:none"
           id="path1757"
           inkscape:connector-curvature="0" /><path
           d="m 196.658,160.142 c 1.722,-0.164 2.61,0.438 2.893,1.598 2.677,-0.969 0.309,-2.667 0.183,-4.43 l -2.955,-0.122 c 0.319,2.416 -1.504,2.497 -1.668,4.37 0.689,2.308 1.534,0.168 1.547,-1.416"
           style="fill:#ffffff;fill-opacity:1;fill-rule:evenodd;stroke:none"
           id="path1759"
           inkscape:connector-curvature="0" /><path
           d="m 449.31,250.563 0.304,-7.403 c -2.034,0.387 -1.385,3.651 -1.719,5.856 -4.944,-1.901 -2.217,-3.034 -8.82,-1.842 -1.798,-0.709 -2.971,-2.011 -2.77,-4.561 -4.391,1.159 -4.617,1.151 -8.88,-0.365 0.733,1.222 1.439,2.461 1.294,4.5 -8.666,-2.768 -12.191,-1.973 -19.062,-5.23 -1.686,-2.141 -0.559,-0.146 -0.06,1.476 7.556,2.051 8.468,9.269 14.378,10.975 2.692,0.761 3.656,-1.27 4.5,-1.305 3.759,-0.167 5.715,1.559 8.872,0.365 2.236,-0.847 4.678,-4.384 11.963,-2.466"
           style="fill:#ffffff;fill-opacity:1;fill-rule:evenodd;stroke:none"
           id="path1761"
           inkscape:connector-curvature="0" /><path
           d="m 446.712,241.561 c 5.689,-5.231 -3.011,0.208 -2.962,-0.122 -0.43,2.811 2.836,0.239 2.962,0.122"
           style="fill:#ffffff;fill-opacity:1;fill-rule:evenodd;stroke:none"
           id="path1763"
           inkscape:connector-curvature="0" /><path
           d="m 398.381,227.721 c 2.213,-0.684 3.807,-2.037 6.038,-2.719 -0.188,-5.204 -5.662,3.482 -5.856,-1.721 -2.234,0.561 0.512,1.918 -0.182,4.44"
           style="fill:#ffffff;fill-opacity:1;fill-rule:evenodd;stroke:none"
           id="path1765"
           inkscape:connector-curvature="0" /><path
           d="m 301.541,240.039 c 3.152,-2.576 -1.62,-3.992 -5.622,-7.637 -0.301,-0.274 -2.766,-1.315 -2.884,-1.607 -0.197,-0.479 0.493,-2.668 0.122,-2.963 -0.625,-0.469 -2.358,0.408 -2.962,-0.121 -2.522,-2.176 -3.918,-8.012 -7.212,-4.735 0.552,1.833 3.224,1.821 4.309,3.135 0.64,0.767 0.589,3.889 1.304,4.501 0.571,0.503 2.282,-0.255 2.955,0.122 1.53,0.856 0.285,2.144 1.363,3.024 2.627,2.144 8.837,2.034 8.627,6.281"
           style="fill:#ffffff;fill-opacity:1;fill-rule:evenodd;stroke:none"
           id="path1767"
           inkscape:connector-curvature="0" /><path
           d="m 298.317,210.273 c 2.551,-0.852 1.062,-3.368 -1.364,-3.015 -0.154,-1.738 0.448,-2.627 1.609,-2.91 -1.242,-4.96 -2.988,1.531 -4.493,1.295 0.052,2.795 4.841,1.226 4.248,4.63"
           style="fill:#ffffff;fill-opacity:1;fill-rule:evenodd;stroke:none"
           id="path1769"
           inkscape:connector-curvature="0" /><path
           d="m 114.207,110.817 c -3.504,-1.988 -7.026,-3.952 -11.651,-4.925 -0.641,2.497 1.041,2.836 2.841,3.084 -1.143,1.337 -2.785,2.123 -4.561,2.781 -3.477,-0.544 -0.626,-6.598 1.72,-5.865 -4.417,-3.924 -5.876,5.789 -3.328,8.765 0.291,0.326 2.811,1.299 2.902,1.591 1.218,3.609 -3.114,2.961 -0.304,7.401 0.736,1.145 1.705,-2.931 1.599,-2.9 1.798,-0.536 2.658,9.439 2.719,6.046 2.186,-1.729 3.585,-5.509 1.781,-7.341 3.688,1.727 8.722,6.92 5.492,10.6 1.16,2.867 0.951,-1.563 3.014,-1.356 -2.686,-7.265 -1.563,-9.185 -2.224,-17.881"
           style="fill:#ffffff;fill-opacity:1;fill-rule:evenodd;stroke:none"
           id="path1771"
           inkscape:connector-curvature="0" /></g></g></g></svg>