<?xml version="1.0" encoding="UTF-8" standalone="no"?>
<!-- Created with Inkscape (http://www.inkscape.org/) -->

<svg
   xmlns:dc="http://purl.org/dc/elements/1.1/"
   xmlns:cc="http://creativecommons.org/ns#"
   xmlns:rdf="http://www.w3.org/1999/02/22-rdf-syntax-ns#"
   xmlns:svg="http://www.w3.org/2000/svg"
   xmlns="http://www.w3.org/2000/svg"
   xmlns:sodipodi="http://sodipodi.sourceforge.net/DTD/sodipodi-0.dtd"
   xmlns:inkscape="http://www.inkscape.org/namespaces/inkscape"
   version="1.1"
   id="svg2260"
   xml:space="preserve"
   width="816"
   height="816"
   viewBox="0 0 816 816"
   sodipodi:docname="blue-white-grunge.svg"
   inkscape:version="0.92.4 (5da689c313, 2019-01-14)"><metadata
     id="metadata2266"><rdf:RDF><cc:Work
         rdf:about=""><dc:format>image/svg+xml</dc:format><dc:type
           rdf:resource="http://purl.org/dc/dcmitype/StillImage" /><dc:title></dc:title></cc:Work></rdf:RDF></metadata><defs
     id="defs2264"><clipPath
       clipPathUnits="userSpaceOnUse"
       id="clipPath2276"><path
         d="M 0,612 H 612 V 0 H 0 Z"
         id="path2274"
         inkscape:connector-curvature="0" /></clipPath></defs><sodipodi:namedview
     pagecolor="#ffffff"
     bordercolor="#666666"
     borderopacity="1"
     objecttolerance="10"
     gridtolerance="10"
     guidetolerance="10"
     inkscape:pageopacity="0"
     inkscape:pageshadow="2"
     inkscape:window-width="1920"
     inkscape:window-height="1018"
     id="namedview2262"
     showgrid="false"
     inkscape:zoom="0.84963363"
     inkscape:cx="634.47458"
     inkscape:cy="410.53111"
     inkscape:window-x="-8"
     inkscape:window-y="-8"
     inkscape:window-maximized="1"
     inkscape:current-layer="g2268" /><g
     id="g2268"
     inkscape:groupmode="layer"
     inkscape:label="abstract-469-publicdomainvectors.org"
     transform="matrix(1.3333333,0,0,-1.3333333,0,816)"><g
       id="g2270"><g
         id="g2272"
         clip-path="url(#clipPath2276)"><path
           d="M 611.998,1.018 H 2.078 v 610.418 h 609.92 z"
           style="fill:#00adef;fill-opacity:1;fill-rule:evenodd;stroke:none"
           id="path2278"
           inkscape:connector-curvature="0" /><path
           d="M 56.404,6.998 C 65.469,2.597 64.792,5.146 73.84,3.132 71.525,7.284 70.183,12.402 66.094,14.756 65.525,5.202 57.502,14.313 56.404,6.998 m 56.163,19.37 c 0.035,3.858 5.289,2.47 3.879,7.746 H 108.7 c -0.546,-4.389 0.467,-7.267 3.867,-7.746 m -5.8,34.871 c -2.48,0.103 -2.702,2.47 -5.812,1.935 -3.02,-4.778 6.579,-5.698 5.812,-1.935 M 93.198,59.297 v -5.801 c 5.669,-0.229 7.978,11.327 1.945,11.612 -0.08,-2.662 0.91,-4.253 1.933,-5.811 z m 5.823,11.623 c 2.877,5.221 6.103,-5.313 9.679,-5.812 -1.479,6.914 -4.999,11.794 -9.679,15.491 2.514,-4.812 -5.687,-8.031 0,-9.679 m 17.425,30.993 c 5.47,1.592 5.015,-2.73 9.679,-1.934 0.245,3.469 -1.922,4.517 -5.801,3.869 2.549,5.356 -7.666,6.653 -1.933,3.878 0.067,-2.674 -0.921,-4.266 -1.945,-5.813 m 0,100.715 c 0.443,1.49 0.045,3.81 1.945,3.866 0.637,-8.553 11.857,-17.674 17.424,-9.678 -3.219,0.83 -2.462,4.744 -5.812,9.678 0.45,-0.681 -0.83,-2.819 -1.945,-1.932 -0.796,0.603 0.87,5.334 0,5.799 -4.174,2.23 -13.153,2.765 -19.358,0 4.971,-0.18 2.759,-7.563 7.746,-7.733 m 29.043,38.727 c 9.423,4.402 7.831,-1.455 9.69,-5.823 0.574,3.97 5.243,3.799 5.8,7.757 -2.178,0.399 -3.001,2.15 -3.877,3.879 -6.171,1.138 -5.972,-3.64 -9.669,0 0.075,-2.663 -0.904,-4.255 -1.944,-5.813 m 52.297,0 c 6.089,0.966 7.921,-4.572 9.677,1.934 -2.888,0.33 -7.153,-0.693 -7.733,1.944 3.992,-1.705 8.689,5.017 3.867,5.812 -1.735,-3.445 -7.865,-2.489 -5.811,-9.69 m -54.231,25.17 c -7.825,6.813 -4.561,-6.221 0,0 m 23.248,77.467 c -2.144,-1.705 5.38,-1.705 5.801,-1.921 0.967,-0.525 -0.358,-4.63 1.933,-3.891 5.056,2.73 -4.936,8.042 -7.734,5.812 M 58.337,342.071 c 5.198,1.432 6.091,0.829 9.691,3.867 -0.666,-0.558 -2.656,0.761 -1.934,1.933 0.967,1.591 9.412,2.627 5.812,5.812 h -5.812 c 1.33,-7.791 -8.149,-4.765 -7.757,-11.612 m -5.812,1.921 c 4.686,1.797 7.911,5.015 9.68,9.691 -3.401,-1.115 -11.38,2.342 -11.614,-1.933 5.642,-1.695 2.179,-2.9 1.934,-7.758 m 7.746,23.247 c -3.446,-1.069 -8.036,-0.999 -9.68,-3.877 8.167,-2.355 -5.811,-7.735 0,-7.746 2.901,5.368 7.922,-3.355 9.68,1.934 -6.671,1.422 -1.279,5.835 0,9.689 m 96.831,13.559 c -2.548,0.012 -1.758,3.378 -3.856,3.867 -2.225,-3.968 3.03,-9.236 3.856,-3.867 m -13.547,3.867 c -0.057,0.33 -3.304,-0.797 -1.945,-1.934 1.923,-1.615 7.132,0.889 7.757,-1.933 1.553,3.787 -3.901,3.856 -3.878,5.8 0,-0.022 3.298,0.477 1.944,1.934 -1.393,1.534 -5.891,0.888 -7.756,1.945 -0.893,0.501 -1.479,7.223 -3.862,1.933 0.535,-2.183 7.24,-4.3 7.74,-7.745 m -92.964,5.812 h 3.879 c -0.022,1.933 1.564,2.286 1.934,3.867 -2.281,0.296 -4.391,3.457 -5.813,0 2.344,-0.398 1.189,-2.138 0,-3.867 m 29.049,7.733 h 3.878 v 3.891 H 79.64 Z m -11.612,0 c 4.846,-0.307 6.056,2.992 7.745,5.825 -4.845,0.329 -6.056,-2.98 -7.745,-5.825 m 30.993,15.515 h 3.877 v 3.867 h -3.877 z m -13.558,9.679 c 1.047,-1.16 6.137,0.705 5.801,1.933 0.677,-2.445 -9.434,6.154 -7.745,1.945 0.103,-0.227 1.734,0.183 1.944,0 0.666,-0.625 -0.619,-3.208 0,-3.878 M 73.84,456.319 c 9.821,-5.277 7.211,6.768 0,0 m 15.503,3.879 c -1.513,-0.432 -3.845,-0.057 -3.88,-1.933 5.904,1.388 7.047,-1.98 11.613,-1.946 1.132,5.199 -7.956,9.885 -9.679,5.813 1.177,-0.115 2.292,-0.285 1.946,-1.934 m 34.848,0 c -3.156,-4.743 -3.821,9.6 -5.8,5.8 -1.366,-2.559 1.592,-4.993 1.933,-5.8 0.859,-2.15 2.479,-2.105 3.867,0 m 13.558,112.339 c 1.012,-2.583 1.791,-7.075 5.806,-5.813 -0.461,6.722 -7.729,10.726 -5.806,5.813 m -7.746,0 h 3.878 v 3.866 h -3.878 z m -9.679,-3.878 c 4.982,2.445 -1.308,11.759 -3.878,5.811 4.038,-0.569 -2.878,-5.243 3.878,-5.811 m 63.904,5.811 c 2.246,1.626 -5.534,3.651 -5.812,3.868 -0.978,0.762 -4.925,9.11 -9.679,5.811 4.299,-1.252 13.21,-11.351 15.491,-9.679 m -23.249,19.369 c -11.214,5.597 -5.089,-4.788 0,0 m -15.49,5.801 c -2.571,9.6 -9.128,3.026 0,0 m 32.927,-280.818 c 3.065,-0.171 1.512,-4.947 5.812,-3.879 v 5.825 c -2.281,-0.32 -5.5,0.317 -5.812,-1.946 m -36.806,40.673 c 0.222,3.662 6.41,1.342 5.823,5.8 -6.272,-2.388 -1.49,6.268 -7.756,3.879 -1.013,-4.948 -2.56,-6.779 1.933,-9.679 m -25.164,-9.691 c 3.327,-0.091 4.959,1.489 5.811,3.879 -3.332,0.101 -4.975,-1.491 -5.811,-3.879 m -11.624,131.708 c 7.615,2.946 13.46,-5.71 15.502,-1.944 -4.254,3.207 -11.465,9.11 -15.502,1.944 M 46.725,402.101 c -1.502,-0.431 -3.816,-0.057 -3.879,-1.934 h 5.812 c 0.552,5.062 -0.71,8.325 -5.812,7.746 -0.58,-3.811 2.611,-3.845 3.879,-5.812 m -7.746,73.6 c -0.011,-10.192 8.132,-2.037 0,0 M 73.84,582.215 c 0.5,2.72 4.253,2.195 5.8,3.879 -0.466,-2.776 -3.179,-3.276 -3.867,-5.812 6.222,-1.706 4.01,5.016 7.746,5.812 -0.165,-3.013 5.624,-1.343 1.944,0 -6.022,4.562 -9.036,2.093 -15.502,3.867 -0.546,-4.414 0.466,-7.278 3.879,-7.746 m 123.946,9.68 c -1.61,-5.459 2.723,-5.028 1.944,-9.68 5.102,-0.579 6.334,2.674 5.8,7.746 -3.656,-0.444 -4.287,2.173 -7.744,1.934 m 13.557,-5.801 c -4.51,0.717 2.246,2.343 1.932,3.867 -0.198,1.036 -4.076,1.626 -3.866,3.878 0.023,0.33 3.901,-1.922 3.866,-1.944 3.681,3.07 -5.578,11.442 -3.866,3.879 -0.376,1.591 2.4,2.819 1.934,3.866 -0.12,0.296 -5.477,3.708 -5.813,3.878 -1,0.489 -7.092,4.96 -7.744,0 3.41,-1.763 6,-4.333 7.744,-7.744 -3.332,-0.774 -4.975,2.877 -5.8,0 5.754,-0.171 8.024,-13.774 11.613,-9.68 m 24.027,24.989 c -1.313,-3.269 -1.654,-6.628 1.154,-9.498 -7.342,-4.129 -14.842,9.884 -25.181,3.867 -0.533,3.05 1.72,3.321 1.922,5.631 z m -22.367,0 c -1.469,-0.966 -3.028,-1.838 -5.54,-1.753 2.879,-2.308 3.015,-7.312 5.812,-9.69 2.19,0.375 1.07,1.945 0,1.945 9.994,4.083 -6.743,-17.892 5.813,-19.37 -4.822,-3.537 -4.6,1.354 -5.813,-3.877 1.094,-4.369 3.027,2.353 5.813,-1.935 0.592,-5.117 -2.69,-6.357 -7.745,-5.8 0.359,1.558 1.932,1.921 1.932,3.867 -4.844,2.548 -6.066,-7.654 -7.745,-1.933 -1.967,-1.263 -2.013,-4.471 -5.8,-3.878 -0.177,5.276 3.213,3.901 0,7.744 -3.776,-0.215 -0.688,-6.368 -5.812,-1.933 -2.935,2.537 -13.71,10.27 -13.569,15.491 -3.412,-3.605 -5.658,0.842 -9.69,1.934 2.61,-2.684 7.347,-8.986 11.647,-11.613 0.864,-0.535 3.098,0.626 3.855,0 6.091,-5.129 10.726,-14.639 15.491,-17.435 1.848,-1.092 1.712,1.955 1.945,1.944 2.235,-0.136 5.756,-6.54 5.812,-1.944 6.233,-3.879 -6.955,-4.505 -5.812,-9.68 -1.302,1.433 -2.354,2.604 -3.867,3.879 -4.999,4.105 0.313,5.857 -7.756,9.678 0.487,-0.238 -4.021,2.093 -3.868,1.935 -1.234,1.376 -0.477,6.3 -7.757,3.878 5.402,-3.004 8.456,-8.349 15.502,-9.69 -0.489,-2.435 -3.844,-1.958 -3.877,0 0.801,-6.097 -15.725,-4.766 -9.668,-9.68 -2.736,-3.845 -6.569,7.519 -9.702,9.68 -8.445,1.887 -17.05,3.593 -25.171,5.812 -7.671,-4.164 1.752,-9.748 -3.878,-7.747 -2.292,0.797 0.33,-3.73 0,-5.812 -3.304,-0.09 -5.016,1.444 -5.806,3.868 -6.978,-2.718 -13.143,2.934 -17.425,3.879 -3.031,0.671 -6.734,-0.889 -9.69,0 -0.688,0.203 -3.566,3.832 -3.867,3.877 -3.947,0.479 -9.935,-2.878 -13.569,-1.933 -13.256,3.436 -19.813,11.988 -27.104,23.225 3.133,2.923 9.31,7.882 13.546,3.879 -1.388,7.005 -9.827,6.949 -17.435,7.745 -3.525,3.466 -4.528,7.45 -4.632,11.443 h 131.612 c -0.306,-0.734 -0.501,-1.443 0.843,-1.753 1.531,0.781 4.5,1.238 7.533,1.753 z M 2.078,609.979 c 0.322,0.394 0.683,0.764 1.096,1.104 h 5.97 c -0.673,-2.757 0.417,-3.89 -3.087,-7.565 6.804,-2.578 3.779,4.839 5.652,7.565 h 4.098 c 3.193,-7.255 -5.228,-4.394 -5.882,-7.565 -0.586,-2.843 7.057,-5.265 3.878,-13.557 6.494,1.764 0.956,3.595 1.923,9.679 1.733,-1.502 4.39,-2.081 7.768,-1.945 -3.51,-2.412 -9.611,-9.747 0,-9.679 -2.309,-5.209 -10.112,0.011 -13.569,0 2.633,-4.458 4.316,-9.884 7.745,-13.546 -1.91,-5.949 -5.163,2.207 -7.745,1.933 3.924,-4.492 6.437,-10.349 13.569,-11.612 -1.376,-5.88 -7.547,2.412 -9.691,3.868 -0.619,0.42 -5.323,-3.64 -3.878,1.944 -5.312,1.842 -3.076,-10.453 -3.868,-11.635 0.058,0.113 -3.855,2.195 -3.878,1.944 -0.085,-1.444 2.491,-5.403 3.878,-5.812 3.424,10.009 10.203,10.294 17.437,3.868 -3.207,-14.15 9.662,-12.273 17.419,-15.491 -1.257,1.967 -4.459,2.013 -3.867,5.8 2.251,-0.296 3.452,0.431 3.867,1.957 1.876,-0.057 1.506,-2.378 1.933,-3.89 5.687,1.648 -2.513,4.89 0,9.702 7.467,-2.878 10.51,-10.179 9.679,-21.315 -2.945,4.822 -3.702,4.105 -7.745,3.868 -1.513,-0.092 -1.956,1.99 -3.867,1.944 -2.434,-0.068 -5.835,-1.944 -5.812,-1.944 -2.713,0.124 -0.439,3.082 -1.934,3.878 -2.548,1.364 -8.24,-5.562 -9.673,-1.934 2.86,9.224 -7.024,5.437 -7.768,5.801 -3.765,1.933 -3.299,5.14 -7.735,5.823 -6.067,-1.343 -2.53,-5.163 -1.934,-9.69 -2.188,-0.586 -3.232,-0.022 -3.979,0.838 v 22.464 c 0.033,-0.018 0.068,-0.037 0.101,-0.055 0.779,5.038 5.779,5.836 5.812,11.614 -2.355,-1.406 -4.272,-1.558 -5.913,-1.144 z m 0,-67.655 c 2.714,-0.297 6.174,1.016 7.847,-0.781 -0.553,-3.085 -5.961,-1.319 -7.847,-3.076 z m 0,-8.287 c 0.032,-0.082 0.067,-0.166 0.101,-0.251 2.468,2.707 9.48,0.854 9.668,5.813 3.423,-0.468 4.436,-3.334 3.879,-7.747 -4.488,-0.614 -7.433,0.319 -9.669,1.934 -3.889,-8.553 7.712,-5.777 7.746,-5.801 5.005,-2.991 6.193,-6.38 11.624,-9.69 5.835,3.503 -5.51,5.937 -1.933,13.557 6.727,-6.187 3.827,1.298 13.552,-1.933 0.699,3.299 -1.513,3.663 -3.879,3.867 1.763,3.367 6.791,5.027 9.679,1.945 0.307,-5.459 -5.471,-4.857 -7.745,-7.746 1.945,-2.582 1.831,-7.221 5.812,-7.745 3.463,0.524 -1.559,2.888 0,5.801 0.921,1.763 9.008,1.421 7.745,5.811 5.732,-3.388 -1.115,-10.304 0,-15.491 -1.734,9.123 -20.541,-7.175 -15.491,5.812 -1.569,-0.364 -1.927,-1.944 -3.872,-1.933 -0.098,-3.321 1.438,-5.005 3.872,-5.812 -0.625,-4.128 -8.45,0.319 -9.673,1.933 -1.985,-1.251 -2.019,-4.435 -5.824,-3.866 -0.784,-4.675 3.538,-4.22 1.945,-9.68 7.382,-1.591 7.501,4.106 9.68,7.734 6.528,-0.784 -5.165,-7.506 3.872,-5.8 -1.78,-3.412 -6.784,-3.561 -9.673,-5.812 -0.665,-3.617 4.305,-9.805 3.867,-7.745 0.244,-1.103 -1.473,-2.731 -1.934,-1.946 4.356,-7.176 6.171,-2.467 9.674,-5.801 0.994,-0.943 -1.291,-2.399 -1.934,-1.933 1.774,-1.296 3.219,-0.705 5.812,-1.944 0.899,-0.432 1.177,-3.526 1.934,-3.867 3.531,-1.673 6.767,-0.593 9.678,-5.824 1.422,-2.547 1.821,-2.661 0,-5.812 -3.354,6.176 -14.126,3.468 -21.296,5.812 -4.368,-1.081 2.337,-3.013 -1.934,-5.812 -4.544,7.849 -3.219,-1.535 -9.691,-1.933 5.124,5.095 -6.011,3.821 -7.745,7.745 1.137,-0.888 0.978,-2.764 1.922,-3.879 0.66,-0.739 3.481,-1.318 3.879,-1.933 0.278,-0.387 -3.054,-5.71 3.889,-5.8 0.08,-2.878 -11.51,-2.81 -1.945,-3.879 -0.489,-4.537 -8.501,-1.115 -9.679,0 -1.575,-0.353 -1.934,-1.945 -3.866,-1.945 -0.354,-5.492 12.67,2.342 9.678,-5.812 -5.708,-1.083 -7.597,1.649 -11.725,2.124 v 7.989 c 0.029,-0.137 0.062,-0.277 0.101,-0.423 2.901,0.558 13.995,2.491 7.746,5.813 -0.108,-1.184 -0.279,-2.287 -1.934,-1.934 -0.431,1.501 -0.062,3.822 -1.934,3.867 -0.026,-3.029 -3.269,-2.815 -3.979,-5.149 v 67.135 c 0.565,0.115 1.227,0.131 2.047,-0.01 -0.372,2.123 -1.087,3.66 -2.047,4.783 z m 0,-533.252 v 445.653 c 4.388,-1.381 10.351,-1.19 13.648,-3.676 -10.203,-6.017 9.906,-2.184 7.768,-11.613 -6.153,-0.318 -6.478,5.153 -13.569,3.879 -3.219,3.832 0.171,2.456 0,7.734 -4.3,1.069 -2.753,-3.696 -5.8,-3.867 5.459,-1.637 5.391,-11.544 5.8,-13.558 0.079,-0.442 2.593,0.615 1.922,1.945 0.591,-1.182 2.383,-1.307 0,-1.945 6.79,-4.833 14.815,-8.45 21.32,-13.557 -5.26,-4.38 -6.114,-7.427 -11.618,-7.745 0.267,-7.474 6.546,-8.952 5.812,-17.437 3.401,4.05 10.372,0.08 5.806,-3.867 8.001,-0.353 5.875,6.427 13.558,1.934 -4.658,8.234 -11.192,5.959 -19.364,7.745 3.179,3.265 10.492,2.401 13.552,5.8 -4.748,2.594 3.486,5.87 -1.934,7.758 1.262,1.979 4.441,2.012 3.867,5.812 5.255,-5.448 4.811,-1.547 11.624,0 -7.313,3.071 -0.756,15.832 -3.879,21.303 1.098,4.014 3.032,4.117 5.813,1.945 2.075,7.223 -4.811,5.504 -3.879,11.601 1.712,-1.489 4.368,-2.07 7.746,-1.934 0.341,4.847 -2.968,6.074 -5.801,7.746 0.165,3.776 8.292,-4.072 5.801,5.824 3.964,-0.57 3.81,-5.244 7.757,-5.824 0.898,3.72 -5.971,8.349 1.933,7.757 -1.387,2.525 -11.061,0.239 -11.624,0 -4.356,4.06 10.493,20.03 17.436,17.435 1.399,-0.534 -2.559,-5.697 -1.933,-5.822 2.61,-0.501 6.29,5.892 5.8,5.822 3.299,-1.261 1.223,-4.458 -1.933,-3.888 0.313,-2.254 3.52,-1.628 5.812,-1.934 2.49,-0.035 0.71,2.467 0,1.934 5.289,3.9 7.745,3.354 9.679,7.767 0.835,1.865 -3.702,3.162 -3.855,3.868 -0.934,3.775 3.656,7.245 5.8,11.623 5.3,1.99 1.99,-5.857 1.933,-5.811 0.887,-0.694 4.157,3.411 7.746,0 0.665,-0.649 -2.878,-9.578 3.878,-5.812 -0.233,4.912 -2.82,7.505 -7.745,7.745 1.336,1.546 3.002,5.312 0,5.812 -0.342,4.209 6.87,0.888 9.679,1.934 -8.9,-4.72 7.347,-4.755 11.623,-7.746 0.347,-1.649 -0.756,-1.843 -1.933,-1.933 v -3.879 c -4.509,1.308 -5.186,6.438 -9.69,7.745 6.813,-7.392 9.128,-19.279 25.181,-17.425 0.358,-6.323 -4.555,-9.325 3.862,-9.689 -8.059,-0.979 -6.273,-11.783 -15.486,-11.625 3.316,-1.854 3.902,-6.425 7.746,-7.757 -0.04,-8.404 -16.936,-10.076 -13.546,-15.479 -0.876,-2.809 -2.457,0.67 -5.824,0 -2.621,-0.535 -0.341,-2.855 -1.933,-3.867 -2.332,-1.49 -6.244,1.751 -5.812,1.933 -3.39,-1.432 -4.044,-8.997 -9.679,-5.812 -7.348,-3.388 3.48,-12.909 -7.746,-11.612 1.456,-3.674 5.778,-1.343 1.946,-5.812 7.665,0.455 8.302,7.928 5.8,13.557 6.512,-1.354 6.346,3.969 9.679,5.812 5.692,-1.523 -1.968,-4.128 -1.934,-3.878 -0.267,-2.559 3.6,-0.739 3.879,-1.934 0.454,-2.058 -2.753,-15.729 5.8,-15.502 2.456,0.489 1.957,3.866 0,3.889 3.049,4.777 10.401,-2.365 9.69,-7.756 -4.196,4.368 -6.607,-1.616 -13.557,0 -2.263,3.549 -5.067,6.551 -7.745,9.679 -4.123,0.91 -3.68,-2.764 -3.879,-5.812 -1.797,-0.433 -4.055,0.557 -5.812,0 -2.491,-0.763 -0.325,-2.74 -1.921,-3.867 -5.636,-4.004 -1.769,1.888 0,-3.891 1.12,-3.672 -5.614,-11.293 3.855,-11.612 -1.536,-4.265 -3.879,-7.733 -9.679,-7.744 0.046,1.887 2.365,1.512 3.878,1.944 -2.247,3.561 -10.282,1.331 -7.757,9.679 -3.065,0.171 -7.382,-0.933 -7.734,1.933 -1.547,-0.204 -5.88,-6.404 -1.945,-5.812 -0.779,-6.528 -7.512,5.152 -5.812,-3.867 -4.936,0.854 -8.911,2.708 -11.624,5.801 -3.469,2.299 -3.992,-9.418 -3.867,-9.678 3.265,-6.427 12.836,-5.028 19.37,-1.935 -7.49,-3.695 -0.409,-7.155 3.878,-9.68 -0.222,-3.651 -6.403,-1.352 -5.812,-5.811 0.853,-1.74 1.7,-3.469 3.867,-3.878 3.054,0.261 0.012,2.092 0,1.945 0.598,4.127 7.979,10.18 1.945,15.479 1.246,3.298 4.436,1.217 3.867,-1.933 3.856,0.023 2.457,5.289 7.746,3.878 -0.177,-2.74 -0.313,-5.494 1.944,-5.8 0.313,-4.221 -6.869,-0.898 -9.69,-1.945 3.321,-5.733 0.41,-17.675 11.624,-15.491 -5.243,4.162 -5.635,5.789 -3.878,13.556 6.813,-2.433 10.623,-10.839 11.624,-13.556 -0.313,-2.275 -3.543,-1.627 -5.8,-1.933 0.363,-1.57 1.932,-1.935 1.921,-3.879 4.857,2.297 11.101,2.866 13.558,3.879 1.837,0.728 1.222,2.24 0,1.933 4.424,1.092 7.894,-3.97 15.502,1.933 4.947,-0.204 6.779,-3.548 9.679,-5.812 3.594,1.672 -6.255,7.177 1.934,9.691 -1.422,1.808 -3.521,2.923 -5.812,3.867 -0.187,5.538 6.602,2.764 9.69,3.877 0.927,0.331 3.958,3.88 3.862,3.88 2.61,0.159 6.096,-3.821 5.812,-3.88 4.908,1.15 4.185,6.951 9.69,5.802 -0.369,1.569 -1.945,1.923 -1.933,3.878 -6.347,-4.537 -4.135,-7.825 -5.813,1.935 -4.378,-1.081 2.343,-3.016 -1.944,-5.813 -3.435,1.729 -4.914,5.413 -11.607,3.878 -0.751,8.292 -7.342,10.76 -11.625,15.491 -0.551,5.29 11.562,-3.435 5.801,1.934 3.725,2.559 6.791,-1.285 7.757,9.691 5.238,-0.557 14.349,2.718 11.618,-5.825 5.09,-0.568 1.531,7.531 7.746,5.825 -0.682,-2.548 -3.412,-3.037 -3.878,-5.825 1.041,-1.534 2.019,-3.127 1.945,-5.8 3.042,3.412 10.378,2.548 13.557,5.8 0.83,3.22 -7.216,-0.158 -7.757,-1.909 -6.824,0.556 6.852,5.231 0,5.8 0.455,3.378 10.925,0.807 9.691,-3.891 5.8,1.287 -1.86,4.151 0,7.758 2.377,-0.842 3.975,-2.49 3.867,-5.801 5.135,1.968 0.142,14.081 9.702,11.613 -1.012,-7.165 -3.305,-4.868 3.855,-3.867 2.577,-4.846 -7.649,-6.062 -1.933,-7.746 -5.847,-5.13 -15.946,-6.016 -15.491,-17.436 4.731,-3.014 5.59,-9.895 11.612,-11.612 -1.411,-3.457 -3.514,-0.285 -5.812,0 -1.888,-7.029 10.834,-4.14 9.691,0 -8.36,1.546 -5.266,10.271 -3.879,17.413 4.845,-3.583 5.59,3.743 7.757,3.878 5.744,0.33 5.943,-7.064 13.546,-7.745 -1.609,-6.13 -5.636,-9.85 -9.678,-13.546 5.032,-2.492 -1.492,-11.59 1.944,-11.624 -3.935,-7.313 -5.556,6.675 -1.944,7.744 -0.047,1.878 -2.367,1.504 -3.868,1.935 -2.679,0.285 0.825,-7.871 -3.878,-1.935 -2.623,-3.228 1.097,-10.803 -9.691,-9.689 -0.068,3.31 1.434,5.017 3.879,5.812 -4.322,4.083 -9.167,7.62 -11.613,13.557 -7.216,2.071 -3.071,-7.256 -9.701,-5.8 1.921,-5.427 5.174,2.798 7.756,-1.945 -0.313,-2.276 -3.526,-1.638 -5.812,-1.935 0.62,-4.48 -0.301,-7.426 -1.944,-9.689 2.433,-0.66 7.955,-1.627 13.557,-3.867 0.921,4.128 -2.758,3.696 -5.801,3.867 -7.37,3.344 7.546,-0.137 5.801,3.878 1.723,-6.038 5.954,-9.553 7.757,-15.49 2.297,-0.809 1.012,3.445 1.933,3.866 -0.813,-0.364 5.88,-2.093 5.812,-1.933 0.057,-0.125 -2.456,-3.719 -1.933,-3.879 1.444,-0.409 6.522,3.06 9.69,1.946 0.592,-0.217 0.944,-6.46 1.933,-1.946 3.714,-0.785 0.177,-8.871 7.746,-5.812 -1.012,-10.055 4.469,-13.613 11.636,-15.48 -1.735,-7.415 -10.834,1.605 -9.703,-5.823 -2.808,2.354 -2.587,7.747 -7.744,7.757 1.011,2.866 2.877,4.867 3.866,7.746 -5.209,1.319 -3.742,-4.016 -5.801,-5.812 -3.725,-1.388 -2.78,7.95 -3.877,9.679 -0.723,1.137 -2.179,-1.24 -1.946,-1.934 -0.71,2.126 -3.145,3.799 1.946,3.867 -1.422,3.459 -3.52,0.273 -5.813,0 -1.143,-6.79 9.156,-6.368 3.867,-11.612 -1.803,1.421 -2.912,3.526 -3.867,5.812 -3.111,-3.685 1.655,-9.827 -7.745,-5.812 1.956,-3.857 8.569,-3.059 7.745,-9.691 3.867,3.23 2.468,-0.17 7.757,0 -1.069,-4.856 2.565,-6.619 1.933,-9.689 -0.42,-2.06 -4.777,-0.604 -5.823,-1.935 -0.323,-0.42 2.781,-4.641 0,-5.8 -2.258,0.318 -1.62,3.526 -1.922,5.8 h -9.69 c 5.255,-4.095 1.779,-1.205 0,-5.8 -0.381,-1.013 5.869,-6.744 -1.945,-5.812 3.623,3.435 -1.558,4.914 0,11.612 -4.123,0.91 -3.679,-2.763 -3.867,-5.8 -9.259,3.343 2.166,6.789 1.933,7.735 -1.001,4.241 -6.648,5.674 -5.8,5.822 -0.455,-0.091 -3.122,-3.286 -1.934,-3.879 -2.724,1.355 -0.046,4.209 -1.945,5.812 -0.222,0.17 -4.038,-2.592 -5.812,-1.933 -3.867,1.434 -1.421,1.615 -7.745,0 -0.324,-9.451 6.812,-2.4 9.678,-5.822 -5.237,-5.472 -8.757,-0.661 -15.49,-3.857 0.489,-2.445 3.855,-1.957 3.878,0 2.633,-0.602 1.61,-4.857 1.934,-7.757 -5.704,11.589 -4.26,-10.679 0,-3.867 4.452,-1.512 1.887,-11.999 -3.868,-9.679 7.001,-5.106 -1.688,-6.528 1.934,-11.624 2.275,0.319 1.633,3.526 1.934,5.8 12.021,-1.263 8.832,-9.166 3.878,-15.479 5.289,2.458 8.565,6.926 13.558,9.679 4.566,-2.855 3.599,-4.094 9.679,-1.944 -1.968,-2.536 -1.889,-7.132 -3.879,-9.68 5.198,-1.762 2.32,3.913 3.879,5.812 0.522,0.626 3.355,-0.649 3.89,0 1.757,2.173 0.801,5.062 3.855,7.757 2.832,-1.705 7.512,-1.546 5.813,-7.757 1.722,1.502 4.378,2.083 7.756,1.933 1.609,4.141 -3.981,4.402 -5.812,5.824 0.421,-0.341 -5.647,5.8 -5.812,5.8 -2.013,-0.022 -4.435,-5.778 -3.878,-5.8 -3.413,0.205 -1.968,6.95 -5.812,5.8 -4.635,0.774 1.086,-8.814 -5.812,-5.8 -0.603,10.294 11.971,7.393 13.557,15.479 2.014,-2.979 -0.454,-6.265 3.867,-7.744 2.68,-0.899 6.022,1.888 5.823,1.944 2.156,-0.615 1.866,-4.948 5.801,-3.879 5.044,-3.797 -5.523,-0.59 -7.734,0 0.898,-10.112 9.492,-3.696 11.612,-9.689 1.889,0.057 1.502,2.376 1.933,3.889 3.391,-0.478 0.826,-10.942 -3.866,-9.69 2.912,-4.152 4.737,1.387 9.678,-1.934 v -5.812 c -4.941,-0.079 -2.364,1.444 -1.932,3.867 -3.31,0.091 -5.022,-1.432 -5.813,-3.867 6.967,-3.854 -3.878,-12.592 13.558,-13.558 2.104,0.466 1.314,3.833 3.878,3.878 -1.42,1.797 -3.53,2.923 -5.812,3.869 -3.042,5.266 7.223,-4.232 13.57,-1.934 -0.599,-3.946 -3.879,-5.164 -5.812,-7.77 4.822,-2.24 8.2,-5.981 7.734,-13.544 -1.621,4.184 -12.346,-0.717 -13.558,3.856 -4.623,-4.744 -7.643,-3.732 -7.745,-9.668 -4.488,4.686 -6.676,-1.524 -9.691,-3.868 -5.431,0.022 4.623,5.277 -3.866,3.868 -0.313,5.48 5.823,4.525 5.811,9.668 -0.842,2.889 -2.48,-0.739 -5.811,0 -0.814,1.478 3.878,3.832 3.866,3.889 -0.619,3.923 -12.045,8.917 -15.491,5.799 0.546,3.994 5.17,3.891 7.757,5.835 0.609,4.494 -0.324,7.428 -1.944,9.68 -4.17,-5.13 -10.447,-3.617 -17.437,-1.934 -1.456,-4.276 7.877,-8.722 5.812,-1.934 4.243,-0.295 4.168,-4.9 3.879,-9.69 -5.29,2.105 -4.204,-2.308 -5.812,-3.889 -1.337,-1.298 -4.635,-0.432 -5.812,-1.934 -1.246,-1.558 -0.677,-2.547 -1.945,-3.867 -0.165,-0.194 -3.737,-6.769 -3.856,-9.679 -0.102,-2.48 8.445,-3.947 -1.945,-3.879 1.644,-4.639 1.246,-5.119 1.945,-13.545 -3.423,0.546 -6.011,-9.134 -7.757,-3.879 -3.946,-2.502 -3.515,-9.407 -11.613,-7.745 -1.336,5.208 3.999,3.752 5.813,5.799 -2.713,5.835 -10.026,-4.014 -13.569,1.946 -6.381,-2.901 6.477,-2.287 3.878,-7.745 -2.394,0.262 -7.302,-0.604 -7.74,-1.934 -0.488,-1.466 3.538,-4.003 3.862,-5.811 0.898,-4.994 -3.014,-16.005 5.812,-15.503 -1.69,-3.424 -6.472,-5.995 0,-7.736 5.442,0.024 -4.613,5.267 3.878,3.879 0.586,-5.106 -2.679,-6.368 -7.757,-5.834 -1.837,-6.415 5.232,-0.897 7.757,-3.867 4.009,-4.664 -3.645,0.513 -3.878,-1.934 -0.438,-4.844 2.332,-1.718 3.878,-3.879 4.652,-6.437 2.088,-20.153 11.612,-21.292 1.075,-4.297 -3.69,-2.761 -3.877,-5.812 1.097,-5.616 3.031,2.96 5.823,1.934 4.475,-1.183 11.681,-3.843 7.734,-7.746 6.477,2.573 9.309,8.783 13.569,13.559 13.71,2.388 12.704,-10.09 23.235,-5.813 -3.213,-3.854 0.178,-2.456 0,-7.746 -7.153,7.11 -8.921,-3.809 -15.489,3.868 -1.559,-0.365 -1.923,-1.933 -3.868,-1.933 0.779,-3.742 8.866,-0.159 5.812,-7.747 -1.888,3.289 -5.345,4.982 -11.612,3.881 -0.712,3.286 1.5,3.639 3.855,3.866 -0.369,1.568 -1.944,1.933 -1.933,3.877 -3.668,0.173 -2.281,-3.844 -3.879,-5.812 -0.512,-0.645 -3.258,0.603 -3.878,0 -0.558,-0.578 0.654,-3.41 0,-3.866 -1.035,-0.784 -4.493,0.283 -5.812,0 -5.579,-1.286 -4.834,-8.634 -15.48,-5.811 1.456,-3.64 14.769,-5.835 17.425,0 2.411,-0.182 2.587,-2.618 3.867,-3.878 -0.188,0.181 4.123,-2.628 3.878,-1.935 0.386,-1.101 -2.831,-2.523 -1.933,-3.879 1.302,-1.968 2.212,-0.478 3.89,-1.933 0.642,-0.58 -0.626,-3.252 0,-3.868 0.323,-0.35 3.753,0.366 3.855,0 0.546,-2.002 -10.56,-5.31 -1.933,-5.823 0.324,-4.185 -6.859,-0.863 -9.691,-1.934 8.667,3.767 3.6,4.174 -5.8,3.88 -0.359,7.405 1.586,0.694 5.8,1.932 -2.434,1.935 -12.312,9.988 -3.878,5.813 -0.478,7.906 -10.248,-2.981 -11.613,5.812 -6.704,-2.41 -3.56,-5.629 -5.8,-9.68 -1.735,1.491 -4.38,2.071 -7.757,1.936 4.452,4.253 -0.478,7.733 -5.812,7.744 -1.439,-5.972 5.323,-3.731 3.878,-9.68 -3.469,-0.26 -4.083,2.376 -7.74,1.936 -0.353,-0.808 3.27,-4.666 3.862,-3.881 -1.234,-1.614 -17.527,4.197 -27.11,1.945 1.639,-7.415 5.147,-12.954 7.757,-19.38 -2.263,1.628 -5.209,2.56 -9.69,1.934 0.477,-3.391 3.344,-4.402 7.757,-3.867 -1.12,-1.798 -5.409,-2.934 -1.945,-3.879 0.033,-2.763 -2.457,-0.352 -1.934,0 -4.498,-3.185 1.081,-6.824 -3.878,-9.678 -1.388,-3.128 9.139,-3.128 7.757,0 5.17,0.557 -5.164,-7.507 3.866,-5.812 -0.465,-3.413 -3.332,-4.413 -7.745,-3.867 1.41,-4.254 9.082,-6.437 3.879,-11.623 4.412,-0.546 7.278,0.463 7.734,3.877 2.979,-3.741 -1.507,-16.481 -9.679,-15.501 0.847,-1.719 1.7,-3.447 3.878,-3.87 -1.421,-3.458 -3.532,-0.282 -5.812,0 2.423,-5.902 1.479,-7.527 -1.945,-11.611 0.681,-2.63 2.305,-5.384 3.869,-8.171 h -8.243 c -1.892,3.895 -7.427,4.147 -11.117,6.213 1.167,7.621 -2.855,10.065 -5.812,13.569 -7.057,-4.243 3.458,-14.682 -9.679,-13.569 1.211,-1.592 9.782,-6.789 7.758,0 2.111,-1.206 3.361,-3.283 3.758,-6.213 z"
           style="fill:#ffffff;fill-opacity:1;fill-rule:evenodd;stroke:none"
           id="path2280"
           inkscape:connector-curvature="0" /><path
           d="m 613.161,61.956 c -0.261,0.234 -0.521,0.459 -0.786,0.672 0.292,0.166 0.553,0.34 0.786,0.518 z"
           style="fill:#ffffff;fill-opacity:1;fill-rule:evenodd;stroke:none"
           id="path2282"
           inkscape:connector-curvature="0" /><path
           d="m 581.385,193.989 c 0.788,-8.229 -8.743,-3.526 -3.125,0.626 0.982,0.723 2.966,0.996 3.125,-0.626"
           style="fill:#ffffff;fill-opacity:1;fill-rule:evenodd;stroke:none"
           id="path2284"
           inkscape:connector-curvature="0" /><path
           d="m 532.012,166.32 c -5.977,-1.271 -4.067,9.295 0.588,11.27 2.011,-4.194 -2.606,-7.069 -0.588,-11.27"
           style="fill:#ffffff;fill-opacity:1;fill-rule:evenodd;stroke:none"
           id="path2286"
           inkscape:connector-curvature="0" /><path
           d="m 498.895,146.842 c -3.61,-1.802 -8.133,-8.183 -10.024,-1.27 10.693,-2.843 -0.168,16.802 10.024,1.27"
           style="fill:#ffffff;fill-opacity:1;fill-rule:evenodd;stroke:none"
           id="path2288"
           inkscape:connector-curvature="0" /><path
           d="m 495.094,160.604 c -0.876,3.42 -0.39,6.579 -1.286,10.011 4.387,2.064 6.376,-8.609 1.286,-10.011"
           style="fill:#ffffff;fill-opacity:1;fill-rule:evenodd;stroke:none"
           id="path2290"
           inkscape:connector-curvature="0" /><path
           d="m 486.349,157.448 c -3.888,4.571 0.671,7.456 3.716,10.658 0.214,-3.836 1.185,-7.824 -3.716,-10.658"
           style="fill:#ffffff;fill-opacity:1;fill-rule:evenodd;stroke:none"
           id="path2292"
           inkscape:connector-curvature="0" /><path
           d="m 596.282,244.725 c -2.107,6.562 6.776,2.918 9.369,6.279 2.962,-7.379 -4.805,-5.035 -9.369,-6.279"
           style="fill:#ffffff;fill-opacity:1;fill-rule:evenodd;stroke:none"
           id="path2294"
           inkscape:connector-curvature="0" /><path
           d="m 588.779,239.694 c -9.702,0.52 6.596,10.994 0,0"
           style="fill:#ffffff;fill-opacity:1;fill-rule:evenodd;stroke:none"
           id="path2296"
           inkscape:connector-curvature="0" /><path
           d="m 474.427,163.048 c -10.723,1.046 1.462,10.14 0,0"
           style="fill:#ffffff;fill-opacity:1;fill-rule:evenodd;stroke:none"
           id="path2298"
           inkscape:connector-curvature="0" /><path
           d="m 454.417,160.496 c -4.663,8.65 12.21,5.312 0,0"
           style="fill:#ffffff;fill-opacity:1;fill-rule:evenodd;stroke:none"
           id="path2300"
           inkscape:connector-curvature="0" /><path
           d="m 453.764,165.51 c -3.078,0.821 -7.285,-4.047 -9.384,1.85 4.121,4.386 7.262,3.774 9.384,-1.85"
           style="fill:#ffffff;fill-opacity:1;fill-rule:evenodd;stroke:none"
           id="path2302"
           inkscape:connector-curvature="0" /><path
           d="m 458.143,171.161 c -12.633,-4.873 0.868,13.387 0,0"
           style="fill:#ffffff;fill-opacity:1;fill-rule:evenodd;stroke:none"
           id="path2304"
           inkscape:connector-curvature="0" /><path
           d="m 487.502,196.264 c -2.173,-0.027 -4.361,-0.086 -6.883,-1.897 -0.664,1.76 0.632,3.131 -0.642,4.993 l 3.759,2.521 z"
           style="fill:#ffffff;fill-opacity:1;fill-rule:evenodd;stroke:none"
           id="path2306"
           inkscape:connector-curvature="0" /><path
           d="m 578.706,262.835 c 2.019,-4.743 -8.732,-6.962 -11.862,-10.673 -0.567,7.766 5.431,6.657 11.862,10.673"
           style="fill:#ffffff;fill-opacity:1;fill-rule:evenodd;stroke:none"
           id="path2308"
           inkscape:connector-curvature="0" /><path
           d="m 444.325,191.774 c -9.205,-3.335 -6.603,9.852 0,0"
           style="fill:#ffffff;fill-opacity:1;fill-rule:evenodd;stroke:none"
           id="path2310"
           inkscape:connector-curvature="0" /><path
           d="m 536.803,256.466 c -2.454,0.046 -4.887,0.024 -3.752,-2.515 -9.092,-3.116 1.428,12.322 3.752,2.515"
           style="fill:#ffffff;fill-opacity:1;fill-rule:evenodd;stroke:none"
           id="path2312"
           inkscape:connector-curvature="0" /><path
           d="m 448.043,202.411 c -9.426,-4.502 -6.097,12.365 0,0"
           style="fill:#ffffff;fill-opacity:1;fill-rule:evenodd;stroke:none"
           id="path2314"
           inkscape:connector-curvature="0" /><path
           d="m 454.863,228.716 c -8.63,-4.654 -5.3,12.216 0,0"
           style="fill:#ffffff;fill-opacity:1;fill-rule:evenodd;stroke:none"
           id="path2316"
           inkscape:connector-curvature="0" /><path
           d="m 547.336,293.415 c -0.283,3.843 4.222,6.771 6.864,10.035 2.477,-4.292 -2.023,-7.187 -6.864,-10.035"
           style="fill:#ffffff;fill-opacity:1;fill-rule:evenodd;stroke:none"
           id="path2318"
           inkscape:connector-curvature="0" /><path
           d="m 391.038,226.684 5.617,3.765 c -1.311,-4.076 3.018,-9.265 -2.468,-12.517 0.351,2.646 -0.827,5.577 -3.149,8.752"
           style="fill:#ffffff;fill-opacity:1;fill-rule:evenodd;stroke:none"
           id="path2320"
           inkscape:connector-curvature="0" /><path
           d="m 406.056,228.593 c -5.369,-5.465 -5.613,1.858 -5.648,4.372 2.407,1.173 3.87,-2.355 5.648,-4.372"
           style="fill:#ffffff;fill-opacity:1;fill-rule:evenodd;stroke:none"
           id="path2322"
           inkscape:connector-curvature="0" /><path
           d="m 427.297,245.548 c -2.444,0.037 -4.88,0.015 -3.752,-2.515 -6.989,-2.006 -1.204,6.449 -3.161,8.755 2.953,1.129 4.711,-3.644 6.913,-6.24"
           style="fill:#ffffff;fill-opacity:1;fill-rule:evenodd;stroke:none"
           id="path2324"
           inkscape:connector-curvature="0" /><path
           d="m 417.225,268.688 3.742,2.508 2.513,-3.751 c -2.732,-2.823 -4.511,-0.901 -6.255,1.243"
           style="fill:#ffffff;fill-opacity:1;fill-rule:evenodd;stroke:none"
           id="path2326"
           inkscape:connector-curvature="0" /><path
           d="m 381.577,252.945 c -5.083,-1.95 -7.078,8.101 -0.623,5.007 0.643,-1.769 -0.644,-3.134 0.623,-5.007"
           style="fill:#ffffff;fill-opacity:1;fill-rule:evenodd;stroke:none"
           id="path2328"
           inkscape:connector-curvature="0" /><path
           d="m 287.205,203.271 c 1.133,-2.924 -3.658,-4.695 -6.247,-6.904 l -2.514,3.749 c 1.832,0.727 1.29,1.922 0.627,3.138 2.72,0.059 4.84,-3.027 8.134,0.017"
           style="fill:#ffffff;fill-opacity:1;fill-rule:evenodd;stroke:none"
           id="path2330"
           inkscape:connector-curvature="0" /><path
           d="m 269.041,210.111 c -1.338,-4.079 2.99,-9.268 -2.481,-12.522 -4.799,5.274 -3.988,9.448 2.481,12.522"
           style="fill:#ffffff;fill-opacity:1;fill-rule:evenodd;stroke:none"
           id="path2332"
           inkscape:connector-curvature="0" /><path
           d="m 445.257,320.083 c -0.725,2.851 -0.184,5.443 3.109,7.508 0.727,-2.85 0.174,-5.448 -3.109,-7.508"
           style="fill:#ffffff;fill-opacity:1;fill-rule:evenodd;stroke:none"
           id="path2334"
           inkscape:connector-curvature="0" /><path
           d="m 254.672,195.046 c -2.908,-0.983 -5.152,1.325 -8.131,-0.016 -1.413,1.361 -0.465,2.252 0.612,3.127 l 3.749,2.514 z"
           style="fill:#ffffff;fill-opacity:1;fill-rule:evenodd;stroke:none"
           id="path2336"
           inkscape:connector-curvature="0" /><path
           d="m 299.032,230.214 c 2.356,-5.186 -7.193,-4.99 -8.141,-0.021 2.903,0.995 5.155,-1.326 8.141,0.021"
           style="fill:#ffffff;fill-opacity:1;fill-rule:evenodd;stroke:none"
           id="path2338"
           inkscape:connector-curvature="0" /><path
           d="m 262.794,203.206 c -4.562,-3.897 -7.458,0.671 -10.645,3.736 2.426,-0.046 4.861,-0.027 3.733,2.502 2.952,1.131 4.709,-3.642 6.912,-6.238"
           style="fill:#ffffff;fill-opacity:1;fill-rule:evenodd;stroke:none"
           id="path2340"
           inkscape:connector-curvature="0" /><path
           d="m 325.884,250.929 c -2.852,-0.725 -5.45,-0.173 -7.525,3.114 3.531,2.017 2.427,4.95 6.246,6.904 6.374,-4.512 -5.096,-5.505 1.279,-10.018"
           style="fill:#ffffff;fill-opacity:1;fill-rule:evenodd;stroke:none"
           id="path2342"
           inkscape:connector-curvature="0" /><path
           d="m 277.153,218.267 c -3.199,-2.494 -5.508,-0.354 -8.761,-3.154 1.258,7.351 -8.738,4.138 -11.916,13.744 11.176,4.505 5.989,-5.322 14.412,-9.355 1.784,1.277 -0.082,3.272 -0.64,5.01 2.927,1.111 4.707,-3.659 6.905,-6.245"
           style="fill:#ffffff;fill-opacity:1;fill-rule:evenodd;stroke:none"
           id="path2344"
           inkscape:connector-curvature="0" /><path
           d="m 265.898,210.723 c -2.336,-0.896 -3.758,2.878 -6.264,1.236 -2.654,5.708 5.837,4.054 6.264,-1.236"
           style="fill:#ffffff;fill-opacity:1;fill-rule:evenodd;stroke:none"
           id="path2346"
           inkscape:connector-curvature="0" /><path
           d="m 323.349,262.821 c -1.759,-0.663 -3.125,0.625 -5.002,-0.646 l -2.514,3.751 c 4.622,1.462 10.996,11.752 13.767,3.793 -4.842,-2.924 -8.261,-0.36 -6.251,-6.898"
           style="fill:#ffffff;fill-opacity:1;fill-rule:evenodd;stroke:none"
           id="path2348"
           inkscape:connector-curvature="0" /><path
           d="m 364.563,298.588 c -1.744,3.6 0.369,6.445 4.996,8.789 0.457,-3.356 -1.668,-6.182 -4.996,-8.789"
           style="fill:#ffffff;fill-opacity:1;fill-rule:evenodd;stroke:none"
           id="path2350"
           inkscape:connector-curvature="0" /><path
           d="m 290.212,251.485 c -1.888,-5.296 -11.678,-10.947 -18.766,-4.448 6.507,2.71 12.433,2.573 18.766,4.448"
           style="fill:#ffffff;fill-opacity:1;fill-rule:evenodd;stroke:none"
           id="path2352"
           inkscape:connector-curvature="0" /><path
           d="m 318.319,270.325 c -2.274,0.316 -11.245,3.901 -5.617,-3.764 -2.395,-1.196 -3.87,2.35 -5.645,4.345 5.495,5.871 9.082,2.039 14.381,6.934 1.399,-2.992 -5.149,-4.406 -3.119,-7.515"
           style="fill:#ffffff;fill-opacity:1;fill-rule:evenodd;stroke:none"
           id="path2354"
           inkscape:connector-curvature="0" /><path
           d="m 153.353,167.882 c 0.125,3.331 -6.274,9.36 -6.285,9.376 -1.587,6.925 6.617,8.482 0.603,11.266 -1.917,7.436 6.557,1.792 7.524,-3.113 -0.965,-3.904 -2.464,-2.706 -5.626,-3.77 1.455,-4.615 11.752,-10.982 3.784,-13.759"
           style="fill:#ffffff;fill-opacity:1;fill-rule:evenodd;stroke:none"
           id="path2356"
           inkscape:connector-curvature="0" /><path
           d="m 354.496,321.716 c 3.044,-3.848 -6.073,-5.294 -8.111,-8.154 -0.985,2.908 1.329,5.167 -0.022,8.142 2.72,0.055 4.822,-3.005 8.133,0.012"
           style="fill:#ffffff;fill-opacity:1;fill-rule:evenodd;stroke:none"
           id="path2358"
           inkscape:connector-curvature="0" /><path
           d="m 289.512,280.88 c 12.965,4.374 -15.62,-14.889 0,0"
           style="fill:#ffffff;fill-opacity:1;fill-rule:evenodd;stroke:none"
           id="path2360"
           inkscape:connector-curvature="0" /><path
           d="m 307.002,295.32 c -0.052,-0.073 1.301,-1.861 1.257,-1.874 -7.476,-3.646 -0.305,8.219 -1.891,6.874 2.374,2.017 3.699,-2.367 2.51,-3.743 -0.451,-0.519 -1.524,-0.686 -1.876,-1.257"
           style="fill:#ffffff;fill-opacity:1;fill-rule:evenodd;stroke:none"
           id="path2362"
           inkscape:connector-curvature="0" /><path
           d="m 128.924,175.958 c 0.808,-8.219 -8.757,-3.521 -3.127,0.611 0.994,0.744 2.966,1.034 3.127,-0.611"
           style="fill:#ffffff;fill-opacity:1;fill-rule:evenodd;stroke:none"
           id="path2364"
           inkscape:connector-curvature="0" /><path
           d="m 121.43,170.936 c -1.556,-9.844 -7.835,4.308 -5.03,7.503 8.445,3.2 -1.582,-11.073 5.03,-7.503"
           style="fill:#ffffff;fill-opacity:1;fill-rule:evenodd;stroke:none"
           id="path2366"
           inkscape:connector-curvature="0" /><path
           d="m 63.321,131.987 c -0.555,7.768 5.418,6.659 11.87,10.662 3.146,-7.773 -6.117,-3.832 -11.87,-10.662"
           style="fill:#ffffff;fill-opacity:1;fill-rule:evenodd;stroke:none"
           id="path2368"
           inkscape:connector-curvature="0" /><path
           d="m 330.734,316.651 c -0.867,5.601 11.306,8.621 15.624,13.19 -2.173,-6.405 -8.433,-11.977 -15.624,-13.19"
           style="fill:#ffffff;fill-opacity:1;fill-rule:evenodd;stroke:none"
           id="path2370"
           inkscape:connector-curvature="0" /><path
           d="m 113.295,170.907 c -2.913,-2.803 -10.385,8.267 -3.153,8.761 2.488,-3.216 0.352,-5.487 3.153,-8.761"
           style="fill:#ffffff;fill-opacity:1;fill-rule:evenodd;stroke:none"
           id="path2372"
           inkscape:connector-curvature="0" /><path
           d="m 96.405,167.738 c 1.738,-6.191 -9.368,-3.998 -6.268,1.239 2.355,0.907 3.774,-2.882 6.268,-1.239"
           style="fill:#ffffff;fill-opacity:1;fill-rule:evenodd;stroke:none"
           id="path2374"
           inkscape:connector-curvature="0" /><path
           d="m 68.288,148.892 c -5.488,5.379 1.848,5.62 4.358,5.644 1.17,-2.401 -2.357,-3.862 -4.358,-5.644"
           style="fill:#ffffff;fill-opacity:1;fill-rule:evenodd;stroke:none"
           id="path2376"
           inkscape:connector-curvature="0" /><path
           d="m 85.747,171.47 c -1.029,-10.726 -10.123,1.458 0,0"
           style="fill:#ffffff;fill-opacity:1;fill-rule:evenodd;stroke:none"
           id="path2378"
           inkscape:connector-curvature="0" /><path
           d="m 93.228,184.641 c 1.248,-8.702 -8.454,0.658 -5.641,4.36 6.78,4.245 0.163,-8.872 5.641,-4.36"
           style="fill:#ffffff;fill-opacity:1;fill-rule:evenodd;stroke:none"
           id="path2380"
           inkscape:connector-curvature="0" /><path
           d="m 11.373,132.492 c -9.65,1.481 3.475,12.211 8.089,16.28 4.869,-6.914 -12.947,-9.36 -8.089,-16.28"
           style="fill:#ffffff;fill-opacity:1;fill-rule:evenodd;stroke:none"
           id="path2382"
           inkscape:connector-curvature="0" /><path
           d="m 35.083,161.949 c -0.284,6.575 11.077,10.825 13.103,16.951 -10.641,0.595 -10.201,-13.265 -22.508,-15.086 8.29,13.196 29.841,31.804 44.975,38.287 1.66,-9.993 -18.695,-8.82 -18.725,-20.693 7.943,-4.507 2.94,6.763 8.117,8.148 1.942,-1.111 3.901,-2.242 6.261,-1.229 3.467,-7.479 -16.418,-17.021 -10.599,-12.555 0.52,0.416 -2.995,2.374 -3.14,0.629 -0.711,-8.53 -5.204,-5.615 -17.484,-14.452"
           style="fill:#ffffff;fill-opacity:1;fill-rule:evenodd;stroke:none"
           id="path2384"
           inkscape:connector-curvature="0" /><path
           d="m 18.81,161.916 c -7.082,1.551 -6.889,-5.544 -13.131,-8.801 -1.689,3.387 8.868,16.869 13.131,8.801"
           style="fill:#ffffff;fill-opacity:1;fill-rule:evenodd;stroke:none"
           id="path2386"
           inkscape:connector-curvature="0" /><path
           d="m 43.744,197.655 c -0.87,1.066 -1.759,2.031 -3.119,0.616 2.999,-7.51 -9.845,-5.414 -9.355,-14.412 4.311,4.566 16.468,7.586 15.605,13.179 -1.211,-0.671 -2.402,-1.201 -3.131,0.617 m 15.601,21.317 c 2.319,-10.515 -8.223,-9.544 -16.235,-16.317 6.334,-10.351 18.165,5.71 20.005,10.692 3.743,2.47 5.809,-3.517 10.01,1.285 3.542,-5.859 -6.889,-7.826 -11.244,-7.537 -0.561,-6.907 -6.666,-6.181 -9.986,-9.411 -2.604,-2.519 -2.494,-6.413 -4.989,-8.783 -1.277,-1.227 -5.046,-0.523 -6.869,-1.898 -5.892,-4.413 -9.147,-11.991 -18.123,-17.571 -1.12,5.109 8.625,8.061 7.481,13.171 -2.413,4.271 -7.215,-3.614 -10.636,-4.412 -9.306,-1.548 7.404,4.755 3.128,7.521 19.005,9.799 18.978,23.351 37.458,33.26"
           style="fill:#ffffff;fill-opacity:1;fill-rule:evenodd;stroke:none"
           id="path2388"
           inkscape:connector-curvature="0" /><path
           d="m 124.981,246.672 c -1.749,-0.657 -3.107,0.635 -4.991,-0.628 -0.657,1.749 0.632,3.131 -0.641,4.994 1.768,0.668 3.124,-0.624 5.003,0.648 0.663,-1.759 -0.628,-3.139 0.629,-5.014"
           style="fill:#ffffff;fill-opacity:1;fill-rule:evenodd;stroke:none"
           id="path2390"
           inkscape:connector-curvature="0" /><path
           d="m 101.862,236.61 c -0.035,-0.214 1.37,-1.775 1.257,-1.875 -5.881,-5.642 -5.756,8.202 -1.9,6.869 -0.181,0.06 0.693,-4.665 0.643,-4.994"
           style="fill:#ffffff;fill-opacity:1;fill-rule:evenodd;stroke:none"
           id="path2392"
           inkscape:connector-curvature="0" /><path
           d="m 113.731,247.273 c -5.179,-2.364 -4.984,7.184 -0.021,8.139 0.975,-2.915 -1.327,-5.168 0.021,-8.139"
           style="fill:#ffffff;fill-opacity:1;fill-rule:evenodd;stroke:none"
           id="path2394"
           inkscape:connector-curvature="0" /><path
           d="m 2.743,182.013 c 0.784,0.077 1.579,0.189 2.244,0.524 0.505,-2.497 -0.687,-2.946 -2.244,-3.135 z"
           style="fill:#ffffff;fill-opacity:1;fill-rule:evenodd;stroke:none"
           id="path2396"
           inkscape:connector-curvature="0" /><path
           d="m 23.713,203.245 c 0.153,3.001 6.623,17.296 9.979,9.407 -4.432,-2.921 -3.343,-6.929 -9.979,-9.407"
           style="fill:#ffffff;fill-opacity:1;fill-rule:evenodd;stroke:none"
           id="path2398"
           inkscape:connector-curvature="0" /><path
           d="m 38.072,218.305 c -7.505,0.508 -0.423,9.162 4.984,8.763 4.497,-7.112 -7.22,-5.046 -4.984,-8.763"
           style="fill:#ffffff;fill-opacity:1;fill-rule:evenodd;stroke:none"
           id="path2400"
           inkscape:connector-curvature="0" /><path
           d="m 38.624,245.831 c -1.456,-8.342 -14.373,-12.944 -22.468,-23.199 -3.045,4.927 5.512,7.573 2.462,12.51 -5.803,-3.182 -2.903,-8.104 -8.722,-11.284 -6.236,6.657 3.523,10.143 9.332,14.412 2.605,0.803 4.106,-4.051 2.515,-3.752 3.994,-0.774 7.87,7.477 16.881,11.313"
           style="fill:#ffffff;fill-opacity:1;fill-rule:evenodd;stroke:none"
           id="path2402"
           inkscape:connector-curvature="0" /><path
           d="m 59.216,267.79 c 2.529,-2.62 -8.353,-9.411 -6.874,-1.89 -0.23,-1.196 6.996,1.766 6.874,1.89"
           style="fill:#ffffff;fill-opacity:1;fill-rule:evenodd;stroke:none"
           id="path2404"
           inkscape:connector-curvature="0" /><path
           d="m 54.827,278.415 c 0.41,9.189 12.445,0.805 0,0"
           style="fill:#ffffff;fill-opacity:1;fill-rule:evenodd;stroke:none"
           id="path2406"
           inkscape:connector-curvature="0" /><path
           d="m 71.051,294.725 c -3.848,-0.198 -7.827,-1.162 -10.647,3.737 2.371,1.152 3.051,2.639 2.486,4.384 5.909,-0.11 1.722,-5.492 8.161,-8.121"
           style="fill:#ffffff;fill-opacity:1;fill-rule:evenodd;stroke:none"
           id="path2408"
           inkscape:connector-curvature="0" /><path
           d="m 59.785,295.329 c -5.648,-1.106 -11.421,-2.891 -17.51,-6.301 0.193,5.748 14.473,13.465 17.51,6.301"
           style="fill:#ffffff;fill-opacity:1;fill-rule:evenodd;stroke:none"
           id="path2410"
           inkscape:connector-curvature="0" /><path
           d="m 56.02,300.948 c -1.368,-1.42 -2.263,-0.448 -3.133,0.616 -2.741,5.377 -9.337,-8.784 -11.274,0.6 5.072,0.967 11.227,7.449 14.407,-1.216"
           style="fill:#ffffff;fill-opacity:1;fill-rule:evenodd;stroke:none"
           id="path2412"
           inkscape:connector-curvature="0" /><path
           d="m 33.521,285.867 c -2.899,-0.978 -5.167,1.327 -8.132,-0.015 -2.378,5.182 7.194,4.99 8.132,0.015"
           style="fill:#ffffff;fill-opacity:1;fill-rule:evenodd;stroke:none"
           id="path2414"
           inkscape:connector-curvature="0" /><path
           d="m 10.393,275.8 c -1.177,6.542 9.77,6.549 13.121,8.795 3.02,-9.119 -8.403,-8.028 -13.121,-8.795"
           style="fill:#ffffff;fill-opacity:1;fill-rule:evenodd;stroke:none"
           id="path2416"
           inkscape:connector-curvature="0" /><path
           d="m 2.743,275.34 c 0.32,-0.365 0.579,-0.84 0.764,-1.435 -0.258,-0.255 -0.513,-0.492 -0.764,-0.713 z"
           style="fill:#ffffff;fill-opacity:1;fill-rule:evenodd;stroke:none"
           id="path2418"
           inkscape:connector-curvature="0" /><path
           d="m 7.218,292.687 c 1.153,4.64 19.73,9.502 16.243,8.169 3.887,1.487 6.23,1.911 -0.616,-3.118 -3.77,-2.772 -12.178,-4.759 -15.627,-5.051"
           style="fill:#ffffff;fill-opacity:1;fill-rule:evenodd;stroke:none"
           id="path2420"
           inkscape:connector-curvature="0" /><path
           d="m 27.02,129.388 c 2.093,-4.2 -8.006,-6.009 -3.712,-10.645 3.476,2.215 9.325,11.996 3.712,10.645 m 14.436,-9.351 -3.751,-2.514 2.508,-3.742 3.751,2.513 z M 63.384,99.448 c 1.199,1.382 -0.119,5.755 -2.508,3.742 1.6,1.341 -5.556,-10.528 1.906,-6.878 0.044,0.03 -1.297,1.798 -1.263,1.885 0.357,0.562 1.449,0.739 1.865,1.251 m 118.748,74.144 c -1.398,1.163 -2.531,3.662 -4.406,2.498 1.651,-2.5 -2.114,-3.917 -1.229,-6.276 3.182,1.077 4.671,-0.126 5.635,3.778 m -10.627,-4.405 c 0.371,0.313 0.231,-15.316 2.514,-3.75 0.046,0.26 0.793,6.545 -2.514,3.75 m 186.83,122.51 -11.253,-7.543 c 1.772,-2.01 3.249,-5.539 5.641,-4.361 -2.932,7.736 7.09,3.645 5.612,11.904 M 196.509,180.511 c 1.141,-2.394 -1.604,-4.028 -4.376,-5.64 2.066,-3.29 4.674,-3.836 7.515,-3.118 -5.617,3.037 5.689,10.409 -3.139,8.758 m 170.592,106.202 c 3.477,-3.943 -4.004,-5.712 -1.857,-9.4 6.783,1.069 5.517,11.607 1.857,9.4 M 15.986,40.484 c 3.13,3.73 13.865,5.954 11.859,10.676 C 24.713,47.451 13.983,45.22 15.986,40.484 M 29.74,44.278 C 26.156,33.267 9.53,37.97 11.634,26.719 18.39,29.764 36.536,38.309 29.74,44.278 m 184.337,118.133 c -2.83,-2.157 -6.667,-4.123 -3.12,-7.529 l 3.751,2.514 c -1.264,1.886 0.033,3.257 -0.631,5.015 M 19.768,26.731 c 1.779,-2.001 3.244,-5.53 5.637,-4.375 -8.052,6.881 11.752,3.034 8.739,11.294 -7.082,0.419 -6.323,-6.48 -14.376,-6.919 m 297.427,196.643 c 1.115,-2.527 -1.314,-2.558 -3.751,-2.515 2.208,-2.602 3.97,-7.363 6.89,-6.241 -1.949,2.312 3.839,10.764 -3.139,8.756 M 4.132,21.689 c 9.653,5.415 13.098,-7.968 17.556,-9.969 -0.849,4.495 -1.473,8.96 -3.796,13.755 -4.026,-3.163 -14.282,3.49 -13.76,-3.786 m 291.203,181.596 c -2.104,-3.512 2.306,-14.779 3.768,-5.62 -1.204,-0.664 -2.415,-1.204 -3.127,0.627 3.422,1.469 3.36,5.908 -0.641,4.993 m 46.882,23.278 c 11.991,-1.518 0.386,8.995 0,0 m -83.688,-69.696 c 0.542,-0.462 -7.313,-2.004 -6.88,-1.879 -10.24,-2.947 12.205,-2.72 6.88,1.879 m 110.6,74.132 c -5.645,-3.28 -6.094,-13.241 1.267,-9.998 -4.784,4.214 1.207,6.27 -1.267,9.998 M 345.391,209.68 c 8.716,-7.624 10.821,2.999 0,0 m 19.386,7.555 c -0.545,-3.148 -1.163,-6.28 -1.855,-9.397 -1.75,2.15 -3.529,4.075 -6.265,1.236 1.769,-2.007 3.235,-5.537 5.646,-4.368 -1.127,2.528 1.307,2.547 3.751,2.515 -2.75,2.947 4.93,11.729 -1.277,10.014 M 550.091,192.03 c 1.295,-1.876 4.867,-0.151 3.759,2.52 -6.685,3.172 -10.893,-11.578 -3.74,-10.66 -0.567,2.826 -0.839,5.595 -0.019,8.14 m -3.708,-18.781 c 5.295,4.823 8.336,-1.73 13.14,0.652 -2.265,5.762 -14.097,4.387 -13.14,-0.652 m -67.458,-53.37 c 0.688,-1.047 2.95,-1.115 1.875,1.257 -2.484,-1.64 -3.912,2.144 -6.265,1.236 0.559,-1.739 2.425,-3.734 0.649,-5.002 2.409,-2.443 11.481,-11.924 10.645,-3.738 -2.043,-0.622 -10.982,2.778 -6.904,6.247 m 94.381,49.682 c -6.091,12.355 -9.42,-4.51 0,0 m -3.113,-7.523 c -6.09,12.356 -9.421,-4.511 0,0 M 498.95,122.427 c 5.619,-3.022 -5.684,-10.394 3.146,-8.75 -1.949,2.311 3.83,10.76 -3.146,8.75 m 50.607,33.92 c 1.7,-3.536 10.964,-8.728 9.392,-1.846 -3.677,-2.166 -5.458,5.334 -9.392,1.846 m 11.885,2.543 c 3.848,-3.087 14.29,-14.782 15.037,-6.23 -5.296,0.637 -8.867,9.98 -15.037,6.23 m 2.537,-11.892 c 4.081,-1.322 7.464,-6.102 11.907,-5.598 -2.305,5.607 -13.144,9.266 -11.907,5.598 m -4.371,-5.647 c 3.063,5.559 -7.592,10.152 -11.285,8.745 10.237,-9.68 -8.085,-6.139 -5.613,-11.903 3.247,-0.118 6.694,0.892 10.642,4.402 6.205,-1.496 11.185,-9.252 18.163,-6.84 -3.185,5.788 -7.867,4.104 -11.907,5.596 m 51.248,28.927 c -4.556,-5.064 -6.164,-10.715 -8.092,-16.298 3.257,5.328 12.261,9.52 8.092,16.298 M 545.9,121.303 c 6.368,-4.519 -5.105,-5.509 1.278,-10.016 6.047,1.204 4.061,11.894 -1.278,10.016 m 23.76,5.052 c -4.398,5.619 -16.008,17.252 -18.156,6.847 7.579,5.531 11.271,-8.743 18.156,-6.847 m -15.647,3.105 c 1.689,-3.559 10.956,-8.735 9.389,-1.861 -3.991,-3.772 -4.685,9.239 -9.389,1.861 m 1.886,-6.892 c -1.802,0.828 -3.638,5.125 -3.131,0.62 3.913,-2.13 6.917,-8.917 11.296,-8.725 -1.966,7.817 -3.13,5.863 -8.165,8.105 m 24.395,8.197 -3.743,-2.508 2.509,-3.742 3.742,2.508 z m 24.381,8.2 c -4.81,-5.182 -8.115,-2.657 -12.503,-5.66 l 2.515,-3.753 c 0.87,-1.067 1.759,-2.029 3.14,-0.613 -2.364,3.375 11.825,2.735 6.848,10.026 m -24.964,-27.606 c -6.596,9.879 -9.198,-3.306 0,0 m -16.274,-0.035 c 4.904,-2.626 8.496,-11.865 14.408,-9.345 -4.712,3.528 -8.206,13.297 -14.408,9.345 m 49.724,5.276 c -5.515,2.969 -2.333,5.749 0,9.225 z M 575.379,89.453 c -3.318,1.049 3.015,-7.936 3.146,-8.752 0.281,-1.435 -3.937,-6.387 0.649,-5.002 -0.686,3.251 2.176,11.881 -3.795,13.754 m 4.389,-2.494 c 6.286,1.751 0.961,-9.353 8.775,-4.98 -1.363,5.243 -10.478,11.155 -8.775,4.98 m 1.31,-18.138 c 0.137,0.143 -1.182,4.801 -0.647,5.003 -1.276,-0.481 -10.934,-6.982 -3.104,-7.517 -0.214,0.012 -1.121,1.941 -1.258,1.877 1.501,0.721 4.126,-0.2 5.009,0.637 m 11.27,-8.742 c -2.828,4.855 -6.818,3.83 -10.013,6.867 -7.925,-0.802 -0.449,-13.842 -1.242,-6.257 -0.968,7.519 7.649,-4.186 11.255,-0.61 m 0.613,11.273 c 3.205,-6.664 -3.502,-19.819 6.925,-22.519 -5.087,10.764 -2.944,20.097 -0.697,29.409 -3.673,-2.166 -5.45,5.327 -9.389,1.862 8.034,-8.027 -3.781,-9.581 -2.476,-12.531 3.175,1.07 4.674,-0.128 5.637,3.779 m -127.236,72.273 c 4.132,-2.28 -1.415,-10.031 5.023,-7.493 -1.371,3.718 2.681,1.228 5.617,3.765 -2.815,4.914 -6.817,3.945 -10.64,3.728 M 327.76,252.187 c 2.822,-4.924 7.237,-1.746 10.648,-3.722 -3.193,3.052 -6.096,7.597 -10.648,3.722 M 96.428,151.46 c 3.187,2.339 6.129,3.502 8.771,3.157 -1.808,2.525 -1.881,4.707 -1.892,6.877 -5.889,-4.437 -11.993,-1.636 -6.879,-10.034 M 613.161,52.801 c -0.282,0.572 -0.589,1.149 -0.763,1.701 0.254,-0.023 0.509,-0.047 0.763,-0.072 z M 613.161,0 H 2.743 v 30.16 c 2.159,0.254 4.403,0.946 6.382,0.301 -1.737,2.919 -4.015,3.057 -6.382,2.744 v 5.105 c 3.126,1.103 5.831,2.371 11.359,0.91 -2.989,5.593 -7.196,4.991 -11.359,4.656 v 5.438 c 5.185,1.288 12.622,0.062 17.577,4.96 -3.774,2.595 -6.459,-2.451 -5.631,4.368 -4.468,-4.575 -8.326,-6.07 -11.946,-6.369 v 43.03 c 2.691,1.578 4.869,3.367 5.588,5.249 -6.141,-2.583 0.905,4.857 -1.895,6.882 -0.946,-1.896 -2.262,-3.719 -3.693,-5.524 v 6.086 c 4.021,4.268 3.668,10.512 5.524,16.964 3.324,1.055 0.857,-2.892 3.765,-5.617 0.845,2.008 1.731,3.991 4.37,5.645 -2.003,0.835 -4.002,1.727 -5.647,4.372 4.149,2.728 8.772,7.746 13.729,11.92 3.242,2.701 7.904,13.542 12.503,5.663 -9.066,-0.216 -14.886,-12.657 -19.96,-18.829 5.465,-4.157 4.47,5.441 6.227,6.892 4.349,3.624 10.277,1.928 14.378,6.919 1.071,1.324 0.852,5.918 1.23,6.275 1.096,1.019 9.509,3.575 13.121,8.795 3.167,-0.403 5.223,-6.523 9.409,-1.851 -1.373,-7.697 -13.883,-4.717 -20.009,-10.706 -3.475,-3.386 -1.34,-8.111 -5.605,-11.897 2.596,-0.929 13.876,10.189 17.492,14.442 5.019,-4.778 12.807,4.476 18.143,1.302 0.951,-10.858 -16.996,0.869 -26.883,-12.596 -1.091,-2.486 0.955,-5.595 -3.11,-7.507 6.271,-2.744 11.579,14.805 18.782,4.42 -2.151,-0.077 -6.263,-0.246 -8.768,-3.16 -2.515,-2.896 2.207,-3.713 1.891,-6.874 -0.212,-2.127 -3.384,0.435 -3.132,0.619 -2.108,-1.489 0.101,-6.13 -1.847,-9.394 5.131,-3.944 0.129,7.342 8.112,8.154 2.855,-7.063 -0.704,-12.863 -3.704,-18.765 9.081,0.02 2.319,21.601 15.597,21.301 0.894,-2.336 -2.888,-3.762 -1.229,-6.258 1.044,-1.673 10.724,8.603 4.341,13.781 7.793,3.213 7.311,11.6 14.988,10.046 -0.784,-4.712 -4.674,-8.826 -10.606,-12.546 9.999,-0.139 20.219,13.848 16.85,19.451 -0.487,0.805 -3.125,2.064 -3.124,0.624 0.068,6.513 3.193,7.384 3.72,10.635 4.47,3.422 7.78,0.964 11.891,2.535 2.561,-2.664 0.388,-4.404 1.892,-6.877 1.952,7.005 2.194,5.376 9.986,9.415 2.801,-12.386 19.315,-6.751 28.196,-13.697 6.244,3.351 -8.384,2.226 -1.898,6.886 l 3.752,2.514 c 5.61,-4.91 0.941,-7.784 2.535,-11.893 1.37,-1.274 3.128,-0.61 4.385,-2.486 1.786,1.276 -0.089,3.265 -0.634,5 3.207,2.483 5.491,0.343 8.747,3.157 2.495,5.731 -0.199,6.502 -4.407,10.627 4.828,4.061 0.336,6.496 -0.646,13.13 -0.19,1.304 2.562,3.251 2.509,4.389 -0.19,2.552 -9.439,9.623 0.566,11.266 3.355,-5.353 -0.326,-10.281 0.686,-13.133 0.469,-1.414 3.204,-1.475 3.122,-0.625 0.402,-3.751 -1.593,-0.695 -1.866,-1.251 -2.303,-4.288 1.561,-6.787 2.508,-11.872 -1.761,-0.678 -3.123,0.625 -5.002,-0.646 2.002,-0.837 3.991,-1.745 5.648,-4.372 3.364,9.626 -1.062,20.804 -1.953,31.284 7.893,-3.801 7.219,-13.043 6.934,-22.495 6.578,10.619 2.355,23.377 0.542,35.652 12.252,-0.656 7.529,-17.785 6.319,-25.629 5.127,-3.96 0.137,7.333 8.119,8.147 3.561,-3.411 -0.287,-5.358 -3.111,-7.508 5.189,-4.896 3.736,-2.728 6.281,-9.371 1.802,5.614 4.12,10.904 1.83,17.527 -1.387,3.991 -15.803,8.395 -6.919,14.362 6.239,-3.584 1.052,-14.121 8.158,-8.098 0.778,-5.044 1.143,-9.988 1.907,-15.032 5.414,7.068 7.544,14.772 6.225,23.178 7.189,1.518 4.007,-8.152 1.256,-10.005 3.542,-5.243 2.13,7.893 6.277,-1.233 -6.35,-2.001 -3.094,-5.899 -8.122,-8.162 3.285,-2.577 5.105,-12.538 9.413,-9.988 1.246,3.929 -4.095,2.783 -5.029,7.503 -0.224,1.087 3.453,0.693 3.124,-0.624 0.528,2.095 -2.393,4.955 -1.89,6.875 0.946,3.624 5.488,3.035 7.503,5.029 3.492,3.476 1.874,9.774 6.237,6.899 -0.741,-9.45 -4.759,-9.527 -8.718,-19.421 4.668,-2.888 3.362,8.939 11.874,10.677 1.03,-5.635 -2.411,-10.378 -9.359,-14.429 6.781,-3.968 12.624,5.886 13.74,11.928 0.751,1.588 6.023,-2.894 5.651,-4.377 -0.222,-0.859 -5.814,-3.012 -5.617,-3.766 0.642,-2.689 3.962,1.199 4.994,0.642 4.397,-2.352 0.576,-7.473 -0.594,-11.263 4.913,-1.393 2.319,5.074 5.646,-4.366 2.88,4.39 -7.161,19.716 4.949,16.907 3.307,-4.739 0.146,-3.213 -2.492,-4.388 3.409,-7.492 7.759,-10.119 13.179,-7.479 0.715,-2.856 0.172,-5.446 -3.127,-7.52 1.385,-3.334 5.021,2.466 6.892,1.903 2.812,-0.871 0.529,-4.901 0.629,-5.015 3.446,-3.889 6.698,2.002 11.276,-0.599 4,3.085 -5.605,3.097 -6.286,9.379 3.469,3.82 5.066,-1.794 8.14,0.022 0.247,9.879 -16.638,3.352 -22.554,9.333 8.667,2.678 16.047,-1.069 24.41,0.063 1.271,1.369 0.6,3.124 2.475,4.381 -6.947,3.174 -15.912,-3.748 -21.906,4.332 4.182,4.657 6.228,-1.471 9.398,-1.856 6.87,4.86 -4.778,7.398 -1.277,10.016 6.43,6.205 4.499,-6.517 6.286,-9.377 5.194,7.088 7.989,14.681 6.193,23.165 4.376,2.084 6.366,-8.614 1.271,-10.009 3.342,-4.522 7.423,-3.462 6.287,-9.378 4.815,8.022 8.815,3.32 10.659,-3.716 8.936,-0.475 -1.582,6.013 -1.28,10.002 0.128,1.712 4.628,3.8 4.368,5.649 -0.676,4.853 -9.459,1.775 -1.904,6.877 -3.426,4.611 -7.598,5.433 -12.519,2.472 -6.648,5.654 3.861,7.908 2.467,12.524 7.382,1.366 13.366,-9.102 18.149,1.294 0.992,-2.904 -1.315,-5.148 0.024,-8.129 -6.639,-0.685 -12.018,5.073 -19.405,0.563 2.376,-7.16 7.874,1.474 11.263,-0.582 1.587,-4.115 -0.871,-7.425 2.535,-11.892 5.212,0.606 0.513,4.943 1.237,6.265 0.938,1.714 4.392,2.249 5.628,3.771 3.145,3.898 -1.66,8.163 3.722,10.651 4.922,5.684 6.708,-4.473 11.272,-0.599 0.711,5.822 0.387,11.842 4.964,16.906 -5.753,6.049 -6.075,-11.403 -10.014,-1.277 -2.148,-2.274 1.604,-5.74 3.146,-8.75 -4.914,-2.971 -9.084,-2.149 -12.506,2.476 6.156,-3.344 8.681,0.5 6.227,6.893 -1.774,1.99 -4.477,-0.706 -6.876,-1.892 -0.658,1.751 0.625,3.124 -0.648,5.004 1.833,0.727 1.289,1.92 0.627,3.139 4.573,-2.168 10.535,1.238 12.501,5.661 3.39,1.29 0.573,-4.407 4.393,-2.495 -0.911,-5.751 -4.207,-2.123 -10.637,-4.408 4.002,-9.932 12.915,4.97 16.921,-4.968 -3.315,-2.586 -5.436,-5.438 -4.994,-8.771 2.146,-2.413 11.853,12.26 18.131,9.431 -4.706,8.096 -8.941,-2.385 -11.27,0.591 -4.113,7.328 6.528,11.732 0.578,19.416 10.885,4.113 13.138,15.724 22.499,15.079 -2.008,0.843 -4.001,1.722 -5.65,4.356 -3.312,-2.593 -5.431,-5.432 -4.985,-8.767 -6.188,-1.724 -4.233,8.18 1.861,9.39 -1.375,1.282 -3.141,0.612 -4.382,2.503 -2.697,-7.145 -11.212,-14.566 -11.895,-2.551 0.712,2.072 4.423,-2.447 4.384,-2.486 1.856,2.364 -1.458,2.926 -0.632,5 2.154,5.435 11.616,9.539 16.871,11.309 3.434,-7.851 -7.151,-2.784 -3.742,-10.638 8.335,-2.596 8.36,10.166 12.497,13.8 -1.712,-8.518 7.977,-1.429 11.28,-8.738 -3.524,-2.027 -2.421,-4.944 -6.237,-6.898 1.366,-1.288 3.117,-0.616 4.38,-2.501 -1.404,5.708 6.887,9.487 6.231,15.039 2.9,0.977 5.153,-1.326 8.135,0.028 2.53,-6.445 -5.205,-0.901 -7.51,-5.034 3.864,-5.19 10.132,1.816 15.634,5.042 4.516,-4.854 -4.249,-5.306 -4.352,-5.635 -0.533,-1.647 3.186,-1.407 3.124,-0.625 0.291,-4.066 -5.736,-6.433 0.652,-13.139 7.739,4.425 0.376,11.858 8.104,16.28 2.321,-6.962 -1.901,-12.614 -3.695,-18.764 -4.9,2.718 -11.1,-1.296 -16.901,-3.172 1.807,5.049 7.48,9.367 6.212,15.022 -4.342,-0.475 -7.425,-16.712 -19.332,-23.817 5.434,-4.011 7.61,5.849 11.235,7.531 3.017,-9.264 -2.581,-16.829 -8.052,-24.426 6.698,-0.249 7.767,13.051 17.496,6.302 -0.445,-4.795 -0.466,-9.665 -4.342,-13.781 -4.833,5.288 1.717,8.315 -0.669,13.145 -3.153,-3.713 -3.414,-8.012 -5.596,-11.909 6.06,-4.504 3.01,-4.127 7.537,-11.246 1.174,-1.789 -8.145,-9.258 -7.482,-13.169 0.168,-0.944 2.734,-2.869 2.514,-3.75 -0.406,-1.585 -4.91,-4.052 -4.36,-5.642 1.413,-4.09 3.159,4.205 6.875,1.889 2.632,0.953 -1.15,3.676 -0.641,5.01 0.284,0.732 3.808,1.818 3.752,2.515 -0.137,1.645 -3.053,1.479 -3.132,0.618 0.967,10.051 2.607,21.136 11.202,23.803 1.691,-2.021 -1.952,-2.776 -2.492,-4.372 -0.702,-2.108 0.902,-6.444 0.03,-8.138 -0.464,-0.903 -3.617,-1.562 -3.753,-2.514 -0.17,-1.13 2.598,-2.603 2.514,-3.751 -0.153,-2.438 -2.945,-5.117 -3.11,-7.524 -0.383,-5.33 3.913,-7.051 -4.986,-8.765 3.883,-6.713 6.742,4.895 6.895,-6.25 4.084,13.303 1.725,27.852 8.037,40.713 -2.262,5.027 -6.16,1.771 -8.164,8.104 1.117,1.949 2.258,3.897 1.237,6.264 5.023,1.85 2.626,-5.606 5.027,-7.5 0.712,-0.543 5.304,0.217 5.016,0.629 2.173,-3.052 -1.317,-9.914 4.407,-10.611 1.703,2.108 2.542,6.472 -0.647,5.002 0.806,10.022 11.303,-9.557 0.647,-5.002 -1.832,-0.727 -1.274,-1.923 -0.629,-3.139 -3.271,-0.997 -0.907,1.777 -2.513,3.751 -6.815,-3.536 2.623,-10.274 -7.464,-13.156 -0.276,-1.99 3.189,-1.07 3.123,-0.624 0.72,-4.401 -2.523,-3.846 -3.103,-7.52 -0.698,-4.395 4.188,-10.244 0.653,-13.139 3.885,-3.529 1.4,4.235 6.885,1.894 3.036,3.737 -5.835,9.822 2.464,12.527 3.455,-4.484 1.047,-7.789 -0.596,-11.275 2.295,-2.157 5.734,1.59 8.758,3.153 3.413,-3.381 2.043,-5.818 3.147,-8.749 1.102,1.95 2.243,3.898 1.228,6.258 4.75,5.235 4.415,-6.895 5.028,-7.501 1.203,-1.178 4.844,0.846 5.009,0.637 4.321,-5.273 14.14,-30.666 22.597,-25.602 5.283,-7.19 -3.276,-1.319 -3.108,-7.508 4.469,-2.092 8.256,-7.552 14.39,-1.212 0.726,-2.851 0.193,-5.478 -3.096,-7.527 5.8,-4.769 11.221,6.363 19.403,-0.56 -1.314,-6.342 -4.238,-1.655 -8.764,-3.169 -3.564,-1.216 -1.603,-11.213 3.155,-8.759 2.039,2.051 -0.618,4.997 -2.522,3.761 -1.697,8.473 4.079,-1.57 8.149,0.011 0.726,0.281 1.937,6.065 4.369,5.647 0.775,-0.138 3.337,-11.187 2.514,-3.751 5.287,1.416 1.156,-8.721 2.513,-11.882 5.216,-1.322 -0.08,6.002 8.767,3.146 1.337,-0.418 3.395,-0.03 4.381,-2.501 -5.836,1.886 -10.988,-2.212 -13.119,-8.794 -5.13,-2.767 0.408,4.964 -5.03,7.504 -3.267,-2.603 3.115,-7.112 1.286,-10.013 7.301,1.275 14.857,3.879 20.657,-2.451 3.329,4.396 -6.873,8.162 -10.019,6.877 -1.846,5.54 7.316,-0.135 10.617,4.396 -0.504,-6.932 11.385,-8.793 11.308,-16.871 1.087,2.494 -0.95,5.611 3.114,7.525 -3.71,5.938 -9.475,1.392 -12.555,10.598 -9.305,8.54 8.144,-4.382 11.922,-5.598 -5.417,5.85 10.039,4.396 6.207,15.033 -4.974,6.249 -0.634,-10.01 -5.618,-3.767 -5.495,3.622 2.58,4.991 4.361,5.642 2.834,1.037 2.576,7.691 8.76,3.153 3.01,4.696 -9.51,7.231 -0.663,13.134 0.304,-2.219 0.603,-4.452 -1.219,-6.253 1.312,-2.881 7.489,-0.984 4.984,0.636 6.261,-4.089 10.05,-13.491 15.689,-11.218 1.625,0.651 1.853,4.888 1.225,6.245 -3.099,2.238 -3.666,-4.43 -6.875,-1.891 -5.109,4.047 4.349,5.89 4.362,5.642 -0.254,6.105 -10.947,2.26 -6.281,9.369 1.86,1.183 2.99,-1.307 4.393,-2.48 2.061,8.494 -0.005,9.351 -3.176,16.887 7.808,13.105 9.853,27.334 16.168,40.724 6.23,4.087 -0.086,-5.596 0.03,-8.134 0.054,-1.29 8.266,-2.202 -1.234,-6.251 1.719,-3.987 15.158,-2.336 6.285,-9.378 1.697,-4.144 10.351,2.971 4.352,5.636 6.851,3.484 -0.118,-10.605 7.532,-3.106 1.015,-7.591 5.485,-6.876 5.653,-12.51 -8.406,-2.697 2.117,1.111 -5.641,4.362 -2.125,0.882 -5.75,-0.091 -8.13,0 -4.391,-2.981 4.119,-4.684 6.263,-1.251 0.747,-3.403 0.139,-6.528 -1.86,-9.389 9.483,-6.037 13.247,8.584 21.29,0.68 -5.691,1.261 -3.755,-4.721 -11.254,-7.543 3.736,-3.808 11.637,0.532 10.021,-6.861 -4.198,-4.787 -6.255,1.203 -10.007,-1.272 -4.12,-6.846 4.598,-8.628 3.793,-13.769 6.794,4.891 2.88,5.888 -1.279,10.018 2.736,2.837 4.516,0.914 6.267,-1.238 1.966,4.487 3.062,9.152 4.341,13.782 9.325,-8.28 17.188,1.59 23.135,10.073 3.04,-7.65 -10.671,-11.985 -11.841,-18.812 -8.735,3.537 -8.15,-0.605 -10.636,-4.412 -1.086,-1.667 5.186,0.646 5.017,0.647 4.906,-0.112 -1.604,-4.258 -8.113,-8.157 2.667,-5.723 8.161,2.934 11.251,-0.6 2.462,8.768 9.671,16.597 16.663,24.469 v -5.818 c -0.294,-0.806 -0.45,-1.588 -0.431,-2.334 0.146,0.012 0.291,0.025 0.431,0.04 v -13.21 c -1.023,-3.044 -2.335,-6.069 -4.741,-8.747 1.365,-1.289 3.119,-0.616 4.376,-2.491 0.123,0.203 0.244,0.406 0.365,0.609 v -16.313 c -7.519,-3.601 -7.764,-8.65 -7.802,-13.721 -3.695,1.169 -13.212,14.618 -13.785,4.327 2.053,0.628 10.981,-2.754 6.893,-6.227 -6.724,-2.06 -21.401,-0.496 -16.273,8.094 -5.663,-6.68 -7.691,5.036 -13.154,-0.673 7.176,-6.592 10.907,-6.333 17.557,-9.969 3.767,-2.046 6.686,-7.343 11.899,-5.587 -2.057,4.199 2.495,7.096 3.723,10.649 2.606,-6.351 6.702,-5.166 10.942,-3.222 V 93.368 c -6.319,1.262 3.769,10.346 -11.513,5.538 -0.901,2.346 2.882,3.775 1.229,6.26 -2.231,2.422 -6.026,-3.1 -8.124,-0.008 -2.048,-2.055 0.595,-5.001 2.515,-3.752 3.371,-2.146 -6.816,-8.974 -7.51,-5.034 -6.862,7.293 4.735,0.986 1.244,6.272 -12.827,-4.85 1.673,-10.991 4.416,-18.774 6.564,3.047 -5.53,9.769 2.48,12.523 l 2.508,-3.743 c 2.755,-2.842 4.879,6.788 9.399,-1.854 -4.203,-4.803 -6.274,1.191 -10.009,-1.274 0.1,-1.686 -3.539,-6.135 -3.121,-7.528 2.053,-6.677 8.187,-1.856 4.414,-10.62 0.297,0.689 -2.38,-5.255 -2.494,-4.391 0.589,-4.72 10.005,-3.819 0.648,-5.004 4.761,-7.718 8.118,-1.733 11.88,2.516 1.485,-4.622 0.677,-8.796 -2.477,-12.508 1.375,-1.281 3.142,-0.612 4.382,-2.499 0.046,0.033 0.091,0.067 0.133,0.101 z"
           style="fill:#ffffff;fill-opacity:1;fill-rule:evenodd;stroke:none"
           id="path2422"
           inkscape:connector-curvature="0" /><path
           d="m 613.161,82.386 c -1.315,-1.106 -2.606,-2.803 -3.96,-2.857 1.411,0.044 1.334,8.6 -0.624,5.006 1.152,2.106 1.359,4.638 4.584,0.894 z"
           style="fill:#ffffff;fill-opacity:1;fill-rule:evenodd;stroke:none"
           id="path2424"
           inkscape:connector-curvature="0" /><path
           d="m 507.66,141.856 c 1.056,-3.324 -2.894,-0.87 -5.618,-3.765 -1.012,7.258 0.838,13.934 -3.816,21.894 8.377,2.035 4.711,-5.758 11.295,-8.739 -9.058,1.116 -5.175,-9.69 -1.861,-9.39"
           style="fill:#ffffff;fill-opacity:1;fill-rule:evenodd;stroke:none"
           id="path2426"
           inkscape:connector-curvature="0" /><path
           d="m 523.827,182.569 c 0.159,-1.799 3.889,-3.823 3.765,-5.618 0.069,0.973 -8.687,1.829 -4.991,-0.627 -2.625,1.744 -5.004,2.776 1.226,6.245"
           style="fill:#ffffff;fill-opacity:1;fill-rule:evenodd;stroke:none"
           id="path2428"
           inkscape:connector-curvature="0" /><path
           d="m 489.476,156.839 c 0.655,-1.766 -0.634,-3.132 0.637,-5.009 l -3.751,-2.515 c -1.413,1.36 -0.455,2.259 0.611,3.127 -8.603,-1.372 -6.721,2.607 -15.647,3.104 1.621,10.324 11.737,-6.033 18.15,1.293"
           style="fill:#ffffff;fill-opacity:1;fill-rule:evenodd;stroke:none"
           id="path2430"
           inkscape:connector-curvature="0" /><path
           d="m 481.95,159.936 c -7.201,-5.921 -2.528,8.367 -1.887,6.889 -0.51,1.206 -5.524,1.439 -5.656,4.364 -0.025,0.77 3.468,1.747 3.762,2.521 0.823,2.189 -2.883,7.988 0.588,11.269 3.666,2.239 4.697,-9.529 -1.228,-6.261 4.102,-4.928 14.943,2.518 13.154,-7.479 -4.191,-2.088 -5.994,8.002 -10.64,3.728 -1.449,-4.604 2.673,-10.292 1.907,-15.031"
           style="fill:#ffffff;fill-opacity:1;fill-rule:evenodd;stroke:none"
           id="path2432"
           inkscape:connector-curvature="0" /><path
           d="m 613.161,258.167 c -0.399,0.034 -0.82,-0.044 -1.266,-0.259 -0.547,0.977 0.052,1.662 1.266,2.291 z"
           style="fill:#ffffff;fill-opacity:1;fill-rule:evenodd;stroke:none"
           id="path2434"
           inkscape:connector-curvature="0" /><path
           d="m 567.539,222.754 c -6.687,-1.687 -0.509,4.528 -0.642,4.994 -0.209,0.773 -4.497,2.693 -6.285,9.379 8.399,5.114 5.607,-0.983 10.037,-6.864 -3.253,-2.066 -3.917,-4.65 -3.11,-7.509"
           style="fill:#ffffff;fill-opacity:1;fill-rule:evenodd;stroke:none"
           id="path2436"
           inkscape:connector-curvature="0" /><path
           d="m 584.354,258.464 c 3.495,0.667 1.333,-2.393 0,0"
           style="fill:#ffffff;fill-opacity:1;fill-rule:evenodd;stroke:none"
           id="path2438"
           inkscape:connector-curvature="0" /><path
           d="m 526.203,235.796 5.619,3.767 -2.508,3.742 c -2.833,-2.156 -6.668,-4.122 -3.111,-7.509 m 16.904,-4.978 c 4.14,-0.486 0.659,-0.617 -1.867,-1.252 -2.966,7.636 11.401,11.841 2.447,20.665 0.319,-9.203 -6.687,-9.207 -12.469,-13.803 -1.727,-1.365 0.016,-3.198 0.624,-5.005 -3.743,-2.471 -5.802,3.505 -10.011,-1.287 0.149,4.312 3.483,7.989 -0.649,13.153 11.317,6.145 24.525,10.616 28.109,18.841 9.367,-0.908 -8.899,-10.06 3.173,-16.885 l 5.619,3.767 c -1.26,1.781 -3.257,-0.099 -5.001,-0.65 -2.47,4.297 2.028,7.197 6.857,10.046 1.174,-2.406 -2.346,-3.88 -4.364,-5.655 5.761,-0.905 1.097,-8.709 9.394,-1.848 5.434,-7.551 -5.321,-3.501 -5.627,-3.771 -2.388,-2.165 -1.981,-13.538 -7.494,-5.025 3.087,-8.582 -8.939,-4.096 -8.741,-11.291"
           style="fill:#ffffff;fill-opacity:1;fill-rule:evenodd;stroke:none"
           id="path2440"
           inkscape:connector-curvature="0" /><path
           d="m 446.875,171.749 c 1.333,4.065 -3.004,9.249 2.473,12.532 -1.332,-4.087 3.013,-9.28 -2.473,-12.532"
           style="fill:#ffffff;fill-opacity:1;fill-rule:evenodd;stroke:none"
           id="path2442"
           inkscape:connector-curvature="0" /><path
           d="m 468.115,188.708 c -2.999,-0.352 -6.404,13.07 -0.038,16.257 1.164,-1.849 -1.326,-2.978 -2.498,-4.38 2.002,-0.837 3.998,-1.74 5.646,-4.369 -0.442,-2.63 -4.384,-4.552 -3.11,-7.508"
           style="fill:#ffffff;fill-opacity:1;fill-rule:evenodd;stroke:none"
           id="path2444"
           inkscape:connector-curvature="0" /><path
           d="m 457.46,192.436 c 7.935,-1.841 1.877,-14.483 0,0"
           style="fill:#ffffff;fill-opacity:1;fill-rule:evenodd;stroke:none"
           id="path2446"
           inkscape:connector-curvature="0" /><path
           d="m 454.966,188.047 c 4.132,-7.357 -8.341,2.371 -2.509,3.743 0.18,6.497 0.281,-0.805 2.509,-3.743"
           style="fill:#ffffff;fill-opacity:1;fill-rule:evenodd;stroke:none"
           id="path2448"
           inkscape:connector-curvature="0" /><path
           d="m 436.837,178.614 c -3.551,-1.18 -3.704,4.951 -6.268,9.352 -1.215,2.099 -11.798,5.645 -3.158,8.767 0.613,-8.759 11.107,-6.441 9.426,-18.119"
           style="fill:#ffffff;fill-opacity:1;fill-rule:evenodd;stroke:none"
           id="path2450"
           inkscape:connector-curvature="0" /><path
           d="m 442.434,198.651 c 7.069,-4.797 -10.913,7.669 -10.024,-1.284 -1.901,-6.85 1.476,8.061 -2.531,11.885 l 3.76,2.52 c 0.722,-1.824 1.901,-1.279 3.126,-0.627 1.789,-4.917 -4.443,0.324 -4.37,-5.647 3.208,-3.016 7.207,-1.984 10.039,-6.847"
           style="fill:#ffffff;fill-opacity:1;fill-rule:evenodd;stroke:none"
           id="path2452"
           inkscape:connector-curvature="0" /><path
           d="m 590.486,314.182 c -1.51,-8.624 -8.333,-7.709 -12.49,-13.807 -1.169,1.857 1.317,2.994 2.493,4.388 -1.283,1.78 -3.269,-0.079 -5.007,-0.639 2.69,6.212 8.301,0.762 15.004,10.058"
           style="fill:#ffffff;fill-opacity:1;fill-rule:evenodd;stroke:none"
           id="path2454"
           inkscape:connector-curvature="0" /><path
           d="m 426.777,201.733 c -5.55,-1.827 0.116,7.344 -4.42,10.63 8.127,3.117 5.455,-6.406 4.42,-10.63"
           style="fill:#ffffff;fill-opacity:1;fill-rule:evenodd;stroke:none"
           id="path2456"
           inkscape:connector-curvature="0" /><path
           d="m 431.713,226.774 c 2.485,-6.628 6.495,-5.54 9.419,-9.979 -2.032,-2.809 -9.472,4.237 -6.884,-1.897 -4.248,-0.866 -2.538,3.231 -3.77,5.625 -3.997,2.178 -3.084,-11.675 -9.392,1.846 -4.332,-2.397 -4.932,-5.519 -1.852,-9.383 0.844,-4.392 -2.761,-0.224 -4.393,2.481 0.202,4.848 3.051,9.17 -1.906,15.03 6.701,2.457 0.145,7.546 6.86,10.024 0.32,-5.477 -0.301,-10.778 0.032,-16.274 3.032,-3.908 7.429,-0.857 11.886,2.527"
           style="fill:#ffffff;fill-opacity:1;fill-rule:evenodd;stroke:none"
           id="path2458"
           inkscape:connector-curvature="0" /><path
           d="m 412.291,235.491 c 2.297,-11.69 -10.427,-11.678 0,0"
           style="fill:#ffffff;fill-opacity:1;fill-rule:evenodd;stroke:none"
           id="path2460"
           inkscape:connector-curvature="0" /><path
           d="m 437.973,225.547 c -8.774,2.287 -1.914,8.871 -0.035,16.275 0.487,1.886 -3.448,5.159 1.236,6.264 1.89,-7.971 -3.987,-14.385 -1.201,-22.539"
           style="fill:#ffffff;fill-opacity:1;fill-rule:evenodd;stroke:none"
           id="path2462"
           inkscape:connector-curvature="0" /><path
           d="m 409.852,214.84 c -3.17,-9.132 0.089,16.488 1.226,6.26 0.182,-1.617 -0.241,-4.735 -1.226,-6.26"
           style="fill:#ffffff;fill-opacity:1;fill-rule:evenodd;stroke:none"
           id="path2464"
           inkscape:connector-curvature="0" /><path
           d="m 426.712,226.141 c -3.933,-1.951 -4.818,9.979 -3.794,13.755 -0.875,-3.229 9.987,6.322 4.996,8.788 6.31,-5.243 3.272,-10.165 1.91,-15.019 -0.744,-2.691 -2.986,3.652 -2.513,3.751 -4.862,-1.107 0.24,-8.87 -0.599,-11.275"
           style="fill:#ffffff;fill-opacity:1;fill-rule:evenodd;stroke:none"
           id="path2466"
           inkscape:connector-curvature="0" /><path
           d="m 403.584,216.077 c 4.127,-7.348 -8.366,2.393 -2.514,3.751 0.164,6.5 0.295,-0.807 2.514,-3.751"
           style="fill:#ffffff;fill-opacity:1;fill-rule:evenodd;stroke:none"
           id="path2468"
           inkscape:connector-curvature="0" /><path
           d="m 412.917,238.632 c -1.771,-0.663 -3.146,0.619 -5.007,-0.64 l -2.514,3.751 c 7.25,1.869 6.091,2.331 4.979,8.773 7.891,0.896 0.142,-8.51 2.542,-11.884"
           style="fill:#ffffff;fill-opacity:1;fill-rule:evenodd;stroke:none"
           id="path2470"
           inkscape:connector-curvature="0" /><path
           d="m 423.505,259.316 c -2.533,3.704 -6.711,-1.056 -8.776,4.981 4.573,1.194 8.346,-1.648 11.901,-5.604 -3.026,-5.558 -11.46,0.295 -9.371,-6.281 -7.713,-1.007 -2.926,7.288 -0.014,8.131 0.343,0.104 4.657,-5.428 6.26,-1.227"
           style="fill:#ffffff;fill-opacity:1;fill-rule:evenodd;stroke:none"
           id="path2472"
           inkscape:connector-curvature="0" /><path
           d="m 408.484,257.394 c 0.051,-0.921 2.796,-2.921 2.509,-3.743 -1.838,-5.406 -8.305,3.567 -3.765,5.618 3.169,1.441 1.232,-1.493 1.256,-1.875"
           style="fill:#ffffff;fill-opacity:1;fill-rule:evenodd;stroke:none"
           id="path2474"
           inkscape:connector-curvature="0" /><path
           d="m 403.457,264.895 c 1.443,-7.42 -6.067,3.729 -0.649,5.003 0.785,6.98 0.59,-2.647 0.649,-5.003"
           style="fill:#ffffff;fill-opacity:1;fill-rule:evenodd;stroke:none"
           id="path2476"
           inkscape:connector-curvature="0" /><path
           d="m 394.088,258.614 c 1.443,-7.42 -6.068,3.73 -0.65,5.004 0.785,6.98 0.591,-2.648 0.65,-5.004"
           style="fill:#ffffff;fill-opacity:1;fill-rule:evenodd;stroke:none"
           id="path2478"
           inkscape:connector-curvature="0" /><path
           d="m 389.688,261.104 c -5.973,-1.275 -4.059,9.285 0.613,11.27 -0.205,-3.77 -2.6,-7.074 -0.613,-11.27"
           style="fill:#ffffff;fill-opacity:1;fill-rule:evenodd;stroke:none"
           id="path2480"
           inkscape:connector-curvature="0" /><path
           d="m 445.298,303.801 c 0.098,1.083 4.073,-1.082 1.259,-1.877 0.519,0.144 -3.279,2.544 -3.143,0.614 -0.009,0.317 -0.04,8.9 3.112,7.523 -0.005,0.007 -1.172,-5.669 -1.228,-6.26"
           style="fill:#ffffff;fill-opacity:1;fill-rule:evenodd;stroke:none"
           id="path2482"
           inkscape:connector-curvature="0" /><path
           d="m 441.498,317.563 c 0.06,-0.915 2.797,-2.942 2.515,-3.752 -1.842,-5.421 -8.294,3.59 -3.767,5.62 3.166,1.425 1.247,-1.499 1.252,-1.868"
           style="fill:#ffffff;fill-opacity:1;fill-rule:evenodd;stroke:none"
           id="path2484"
           inkscape:connector-curvature="0" /><path
           d="m 440.845,330.704 c 13.496,8.635 2.478,-6.389 -1.867,-1.252 -2.31,2.717 2.422,1.611 1.867,1.252"
           style="fill:#ffffff;fill-opacity:1;fill-rule:evenodd;stroke:none"
           id="path2486"
           inkscape:connector-curvature="0" /><path
           d="m 284.634,231.438 c -1.872,-8.124 -13.327,4.026 0,0"
           style="fill:#ffffff;fill-opacity:1;fill-rule:evenodd;stroke:none"
           id="path2488"
           inkscape:connector-curvature="0" /><path
           d="m 310.852,257.151 c -6.498,-6.122 -10.391,9.063 -4.41,10.637 0.205,-6.267 -1.616,-6.162 4.41,-10.637"
           style="fill:#ffffff;fill-opacity:1;fill-rule:evenodd;stroke:none"
           id="path2490"
           inkscape:connector-curvature="0" /><path
           d="m 152.758,156.62 c -3.064,8.975 -7.622,9.797 -13.817,20.615 0.427,2.63 4.383,4.551 3.104,7.518 4.773,1.008 1.822,-9.963 3.8,-13.763 4.223,-3.842 16.905,-7.116 6.913,-14.37"
           style="fill:#ffffff;fill-opacity:1;fill-rule:evenodd;stroke:none"
           id="path2492"
           inkscape:connector-curvature="0" /><path
           d="m 196.483,188.661 c -5.297,-1.438 -1.156,8.703 -2.525,11.86 7.878,0.913 0.129,-8.495 2.525,-11.86"
           style="fill:#ffffff;fill-opacity:1;fill-rule:evenodd;stroke:none"
           id="path2494"
           inkscape:connector-curvature="0" /><path
           d="m 290.79,270.862 c 2.414,-2.736 7.056,3.79 5.627,3.772 6.344,0.066 -0.877,-12.454 -5.627,-3.772"
           style="fill:#ffffff;fill-opacity:1;fill-rule:evenodd;stroke:none"
           id="path2496"
           inkscape:connector-curvature="0" /><path
           d="m 192.09,199.271 c -8.053,-1.342 -0.366,7.444 -1.286,10.009 6.209,1.715 -1.477,-7.058 1.286,-10.009"
           style="fill:#ffffff;fill-opacity:1;fill-rule:evenodd;stroke:none"
           id="path2498"
           inkscape:connector-curvature="0" /><path
           d="m 339.51,311.671 c 0.987,-3.28 -1.784,-0.912 -3.751,-2.515 -1.277,-1.381 -0.612,-3.126 -2.494,-4.388 1.948,-1.102 3.889,-2.25 6.264,-1.237 0.436,-9.589 -13,1.233 -10.036,6.865 2.445,-0.037 4.869,-0.021 3.75,2.513 2.338,0.896 3.783,-2.876 6.267,-1.238"
           style="fill:#ffffff;fill-opacity:1;fill-rule:evenodd;stroke:none"
           id="path2500"
           inkscape:connector-curvature="0" /><path
           d="m 285.163,267.09 c -0.731,1.841 -1.902,1.302 -3.13,0.632 -1.001,3.283 1.76,0.912 3.752,2.514 l 2.519,-3.758 c -2.566,-1.939 -5.118,-3.857 -6.875,-1.89 -6.507,0.172 0.785,0.292 3.734,2.502"
           style="fill:#ffffff;fill-opacity:1;fill-rule:evenodd;stroke:none"
           id="path2502"
           inkscape:connector-curvature="0" /><path
           d="m 187.673,209.897 c 3.884,-6.966 -9.509,3.214 -5.627,-3.771 -3.77,-0.181 -4.465,12.716 -0.043,16.285 1.724,-3.242 0.185,-13.883 5.67,-12.514"
           style="fill:#ffffff;fill-opacity:1;fill-rule:evenodd;stroke:none"
           id="path2504"
           inkscape:connector-curvature="0" /><path
           d="m 66.446,131.363 c 10.206,-3.945 -9.053,-7.54 -12.503,-5.663 -1.603,9.578 14.108,-3.903 12.503,5.663"
           style="fill:#ffffff;fill-opacity:1;fill-rule:evenodd;stroke:none"
           id="path2506"
           inkscape:connector-curvature="0" /><path
           d="m 140.168,183.495 c -3.279,-0.985 -0.919,1.779 -2.509,3.742 -2.046,2.056 -4.992,-0.601 -3.741,-2.507 -1.374,-1.411 -2.264,-0.448 -3.133,0.618 l -2.514,3.75 c 4.631,1.509 8.696,0.136 13.141,0.654 0.898,-2.338 -2.879,-3.757 -1.244,-6.257"
           style="fill:#ffffff;fill-opacity:1;fill-rule:evenodd;stroke:none"
           id="path2508"
           inkscape:connector-curvature="0" /><path
           d="m 157.656,197.924 c -5.341,1.701 -5.678,16.236 -0.67,21.295 -1.324,-6.786 4.062,-14.902 0.67,-21.295"
           style="fill:#ffffff;fill-opacity:1;fill-rule:evenodd;stroke:none"
           id="path2510"
           inkscape:connector-curvature="0" /><path
           d="m 287.623,287.754 c -4.657,1.142 -10.774,-5.07 -14.4,1.224 l 7.495,5.023 c 1.166,-1.858 -1.322,-2.988 -2.493,-4.394 2.27,-4.982 7.838,6.778 9.398,-1.853"
           style="fill:#ffffff;fill-opacity:1;fill-rule:evenodd;stroke:none"
           id="path2512"
           inkscape:connector-curvature="0" /><path
           d="m 174.495,225.52 c 6.367,-4.522 -5.112,-5.5 1.27,-10.024 -3.912,-2.867 -4.557,6.222 -3.772,5.63 -4.327,3.166 -7.083,-1.196 -13.14,-0.656 1.046,5.934 2.454,3.796 -3.154,8.76 -2.764,-1.623 -5.514,-3.248 -4.37,-5.646 -6.874,-1.584 -1.698,7.686 1.861,9.39 6.701,-4.518 12.563,-13.303 21.305,-7.454"
           style="fill:#ffffff;fill-opacity:1;fill-rule:evenodd;stroke:none"
           id="path2514"
           inkscape:connector-curvature="0" /><path
           d="m 142.643,196.028 c 1.047,-3.33 -2.894,-0.873 -5.627,-3.771 -1.995,4.185 2.614,7.073 0.604,11.264 6.603,3.563 -3.429,-10.685 5.023,-7.493"
           style="fill:#ffffff;fill-opacity:1;fill-rule:evenodd;stroke:none"
           id="path2516"
           inkscape:connector-curvature="0" /><path
           d="m 150.098,217.309 c 0.537,-4.432 -0.857,-8.487 0.664,-13.137 -10.06,-4.692 -0.869,17.019 -10.647,3.739 -2.851,7.942 4.766,4.842 9.983,9.398"
           style="fill:#ffffff;fill-opacity:1;fill-rule:evenodd;stroke:none"
           id="path2518"
           inkscape:connector-curvature="0" /><path
           d="m 113.843,198.458 c 2.16,3.909 -0.97,8.866 -0.653,13.139 9.984,-0.266 16.691,-11.37 7.557,-19.386 0.223,5.378 -0.097,10.871 -3.167,16.893 -2.108,-7.714 -2.112,-15.859 0.064,-24.408 -4.122,-1.616 -8.524,-4.736 -11.272,0.597 1.401,4.481 6.237,-1.254 6.263,-1.236 3.941,3.155 0.081,17.677 -7.556,19.386 -3.58,-3.098 5.008,-8.588 2.534,-11.893 -5.484,-1.369 -3.96,9.273 -5.676,12.504 6.682,-1.474 9.655,0.856 8.127,8.153 -1.384,1.276 -3.134,0.618 -4.391,2.493 -1.109,-1.939 -2.264,-3.887 -1.235,-6.264 4.137,-0.486 0.649,-0.607 -1.867,-1.251 -0.008,5.97 1.117,11.711 4.958,16.916 2.476,-3.753 -3.52,-5.803 1.271,-10.007 0.46,5.33 7.798,9.297 3.091,15.646 12.567,-6.313 -8.508,-19.964 1.952,-31.282"
           style="fill:#ffffff;fill-opacity:1;fill-rule:evenodd;stroke:none"
           id="path2520"
           inkscape:connector-curvature="0" /><path
           d="m 72.008,159.542 c 2.789,-5.141 -4.947,0.406 -7.493,-5.021 -2.851,4.849 5.978,4.803 7.493,5.021"
           style="fill:#ffffff;fill-opacity:1;fill-rule:evenodd;stroke:none"
           id="path2522"
           inkscape:connector-curvature="0" /><path
           d="m 130.736,201.625 c -1.159,1.862 1.332,2.992 2.5,4.381 -1.272,1.8 -3.271,-0.08 -5.008,-0.639 -3.468,3.962 4.021,5.724 1.855,9.399 6.698,1.423 0.479,-4.175 0.633,-4.998 0.206,-1.138 8.478,-5.694 0.02,-8.143"
           style="fill:#ffffff;fill-opacity:1;fill-rule:evenodd;stroke:none"
           id="path2524"
           inkscape:connector-curvature="0" /><path
           d="m 38.238,153.205 c -0.571,7.41 19.322,21.722 26.232,17.583 2.533,-6.448 -5.211,-0.891 -7.492,-5.022 l 3.772,-5.627 c 1.818,0.726 1.265,1.916 0.611,3.142 5.966,-5.135 3.043,-4.906 -1.221,-6.269 -3.841,-1.21 -13.495,6.888 -21.902,-3.807"
           style="fill:#ffffff;fill-opacity:1;fill-rule:evenodd;stroke:none"
           id="path2526"
           inkscape:connector-curvature="0" /><path
           d="m 148.841,219.184 c -1.848,-1.163 -2.983,1.338 -4.386,2.51 -3.522,-2.011 -2.413,-4.956 -6.228,-6.892 -0.066,2.712 3,4.805 -0.033,8.12 3.828,0.209 7.825,1.185 10.647,-3.738"
           style="fill:#ffffff;fill-opacity:1;fill-rule:evenodd;stroke:none"
           id="path2528"
           inkscape:connector-curvature="0" /><path
           d="m 98.214,193.405 c 4.131,-0.492 0.659,-0.616 -1.875,-1.257 -3.419,4.487 -0.947,7.776 -2.534,11.894 9.133,5.594 -2.269,-6.572 4.409,-10.637"
           style="fill:#ffffff;fill-opacity:1;fill-rule:evenodd;stroke:none"
           id="path2530"
           inkscape:connector-curvature="0" /><path
           d="m 25.09,152.546 c -0.486,-4.14 -0.631,-0.653 -1.251,1.867 9.805,8.492 12.832,3.975 1.251,-1.867"
           style="fill:#ffffff;fill-opacity:1;fill-rule:evenodd;stroke:none"
           id="path2532"
           inkscape:connector-curvature="0" /><path
           d="m 141.298,230.437 c -2.127,12.822 8.914,11.863 0,0"
           style="fill:#ffffff;fill-opacity:1;fill-rule:evenodd;stroke:none"
           id="path2534"
           inkscape:connector-curvature="0" /><path
           d="m 2.743,142.777 c 2.146,0.628 1.464,-1.492 0,-3.71 z"
           style="fill:#ffffff;fill-opacity:1;fill-rule:evenodd;stroke:none"
           id="path2536"
           inkscape:connector-curvature="0" /><path
           d="m 13.825,153.15 c -0.167,-0.175 0.709,-2.039 -0.629,-3.137 -0.932,-0.783 -6.434,-5.241 -7.493,-5.024 -3.124,0.623 25.784,26.053 8.122,8.161"
           style="fill:#ffffff;fill-opacity:1;fill-rule:evenodd;stroke:none"
           id="path2538"
           inkscape:connector-curvature="0" /><path
           d="m 2.743,165.092 c 0.579,0.258 1.332,0.644 2.296,1.185 -0.293,-1.858 -1.09,-3.615 -2.296,-5.289 z"
           style="fill:#ffffff;fill-opacity:1;fill-rule:evenodd;stroke:none"
           id="path2540"
           inkscape:connector-curvature="0" /><path
           d="m 2.743,171.282 c 0.667,-0.305 1.67,-0.304 1.638,-0.011 0.079,-0.782 -0.778,-2.135 -1.638,-3.412 z"
           style="fill:#ffffff;fill-opacity:1;fill-rule:evenodd;stroke:none"
           id="path2542"
           inkscape:connector-curvature="0" /><path
           d="m 2.743,176.273 c 1.096,0.283 2.094,0.653 2.882,1.256 4.906,3.752 5.923,11.844 14.977,18.192 2.673,1.873 6.422,1.201 11.245,7.537 4.181,5.486 15.701,25.779 28.734,21.981 -3.123,-6.643 -15.609,-8.273 -23.116,-18.216 -4.138,-5.475 -7.674,-15.113 -17.463,-22.574 -2.793,-2.117 -8.64,-3.062 -8.758,-3.154 -2.951,-2.289 -0.149,-9.851 -8.115,-8.155 -0.148,-0.101 -0.276,-0.197 -0.386,-0.289 z"
           style="fill:#ffffff;fill-opacity:1;fill-rule:evenodd;stroke:none"
           id="path2544"
           inkscape:connector-curvature="0" /><path
           d="m 110.014,228.482 c -4.775,-0.504 -6.725,12.038 -1.91,15.02 l 3.766,-5.618 c -1.36,-1.413 -2.257,-0.459 -3.134,0.617 -3.275,-2.608 3.108,-7.115 1.278,-10.019"
           style="fill:#ffffff;fill-opacity:1;fill-rule:evenodd;stroke:none"
           id="path2546"
           inkscape:connector-curvature="0" /><path
           d="m 129.995,247.3 c -3.325,-0.591 -2.405,8.221 -1.893,6.899 -0.453,1.176 -6.623,-0.613 -6.258,1.229 1.131,5.692 13.29,-0.264 8.151,-8.128"
           style="fill:#ffffff;fill-opacity:1;fill-rule:evenodd;stroke:none"
           id="path2548"
           inkscape:connector-curvature="0" /><path
           d="m 10.647,170.037 c 1.035,-7.349 -4.348,3.372 2.486,4.383 4.399,0.837 0.241,-2.763 -2.486,-4.383"
           style="fill:#ffffff;fill-opacity:1;fill-rule:evenodd;stroke:none"
           id="path2550"
           inkscape:connector-curvature="0" /><path
           d="m 71.869,216.507 c -2.371,-1.074 -2.306,1.173 -1.252,1.868 -2.278,4.977 -7.844,-6.766 -9.395,1.854 5.168,3.454 12.186,3.286 10.647,-3.722"
           style="fill:#ffffff;fill-opacity:1;fill-rule:evenodd;stroke:none"
           id="path2552"
           inkscape:connector-curvature="0" /><path
           d="m 101.839,244.736 c -1.665,4.118 6.277,6.359 0.598,11.276 2.404,1.16 3.875,-2.363 5.647,-4.371 -3.524,-2.025 -2.419,-4.944 -6.245,-6.905"
           style="fill:#ffffff;fill-opacity:1;fill-rule:evenodd;stroke:none"
           id="path2554"
           inkscape:connector-curvature="0" /><path
           d="m 2.743,201.214 c 3.767,5.647 13.906,10.038 4.653,18.264 4.402,0.489 10.036,0.635 8.779,-4.987 7.576,8.799 16.525,17.323 26.214,25.723 6.487,-1.627 8.357,-6.03 15.044,-6.226 1.12,-0.034 2.698,2.725 3.743,2.509 3.909,-0.757 -1.282,-11.538 7.517,-3.102 4.402,-5.452 -5.258,-7.377 -7.494,-5.024 -0.795,0.82 -0.764,3.428 0.618,3.132 -5.131,1.123 -9.086,-0.552 -12.524,2.465 -0.845,-2.008 -1.735,-3.986 -4.379,-5.654 0.693,4.099 3.18,7.48 -3.14,8.758 -3.316,-7.35 -10.604,-9.338 -16.229,-16.301 -3.362,-4.173 -1.815,-11.381 -9.972,-17.546 -4.107,-3.128 -7.839,-6.234 -12.83,-4.228 z"
           style="fill:#ffffff;fill-opacity:1;fill-rule:evenodd;stroke:none"
           id="path2556"
           inkscape:connector-curvature="0" /><path
           d="m 2.743,208.098 c 0.345,0.207 0.655,0.445 0.922,0.726 1.77,1.856 -1.457,6.094 3.113,7.521 1.964,-4.571 -0.412,-8.282 -4.035,-11.746 z"
           style="fill:#ffffff;fill-opacity:1;fill-rule:evenodd;stroke:none"
           id="path2558"
           inkscape:connector-curvature="0" /><path
           d="m 2.743,189.48 c 5.036,4.134 12.223,8.406 17.829,14.377 C 24.243,195.082 10.301,187.94 2.743,188.03 Z"
           style="fill:#ffffff;fill-opacity:1;fill-rule:evenodd;stroke:none"
           id="path2560"
           inkscape:connector-curvature="0" /><path
           d="m 97.415,263.505 c -0.603,-1.485 -4.241,4.632 -4.391,2.496 0.242,3.884 8.652,4.676 4.391,-2.496"
           style="fill:#ffffff;fill-opacity:1;fill-rule:evenodd;stroke:none"
           id="path2562"
           inkscape:connector-curvature="0" /><path
           d="m 69.916,247.791 c -4.128,-1.605 -6.984,3.076 -11.894,-2.533 -7.494,-1.907 3.604,5.481 6.246,6.904 2.618,3.763 -2.455,6.469 4.37,5.648 1.161,-3.501 -4.824,-5.567 1.278,-10.019"
           style="fill:#ffffff;fill-opacity:1;fill-rule:evenodd;stroke:none"
           id="path2564"
           inkscape:connector-curvature="0" /><path
           d="m 51.743,254.626 c 7.084,-1.669 -7.971,-4.903 -11.245,-7.538 -1.509,7.25 7.816,2.291 11.245,7.538"
           style="fill:#ffffff;fill-opacity:1;fill-rule:evenodd;stroke:none"
           id="path2566"
           inkscape:connector-curvature="0" /><path
           d="m 33.594,253.334 c -5.092,-3.875 -5.508,-8.678 -10.597,-12.538 -1.956,13.891 18.389,16.653 28.726,21.972 1.183,-9.242 -16.904,-4.592 -15.615,-13.183 -3.28,-0.987 -0.914,1.767 -2.514,3.749"
           style="fill:#ffffff;fill-opacity:1;fill-rule:evenodd;stroke:none"
           id="path2568"
           inkscape:connector-curvature="0" /><path
           d="m 2.743,244.458 c 1.221,0.474 2.39,0.886 3.344,1.288 -0.875,2.708 -2.111,7.28 6.237,6.897 2.093,-4.201 -7.996,-6.002 -3.734,-10.631 7.221,-2.376 9.081,10.015 9.369,14.408 18.487,8.075 31.37,15.09 46.245,20.15 0.151,-9.987 -6.908,-2.879 -10.626,-4.404 -2.9,-1.21 -5.645,-6.683 -13.121,-8.795 -1.302,-0.383 -10.985,-3.715 -16.248,-8.185 -5.197,-4.412 -7.316,-13.935 -13.715,-20.053 -2.373,-2.275 -5.059,-4.049 -7.751,-6.002 v 6.15 c 2.778,2.076 4.513,4.362 2.729,7.345 -4.224,3.498 -0.357,-2.672 -2.729,-5.548 z"
           style="fill:#ffffff;fill-opacity:1;fill-rule:evenodd;stroke:none"
           id="path2570"
           inkscape:connector-curvature="0" /><path
           d="m 64.823,279.702 c -5.679,4.917 4.462,6.701 0.611,11.257 1.349,1.407 2.25,0.465 3.122,-0.625 l 2.509,-3.742 c -1.358,-1.413 -2.257,-0.454 -3.118,0.617 -1.093,-2.485 0.938,-5.607 -3.124,-7.507"
           style="fill:#ffffff;fill-opacity:1;fill-rule:evenodd;stroke:none"
           id="path2572"
           inkscape:connector-curvature="0" /><path
           d="m 6.667,265.16 c -3.31,-2.061 -3.856,-4.669 -3.124,-7.527 3.302,2.07 3.837,4.655 3.124,7.527 m -3.924,2.85 c 4.708,-0.177 8.922,-2.869 13.928,-1.578 2.042,2.049 -0.601,4.994 -2.513,3.75 7.059,5.402 30.26,21.571 40.022,13.233 -14.993,2.474 -31.831,-14.247 -45.628,-25.144 16.855,3.567 26.996,22.46 43.133,20.754 C 41.541,270.746 19.292,261.29 2.743,251.438 Z"
           style="fill:#ffffff;fill-opacity:1;fill-rule:evenodd;stroke:none"
           id="path2574"
           inkscape:connector-curvature="0" /><path
           d="m 54.796,286.55 c 1.83,7.939 14.488,1.877 0,0"
           style="fill:#ffffff;fill-opacity:1;fill-rule:evenodd;stroke:none"
           id="path2576"
           inkscape:connector-curvature="0" /><path
           d="m 39.717,309.047 c -1.831,1.735 -4.577,-1.225 -6.25,1.234 -10.184,-8.256 -8.755,-1.01 0.608,3.13 6.368,0.491 17.647,-3.455 20.638,5.688 -9.037,0.914 -18.853,-2.123 -28.16,-2.578 2.885,5.978 18.257,4.881 25.652,6.319 4.531,3.698 -4.747,1.51 -5.029,7.504 5.119,3.972 10.071,7.099 13.158,0.667 -1.867,-1.175 -3.018,1.312 -4.397,2.488 -0.852,-2 -1.748,-4.007 -4.363,-5.643 0.072,-1.717 6.32,-1.47 6.258,-1.244 1.313,-4.091 -2.662,-0.006 -3.743,-2.508 0.474,1.142 1.163,-10.172 0.007,-8.137 0.94,-1.673 4.659,-1.821 6.273,-1.231 -0.015,-4.764 -13.536,-8.673 -16.9,-3.174 -3.996,-5.512 -6.503,-7.193 -13.12,-8.794 -2.09,6.575 6.351,0.726 9.368,6.279"
           style="fill:#ffffff;fill-opacity:1;fill-rule:evenodd;stroke:none"
           id="path2578"
           inkscape:connector-curvature="0" /><path
           d="m 2.743,283.761 c 2.356,0.624 4.611,1.281 6.363,2.051 9.706,4.279 21.619,14.991 30.641,15.101 1.783,-9.215 -10.009,-4.558 -14.388,-6.926 -3.42,-1.854 -4.402,-6.48 -8.11,-8.154 -4.218,-1.894 -9.653,-2.169 -14.506,-3.419 z"
           style="fill:#ffffff;fill-opacity:1;fill-rule:evenodd;stroke:none"
           id="path2580"
           inkscape:connector-curvature="0" /><path
           d="m 44.044,330.962 c 0.319,-5.8 -10.933,-1.142 -14.393,1.215 5.203,1.656 9.199,-2.864 14.393,-1.215"
           style="fill:#ffffff;fill-opacity:1;fill-rule:evenodd;stroke:none"
           id="path2582"
           inkscape:connector-curvature="0" /><path
           d="m 43.39,344.104 c 4.641,2.053 0.297,-4.438 0.641,-5.009 1.46,-2.41 6.366,6.204 7.515,-3.105 l -5.627,-3.771 c -2.916,7.195 -7.973,3.573 -11.898,5.605 -3.247,6.054 12.297,-1.316 9.369,6.28"
           style="fill:#ffffff;fill-opacity:1;fill-rule:evenodd;stroke:none"
           id="path2584"
           inkscape:connector-curvature="0" /></g></g></g></svg>