<?xml version="1.0" encoding="UTF-8" standalone="no"?>
<!-- Created with Inkscape (http://www.inkscape.org/) -->

<svg
   version="1.1"
   id="svg2561"
   xml:space="preserve"
   width="1066.6667"
   height="1066.6667"
   viewBox="0 0 1066.6667 1066.6667"
   sodipodi:docname="football-player-silhouette-4.svg"
   inkscape:version="1.1.2 (b8e25be833, 2022-02-05)"
   xmlns:inkscape="http://www.inkscape.org/namespaces/inkscape"
   xmlns:sodipodi="http://sodipodi.sourceforge.net/DTD/sodipodi-0.dtd"
   xmlns="http://www.w3.org/2000/svg"
   xmlns:svg="http://www.w3.org/2000/svg"><defs
     id="defs2565"><clipPath
       clipPathUnits="userSpaceOnUse"
       id="clipPath2575"><path
         d="M 0,800 H 800 V 0 H 0 Z"
         id="path2573" /></clipPath></defs><sodipodi:namedview
     id="namedview2563"
     pagecolor="#ffffff"
     bordercolor="#666666"
     borderopacity="1.0"
     inkscape:pageshadow="2"
     inkscape:pageopacity="0.0"
     inkscape:pagecheckerboard="0"
     showgrid="false"
     inkscape:zoom="0.77906244"
     inkscape:cx="533.33337"
     inkscape:cy="533.33337"
     inkscape:window-width="1920"
     inkscape:window-height="1018"
     inkscape:window-x="-8"
     inkscape:window-y="-8"
     inkscape:window-maximized="1"
     inkscape:current-layer="g2567" /><g
     id="g2567"
     inkscape:groupmode="layer"
     inkscape:label="football-player-silhouette-4"
     transform="matrix(1.3333333,0,0,-1.3333333,0,1066.6667)"><g
       id="g2569"><g
         id="g2571"
         clip-path="url(#clipPath2575)"><path
           d="m 50.489,732.209 c -6.693,4.315 -12.504,7.51 -12.914,7.102 -1.585,-1.587 1.522,-5.216 12.719,-14.86 1.139,-0.981 2.239,-1.949 3.281,-2.882 l 13.946,0.418 c -5.544,3.127 -12.214,7.117 -17.032,10.222"
           style="fill:#df2200;fill-opacity:1;fill-rule:nonzero;stroke:none"
           id="path2577" /><path
           d="m 454.975,751.5 c -1.892,-0.773 -3.548,-1.58 -4.678,-2.317 -11.97,-7.809 -20.416,-23.374 -20.416,-37.622 0,-5.76 -0.513,-7.059 -3.039,-7.72 -2.513,-0.656 -2.959,-1.762 -2.575,-6.368 0.379,-4.557 1.133,-5.73 4.142,-6.429 2.327,-0.541 3.852,-2.048 4.15,-4.105 0.569,-3.932 0.021,-4.029 -17.146,-0.567 l 15.647,-10.318 z"
           style="fill:#dcf07c;fill-opacity:1;fill-rule:nonzero;stroke:none"
           id="path2579" /><path
           d="m 504.368,710.672 c -0.027,0.64 -0.051,1.288 -0.067,1.942 -0.685,26.329 -4.467,33.398 -21.483,40.151 -8.453,3.355 -9.597,3.465 -18.101,1.742 -3.073,-0.623 -6.712,-1.77 -9.742,-3.007 L 431.06,676.054 Z"
           style="fill:#b7f3bb;fill-opacity:1;fill-rule:nonzero;stroke:none"
           id="path2581" /><path
           d="m 51.908,705.962 c -0.329,-1.161 -0.258,-2.831 -0.089,-5.585 0.392,-6.375 0.113,-7.018 -3.567,-8.246 -2.356,-0.786 -3.991,-2.408 -3.991,-3.962 0,-2.888 1.039,-3.095 30.172,-5.99 8.905,-0.885 19.502,-2.523 23.549,-3.64 4.048,-1.118 10.008,-2.493 13.247,-3.056 3.238,-0.564 8.469,-2.323 11.625,-3.911 3.156,-1.587 11.435,-5.097 18.398,-7.799 6.963,-2.703 19.144,-7.954 27.066,-11.671 1.329,-0.623 2.638,-1.228 3.939,-1.824 l 43.184,5.262 z"
           style="fill:#ef3500;fill-opacity:1;fill-rule:nonzero;stroke:none"
           id="path2583" /><path
           d="m 208.232,680.234 c -3.344,0.375 -7.16,0.766 -11.636,1.213 -24.416,2.433 -48.602,6.321 -69.575,11.181 -12.506,2.899 -25.742,8.786 -36.789,16.362 -3.453,2.369 -11.069,6.797 -16.925,9.841 -1.641,0.852 -3.628,1.939 -5.786,3.156 l -13.946,-0.418 c 4.811,-4.313 8.347,-7.886 8.347,-8.506 0,-0.754 -2.368,-2.361 -5.264,-3.57 -2.992,-1.251 -4.28,-1.872 -4.75,-3.531 L 215.441,655.54 Z"
           style="fill:#f43800;fill-opacity:1;fill-rule:nonzero;stroke:none"
           id="path2585" /><path
           d="m 284.264,666.565 c -0.979,-0.04 -1.99,-0.079 -3.038,-0.116 l -21.342,-0.757 -13.983,5.2 c -16.108,5.992 -21.048,7.476 -37.669,9.342 l 7.209,-24.694 z"
           style="fill:#f77700;fill-opacity:1;fill-rule:nonzero;stroke:none"
           id="path2587" /><path
           d="m 415.413,686.372 c -0.396,0.08 -0.799,0.161 -1.213,0.245 -16.971,3.431 -33.864,3.86 -38.082,0.966 -1.597,-1.096 -6.639,-2.366 -11.207,-2.822 -4.567,-0.455 -12.515,-2.605 -17.662,-4.777 -5.146,-2.172 -13,-4.532 -17.453,-5.248 -4.452,-0.716 -12.4,-2.702 -17.662,-4.416 -0.058,-0.019 -0.116,-0.036 -0.174,-0.055 l 119.1,5.789 z"
           style="fill:#f2da4a;fill-opacity:1;fill-rule:nonzero;stroke:none"
           id="path2589" /><path
           d="m 172.257,650.278 c 13.454,-6.171 25.436,-10.913 36.782,-14.465 l 6.402,19.727 z"
           style="fill:#fb6100;fill-opacity:1;fill-rule:nonzero;stroke:none"
           id="path2591" /><path
           d="m 475.144,541.621 33.332,118.835 c -4.254,2.898 -7.466,4.674 -9.13,4.995 -3.893,0.746 -4.773,1.554 -4.415,4.055 0.31,2.174 1.788,3.352 4.862,3.876 3.791,0.648 4.66,1.69 6.138,7.368 2.237,8.602 2.365,15.188 0.332,17.22 -0.813,0.812 -1.617,6.328 -1.895,12.702 L 431.06,676.054 Z"
           style="fill:#d8f890;fill-opacity:1;fill-rule:nonzero;stroke:none"
           id="path2593" /><path
           d="m 583.188,583.522 c -8.686,9.952 -17.301,20.055 -23.53,27.683 -18.655,22.85 -22.936,27.253 -39.046,40.166 -4.554,3.65 -8.687,6.735 -12.136,9.085 L 475.144,541.621 Z"
           style="fill:#c5f5c1;fill-opacity:1;fill-rule:nonzero;stroke:none"
           id="path2595" /><path
           d="m 306.788,668.861 c -0.552,-0.122 -1.113,-0.24 -1.69,-0.351 l -8.883,-49.472 c 1.925,-0.323 3.87,-0.574 5.766,-0.732 11.423,-0.954 30.192,-5.582 32.665,-8.056 1.527,-1.528 -10.103,-26.803 -18.386,-39.96 -7.098,-11.273 -11.04,-21.339 -12.269,-31.325 -0.581,-4.716 -1.801,-9.194 -2.712,-9.95 -0.91,-0.755 -3.436,-2.708 -5.613,-4.339 -2.707,-2.026 -11.77,-16.374 -18.864,-29.093 l 198.342,46.038 z"
           style="fill:#ffd100;fill-opacity:1;fill-rule:nonzero;stroke:none"
           id="path2597" /><path
           d="m 431.06,676.054 -119.1,-5.789 c -1.672,-0.539 -3.362,-1.003 -5.172,-1.404 l 168.356,-127.24 z"
           style="fill:#f9ed2d;fill-opacity:1;fill-rule:nonzero;stroke:none"
           id="path2599" /><path
           d="m 284.264,666.565 -68.823,-11.025 8.679,-23.835 c 11.001,-2.537 21.746,-3.982 33.089,-4.566 14.308,-0.738 19.512,-1.63 25.757,-4.412 3.432,-1.529 8.267,-2.854 13.249,-3.689 l 8.883,49.472 c -5.139,-0.991 -11.397,-1.553 -20.834,-1.945"
           style="fill:#fd9d00;fill-opacity:1;fill-rule:nonzero;stroke:none"
           id="path2601" /><path
           d="m 209.039,635.813 c 5.131,-1.606 10.133,-2.968 15.081,-4.108 l -8.679,23.835 z"
           style="fill:#ff9300;fill-opacity:1;fill-rule:nonzero;stroke:none"
           id="path2603" /><path
           d="m 497.624,539.217 9.527,4.081 c 25.133,10.769 35.748,10.325 42.848,-1.793 1.446,-2.464 4.292,-5.791 7.298,-8.667 l 44.425,-4.749 4.32,29.852 c -6.383,6.918 -14.649,16.181 -22.854,25.581 L 475.144,541.621 Z"
           style="fill:#cbf387;fill-opacity:1;fill-rule:nonzero;stroke:none"
           id="path2605" /><path
           d="m 618.469,545.208 c -1.52,1.434 -3.053,2.928 -4.614,4.497 -1.995,2.003 -4.677,4.837 -7.813,8.236 l -4.32,-29.852 z"
           style="fill:#96eaa2;fill-opacity:1;fill-rule:nonzero;stroke:none"
           id="path2607" /><path
           d="m 666.961,512.155 c -4.44,3.012 -9.339,5.921 -15.057,9.064 -13.549,7.449 -23.182,14.315 -33.435,23.989 l -16.747,-17.119 z"
           style="fill:#9ae292;fill-opacity:1;fill-rule:nonzero;stroke:none"
           id="path2609" /><path
           d="M 475.144,541.621 276.802,495.583 c -0.344,-0.616 -0.684,-1.229 -1.018,-1.836 l 157.895,-99.655 z"
           style="fill:#ffce00;fill-opacity:1;fill-rule:nonzero;stroke:none"
           id="path2611" /><path
           d="m 470.395,384.592 c 0.716,5.457 2.06,11.279 4.531,20.919 1.139,4.451 2.395,10.081 2.789,12.51 0.36,2.234 -0.172,6.048 -1.206,10.223 l -42.83,-34.152 z"
           style="fill:#f0d03c;fill-opacity:1;fill-rule:nonzero;stroke:none"
           id="path2613" /><path
           d="m 582.617,512.855 c 0.112,0.005 0.22,0.01 0.335,0.015 4.698,0.21 8.546,-0.763 13.245,-3.349 1.224,-0.673 2.901,-1.513 4.795,-2.413 l 0.73,20.981 z"
           style="fill:#f0d03c;fill-opacity:1;fill-rule:nonzero;stroke:none"
           id="path2615" /><path
           d="m 433.679,394.092 42.83,34.152 c -1.811,7.305 -5.164,15.724 -8.006,18.772 -3.607,3.866 -3.68,4.361 -2.696,18.398 1.546,22.069 2.722,26.811 9.787,39.488 3.594,6.453 8.854,16.313 11.689,21.912 l 5.151,10.18 5.19,2.223 -22.48,2.404 z"
           style="fill:#f6e63a;fill-opacity:1;fill-rule:nonzero;stroke:none"
           id="path2617" /><path
           d="m 557.297,532.838 c 1.47,-1.407 2.978,-2.708 4.381,-3.745 5.26,-3.885 8.32,-7.414 9.481,-10.936 1.843,-5.583 2.03,-5.719 11.458,-5.302 l 19.105,15.234 z"
           style="fill:#f6e63a;fill-opacity:1;fill-rule:nonzero;stroke:none"
           id="path2619" /><path
           d="m 600.992,507.108 c 3.749,-1.781 8.368,-3.808 12.133,-5.289 10.337,-4.072 18.068,-9.982 38.07,-29.101 2.879,-2.751 8.826,-7.468 15.691,-12.536 l 21.637,32.785 c -7.091,8.036 -13.585,13.78 -21.562,19.188 l -65.239,15.934 z"
           style="fill:#c7df6f;fill-opacity:1;fill-rule:nonzero;stroke:none"
           id="path2621" /><path
           d="m 433.679,394.092 -157.895,99.655 c -0.36,-0.658 -0.716,-1.308 -1.061,-1.95 l 8.996,-35.394 c 3.411,-4.004 3.981,-6.817 2.927,-11.512 l 33.549,-131.983 z"
           style="fill:#feb200;fill-opacity:1;fill-rule:nonzero;stroke:none"
           id="path2623" /><path
           d="m 764.594,402.454 c 1.925,-2.288 3.072,-4.036 3.459,-5.552 l 8.814,-13.297 c 0.177,0.77 0.353,1.565 0.525,2.395 1.335,6.459 1.373,9.859 0.158,13.351 l -1.633,4.685 6.574,1.656 c 8.249,2.076 6.677,4.974 -3.311,6.099 -5.485,0.619 -7.741,1.801 -11.384,5.963 -3.269,3.737 -6.865,5.84 -12.813,7.497 -2.678,0.748 -5,1.398 -7.082,2.057 l 15.798,-23.836 c 0.288,-0.314 0.582,-0.647 0.895,-1.018"
           style="fill:#b5b995;fill-opacity:1;fill-rule:nonzero;stroke:none"
           id="path2625" /><path
           d="m 765.092,390.934 c -1.823,-1.53 -5.301,-4.539 -7.73,-6.686 l -4.415,-3.902 7.632,0.933 7.631,0.932 0.463,-5.529 c 0.907,-10.787 4.973,-7.045 8.194,6.923 l -8.814,13.297 c 0.552,-2.162 -0.447,-3.853 -2.961,-5.968"
           style="fill:#c2b266;fill-opacity:1;fill-rule:nonzero;stroke:none"
           id="path2627" /><path
           d="m 709.273,429.961 c 4.75,-4.444 12.03,-17.513 12.03,-21.597 0,-1.109 4.042,-5.766 8.98,-10.35 6.29,-5.838 9.285,-9.825 9.996,-13.299 1.132,-5.531 5.302,-6.799 8.049,-2.445 1.216,1.925 0.82,4.091 -1.689,9.255 -3.045,6.266 -3.116,7.047 -1.02,11.1 1.979,3.824 3.044,4.359 8.708,4.359 4.873,0 6.717,-0.611 9.372,-3.512 l -15.798,23.836 c -13.439,4.251 -16.836,8.845 -40.795,41.863 -4.205,5.796 -7.955,10.804 -11.444,15.213 l -1.623,-43.1 c 7.418,-5.193 13.436,-9.641 15.234,-11.323"
           style="fill:#c2b266;fill-opacity:1;fill-rule:nonzero;stroke:none"
           id="path2629" /><path
           d="m 682.281,449.333 c 4.036,-2.703 8.07,-5.467 11.758,-8.049 l 1.623,43.1 c -2.488,3.145 -4.845,5.985 -7.139,8.583 l -21.637,-32.785 c 4.924,-3.636 10.319,-7.45 15.395,-10.849"
           style="fill:#d3bf53;fill-opacity:1;fill-rule:nonzero;stroke:none"
           id="path2631" /><path
           d="m 286.646,444.891 c -0.273,-1.213 -0.651,-2.549 -1.12,-4.066 -2.67,-8.653 -4.503,-53.526 -2.856,-69.903 1.238,-12.309 2.307,-27.688 3.092,-42.881 l 34.433,-15.133 z"
           style="fill:#fe9400;fill-opacity:1;fill-rule:nonzero;stroke:none"
           id="path2633" /><path
           d="m 268.634,479.37 -2.527,-6.356 10.503,-9.586 c 3.132,-2.858 5.453,-5.082 7.109,-7.025 l -8.996,35.394 c -2.67,-4.943 -4.882,-9.392 -6.089,-12.427"
           style="fill:#fe9400;fill-opacity:1;fill-rule:nonzero;stroke:none"
           id="path2635" /><path
           d="m 432.806,234.779 39.751,28.666 c 1.58,9.967 2.948,27.61 2.941,40.93 -0.002,8.268 -1.327,22.859 -2.942,32.426 -1.614,9.564 -2.936,23.961 -2.936,31.99 0,6.529 0.147,11.023 0.775,15.801 l -36.716,9.5 z"
           style="fill:#fb9b00;fill-opacity:1;fill-rule:nonzero;stroke:none"
           id="path2637" /><path
           d="m 433.679,394.092 -113.484,-81.184 42.559,-29.527 c -0.251,1.963 -0.526,3.918 -0.829,5.855 -0.821,5.262 -1.441,12.836 -1.376,16.832 0.122,7.682 2.235,11.936 3.594,7.233 0.432,-1.498 2.231,-7.692 3.997,-13.762 1.765,-6.072 6.114,-16.822 9.663,-23.891 0.789,-1.57 1.49,-2.957 2.134,-4.189 l 15.342,-10.645 c 0.999,-0.238 1.795,-0.734 2.455,-1.703 l 35.072,-24.332 z"
           style="fill:#ffa300;fill-opacity:1;fill-rule:nonzero;stroke:none"
           id="path2639" /><path
           d="m 285.762,328.041 c 0.85,-16.465 1.368,-32.705 1.41,-44.592 l 33.023,29.459 z"
           style="fill:#fd7700;fill-opacity:1;fill-rule:nonzero;stroke:none"
           id="path2641" /><path
           d="m 460.485,223.691 c 0.116,0.457 0.214,0.887 0.294,1.278 1.848,9.103 7.44,26.504 10.043,31.254 0.57,1.039 1.165,3.632 1.735,7.222 l -39.751,-28.666 z"
           style="fill:#f56500;fill-opacity:1;fill-rule:nonzero;stroke:none"
           id="path2643" /><path
           d="m 332.334,195.971 c 2.673,2.291 5.212,4.343 6.962,5.595 8.564,6.123 17.837,14.659 20.4,18.776 5.191,8.34 6.442,36.545 3.058,63.039 l -42.559,29.527 z"
           style="fill:#ff8800;fill-opacity:1;fill-rule:nonzero;stroke:none"
           id="path2645" /><path
           d="m 394.503,260.947 c 0.272,-0.031 0.53,-0.074 0.776,-0.133 l -15.342,10.645 c 4.704,-9.008 6.206,-9.563 14.566,-10.512"
           style="fill:#ff8800;fill-opacity:1;fill-rule:nonzero;stroke:none"
           id="path2647" /><path
           d="m 397.734,259.111 c 1.698,-2.49 2.492,-8.121 3.503,-20.652 l 0.951,-11.775 -13.402,-13.143 44.02,21.238 z"
           style="fill:#ff8800;fill-opacity:1;fill-rule:nonzero;stroke:none"
           id="path2649" /><path
           d="m 287.172,283.449 c 0.033,-9.324 -0.227,-15.97 -0.848,-17.929 -1.225,-3.862 1.241,-5.668 7.78,-5.698 4.644,-0.021 4.784,-0.205 4.784,-6.287 0,-6.084 -0.181,-6.322 -6.256,-8.211 -9.262,-2.883 -15.74,-8.543 -19.716,-17.224 -3.319,-7.248 -3.437,-8.391 -1.899,-18.301 0.902,-5.817 1.203,-12.344 0.669,-14.506 -0.182,-0.736 -1.276,-3.26 -3.022,-7.027 l 53.853,-1.25 c 0.746,0.683 1.477,1.369 2.173,2.039 2.262,2.181 5.017,4.664 7.644,6.916 l -12.139,116.937 z"
           style="fill:#fd7400;fill-opacity:1;fill-rule:nonzero;stroke:none"
           id="path2651" /><path
           d="m 322.432,120.959 c -3.888,-4.701 -7.145,-8.102 -9.023,-9.137 -1.524,-0.842 -3.697,-2.851 -4.829,-4.467 -0.146,-0.209 -0.297,-0.455 -0.449,-0.714 l 10.755,-7.17 z"
           style="fill:#fa6200;fill-opacity:1;fill-rule:nonzero;stroke:none"
           id="path2653" /><path
           d="m 253.016,156.203 c -1.724,-3.424 -3.328,-6.617 -4.82,-9.605 l 35.068,-23.379 c 0.186,0.394 0.371,0.787 0.554,1.172 10.988,23.029 16.541,36.996 16.541,41.601 0,3.856 3.082,7.221 11,12.016 2.347,1.42 7.011,5.209 11.158,9.008 l -53.853,1.25 c -3.385,-7.309 -9.226,-19.305 -15.648,-32.063"
           style="fill:#fa6200;fill-opacity:1;fill-rule:nonzero;stroke:none"
           id="path2655" /><path
           d="m 389.726,129.977 c 10.116,6.234 25.317,17.873 32.771,24.669 l 10.309,80.133 -44.02,-21.238 -0.856,-0.84 c -7.842,-7.691 -15.901,-15.638 -17.907,-17.662 -6.502,-6.56 -12.3,-15.943 -16.117,-26.08 -0.544,-1.445 -1.358,-3.197 -2.385,-5.18 L 382.198,125.1 c 2.511,1.699 5.091,3.375 7.528,4.877"
           style="fill:#ff7200;fill-opacity:1;fill-rule:nonzero;stroke:none"
           id="path2657" /><path
           d="m 422.497,154.646 c 2.745,2.504 4.441,4.352 4.441,5.03 0,0.668 3.908,5.527 8.684,10.799 5.253,5.795 9.099,11.525 9.733,14.498 0.579,2.703 3.892,10.875 7.365,18.162 3.187,6.681 6.5,15.496 7.765,20.556 l -27.679,11.088 z"
           style="fill:#fc6300;fill-opacity:1;fill-rule:nonzero;stroke:none"
           id="path2659" /><path
           d="m 362.139,93.094 c -0.206,1.744 -0.255,3.855 -0.192,6.57 0.21,8.988 0.419,9.459 6.798,15.356 2.506,2.316 7.803,6.255 13.453,10.08 l -30.677,38.679 c -6.042,-11.646 -19.49,-31.211 -29.089,-42.82 l -3.546,-21.488 z"
           style="fill:#fa6800;fill-opacity:1;fill-rule:nonzero;stroke:none"
           id="path2661" /><path
           d="m 308.131,106.641 c -0.818,-1.389 -1.711,-3.459 -2.581,-5.856 l 13.336,-1.314 z"
           style="fill:#f64d00;fill-opacity:1;fill-rule:nonzero;stroke:none"
           id="path2663" /><path
           d="m 230.799,108.15 44.072,-4.341 c 2.481,6.234 5.567,13.404 8.393,19.41 l -35.068,23.379 C 238.511,127.197 233.519,116.48 230.799,108.15"
           style="fill:#f64d00;fill-opacity:1;fill-rule:nonzero;stroke:none"
           id="path2665" /><path
           d="m 308.893,64.051 c 1.05,-0.004 3.544,-1.768 5.541,-3.922 3.261,-3.52 3.988,-3.727 7.17,-2.024 2.166,1.161 4.741,1.502 7.5,1.094 l -10.218,40.272 -15.68,-25.899 c 2.103,-5.517 4.402,-9.517 5.687,-9.521"
           style="fill:#e94c00;fill-opacity:1;fill-rule:nonzero;stroke:none"
           id="path2667" /><path
           d="m 227.396,89.568 c -1.19,-15.99 0.672,-23.879 6.872,-29.095 6.412,-5.395 11.822,-4.938 19.07,1.609 7.89,7.129 12.705,15.629 17.641,31.143 0.858,2.699 2.242,6.433 3.892,10.584 l -44.072,4.341 c -2.171,-6.648 -2.896,-11.775 -3.403,-18.582"
           style="fill:#ed4100;fill-opacity:1;fill-rule:nonzero;stroke:none"
           id="path2669" /><path
           d="m 305.55,100.785 c -2.728,-7.508 -5.231,-18.172 -4.462,-20.846 0.644,-2.242 1.369,-4.4 2.118,-6.367 l 15.68,25.899 z"
           style="fill:#ed4100;fill-opacity:1;fill-rule:nonzero;stroke:none"
           id="path2671" /><path
           d="m 329.104,59.199 c 4.162,-0.615 8.741,-2.939 12.966,-6.763 3.368,-3.047 7.762,-6.649 9.763,-8.002 3.059,-2.073 7.732,-2.467 29.297,-2.467 1.785,0 3.441,0.002 4.985,0.002 l 6.506,10.304 c -7.715,4.719 -17.538,15.623 -22.367,25.02 -1.455,2.832 -3.969,6.937 -5.584,9.125 -1.419,1.92 -2.191,3.797 -2.531,6.676 l -43.253,6.377 z"
           style="fill:#f55e00;fill-opacity:1;fill-rule:nonzero;stroke:none"
           id="path2673" /><path
           d="m 404.334,44.682 c -1.351,1.492 -5.926,4.511 -10.164,6.713 -0.505,0.261 -1.023,0.556 -1.549,0.878 l -6.506,-10.304 c 19.938,0.023 20.424,0.275 18.219,2.713"
           style="fill:#f15700;fill-opacity:1;fill-rule:nonzero;stroke:none"
           id="path2675" /></g></g></g></svg>
