<?xml version="1.0" encoding="UTF-8"?>
<svg width="428px" height="85px" viewBox="0 0 428 85" version="1.1" xmlns="http://www.w3.org/2000/svg" xmlns:xlink="http://www.w3.org/1999/xlink">
    <title>ibX8q101</title>
    <g id="Page-1" stroke="none" stroke-width="1" fill="none" fill-rule="evenodd">
        <g id="romal-shamana" transform="translate(-42, -24)" fill="#000000" fill-rule="nonzero">
            <g id="ibX8q101" transform="translate(42, 24.2805)">
                <g id="Group" transform="translate(214, 42.3598) scale(-1, 1) rotate(-180) translate(-214, -42.3598)translate(0, 0)">
                    <path d="M206.075772,80.108596 C197.63189,72.1081957 189.479176,51.5980786 185.693987,28.0332632 C184.529313,21.0510957 174.338421,9.26868795 169.534143,9.26868795 C166.040123,9.26868795 162.982855,12.9052335 162.982855,16.9781646 C162.982855,18.1418592 164.875449,19.8874011 167.204796,20.6147102 C174.920758,23.3784848 178.12361,32.3971179 172.300242,34.5790452 C168.951806,35.8882017 164.729865,32.9789652 160.799092,26.7241068 C157.741824,21.9238666 156.285982,20.9056338 152.646378,20.9056338 C148.861189,20.9056338 148.278852,21.3420193 149.152358,23.5239467 C151.772873,29.7788051 152.937546,36.0336635 152.500794,40.9793655 C152.209625,45.1977584 151.33612,46.5069148 148.861189,46.7978384 C142.892238,47.6706094 140.271723,35.597278 144.202495,24.8331031 C145.803921,20.0328629 145.803921,19.1600919 142.455485,14.5053136 C138.961465,9.41414977 135.613029,6.94129877 134.157187,8.54137883 C133.138098,9.5596116 132.992513,18.4327828 133.866019,25.1240267 C134.885108,32.5425797 131.973424,32.2516561 126.58681,24.5421794 C119.744353,14.5053136 118.57968,16.8327028 122.947205,32.8335034 C124.403047,38.5065145 120.909026,38.2155908 116.687085,32.5425797 C107.660866,20.3237865 92.9568637,19.3055538 56.9975711,28.178725 C23.949962,36.3245871 8.80920722,35.8882017 2.25791909,26.5786449 C-0.65376453,22.3602521 -0.799348711,13.7780045 2.11233491,9.70507342 C4.87843434,5.92306601 13.1767326,3.30475318 19.0000999,4.46844777 C24.9690513,5.63214236 24.2411304,7.81406971 18.1265948,6.79583695 C11.4297225,5.77760418 4.87843434,8.54137883 2.84025581,13.6325427 C0.802077278,18.7237065 1.82116654,22.3602521 6.62544451,26.8695686 C9.97388067,30.0697287 11.5753067,30.3606524 23.6587937,30.3606524 C34.2864389,30.3606524 41.8568163,29.1969578 59.4725022,24.6876412 C78.1072773,20.1783247 83.7850603,19.3055538 93.2480321,19.7419392 C103.002172,20.1783247 105.331519,20.760172 110.863718,24.6876412 L117.123838,29.0514959 L116.541501,22.7966375 C115.959164,14.3598518 119.598769,12.6143099 124.985384,19.0146301 L128.770572,23.5239467 L128.33382,17.4145501 C127.897067,13.0506954 128.624988,10.4323825 130.517582,7.95953154 C133.138098,4.75937142 133.57485,4.6139096 137.651207,6.79583695 C140.126138,7.95953154 143.32899,11.4506153 144.784832,14.2143899 C146.823011,17.9963974 148.278852,19.1600919 150.171447,18.5782447 C151.481704,18.1418592 153.956636,18.5782447 155.703646,19.4510156 C158.324161,20.9056338 158.615329,20.6147102 158.615329,16.8327028 C158.615329,10.4323825 161.818181,7.23222242 168.078301,7.23222242 C172.591411,7.23222242 174.484005,8.25045518 179.142699,13.341619 L184.820482,19.3055538 L184.820482,10.868768 C184.820482,0.831902185 187.004245,-2.07733429 191.808523,1.41374948 C193.555533,2.57744407 196.467216,6.35945148 198.214226,9.70507342 C200.834742,14.6507754 201.562663,15.2326227 201.999415,12.9052335 C202.727336,9.12322612 206.366941,6.35945148 210.443298,6.35945148 C213.937318,6.35945148 222.672369,12.9052335 222.672369,15.5235464 C222.672369,16.3963173 220.779775,15.2326227 218.450428,13.0506954 C215.684328,10.4323825 213.063813,9.12322612 210.88005,9.5596116 C207.677198,9.99599707 207.38603,10.7233062 207.38603,17.7054737 C207.531614,23.9603321 208.259535,25.9967977 211.462387,29.1969578 C214.519655,32.2516561 215.684328,32.8335034 217.14017,31.3788851 C218.159259,30.3606524 219.615101,29.6333432 220.488606,29.6333432 C221.216527,29.7788051 220.488606,30.9424997 218.741596,32.3971179 C215.101991,35.4518162 210.88005,35.0154307 207.822782,31.5243469 C206.803693,30.3606524 203.018504,23.8148703 199.3789,16.8327028 C195.739295,9.99599707 191.954107,4.0320623 191.080602,3.74113865 C188.460086,3.01382954 188.605671,15.81447 191.517354,31.2334233 C193.701117,43.1612928 193.992285,43.7431401 198.505395,45.3432202 C204.765515,47.6706094 215.975497,58.4347843 219.760685,65.9987991 C221.798864,69.9262684 222.672369,73.9991994 222.3812,78.0721305 C221.944448,83.8906034 221.798864,84.1815271 216.703417,84.6179125 C212.335892,85.054298 210.443298,84.1815271 206.075772,80.108596 Z M220.63419,79.8176724 C222.090032,73.7082758 217.431338,64.1077954 209.13304,56.2528569 C200.689158,48.2524567 195.011374,44.6159111 195.011374,47.0887621 C195.011374,47.961533 197.049553,53.7800059 199.3789,60.0348644 C206.512525,78.3630541 218.304843,89.2726909 220.63419,79.8176724 Z M150.462615,43.1612928 C151.627289,40.2520564 148.715605,25.2694885 146.968595,25.2694885 C144.202495,25.2694885 143.183406,36.0336635 145.512753,41.8521364 C147.114179,46.2159911 149.152358,46.6523766 150.462615,43.1612928 Z M173.173747,30.0697287 C173.173747,27.1604922 169.09739,22.3602521 166.331291,22.3602521 C163.419607,22.3602521 164.001944,25.4149504 167.641549,29.1969578 C171.281153,33.124427 173.173747,33.4153507 173.173747,30.0697287 Z" id="Shape"></path>
                    <path d="M404.652595,46.9433002 C404.652595,45.9250675 406.399605,45.6341438 409.748041,46.2159911 C419.938934,48.1069948 428.673985,39.5247472 424.743212,31.3788851 C419.065429,20.0328629 405.962853,19.1600919 371.896154,27.7423395 C355.445142,31.8152706 347.001259,33.124427 337.683872,33.2698888 C322.106364,33.2698888 317.010918,30.9424997 307.839115,19.3055538 C300.851074,10.4323825 295.610043,7.66860789 291.824855,10.7233062 C287.894082,13.9234663 289.204339,18.7237065 294.736538,21.3420193 C300.70549,24.2512558 302.889252,30.0697287 299.395232,33.7062743 C295.027707,37.9246672 290.369013,33.9971979 283.963309,20.4692484 C277.412021,6.79583695 273.626832,2.28652042 273.626832,8.10499336 C273.626832,9.99599707 274.645921,15.0871609 275.956179,19.3055538 C278.867863,29.4878814 278.285526,37.6337435 274.354753,37.6337435 C272.753327,37.6337435 270.132812,35.4518162 268.240217,32.6880415 C266.202039,29.6333432 264.891781,28.6151105 264.891781,30.2151905 C264.891781,35.1608925 261.688929,32.2516561 257.466988,23.5239467 C255.137641,18.4327828 253.536215,15.9599318 253.827384,17.9963974 C256.447899,32.2516561 256.447899,35.4518162 254.264136,35.4518162 C251.789205,35.4518162 248.586353,24.9785649 248.295185,15.81447 C248.149601,7.66860789 251.498037,8.25045518 256.447899,17.1236264 C260.233088,24.2512558 260.233088,24.2512558 260.815424,20.0328629 C261.252177,16.1053937 261.543345,16.2508555 265.910871,24.8331031 C268.531386,29.7788051 271.297485,34.1426598 272.17099,34.7245071 C274.209169,36.0336635 273.918001,30.3606524 271.443069,20.9056338 C268.822554,10.868768 268.67697,7.66860789 271.297485,4.17752413 C273.335664,1.41374948 273.481248,1.41374948 276.538516,4.17752413 C278.43111,5.77760418 280.906041,9.41414977 282.070715,12.1779244 C284.108893,16.6872409 284.400062,16.9781646 284.982398,13.9234663 C285.710319,9.41414977 291.533686,5.77760418 296.483549,7.0867606 C298.521727,7.52314607 304.927431,12.7597717 310.605214,18.7237065 C318.757928,27.1604922 322.106364,29.6333432 326.619474,30.5061142 C335.500109,32.1061942 349.912943,30.2151905 371.168233,24.8331031 C395.77196,18.4327828 405.234932,17.2690882 413.387646,19.4510156 C427.218143,23.233023 432.459173,35.597278 423.724123,44.3249874 C420.084518,47.8160712 418.337508,48.5433803 412.077388,48.5433803 C407.564279,48.5433803 404.652595,47.961533 404.652595,46.9433002 Z M298.95848,27.5968777 C298.084975,25.2694885 289.641092,19.8874011 289.641092,21.6329429 C289.641092,23.6694085 294.154202,30.9424997 295.755628,31.5243469 C298.521727,32.5425797 300.123153,30.5061142 298.95848,27.5968777 Z" id="Shape"></path>
                    <path d="M231.698588,35.1608925 C230.970667,34.1426598 228.64132,29.9242669 226.457558,25.705874 C223.254706,19.4510156 222.963537,17.5600119 224.273795,13.7780045 C225.1473,11.3051535 227.185478,8.9777643 228.64132,8.54137883 C231.844172,7.52314607 238.39546,11.0142298 239.705718,14.5053136 C240.142471,15.6690082 241.307144,16.5417791 242.326233,16.5417791 C243.345323,16.5417791 244.946749,17.5600119 245.965838,18.7237065 C248.149601,21.3420193 245.820254,21.6329429 243.345323,19.1600919 C242.035065,17.8509355 241.889481,19.1600919 242.471817,24.6876412 C243.199738,30.3606524 242.90857,32.5425797 240.870391,34.4335834 C238.104292,37.3428199 233.882351,37.6337435 231.698588,35.1608925 Z M239.996886,31.2334233 C242.035065,27.5968777 240.288055,17.9963974 237.667539,17.9963974 C234.90144,17.9963974 229.951578,20.760172 229.951578,22.2147902 C229.951578,22.9420994 231.698588,25.1240267 233.736767,27.3059541 C237.521955,30.9424997 237.521955,31.0879615 234.464688,31.0879615 C232.717677,31.0879615 231.698588,31.6698088 232.135341,32.5425797 C233.591182,35.0154307 238.541045,34.1426598 239.996886,31.2334233 Z M237.230787,14.9416991 C237.230787,13.0506954 233.008846,10.4323825 231.40742,11.4506153 C230.679499,11.8870008 229.951578,13.9234663 229.951578,15.81447 C229.951578,18.8691683 230.242746,19.0146301 233.591182,17.5600119 C235.629361,16.5417791 237.230787,15.3780845 237.230787,14.9416991 Z" id="Shape"></path>
                </g>
            </g>
        </g>
    </g>
</svg>