<?xml version="1.0" encoding="UTF-8" standalone="no"?>
<!-- Created with Inkscape (http://www.inkscape.org/) -->

<svg
   version="1.1"
   id="svg4058"
   width="880"
   height="880"
   viewBox="0 0 880 880"
   sodipodi:docname="park-landscape-publicdomainvectors.org.svg"
   inkscape:version="1.2 (dc2aedaf03, 2022-05-15)"
   xmlns:inkscape="http://www.inkscape.org/namespaces/inkscape"
   xmlns:sodipodi="http://sodipodi.sourceforge.net/DTD/sodipodi-0.dtd"
   xmlns="http://www.w3.org/2000/svg"
   xmlns:svg="http://www.w3.org/2000/svg">
  <defs
     id="defs4062">
    <clipPath
       clipPathUnits="userSpaceOnUse"
       id="clipPath4074">
      <path
         d="M 0,660 H 660 V 0 H 0 Z"
         id="path4072" />
    </clipPath>
  </defs>
  <sodipodi:namedview
     id="namedview4060"
     pagecolor="#ffffff"
     bordercolor="#000000"
     borderopacity="0.25"
     inkscape:showpageshadow="2"
     inkscape:pageopacity="0.0"
     inkscape:pagecheckerboard="0"
     inkscape:deskcolor="#d1d1d1"
     showgrid="false"
     inkscape:zoom="0.95113636"
     inkscape:cx="440.52569"
     inkscape:cy="440.52569"
     inkscape:window-width="1920"
     inkscape:window-height="1017"
     inkscape:window-x="-8"
     inkscape:window-y="-8"
     inkscape:window-maximized="1"
     inkscape:current-layer="g4066">
    <inkscape:page
       x="0"
       y="0"
       id="page4064"
       width="880"
       height="880" />
  </sodipodi:namedview>
  <g
     id="g4066"
     inkscape:groupmode="layer"
     inkscape:label="Page 1"
     transform="matrix(1.3333333,0,0,-1.3333333,0,880)">
    <g
       id="g4068">
      <g
         id="g4070"
         clip-path="url(#clipPath4074)">
        <g
           id="g4076"
           transform="translate(353.3662,312.0293)">
          <path
             d="m 0,0 c 57.244,0 103.933,46.685 103.933,103.931 0,57.244 -46.689,103.932 -103.933,103.932 -57.245,0 -103.935,-46.688 -103.935,-103.932 C -103.935,46.685 -57.245,0 0,0"
             style="fill:#fbca07;fill-opacity:1;fill-rule:evenodd;stroke:none"
             id="path4078" />
        </g>
        <g
           id="g4080"
           transform="translate(15.9575,259.6699)">
          <path
             d="m 0,0 h 627.116 c 13.276,0 13.276,-20.072 0,-20.072 H 525.942 c -13.276,0 -13.276,-20.069 0,-20.069 h 61.441 c 13.278,0 13.276,-20.07 0,-20.07 H 70.454 c -13.276,0 -13.277,20.07 0,20.07 h 30.72 c 13.277,0 13.277,20.069 0,20.069 H 0 C -13.277,-20.072 -13.277,0 0,0"
             style="fill:#9ac421;fill-opacity:1;fill-rule:evenodd;stroke:none"
             id="path4082" />
        </g>
        <g
           id="g4084"
           transform="translate(108.5288,199.459)">
          <path
             d="m 0,0 h 457.538 c 13.276,0 13.276,-20.072 0,-20.072 H 328.919 c -13.274,0 -13.276,-20.071 0,-20.071 h 30.721 c 13.277,0 13.275,-20.072 0,-20.072 H 70.454 c -13.275,0 -13.277,20.072 0,20.072 h 61.852 c 13.276,0 13.276,20.071 0,20.071 H 0 C -13.276,-20.072 -13.276,0 0,0"
             style="fill:#adda1a;fill-opacity:1;fill-rule:evenodd;stroke:none"
             id="path4086" />
        </g>
        <g
           id="g4088"
           transform="translate(131.2637,159.3164)">
          <path
             d="m 0,0 h 14.132 c 5.519,0 10.035,-4.516 10.035,-10.037 0,-5.52 -4.516,-10.033 -10.035,-10.033 H 0 c -5.52,0 -10.035,4.513 -10.035,10.033 C -10.035,-4.516 -5.52,0 0,0"
             style="fill:#adda1a;fill-opacity:1;fill-rule:evenodd;stroke:none"
             id="path4090" />
        </g>
        <g
           id="g4092"
           transform="translate(42.48,219.1563)">
          <path
             d="m 0,0 h 14.132 c 5.519,0 10.036,-4.516 10.036,-10.035 0,-5.522 -4.517,-10.033 -10.036,-10.033 H 0 c -5.519,0 -10.036,4.511 -10.036,10.033 C -10.036,-4.516 -5.519,0 0,0"
             style="fill:#9ac421;fill-opacity:1;fill-rule:evenodd;stroke:none"
             id="path4094" />
        </g>
        <g
           id="g4096"
           transform="translate(497.9697,159.3164)">
          <path
             d="m 0,0 h 43.727 c 5.52,0 10.035,-4.516 10.035,-10.037 0,-5.52 -4.515,-10.033 -10.035,-10.033 H 0 c -5.521,0 -10.035,4.513 -10.035,10.033 C -10.035,-4.516 -5.521,0 0,0"
             style="fill:#adda1a;fill-opacity:1;fill-rule:evenodd;stroke:none"
             id="path4098" />
        </g>
        <g
           id="g4100"
           transform="translate(108.5288,179.3867)">
          <path
             d="m 0,0 h 457.538 c 13.276,0 13.276,20.072 0,20.072 H 228.769 c -13.272,0 -13.275,20.071 0,20.071 h 88.067 c 13.277,0 13.273,20.068 0,20.068 H 132.51 c -13.273,0 -13.276,-20.068 0,-20.068 h 30.926 c 13.276,0 13.274,-20.071 0,-20.071 H 0 C -13.276,20.072 -13.276,0 0,0"
             style="fill:#adda1a;fill-opacity:1;fill-rule:evenodd;stroke:none"
             id="path4102" />
        </g>
        <g
           id="g4104"
           transform="translate(338.2217,179.3867)">
          <path
             d="m 0,0 h 43.727 c 5.517,0 10.033,-4.514 10.033,-10.035 0,-5.52 -4.516,-10.035 -10.033,-10.035 H 0 c -5.52,0 -10.038,4.515 -10.038,10.035 C -10.038,-4.514 -5.52,0 0,0"
             style="fill:#c6e446;fill-opacity:1;fill-rule:evenodd;stroke:none"
             id="path4106" />
        </g>
        <g
           id="g4108"
           transform="translate(157.2715,239.5977)">
          <path
             d="m 0,0 h 43.728 c 5.519,0 10.035,-4.514 10.035,-10.033 0,-5.52 -4.516,-10.035 -10.035,-10.035 H 0 c -5.519,0 -10.034,4.515 -10.034,10.035 C -10.034,-4.514 -5.519,0 0,0"
             style="fill:#adda1a;fill-opacity:1;fill-rule:evenodd;stroke:none"
             id="path4110" />
        </g>
        <g
           id="g4112"
           transform="translate(472.5664,239.5977)">
          <path
             d="m 0,0 h 22.64 c 5.521,0 10.036,-4.514 10.036,-10.033 0,-5.52 -4.515,-10.035 -10.036,-10.035 H 0 c -5.52,0 -10.036,4.515 -10.036,10.035 C -10.036,-4.514 -5.52,0 0,0"
             style="fill:#adda1a;fill-opacity:1;fill-rule:evenodd;stroke:none"
             id="path4114" />
        </g>
        <g
           id="g4116"
           transform="translate(61.6367,292.0391)">
          <path
             d="m 0,0 h 535.759 c 5.472,0 9.948,-4.475 9.948,-9.949 0,-5.473 -4.476,-9.951 -9.948,-9.951 H 0 c -5.474,0 -9.951,4.478 -9.951,9.951 C -9.951,-4.475 -5.474,0 0,0"
             style="fill:#b2a29e;fill-opacity:1;fill-rule:evenodd;stroke:none"
             id="path4118" />
        </g>
        <g
           id="g4120"
           transform="translate(77.1074,292.0391)">
          <path
             d="m 0,0 50.614,50.615 c 15.755,15.754 38.39,20.61 58.386,14.571 18.31,-5.531 36.175,-3.317 52.583,6.513 45.759,27.416 104.257,25.857 148.565,-4.676 23.306,-16.057 48.307,-22.662 76.503,-20.209 16.28,1.416 33.055,-4.082 45.469,-16.494 l 30.585,-30.584 z"
             style="fill:#d2e687;fill-opacity:1;fill-rule:evenodd;stroke:none"
             id="path4122" />
        </g>
        <path
           d="m 139.777,292.039 h 17.49 v 174.904 h -17.49 z"
           style="fill:#945d29;fill-opacity:1;fill-rule:evenodd;stroke:none"
           id="path4124" />
        <g
           id="g4126"
           transform="translate(187.374,372.2168)">
          <path
             d="m 0,0 c 27.785,0 50.447,22.662 50.447,50.448 0,27.784 -22.662,50.447 -50.447,50.447 -27.785,0 -50.447,-22.663 -50.447,-50.447 C -50.447,22.662 -27.785,0 0,0"
             style="fill:#87b027;fill-opacity:1;fill-rule:evenodd;stroke:none"
             id="path4128" />
        </g>
        <g
           id="g4130"
           transform="translate(194.4961,389.1309)">
          <path
             d="M 0,0 C 21.738,0 39.468,17.729 39.468,39.469 39.468,61.207 21.738,78.938 0,78.938 -21.739,78.938 -39.47,61.207 -39.47,39.469 -39.47,17.729 -21.739,0 0,0"
             style="fill:#9ac421;fill-opacity:1;fill-rule:evenodd;stroke:none"
             id="path4132" />
        </g>
        <g
           id="g4134"
           transform="translate(139.8267,446.333)">
          <path
             d="M 0,0 C 20.749,0 37.672,16.923 37.672,37.671 37.672,58.42 20.749,75.343 0,75.343 -20.748,75.343 -37.671,58.42 -37.671,37.671 -37.671,16.923 -20.748,0 0,0"
             style="fill:#87b027;fill-opacity:1;fill-rule:evenodd;stroke:none"
             id="path4136" />
        </g>
        <g
           id="g4138"
           transform="translate(145.146,458.9639)">
          <path
             d="M 0,0 C 16.233,0 29.473,13.239 29.473,29.473 29.473,45.705 16.233,58.946 0,58.946 -16.233,58.946 -29.474,45.705 -29.474,29.473 -29.474,13.239 -16.233,0 0,0"
             style="fill:#9ac421;fill-opacity:1;fill-rule:evenodd;stroke:none"
             id="path4140" />
        </g>
        <g
           id="g4142"
           transform="translate(116.4058,346.3198)">
          <path
             d="m 0,0 c 31.494,0 57.18,25.687 57.18,57.178 0,31.494 -25.686,57.183 -57.18,57.183 -31.493,0 -57.18,-25.689 -57.18,-57.183 C -57.18,25.687 -31.493,0 0,0"
             style="fill:#87b027;fill-opacity:1;fill-rule:evenodd;stroke:none"
             id="path4144" />
        </g>
        <g
           id="g4146"
           transform="translate(124.4785,365.4893)">
          <path
             d="M 0,0 C 24.641,0 44.737,20.097 44.737,44.736 44.737,69.378 24.641,89.474 0,89.474 -24.64,89.474 -44.738,69.378 -44.738,44.736 -44.738,20.097 -24.64,0 0,0"
             style="fill:#9ac421;fill-opacity:1;fill-rule:evenodd;stroke:none"
             id="path4148" />
        </g>
        <path
           d="m 447.331,292.039 h 11.82 v 118.212 h -11.82 z"
           style="fill:#945d29;fill-opacity:1;fill-rule:evenodd;stroke:none"
           id="path4150" />
        <g
           id="g4152"
           transform="translate(479.499,346.228)">
          <path
             d="M 0,0 C 18.779,0 34.096,15.316 34.096,34.095 34.096,52.875 18.779,68.191 0,68.191 -18.779,68.191 -34.095,52.875 -34.095,34.095 -34.095,15.316 -18.779,0 0,0"
             style="fill:#87b027;fill-opacity:1;fill-rule:evenodd;stroke:none"
             id="path4154" />
        </g>
        <g
           id="g4156"
           transform="translate(484.3125,357.6592)">
          <path
             d="M 0,0 C 14.693,0 26.676,11.982 26.676,26.676 26.676,41.369 14.693,53.353 0,53.353 -14.693,53.353 -26.677,41.369 -26.677,26.676 -26.677,11.982 -14.693,0 0,0"
             style="fill:#9ac421;fill-opacity:1;fill-rule:evenodd;stroke:none"
             id="path4158" />
        </g>
        <g
           id="g4160"
           transform="translate(447.3633,396.3203)">
          <path
             d="m 0,0 c 14.024,0 25.461,11.437 25.461,25.461 0,14.023 -11.437,25.46 -25.461,25.46 -14.023,0 -25.46,-11.437 -25.46,-25.46 C -25.46,11.437 -14.023,0 0,0"
             style="fill:#87b027;fill-opacity:1;fill-rule:evenodd;stroke:none"
             id="path4162" />
        </g>
        <g
           id="g4164"
           transform="translate(450.959,404.8555)">
          <path
             d="m 0,0 c 10.972,0 19.919,8.95 19.919,19.921 0,10.971 -8.947,19.921 -19.919,19.921 -10.973,0 -19.92,-8.95 -19.92,-19.921 C -19.92,8.95 -10.973,0 0,0"
             style="fill:#9ac421;fill-opacity:1;fill-rule:evenodd;stroke:none"
             id="path4166" />
        </g>
        <g
           id="g4168"
           transform="translate(431.5332,328.7266)">
          <path
             d="M 0,0 C 21.287,0 38.648,17.357 38.648,38.645 38.648,59.929 21.287,77.29 0,77.29 -21.284,77.29 -38.645,59.929 -38.645,38.645 -38.645,17.357 -21.284,0 0,0"
             style="fill:#87b027;fill-opacity:1;fill-rule:evenodd;stroke:none"
             id="path4170" />
        </g>
        <g
           id="g4172"
           transform="translate(436.9902,341.6831)">
          <path
             d="M 0,0 C 16.654,0 30.237,13.581 30.237,30.234 30.237,46.887 16.654,60.47 0,60.47 -16.653,60.47 -30.236,46.887 -30.236,30.234 -30.236,13.581 -16.653,0 0,0"
             style="fill:#9ac421;fill-opacity:1;fill-rule:evenodd;stroke:none"
             id="path4174" />
        </g>
        <g
           id="g4176"
           transform="translate(318.2139,309.334)">
          <path
             d="m 0,0 c 0.412,0 0.818,-0.018 1.222,-0.055 3.699,11.358 14.372,19.567 26.962,19.567 12.355,0 22.862,-7.905 26.747,-18.934 0.574,0.065 1.156,0.098 1.743,0.098 8.733,0 15.81,-7.078 15.81,-15.811 0,-0.732 -0.052,-1.455 -0.148,-2.16 H -13.12 c -0.327,1.17 -0.503,2.4 -0.503,3.676 C -13.623,-6.096 -7.523,0 0,0 m 245.706,1.348 c 7.616,0 13.792,-6.176 13.792,-13.789 0,-1.709 -0.312,-3.342 -0.881,-4.854 h -93.949 c -0.453,1.537 -0.696,3.168 -0.696,4.854 0,9.472 7.679,17.152 17.153,17.152 4.682,0 8.921,-1.875 12.017,-4.912 2.828,9.828 11.889,17.019 22.63,17.019 10.908,0 20.082,-7.418 22.756,-17.484 2.091,1.275 4.548,2.014 7.178,2.014 m -398.58,2.017 c 5.412,0 10.144,-2.904 12.725,-7.24 3.346,10.068 12.843,17.33 24.037,17.33 9.558,0 17.879,-5.295 22.19,-13.115 1.17,0.22 2.376,0.336 3.609,0.336 10.256,0 18.664,-7.914 19.45,-17.971 h -95.603 c -0.776,1.799 -1.208,3.781 -1.208,5.861 0,8.174 6.627,14.799 14.8,14.799"
             style="fill:#769a2a;fill-opacity:1;fill-rule:evenodd;stroke:none"
             id="path4178" />
        </g>
      </g>
    </g>
  </g>
</svg>
