<?xml version="1.0" encoding="UTF-8" standalone="no"?>
<!-- Created with Inkscape (http://www.inkscape.org/) -->

<svg
   version="1.1"
   id="svg6788"
   width="880"
   height="880"
   viewBox="0 0 880 880"
   sodipodi:docname="tree-seeding-publicdomainvectors.org.svg"
   inkscape:version="1.2 (dc2aedaf03, 2022-05-15)"
   xmlns:inkscape="http://www.inkscape.org/namespaces/inkscape"
   xmlns:sodipodi="http://sodipodi.sourceforge.net/DTD/sodipodi-0.dtd"
   xmlns="http://www.w3.org/2000/svg"
   xmlns:svg="http://www.w3.org/2000/svg">
  <defs
     id="defs6792">
    <clipPath
       clipPathUnits="userSpaceOnUse"
       id="clipPath6804">
      <path
         d="M 0,660 H 660 V 0 H 0 Z"
         id="path6802" />
    </clipPath>
  </defs>
  <sodipodi:namedview
     id="namedview6790"
     pagecolor="#ffffff"
     bordercolor="#000000"
     borderopacity="0.25"
     inkscape:showpageshadow="2"
     inkscape:pageopacity="0.0"
     inkscape:pagecheckerboard="0"
     inkscape:deskcolor="#d1d1d1"
     showgrid="false"
     inkscape:zoom="0.95113636"
     inkscape:cx="440.52569"
     inkscape:cy="440.52569"
     inkscape:window-width="1920"
     inkscape:window-height="1017"
     inkscape:window-x="-8"
     inkscape:window-y="-8"
     inkscape:window-maximized="1"
     inkscape:current-layer="g6796">
    <inkscape:page
       x="0"
       y="0"
       id="page6794"
       width="880"
       height="880" />
  </sodipodi:namedview>
  <g
     id="g6796"
     inkscape:groupmode="layer"
     inkscape:label="Page 1"
     transform="matrix(1.3333333,0,0,-1.3333333,0,880)">
    <g
       id="g6798">
      <g
         id="g6800"
         clip-path="url(#clipPath6804)">
        <g
           id="g6806"
           transform="translate(300.7451,460.8496)">
          <path
             d="m 0,0 0.149,3.381 c 0.786,15.559 1.866,30.316 3.329,45.825 1.373,21.578 -5.392,29.488 -23.077,39.94 -8.513,5.027 -27.781,14.695 -17.896,26.856 4.302,5.293 10.703,-0.535 15.641,-3.189 5.99,-3.222 19.433,-9.982 25.282,-5.268 l 0.956,0.901 0.943,1.358 c 1.232,2.952 0.312,15.934 0.28,20.098 -0.046,5.909 -0.123,11.53 -0.481,17.439 -0.728,11.37 28.103,15.75 38.89,13.229 11.281,-2.637 8.474,-2.812 9.348,-19.209 3.4,-77.97 -17.159,-154.641 -6.693,-233.037 1.014,-6.767 6.697,-45.385 8.488,-48.771 6.049,-7.506 12.946,-3.821 20.915,-1.172 13.057,4.22 20.129,11.775 31.35,15.854 11.419,3.45 18.325,-3.245 18.863,-14.422 -0.332,-8.123 -7.238,-7.829 -13.723,-10.225 -8.988,-3.545 -29.999,-15.502 -35.989,-22.736 -4.718,-5.699 -11.282,-15.864 -11.872,-23.442 -0.104,-1.347 -0.078,-2.551 -0.05,-3.897 0.498,-6.152 2.682,-16.133 3.755,-22.663 5.007,-30.461 9.767,-65.364 7.173,-96.139 l -0.124,-1.466 c -2.278,-25.578 -26.608,-20.862 -47.499,-20.466 -11.648,0.222 -21.003,0.247 -32.671,1.592 -6.168,0.836 -2.875,4.306 -2.096,10.886 8.943,75.551 22.528,94.794 8.985,175.57 -4.345,25.907 -7.862,46.169 -7.944,72.77 0.626,20.779 3.004,42.416 4.754,63.189 C -0.528,-11.395 -0.25,-5.827 0,0"
             style="fill:#a33b1f;fill-opacity:1;fill-rule:evenodd;stroke:none"
             id="path6808" />
        </g>
        <g
           id="g6810"
           transform="translate(301.6416,477.3965)">
          <path
             d="m 0,0 c 0.227,3.604 0.472,7.189 0.736,10.772 1.084,0.01 2.218,0.16 3.409,0.477 6.931,1.837 4.584,11.003 4.104,16.705 -0.336,3.975 -0.786,7.532 -1.521,11.458 -0.46,2.192 -2.278,3.565 -4.321,4.657 -0.109,0.916 -0.243,1.799 -0.403,2.656 4.116,1.308 4.652,5.279 5.674,10.733 1.482,12.131 3.479,25.807 -11.821,28.675 -11.947,2.24 -20.948,3.362 -28.168,14.716 -0.123,0.192 -0.246,0.388 -0.366,0.586 3.311,-0.714 6.895,-3.538 9.926,-5.169 5.99,-3.222 19.434,-9.982 25.282,-5.268 l 0.956,0.901 0.944,1.358 c 1.112,2.669 0.468,13.537 0.31,18.673 1.867,2.887 1.33,4.89 -0.099,7.478 -0.065,3.779 -0.178,7.522 -0.413,11.386 -0.429,6.726 9.48,11.004 19.881,12.857 -0.604,-7.135 -0.486,-13.473 3.517,-20.925 4.36,-8.117 4.647,-10.571 6.419,-19.266 1.876,-9.189 -7.223,6.081 -13.418,2.119 -7.493,-4.791 -7.581,-13.762 -4.206,-21.026 4.782,-10.295 7.743,-10.618 10.288,-23.351 0.459,-2.297 0.871,-4.616 1.297,-6.922 2.678,-14.177 2.995,-14.419 -2.149,-0.641 -1.487,4.417 -6.003,20.009 -8.575,22.807 -1.776,-2.174 -2.149,-10.303 -2.634,-13.544 -2.676,-17.878 -4.355,-31.434 -0.08,-49.37 3.096,-11.794 0.485,-16.476 1.477,-27.728 0.449,-5.114 0.378,-4.921 0.041,-9.594 -0.582,-8.037 0.223,-20.237 0.651,-28.461 0.14,-2.655 0.238,-5.286 0.308,-7.944 0.109,-11.105 0.501,-13.882 3.552,-24.68 2.738,-9.705 -3.481,-4.5 -3.951,-13.228 0.263,-7.919 8.463,-3.033 11.562,1.034 6.96,10.313 5.198,20.316 7.198,31.283 1.945,10.666 0.509,-22.46 0.5,-22.567 -0.115,-1.583 -0.248,-3.038 -0.482,-4.606 -1.021,-5.491 -3.084,-10.788 -4.283,-16.376 -1.949,-10.032 10.559,-0.517 13.712,-5.286 l 0.6,-1.494 c 0.497,-3.582 0.408,-9.958 0.78,-14.154 0.377,-4.265 4.055,-27.401 -0.203,-8.845 -1.48,6.45 -2.061,11.965 -3.029,18.378 -2.362,11.801 -10.881,-1.248 -12.519,-7.039 -1.12,-5.698 -0.153,-14.23 -1.45,-18.559 -1.373,-2.987 -6.438,-3.806 -10.348,-10.88 -3.458,-7.956 -1.771,-30.218 -1.608,-39.796 0.053,-3.125 0.084,-6.243 0.097,-9.368 0.003,-1.076 -0.07,-19.827 4.584,-13.171 4.264,6.103 4.802,33.144 5.052,41.718 0.48,-16.906 2.268,-36.501 1.322,-53.082 -0.623,-10.943 -3.089,-16.36 -5.744,-26.413 -3.746,-14.169 3.493,-15.692 15.252,-18.783 l 1.035,-0.273 c 9.271,-2.449 10.472,5.335 12.883,12.725 2.899,9.306 2.41,11.875 2.305,21.328 0.364,-0.034 1.342,-11.675 1.407,-12.579 -1.559,-12.265 -4.886,-25.021 -6.963,-37.458 -0.737,-4.418 -1.717,-10.903 -3.83,-14.716 -4.393,8.631 -0.871,26.133 -12.554,26.298 -7.48,0.104 -16.265,-11.613 -9.696,-16.153 l 1.528,-0.799 c 5.462,-2.168 7.01,-2.862 4.097,-9.246 -5.99,-13.123 -15.87,-26.143 6.702,-27.298 8.367,-0.25 7.545,-1.232 0.322,-5.019 l -1.538,-0.808 c -7.226,-3.669 -11.476,-4.685 -19.012,-7.413 -5.468,-1.98 -8.01,-5.292 -9.924,-9.55 -3.212,0.207 -6.507,0.491 -10.011,0.894 -6.168,0.836 -2.875,4.306 -2.096,10.886 8.942,75.551 22.527,94.794 8.984,175.57 -4.344,25.908 -7.862,46.169 -7.943,72.77 0.626,20.779 3.004,42.416 4.754,63.189 0.269,3.235 0.475,6.391 0.647,9.56 C 12.161,-30.327 6.89,-9.374 1.498,-1.935 0.984,-1.226 0.485,-0.586 0,0"
             style="fill:#bd4c1f;fill-opacity:1;fill-rule:evenodd;stroke:none"
             id="path6812" />
        </g>
        <g
           id="g6814"
           transform="translate(335.0752,622.064)">
          <path
             d="m 0,0 c 1.507,0.059 2.954,0.06 4.307,0.005 -0.167,-5.492 0.089,-11.188 2.75,-14.314 5.036,-5.92 9.552,4.268 11.425,8.377 0.505,-2.517 0.163,-6.603 0.552,-13.921 3.277,-75.176 -15.712,-149.142 -7.696,-224.612 -2.722,0.572 -5.225,-1.272 -8.631,-6.495 -0.679,-1.039 -3.212,-6.115 -2.362,-2.601 1.499,6.198 4.094,9.851 5.358,17.249 1.614,9.459 0.067,32.847 -1.365,42.866 -0.641,4.477 -4.287,16.908 -8.937,6.872 -5.922,-12.784 -5.141,-30.361 -2.269,-43.86 1.623,-7.635 0.344,-2.318 -0.909,1.667 -5.433,17.288 -6.399,36.128 -3.269,53.984 2.599,14.4 5.142,19.082 1.624,34.134 -1.281,5.505 -2.536,11.059 -3.436,16.638 -2.4,14.852 -0.283,24.453 -0.937,38.401 1.157,-6.852 1.85,-14.798 3.67,-21.364 1.059,-3.818 5.658,-14.576 9.178,-5.939 3.899,9.569 1.488,25.006 -2.117,34.371 l -0.777,2.008 c -7.371,19.011 -5.361,15.56 -4.891,34.905 0.894,-12.072 0.651,-17.877 7.38,-28.507 4.402,-6.644 7.593,-11.66 11.497,-18.696 5.752,-10.371 0.724,10.097 0.236,11.705 -1.798,5.851 -3.885,11.113 -4.718,17.206 -1.356,9.905 -1.393,12.754 -4.83,22.433 C -4.83,-21.538 -3.784,-13.261 0,0 m 91.408,-297.203 c 0.293,-1.311 0.477,-2.715 0.549,-4.199 -0.332,-8.123 -7.238,-7.828 -13.724,-10.225 -8.987,-3.544 -29.998,-15.502 -35.988,-22.736 -4.719,-5.698 -11.282,-15.863 -11.872,-23.441 -0.104,-1.348 -0.078,-2.551 -0.05,-3.898 0.498,-6.151 2.682,-16.133 3.755,-22.663 5.007,-30.461 9.767,-65.363 7.173,-96.139 l -0.124,-1.465 c -1.333,-14.965 -10.215,-19.558 -21.54,-20.714 -2.595,2.502 -5.579,2.335 -10.664,-0.305 -5.061,0.115 -10.278,0.458 -15.295,0.553 l -1.542,0.028 c 1.966,1.107 3.8,2.025 5.149,2.718 8.666,4.454 10.58,8.385 17.61,13.499 2.319,1.541 3.153,1.792 5.647,2.728 l 1.203,0.691 c 3.963,2.873 3.99,13.876 3.356,18.374 -1.572,11.141 -17.282,-6.97 -20.367,-8.297 l -0.895,-0.245 c -5.488,-0.506 -4.593,18.667 -4.417,22.628 1.424,29.693 3.598,19.22 6.418,-1.722 1.666,-8.223 0.351,-4.941 6.072,-1.616 3.956,3.206 1.265,5.995 4.423,9.604 4.771,5.45 8.485,-0.241 6.177,8.394 -2.722,10.182 -3.929,12.028 -0.403,21.975 3.176,9.546 4.75,23.43 4.6,33.471 -0.062,4.173 -0.889,18.903 -8.518,14.178 -10.215,-6.324 -9.324,-29.431 -9.962,-39.95 -0.489,-6.97 -3.713,-5.869 -1.951,-12.784 -4.77,5.146 -5.737,4.294 -4.065,10.629 1.272,5.371 1.603,9.147 1.26,14.648 -0.82,13.132 -2.421,15.381 -0.445,29.541 0.421,3.089 0.824,6.169 1.093,9.277 2.259,26.105 -11.845,39.741 -4.873,67.572 0.098,0.385 7.298,24.09 6.312,13.467 -0.839,-9.022 -2.533,-15.464 -1.231,-24.908 1.578,-11.444 12.739,-37.964 27.431,-25.916 10.026,8.222 8.031,9.698 21.863,14.264 10.801,3.153 13.953,4.226 23.853,10.225 6.059,3.717 10.737,4.503 13.982,2.759"
             style="fill:#892f1b;fill-opacity:1;fill-rule:evenodd;stroke:none"
             id="path6816" />
        </g>
        <g
           id="g6818"
           transform="translate(303.2939,396.1494)">
          <path
             d="M 0,0 C -1.902,22.275 -1.685,22.808 6.006,43.874 7.557,48.123 6.273,41 6.203,39.831 5.924,35.147 6.243,30.941 5.85,25.874 5.542,7.354 8.872,-18.827 16.962,-35.536 c 2.962,-6.118 3.328,-11.364 3.413,-18.133 0.077,-5.988 -0.564,-2.094 -6.093,-0.275 -7.178,2.359 -3.995,-11.291 -3.474,-14.908 1.086,-7.541 3.095,-26.661 -4.831,-7.201 -3.535,8.675 -8.294,31.555 -7.076,40.941 0.522,4.021 6.208,-4.416 3.277,13.906 -0.501,3.137 -1.152,6.249 -1.596,9.396 C 0.268,-7.922 0.239,-3.923 0,0"
             style="fill:#a33b1f;fill-opacity:1;fill-rule:evenodd;stroke:none"
             id="path6820" />
        </g>
        <g
           id="g6822"
           transform="translate(416.2686,317.5439)">
          <path
             d="M 0,0 C -9.681,15.036 3.525,22.618 8.618,9.881 11.251,3.296 7.573,-8.143 0,0"
             style="fill:#ebb881;fill-opacity:1;fill-rule:evenodd;stroke:none"
             id="path6824" />
        </g>
        <g
           id="g6826"
           transform="translate(421.6396,326.7793)">
          <path
             d="M 0,0 C 1.516,-2.791 2.067,-2.327 1.672,0.667 1.272,3.68 -3.137,7.005 -2.981,5.367 -2.955,5.087 -0.367,0.66 0,0 m -4.311,3.23 c 0.021,-1.83 0.187,-8.508 2.764,-8.424 2.448,0.08 4.689,5.221 4.29,0.053 -0.223,-2.91 -1.503,-6.427 -5.162,-5.246 -3.249,1.05 -2.864,5.569 -3.713,8.453 -0.661,2.246 -1.654,5.057 -0.032,7.19 1.543,2.027 1.868,-1.004 1.853,-2.026"
             style="fill:#d6a063;fill-opacity:1;fill-rule:evenodd;stroke:none"
             id="path6828" />
        </g>
        <g
           id="g6830"
           transform="translate(269.0381,566.0928)">
          <path
             d="M 0,0 C 7.103,11.601 -3.071,17.141 -6.724,7.364 -8.611,2.312 -5.618,-6.324 0,0"
             style="fill:#ebb881;fill-opacity:1;fill-rule:evenodd;stroke:none"
             id="path6832" />
        </g>
        <g
           id="g6834"
           transform="translate(264.7949,573.0234)">
          <path
             d="M 0,0 C -1.104,-2.149 -1.532,-1.806 -1.282,0.478 -1.031,2.775 2.264,5.381 2.175,4.132 2.159,3.919 0.267,0.507 0,0 m 3.222,2.529 c 0.016,-1.39 0.005,-6.473 -1.955,-6.454 -1.865,0.02 -3.658,3.89 -3.266,-0.032 0.222,-2.21 1.255,-4.863 4.018,-3.899 2.453,0.853 2.083,4.282 2.677,6.491 C 5.16,0.356 5.867,2.509 4.596,4.104 3.388,5.618 3.193,3.305 3.222,2.529"
             style="fill:#d6a063;fill-opacity:1;fill-rule:evenodd;stroke:none"
             id="path6836" />
        </g>
        <g
           id="g6838"
           transform="translate(366.4766,470.7783)">
          <path
             d="M 0,0 C 35.194,7.097 92.727,22.82 127.92,29.917 92.727,22.82 -2.707,71.299 0,0"
             style="fill:#769a2a;fill-opacity:1;fill-rule:evenodd;stroke:none"
             id="path6840" />
        </g>
        <g
           id="g6842"
           transform="translate(346.1436,461.3975)">
          <path
             d="M 0,0 C 1.038,-2.632 2.076,-5.263 3.116,-7.894 8.854,-2.136 14.594,3.623 20.333,9.381 68.786,67.865 124.617,36.687 166.239,47.874 151.06,17.098 85.735,6.306 36.895,4.379 28.383,4.043 21.191,0.34 15.977,-6.396 11.526,-12.144 7.075,-17.891 2.625,-23.639 1.195,-27.79 -0.234,-31.942 -1.664,-36.095 -6.52,-23.184 -5.433,-11.239 0,0"
             style="fill:#9ac421;fill-opacity:1;fill-rule:evenodd;stroke:none"
             id="path6844" />
        </g>
        <g
           id="g6846"
           transform="translate(510.0293,505.2461)">
          <path
             d="m 0,0 c -19.036,-28.237 -82.759,-38.007 -129.692,-39.566 1.445,1.163 3.137,2.211 5.482,3.316 4.824,2.274 9.665,2.919 14.32,5.098 5.473,2.563 12.331,8.635 16.234,13.263 0.314,0.372 0.885,1.367 0.545,0.42 -0.272,-0.755 -2.7,-3.886 -3.343,-4.806 -3.217,-4.605 -3.527,-7.077 2.943,-6.38 3.197,0.344 6.677,0.478 9.747,1.387 6.823,2.021 12.94,5.603 17.884,10.724 0.231,0.238 1.722,2.053 0.884,0.858 -1.79,-2.547 -4.472,-4.973 -6.007,-7.344 l -0.159,-0.263 c -2.631,-4.379 6.966,-2.537 8.884,-2.197 11.711,2.063 16.515,5.416 21.501,16.363 -0.215,-1.089 -0.41,-1.721 -0.768,-2.784 -1.603,-4.775 -4.798,-10.468 3.438,-8.693 0.884,0.195 1.767,0.394 2.637,0.639 5.439,1.536 9.286,5.999 12.148,10.662 0.46,0.749 1.171,2.344 1.908,2.761 -0.073,-1.592 -1.253,-5.998 0.763,-6.424 2.394,-0.507 9.846,4.734 12.04,6.164 C -5.658,-4.87 -2.809,-2.495 0,0"
             style="fill:#8bb526;fill-opacity:1;fill-rule:evenodd;stroke:none"
             id="path6848" />
        </g>
        <g
           id="g6850"
           transform="translate(286.5879,283.0078)">
          <path
             d="M 0,0 C -35.348,6.295 -93.222,20.709 -128.567,27.006 -93.222,20.709 1.087,71.342 0,0"
             style="fill:#769a2a;fill-opacity:1;fill-rule:evenodd;stroke:none"
             id="path6852" />
        </g>
        <g
           id="g6854"
           transform="translate(307.1279,274.0898)">
          <path
             d="M 0,0 C -0.979,-2.653 -1.957,-5.307 -2.935,-7.961 -8.804,-2.336 -14.672,3.292 -20.54,8.918 -70.308,66.286 -125.417,33.848 -167.284,44.09 -151.409,13.665 -85.856,4.358 -36.985,3.541 c 8.517,-0.143 15.791,-3.683 21.159,-10.298 4.579,-5.644 9.159,-11.289 13.739,-16.934 1.524,-4.119 3.046,-8.239 4.568,-12.356 C 7.046,-23.029 5.686,-11.113 0,0"
             style="fill:#9ac421;fill-opacity:1;fill-rule:evenodd;stroke:none"
             id="path6856" />
        </g>
        <g
           id="g6858"
           transform="translate(142.2896,314.207)">
          <path
             d="m 0,0 c 19.671,-27.797 83.598,-36.117 130.555,-36.611 -1.47,1.131 -3.186,2.14 -5.556,3.191 -4.874,2.163 -9.727,2.697 -14.431,4.771 -5.53,2.438 -12.524,8.353 -16.531,12.891 -0.323,0.365 -0.917,1.347 -0.553,0.406 0.288,-0.748 2.788,-3.822 3.45,-4.727 3.32,-4.531 3.687,-6.995 -2.798,-6.445 -3.204,0.273 -6.685,0.327 -9.775,1.167 -6.867,1.865 -13.063,5.306 -18.123,10.314 -0.236,0.232 -1.769,2.013 -0.903,0.837 1.847,-2.507 4.583,-4.871 6.172,-7.205 l 0.164,-0.259 c 2.731,-4.32 -6.905,-2.694 -8.831,-2.399 -11.756,1.797 -16.635,5.04 -21.866,15.872 0.239,-1.085 0.448,-1.711 0.83,-2.767 1.71,-4.739 5.034,-10.354 -3.241,-8.767 -0.888,0.172 -1.774,0.352 -2.651,0.578 -5.471,1.413 -9.419,5.787 -12.385,10.383 -0.477,0.739 -1.223,2.316 -1.97,2.718 0.109,-1.591 1.39,-5.97 -0.617,-6.441 -2.382,-0.562 -9.951,4.511 -12.178,5.889 C 5.767,-4.739 2.865,-2.429 0,0"
             style="fill:#8bb526;fill-opacity:1;fill-rule:evenodd;stroke:none"
             id="path6860" />
        </g>
        <g
           id="g6862"
           transform="translate(263.7227,545.0713)">
          <path
             d="M 0,0 C -16.004,-15.576 -44.279,-39.598 -60.281,-55.174 -44.279,-39.598 -35.658,26.427 0,0"
             style="fill:#769a2a;fill-opacity:1;fill-rule:evenodd;stroke:none"
             id="path6864" />
        </g>
        <g
           id="g6866"
           transform="translate(275.6797,552.2178)">
          <path
             d="m 0,0 c 0.986,-1.457 1.972,-2.914 2.959,-4.372 -4.972,-0.925 -9.943,-1.85 -14.916,-2.774 -47.044,-4.34 -50.64,-43.957 -71.001,-61.398 21.133,-3.014 49.612,26.737 67.754,51.138 3.16,4.253 7.589,6.644 12.877,6.958 4.516,0.266 9.028,0.533 13.543,0.8 2.634,-0.725 5.266,-1.45 7.901,-2.173 C 14.195,-4.794 7.678,-1.158 0,0"
             style="fill:#9ac421;fill-opacity:1;fill-rule:evenodd;stroke:none"
             id="path6868" />
        </g>
        <g
           id="g6870"
           transform="translate(195.6152,483.4678)">
          <path
             d="m 0,0 c 21.184,-0.142 48.575,29.146 65.858,52.696 -1.103,-0.332 -2.237,-0.833 -3.627,-1.648 -2.863,-1.68 -4.893,-3.939 -7.646,-5.565 -3.238,-1.908 -8.765,-3.296 -12.512,-3.676 -0.302,-0.031 -1.013,0.024 -0.407,-0.133 0.484,-0.125 2.944,0.023 3.643,0.029 3.493,0.035 4.871,-0.674 2.241,-3.752 -1.3,-1.519 -2.59,-3.261 -4.135,-4.517 -3.433,-2.793 -7.421,-4.676 -11.787,-5.418 -0.202,-0.034 -1.659,-0.162 -0.75,-0.151 1.938,0.025 4.124,0.549 5.88,0.505 l 0.19,-0.012 c 3.173,-0.185 -1.142,-4.466 -1.99,-5.332 -5.173,-5.288 -8.581,-6.579 -15.952,-5.294 0.634,-0.272 1.027,-0.393 1.698,-0.584 3.016,-0.852 7.06,-1.21 3.257,-4.817 C 23.55,11.946 23.138,11.564 22.706,11.201 20.008,8.949 16.365,8.539 12.965,8.709 12.419,8.735 11.353,8.931 10.877,8.699 11.721,8.176 14.398,7.235 13.909,6.051 13.328,4.645 8.02,2.658 6.515,2.034 4.487,1.195 2.268,0.566 0,0"
             style="fill:#8bb526;fill-opacity:1;fill-rule:evenodd;stroke:none"
             id="path6872" />
        </g>
        <g
           id="g6874"
           transform="translate(409.375,295.9512)">
          <path
             d="M 0,0 C 16.352,-15.211 45.167,-38.582 61.519,-53.793 45.167,-38.582 35.05,27.23 0,0"
             style="fill:#769a2a;fill-opacity:1;fill-rule:evenodd;stroke:none"
             id="path6876" />
        </g>
        <g
           id="g6878"
           transform="translate(397.2598,302.8242)">
          <path
             d="m 0,0 c -0.953,-1.479 -1.906,-2.959 -2.859,-4.439 4.992,-0.811 9.984,-1.622 14.974,-2.434 47.131,-3.272 51.626,-42.797 72.378,-59.77 -21.059,-3.494 -50.208,25.603 -68.897,49.586 -3.257,4.18 -7.739,6.47 -13.033,6.662 -4.518,0.166 -9.038,0.33 -13.556,0.495 -2.617,-0.785 -5.235,-1.568 -7.851,-2.353 C -14.082,-5.114 -7.649,-1.332 0,0"
             style="fill:#9ac421;fill-opacity:1;fill-rule:evenodd;stroke:none"
             id="path6880" />
        </g>
        <g
           id="g6882"
           transform="translate(478.8643,235.9082)">
          <path
             d="m 0,0 c -21.174,-0.62 -49.225,28.037 -67.038,51.189 1.113,-0.308 2.256,-0.783 3.666,-1.568 2.897,-1.612 4.979,-3.825 7.77,-5.387 3.28,-1.836 8.835,-3.098 12.59,-3.392 0.303,-0.025 1.013,0.047 0.411,-0.123 -0.48,-0.137 -2.944,-0.045 -3.642,-0.055 -3.493,-0.043 -4.856,-0.784 -2.157,-3.802 1.335,-1.49 2.664,-3.199 4.238,-4.422 3.496,-2.714 7.524,-4.505 11.906,-5.147 0.203,-0.031 1.661,-0.127 0.753,-0.136 -1.937,-0.019 -4.135,0.456 -5.89,0.372 l -0.19,-0.014 c -3.167,-0.26 1.244,-4.442 2.111,-5.288 5.292,-5.168 8.729,-6.382 16.069,-4.929 -0.627,-0.287 -1.018,-0.417 -1.685,-0.623 -2.994,-0.923 -7.03,-1.371 -3.146,-4.89 0.419,-0.376 0.839,-0.749 1.28,-1.102 2.748,-2.19 6.399,-2.517 9.794,-2.27 0.546,0.039 1.608,0.258 2.088,0.036 C -11.904,7.91 -14.56,6.908 -14.043,5.734 -13.431,4.341 -8.078,2.476 -6.56,1.886 -4.513,1.094 -2.278,0.516 0,0"
             style="fill:#8bb526;fill-opacity:1;fill-rule:evenodd;stroke:none"
             id="path6884" />
        </g>
        <g
           id="g6886"
           transform="translate(210.3086,99.3418)">
          <path
             d="m 0,0 c -34.955,11.192 -1.455,22.5 15.216,25.961 28.481,6.04 22.314,10.672 44.345,22.896 37.331,20.714 33.686,-10.165 70.859,-15.751 26.11,-3.436 19.045,-3.864 44.403,3.168 28.863,7.87 20.447,-6.386 42.954,-19.888 17.64,-10.582 23.579,-5.242 42.975,-2.052 3.348,0.525 20.821,2.271 21.584,-2.102 0.256,-1.476 -15.494,-6.712 -17.795,-7.753 -18.757,-8.721 -26.325,-15.204 -47.249,-20.14 -24.679,-5.812 -38.41,-10.133 -63.432,-2.963 -22.594,5.79 -32.639,1.008 -53.726,-3.358 -19.293,-3.995 -39.295,3.142 -57.646,8.833 C 29.714,-9.188 18.641,-5.444 5.582,-1.63 Z"
             style="fill:#3a2216;fill-opacity:1;fill-rule:evenodd;stroke:none"
             id="path6888" />
        </g>
      </g>
    </g>
  </g>
</svg>
