<?xml version="1.0" encoding="UTF-8" standalone="no"?>
<!-- Created with Inkscape (http://www.inkscape.org/) -->

<svg
   version="1.1"
   id="svg2708"
   width="483.03"
   height="573.25787"
   viewBox="0 0 483.03 573.25788"
   sodipodi:docname="121.svg"
   inkscape:version="1.2.2 (732a01da63, 2022-12-09, custom)"
   xmlns:inkscape="http://www.inkscape.org/namespaces/inkscape"
   xmlns:sodipodi="http://sodipodi.sourceforge.net/DTD/sodipodi-0.dtd"
   xmlns="http://www.w3.org/2000/svg"
   xmlns:svg="http://www.w3.org/2000/svg">
  <defs
     id="defs2712" />
  <sodipodi:namedview
     id="namedview2710"
     pagecolor="#ffffff"
     bordercolor="#000000"
     borderopacity="0.25"
     inkscape:showpageshadow="2"
     inkscape:pageopacity="0.0"
     inkscape:pagecheckerboard="0"
     inkscape:deskcolor="#d1d1d1"
     showgrid="false"
     inkscape:zoom="5.7434918"
     inkscape:cx="238.87907"
     inkscape:cy="51.710703"
     inkscape:window-width="1920"
     inkscape:window-height="1031"
     inkscape:window-x="0"
     inkscape:window-y="25"
     inkscape:window-maximized="1"
     inkscape:current-layer="layer1" />
  <g
     inkscape:groupmode="layer"
     id="layer1"
     inkscape:label="Layer 1"
     transform="translate(-20.602061,-11.493705)">
    <path
       style="fill:#000000;stroke-width:0.64"
       d="m 367.04002,584.57964 c -1.056,-0.13703 -4.512,-0.57065 -7.68,-0.96361 -3.168,-0.39295 -6.118,-0.90964 -6.55556,-1.1482 -0.5565,-0.30341 0.35701,-2.09022 3.04,-5.94624 2.10956,-3.03187 3.83556,-5.82258 3.83556,-6.20157 0,-0.379 -0.57492,-1.63205 -1.27761,-2.78455 -2.04688,-3.35719 -1.68556,-4.39864 2.39225,-6.89547 4.69682,-2.87583 12.59527,-10.74028 15.79771,-15.72969 2.1464,-3.3441 3.09096,-4.17503 6.73403,-5.92395 2.33059,-1.11885 6.24357,-3.6217 8.69553,-5.56191 7.38237,-5.84158 20.83036,-21.45481 24.64676,-28.61511 1.8952,-3.55577 2.02549,-4.18926 1.72916,-8.40743 -0.17625,-2.50905 -0.97849,-6.52448 -1.78274,-8.92319 -1.35389,-4.03801 -1.94083,-4.81317 -7.91868,-10.45798 -3.76783,-3.55791 -10.05428,-8.50406 -15.09641,-11.8778 -4.752,-3.1796 -9.15668,-6.23362 -9.78818,-6.78672 -0.9478,-0.83011 -1.60178,-0.88454 -3.74729,-0.31187 l -2.59911,0.69374 -3.76971,-7.76905 c -2.07334,-4.27297 -3.77106,-8.12904 -3.77271,-8.56904 -0.002,-0.44 -0.25984,-0.8 -0.57376,-0.8 -0.31392,0 -0.81993,1.36383 -1.12446,3.03073 l -0.55371,3.03072 -4.44083,-4.6103 c -3.79035,-3.93499 -4.84434,-4.67081 -7.19554,-5.02339 -1.51508,-0.2272 -2.7547,-0.7405 -2.7547,-1.14067 0,-0.40016 0.4194,-2.73206 0.93199,-5.18201 0.51259,-2.44994 0.83553,-4.55089 0.71764,-4.66879 -0.11791,-0.1179 -3.2013,1.78548 -6.852,4.22972 -10.57559,7.08064 -17.75615,15.40004 -23.05914,26.71632 -2.61857,5.58788 -5.01856,13.79443 -5.0184,17.16004 9e-5,2.03376 2.15462,9.47309 4.1437,14.30765 1.34064,3.25849 0.91569,4.68433 -2.9337,9.84368 -2.00374,2.68562 -3.31354,3.69422 -6.64052,5.11352 -16.98386,7.24533 -29.29103,26.429 -23.54382,36.69869 0.55964,1.00002 0.1332,1.41657 -3.10857,3.0365 -2.06645,1.03262 -3.75718,2.22612 -3.75718,2.65222 0,0.4261 0.57018,1.89311 1.26708,3.26003 0.91423,1.79321 1.07873,2.71226 0.59075,3.30025 -0.86703,1.0447 -5.79513,2.67619 -9.67542,3.20314 -2.52596,0.34303 -2.99517,0.61909 -2.88,1.69447 0.0999,0.93296 -0.65093,1.70603 -2.74241,2.82361 -2.82166,1.50776 -2.88776,1.61621 -3.26283,5.35362 -0.47648,4.74802 -1.49885,5.95408 -7.3074,8.62032 -8.75472,4.01859 -20.02162,6.8644 -30.5365,7.71295 -4.48018,0.36155 -5.65384,0.27518 -5.92555,-0.43608 -0.18635,-0.48782 0.89829,-4.7104 2.41031,-9.38353 l 2.74914,-8.49659 -1.52439,-1.42341 c -1.37164,-1.28077 -3.32279,-4.34646 -3.32279,-5.22084 0,-0.18756 1.38585,-1.04327 3.07966,-1.90159 4.12153,-2.08853 10.78096,-9.29958 12.72679,-13.78097 3.86927,-8.91122 3.83296,-8.86001 8.33761,-11.75959 2.38477,-1.53505 5.91994,-3.81588 7.85594,-5.06853 6.22672,-4.02884 11.82957,-9.15233 20.89569,-19.10794 13.06952,-14.35178 12.71821,-13.77549 12.63619,-20.72872 -0.11749,-9.96057 -3.00775,-19.19391 -7.67782,-24.52783 -1.6337,-1.86593 -5.13436,-4.99296 -7.77925,-6.94895 l -4.80889,-3.55634 0.35869,-4.25106 c 0.19727,-2.33808 1.00076,-6.80679 1.78555,-9.93048 1.24536,-4.95701 1.30524,-5.74749 0.47075,-6.2145 -0.52586,-0.29429 -1.57183,-1.05054 -2.32437,-1.68057 l -1.36826,-1.1455 1.61055,-4.72198 c 0.88581,-2.59708 1.48261,-4.84992 1.32622,-5.0063 -0.15637,-0.15639 -5.27949,0.7625 -11.38469,2.04197 -6.10519,1.27947 -14.55636,2.70049 -18.78036,3.15783 -9.9273,1.07485 -44.68147,1.28673 -50.97178,0.31075 -7.97323,-1.23709 -19.48489,-5.68605 -26.57337,-10.26994 -3.76784,-2.43654 -4.06322,-2.51941 -6.57207,-1.84385 -1.44481,0.38905 -3.87456,1.24216 -5.39945,1.8958 -2.54768,1.09207 -3.10465,1.11534 -6.86793,0.28706 -2.25247,-0.49576 -4.57211,-1.17252 -5.15476,-1.50392 -0.60336,-0.34316 -4.00764,-0.43557 -7.9085,-0.21466 l -6.84913,0.38785 -2.87967,4.5397 c -1.58382,2.49683 -3.87081,5.57398 -5.0822,6.83812 l -2.20254,2.29841 1.2476,3.14159 c 6.76605,17.0375 16.74801,30.22392 26.23128,34.65221 3.34892,1.56381 3.40917,1.64022 3.00248,3.80804 -0.22826,1.21672 -0.57294,2.62376 -0.76596,3.12677 -0.41089,1.07075 0.3491,1.15543 2.62021,0.29196 1.50129,-0.57079 1.74562,-0.41072 2.93662,1.92383 l 1.29909,2.54643 3.4101,-0.4008 c 2.64808,-0.31122 3.78712,-0.15376 5.09727,0.70469 2.41514,1.58246 5.06249,6.58744 7.95974,15.04844 2.44834,7.15 7.03484,25.38034 6.49239,25.80582 -0.27418,0.21506 -18.79834,-1.14177 -23.11945,-1.69342 -1.30352,-0.1664 -3.21512,-0.90432 -4.24801,-1.6398 -2.30512,-1.64139 -3.04955,-0.9503 -3.15696,2.93079 -0.089,3.21618 -1.42288,5.99861 -3.75515,7.83318 l -1.71573,1.34959 -2.72659,-5.10299 c -3.95982,-7.41107 -7.62998,-12.86915 -14.11907,-20.99717 -5.59097,-7.00306 -6.46067,-8.71032 -7.58319,-14.886 -2.63716,-14.50861 -8.35044,-28.43894 -17.379239,-42.37473 -4.982049,-7.6897 -7.26386,-12.52334 -7.271521,-15.40352 -0.0032,-1.13396 0.695405,-5.22975 1.552045,-9.10175 0.85664,-3.872 2.009082,-9.32676 2.560979,-12.1217 1.473927,-7.46435 2.929325,-9.29189 9.431926,-11.8436 7.13992,-2.8018 23.62422,-11.74688 26.70287,-14.4901 0.13328,-0.11876 -0.62638,-1.59488 -1.68814,-3.28027 -1.06176,-1.68538 -2.35945,-3.9109 -2.88375,-4.94558 -1.84154,-3.63421 -17.42662,-6.76711 -24.11772,-4.84813 -1.819931,0.52194 -2.587739,0.40115 -4.455777,-0.70103 -1.634644,-0.96446 -2.880103,-1.23023 -4.516954,-0.96388 -2.662004,0.43316 -12.819995,-3.08824 -12.819995,-4.44422 0,-0.45572 0.763969,-1.42952 1.697703,-2.164 1.851341,-1.45627 1.853978,-1.43431 -0.307341,-2.55988 -0.859213,-0.44747 -1.34553,-1.15132 -1.14912,-1.66315 0.369478,-0.96284 0.312602,-0.97792 -10.661364,-2.82555 l -6.539878,-1.1011 -1.668173,1.6561 c -0.917495,0.91085 -2.175496,2.66409 -2.795556,3.89609 -0.62006,1.232 -1.850796,3.20584 -2.734969,4.3863 l -1.607588,2.14631 0.35557,13.53369 c 0.465624,17.72267 1.94263,24.29674 6.851209,30.49432 1.867747,2.35823 1.918703,2.58534 1.244982,5.54912 -0.38636,1.69964 -0.608648,5.25594 -0.493974,7.90287 0.195357,4.50926 0.07739,5.01705 -1.871502,8.05603 -2.495025,3.89059 -2.556695,4.70041 -0.504746,6.62812 1.23282,1.15816 1.438058,1.73622 0.94413,2.65913 -0.482104,0.90082 -0.231839,1.81178 1.059911,3.85804 4.378459,6.93593 2.067898,12.8885 -9.388418,24.18685 -4.521816,4.45946 -16.639443,14.11922 -17.711779,14.11922 -0.317817,0 -0.920978,-1.944 -1.340357,-4.32 -0.41938,-2.376 -1.358253,-6.768 -2.086385,-9.76 l -1.323876,-5.44 -4.194207,0.21859 c -4.162274,0.21693 -4.190041,0.20718 -3.647061,-1.28 0.300931,-0.82422 0.563931,-7.97859 0.584446,-15.89859 l 0.0373,-14.4 2.646004,-5.76 c 3.335448,-7.26083 4.491321,-12.49325 5.422174,-24.54518 0.554619,-7.18075 0.559492,-12.05062 0.01942,-19.40103 -0.794875,-10.81823 -1.716269,-14.7593 -4.333611,-18.53613 l -1.744859,-2.51783 3.612257,-9.73991 c 1.98674,-5.35696 3.801039,-10.60392 4.031773,-11.65992 0.650228,-2.97589 2.596939,-6.46903 4.392101,-7.88111 0.89646,-0.70516 3.136495,-1.47164 4.977856,-1.70329 1.841361,-0.23166 7.37993,-1.39637 12.30793,-2.58824 25.435694,-6.1518 36.16461,-7.80871 54.560004,-8.42593 9.62247,-0.32286 11.68,-0.55615 11.68,-1.32428 0,-1.94919 -2.08373,-8.89492 -3.34404,-11.14676 l -1.31502,-2.34962 1.97781,-3.50449 c 1.84703,-3.27275 1.95272,-3.80398 1.59817,-8.03298 -0.37548,-4.47878 -0.35447,-4.55921 1.91522,-7.32906 1.26217,-1.54032 2.4931,-3.63615 2.7354,-4.65741 0.59854,-2.5229 3.14187,-5.813 5.39376,-6.9775 2.82155,-1.45908 3.35982,-1.24919 2.87397,1.12067 -0.40616,1.98115 -0.38024,2.017 0.54536,0.75434 0.62254,-0.84924 1.23381,-4.18439 1.70087,-9.28 0.40099,-4.37489 1.20977,-10.40234 1.7973,-13.39434 1.59466,-8.12086 1.32291,-13.16659 -1.17195,-21.76 -1.59197,-5.48344 -2.13323,-8.58385 -2.12289,-12.16 0.0203,-7.01832 1.26588,-20.34091 2.75507,-29.46804 1.65823,-10.16314 1.66476,-15.95849 0.0239,-21.18454 -1.95358,-6.22197 -1.3905,-5.93022 -9.10939,-4.71982 -3.90085,0.61169 -11.26197,1.10447 -17.52918,1.17346 -14.738194,0.16225 -18.539833,-1.0271 -28.259616,-8.84106 -1.751411,-1.408 -4.066515,-3.04031 -5.144685,-3.62735 -1.091654,-0.5944 -2.576346,-2.29596 -3.350573,-3.84 -0.764653,-1.52496 -2.117677,-3.54921 -3.006726,-4.49833 -1.699296,-1.81413 -1.711015,-2.44443 -0.153012,-8.23039 0.592692,-2.2011 0.819136,-2.36853 3.67097,-2.7143 1.671623,-0.20267 6.927316,-1.54724 11.679316,-2.98791 4.752,-1.44069 10.656001,-2.92955 13.120001,-3.30861 2.464,-0.37904 5.199995,-1.10783 6.079995,-1.61952 7.15595,-4.16092 9.7177,-4.93582 17.25613,-5.21977 7.1189,-0.26814 7.46306,-0.34737 9.59063,-2.20771 1.21372,-1.06128 4.36434,-2.95423 7.00138,-4.20655 4.09138,-1.94299 5.62049,-2.31644 10.4253,-2.54616 4.80094,-0.22954 6.44572,-0.0151 11.16157,1.45523 6.09938,1.90169 6.8557,1.81923 14.53842,-1.58507 4.00953,-1.77665 5.51867,-4.66305 3.54497,-6.780091 -0.83898,-0.899904 -1.14429,-1.869344 -0.90705,-2.88 0.30063,-1.280627 -0.15316,-1.867693 -2.84685,-3.682957 -1.76248,-1.187718 -3.2045,-2.389562 -3.2045,-2.670771 0,-0.281203 -0.86817,-1.379443 -1.92926,-2.440538 l -1.92926,-1.929261 1.93775,-4.877996 c 1.06576,-2.682893 2.64785,-6.279328 3.51577,-7.992077 l 1.57803,-3.114093 -1.94042,-0.426182 c -1.11714,-0.245364 -1.80691,-0.740877 -1.62576,-1.167892 0.17305,-0.407936 1.22006,-3.621702 2.32667,-7.141702 2.63826,-8.392021 3.17124,-9.306474 6.52772,-11.2 1.55989,-0.88 4.45417,-3.26508 6.43173,-5.300179 5.93399,-6.106661 10.93102,-7.614857 19.75289,-5.961788 2.99964,0.562082 7.59145,1.026968 10.20402,1.03308 5.46171,0.01277 12.76891,1.401191 14.77702,2.807725 2.1576,1.511239 8.58942,10.447181 11.14851,15.488991 1.98939,3.919411 2.2596,4.954135 1.8802,7.199793 -0.56064,3.318388 -2.83994,6.75177 -4.65643,7.014119 -1.41977,0.205049 -1.46336,0.327648 -2.37475,6.678259 -0.18943,1.32 -0.52233,3.42857 -0.73978,4.685709 -0.22013,1.272633 0.10626,4.950598 0.7364,8.298265 1.27228,6.759085 0.92123,7.976026 -2.30078,7.976026 -1.62149,0 -1.82299,0.24161 -2.00163,2.4 -0.15844,1.91436 -0.48511,2.44074 -1.61437,2.60133 -1.18182,0.16807 -1.35645,0.49777 -1.05692,1.99541 0.31452,1.57261 0.10786,1.88154 -1.67425,2.50279 -2.89783,1.01019 -2.42381,2.91234 0.79223,3.17911 2.2685,0.18816 2.81572,0.83518 2.45142,2.89851 -0.15868,0.89869 3.01321,-1.56333 33.24818,-25.807268 16.02971,-12.853434 41.15771,-32.98803 55.84001,-44.743545 14.68229,-11.755516 26.69507,-21.772555 26.69507,-22.260087 0,-0.487533 0.40895,-1.043352 0.90878,-1.235154 0.49983,-0.191803 1.68493,-1.935127 2.63356,-3.874055 2.73241,-5.584832 7.15529,-7.32497 12.71426,-5.002288 2.40871,1.006425 4.8634,3.067948 4.8634,4.084433 0,0.318552 -1.29439,1.337753 -2.87643,2.26489 -3.16406,1.854261 -5.09689,4.833615 -4.90591,7.562197 0.068,0.971449 -0.35383,2.494962 -0.93738,3.385584 -2.4205,3.694147 1.39609,14.762766 7.42066,21.520937 1.67055,1.873963 7.89797,6.863206 13.83872,11.087206 18.84837,13.401594 27.13543,20.477773 34.66063,29.596096 6.28001,7.609523 10.75678,16.642184 12.24905,24.714654 0.77432,4.18871 0.001,14.25518 -1.5616,20.34163 -0.51025,1.98681 -0.92774,3.78681 -0.92774,4 0,0.21319 4.14,0.38762 9.2,0.38762 h 9.20001 l 0.3737,-1.86852 c 0.46059,-2.30298 2.58962,-3.16885 4.20255,-1.70916 0.6185,0.55972 2.04371,1.01768 3.16714,1.01768 h 2.04262 l -1.29301,-2.5345 c -1.52401,-2.98732 -1.70428,-5.7855 -0.37272,-5.7855 5.85547,0 28.50728,8.11689 38.10471,13.65417 l 2.86499,1.65297 -5.42499,2.52644 c -7.34578,3.42096 -15.27646,6.15536 -25.45253,8.77571 -10.29275,2.65041 -11.65246,2.73513 -11.65246,0.72603 0,-0.80557 0.576,-2.59446 1.28,-3.97532 0.704,-1.38086 1.28,-2.59375 1.28,-2.69532 0,-0.10158 -1.008,-0.18468 -2.24,-0.18468 -1.232,0 -2.24,0.288 -2.24,0.64 0,1.34616 -3.18227,0.62204 -4.21886,-0.96 -0.9374,-1.43066 -1.48166,-1.6 -5.14232,-1.6 h -4.09396 l 0.41038,2.56633 c 0.37745,2.3604 0.22225,2.74375 -1.93401,4.77737 -1.82737,1.72343 -2.32961,2.67474 -2.27743,4.31367 0.11888,3.73343 -0.78985,9.74405 -1.69165,11.18909 -0.48274,0.77357 -0.71187,1.83865 -0.50918,2.36687 0.45713,1.19126 -1.57709,4.75316 -2.96639,5.1941 -0.93106,0.29551 -0.91361,0.75644 0.1877,4.95918 1.79651,6.85567 2.17814,17.0722 0.85918,23.00069 -2.04013,9.16999 -7.37289,18.26042 -16.01979,27.30802 -6.94135,7.26298 -13.81912,12.91992 -28.16538,23.1659 -13.67838,9.76897 -18.10303,14.10919 -21.34665,20.93933 -2.68984,5.66406 -3.66199,13.30554 -1.82359,14.33436 0.57856,0.32378 1.05194,1.38144 1.05194,2.35034 0,1.71989 0.18869,1.80935 7.96006,3.77431 11.03519,2.7902 23.64734,7.60933 36.81587,14.06743 6.72615,3.29863 12.25884,5.60294 13.89574,5.78745 1.51356,0.1706 4.93037,-0.2114 7.70408,-0.86132 4.04179,-0.94705 6.12158,-1.93744 10.99905,-5.23775 11.75013,-7.95066 14.6989,-8.61467 24.51217,-5.51972 12.8142,4.0414 33.67907,17.47442 31.94768,20.56824 -0.38061,0.68011 0.44739,2.33795 2.81761,5.64155 6.43353,8.96701 8.82807,17.54817 8.55961,30.67456 -0.17142,8.38211 -0.84435,11.58994 -5.16067,24.60075 -3.5865,10.81092 -4.10179,15.30321 -2.47118,21.54369 0.83933,3.21216 0.82171,3.30988 -1.10041,6.10359 l -1.9534,2.83916 1.8569,2.49042 c 2.2742,3.05008 2.29514,3.69323 0.20928,6.42793 l -1.64761,2.16013 1.64761,1.43258 c 1.92568,1.67435 2.04309,2.889 0.57656,5.96435 -0.92027,1.92983 -1.30321,2.19136 -2.72,1.85769 -2.38289,-0.56121 -5.61662,-3.15121 -7.74873,-6.20624 -4.11706,-5.89916 -3.97279,-5.744 -4.47582,-4.81372 -1.10161,2.0373 -2.54384,10.43212 -2.5368,14.76601 0.009,5.41631 1.01565,9.61221 3.52246,14.67948 1.95159,3.94491 1.82161,5.30446 -0.61314,6.41381 -1.2293,0.56011 -1.82515,0.54088 -2.57709,-0.0832 -1.35418,-1.12387 -6.09548,-10.73973 -6.11929,-12.41056 -0.0154,-1.08017 -0.13348,-1.16508 -0.56455,-0.40589 -1.66972,2.94067 -1.25979,19.02376 0.67508,26.48598 0.90567,3.49294 3.41808,7.04497 6.36012,8.99192 1.45321,0.9617 2.50882,2.17107 2.50882,2.87429 0,1.49169 -3.47993,4.52781 -5.18966,4.52781 -2.06281,0 -5.88233,-1.86099 -7.97391,-3.88513 -1.95617,-1.8931 -1.97394,-1.89659 -4.72046,-0.92756 -1.5163,0.53498 -3.00284,0.97269 -3.30343,0.97269 -0.97105,0 -3.2033,-5.14014 -4.12906,-9.50785 -0.49569,-2.33868 -0.90626,-6.20051 -0.91237,-8.58184 l -0.0111,-4.3297 -3.94223,-4.9503 c -4.92638,-6.18614 -7.7587,-12.07171 -8.07457,-16.77903 -0.18765,-2.79661 0.28439,-5.14603 2.26894,-11.29278 2.32262,-7.19385 2.43788,-7.89129 1.57602,-9.53621 -1.70653,-3.25702 -3.98825,-10.73874 -3.98124,-13.05439 0.0122,-4.02032 2.52326,-10.49035 11.72991,-30.2232 6.87192,-14.72875 10.81673,-27.94528 10.91745,-36.57733 0.0617,-5.28999 -0.0316,-5.70766 -1.53428,-6.86625 -2.58805,-1.99542 -9.69975,-5.56396 -12.65711,-6.35112 -5.27978,-1.40534 -15.25482,1.78642 -18.10869,5.79432 -2.58319,3.62775 -1.86107,8.10636 3.54499,21.98636 4.84868,12.44889 5.55915,17.41379 3.06348,21.4079 -0.74097,1.18585 -0.86556,2.59585 -0.54344,6.15044 0.37729,4.16359 0.255,4.9362 -1.25815,7.94882 -1.12756,2.24492 -1.54503,3.85897 -1.2757,4.93211 0.28506,1.13576 -0.43223,3.41154 -2.49059,7.90201 -4.63313,10.10754 -7.38705,22.46321 -7.39222,33.16581 -0.002,3.3816 -0.23559,5.17376 -0.64258,4.92223 -1.04565,-0.64625 -0.78316,0.0602 2.32336,6.25279 5.37588,10.71639 12.36841,21.67064 16.06406,25.16541 l 3.49316,3.30327 -0.23073,9.51927 c -0.26809,11.06057 -0.25466,11.02445 -6.81367,18.33054 -5.07557,5.65368 -8.876,11.63092 -11.9862,18.85168 -3.58783,8.3296 -3.9266,10.31776 -2.61677,15.35712 0.62041,2.38695 1.18175,4.79046 1.24741,5.34112 0.13108,1.0993 -7.30371,7.6388 -8.68458,7.6388 -0.47302,0 -1.15892,-0.29889 -1.52423,-0.66419 -0.84094,-0.84094 -5.99181,4.57758 -5.99181,6.30315 0,0.65316 0.33076,2.83453 0.73502,4.84749 0.70917,3.53121 0.68103,3.69771 -0.8,4.73413 -0.84426,0.59081 -2.57792,2.01588 -3.85258,3.16681 -2.72994,2.46495 -2.86747,2.4967 -3.31993,0.7665 -0.3186,-1.21831 -0.46774,-1.25051 -1.83465,-0.39614 -0.81832,0.51149 -2.25588,1.1077 -3.19458,1.32493 -1.13246,0.26208 -2.10151,1.1969 -2.88,2.77832 -2.14537,4.35805 -4.12574,4.96575 -16.53328,5.0734 -5.984,0.0519 -11.744,-0.0177 -12.8,-0.15476 z m 25.39674,-2.7601 c 2.74781,-1.38544 3.4392,-3.90372 2.54248,-9.26053 -1.23917,-7.40263 -1.51493,-12.64938 -0.8619,-16.39901 0.59834,-3.43555 0.61484,-3.36949 0.68787,2.75366 0.0703,5.89439 1.35973,13.76834 2.57346,15.71483 0.75257,1.2069 3.48183,0.30917 2.98626,-0.98226 -0.20223,-0.52697 -0.5164,-2.15695 -0.69817,-3.62218 l -0.3305,-2.66405 0.87715,2.62783 c 1.3146,3.93842 1.75567,4.48619 2.63925,3.27782 0.51737,-0.70754 0.58314,-2.50212 0.22051,-6.01695 -0.2842,-2.75479 -0.30671,-7.8887 -0.05,-11.4087 l 0.46672,-6.4 0.45733,9.6 c 0.25154,5.28 0.83432,10.81706 1.29508,12.30456 l 0.83774,2.70457 2.45581,-2.0721 2.45582,-2.07209 -0.64569,-3.83247 c -0.35512,-2.10786 -0.79042,-7.00047 -0.96733,-10.87247 -0.235,-5.1434 -0.17191,-6.17791 0.23422,-3.84 1.30451,7.50964 1.32093,7.56227 2.11181,6.77085 0.48728,-0.48761 0.71936,-2.84538 0.65391,-6.64336 l -0.10145,-5.88749 0.46152,4.62674 c 0.25384,2.5447 0.6675,4.8327 0.91923,5.08444 0.25174,0.25174 1.09207,-0.17665 1.86739,-0.95197 1.33754,-1.33754 1.40557,-1.90885 1.32957,-11.16445 l -0.0801,-9.75476 0.49128,7.36 c 0.44935,6.73188 1.64188,13.44 2.38927,13.44 0.16681,0 1.65001,-1.06236 3.29599,-2.36079 l 2.99269,-2.36079 -1.22658,-4.83921 c -1.16441,-4.59394 -1.17317,-5.04518 -0.17285,-8.90302 2.30085,-8.87343 8.35097,-19.76847 15.18766,-27.3499 2.51273,-2.78646 4.98564,-6.03303 5.49536,-7.2146 0.62436,-1.44734 0.96683,-4.86725 1.04962,-10.48136 l 0.12287,-8.33305 -3.29856,-2.95864 c -5.83271,-5.23166 -19.30468,-29.12878 -20.60989,-36.55864 -0.34009,-1.936 -0.52106,-3.61876 -0.40215,-3.73948 0.11892,-0.12071 0.69068,0.69806 1.27059,1.81948 0.57991,1.12142 1.15008,1.94019 1.26703,1.81948 0.11695,-0.12072 0.52028,-3.29163 0.89629,-7.04648 0.93853,-9.37233 2.35479,-15.83219 4.9421,-22.54196 l 2.19369,-5.68895 -2.63691,-7.75105 c -1.4503,-4.26307 -3.05254,-8.61504 -3.56053,-9.67104 -0.84195,-1.7502 -0.83612,-1.81032 0.0658,-0.67975 0.80305,1.00658 4.33178,9.51278 6.36794,15.35028 0.41197,1.18107 0.46879,1.17403 1.41368,-0.17499 0.82986,-1.18479 0.88252,-2.23235 0.33529,-6.67053 -0.35704,-2.89576 -1.23045,-7.12465 -1.94092,-9.39754 -0.71047,-2.27289 -1.20098,-4.22331 -1.09002,-4.33427 0.30574,-0.30574 2.15526,4.81932 3.17096,8.7868 l 0.90115,3.52 1.13978,-2.36651 c 1.76424,-3.66308 0.59367,-10.42476 -3.17492,-18.33962 -3.29591,-6.92213 -2.31072,-6.22297 1.3902,0.98657 1.31965,2.57074 2.60381,4.6753 2.85368,4.67681 0.24986,10e-4 0.80164,-1.15656 1.22616,-2.57349 0.99827,-3.33193 0.27523,-6.52722 -3.89117,-17.19595 -5.69402,-14.58046 -6.42289,-19.90284 -3.32192,-24.25774 3.61165,-5.07211 15.24062,-7.97879 22.40326,-5.59975 10.32231,3.42852 27.38961,19.66176 33.10774,31.48979 1.71624,3.55006 1.80189,4.14596 1.6873,11.73989 -0.0664,4.4 -0.40468,9.44 -0.75174,11.2 -0.53352,2.70549 -0.59049,2.16154 -0.36862,-3.52 0.53753,-13.76499 -0.84155,-18.4697 -8.16823,-27.86589 l -3.90713,-5.01076 -0.89056,4.00941 c -1.12994,5.08712 -1.60874,4.72952 -0.84498,-0.63108 0.54291,-3.81053 0.4815,-4.20784 -0.86518,-5.5973 l -1.44958,-1.49563 -0.4481,3.41563 c -0.51273,3.90828 -2.34596,11.57455 -2.68641,11.2341 -0.1252,-0.1252 0.20041,-2.46491 0.7236,-5.19936 1.2608,-6.58961 1.22533,-10.53547 -0.10795,-12.00873 -0.58255,-0.64371 -1.2621,-1.17039 -1.5101,-1.17039 -0.24799,0 -0.50236,2.03923 -0.56526,4.53162 -0.23574,9.34114 -5.05839,23.72882 -15.42841,46.02838 -5.8184,12.51183 -7.04522,16.03256 -7.00401,20.10019 0.0345,3.40291 2.44112,10.73903 3.50987,10.69904 0.33941,-0.0127 3.09677,-6.15573 6.12747,-13.65117 8.26917,-20.45109 10.95457,-26.81646 11.20681,-26.56423 0.12554,0.12555 -1.04314,3.51955 -2.59707,7.54222 -1.55394,4.02267 -4.16097,10.76995 -5.79341,14.99395 -1.63243,4.224 -5.10976,14.06597 -7.72738,21.87105 -3.8196,11.38907 -4.75931,14.95145 -4.75931,18.04223 0,3.77663 1.23201,6.41415 1.32869,2.84449 0.0267,-0.98877 0.46137,-2.80577 0.96578,-4.03777 0.63041,-1.53981 0.82189,-1.73151 0.61256,-0.61326 -0.97229,5.19384 -1.09957,9.03649 -0.35856,10.82543 0.93034,2.24603 1.93082,1.99246 1.93314,-0.48994 6.4e-4,-0.94723 0.72953,-4.45823 1.61921,-7.80223 2.05558,-7.72625 2.28685,-8.46566 2.56184,-8.19067 0.12418,0.12418 -0.32669,2.33014 -1.00195,4.90213 -0.67525,2.57199 -1.56525,7.08906 -1.97778,10.03794 l -0.75005,5.3616 2.17356,2.88471 c 1.19546,1.58659 2.38956,2.89361 2.65356,2.9045 0.264,0.0109 0.48,-0.82504 0.48,-1.85761 0,-5.179 7.22032,-37.62255 9.90852,-44.5226 1.13493,-2.91312 1.15642,-3.02077 -2.23562,11.2 -5.15155,21.59732 -7.01107,36.91512 -5.73144,47.21272 0.58986,4.74686 2.77991,12.30728 3.56508,12.30728 0.16201,0 1.32856,-0.43203 2.59232,-0.96006 1.77612,-0.74211 2.14013,-1.14999 1.60344,-1.79668 -2.44331,-2.944 -3.42392,-17.08202 -2.0283,-29.24326 0.72344,-6.30391 3.23936,-20.01997 3.60515,-19.65418 0.13669,0.13669 -0.38806,3.8228 -1.16611,8.19136 -1.92893,10.83044 -2.10511,31.7306 -0.31084,36.87502 2.45197,7.03016 9.99566,12.40189 13.26339,9.44464 1.69604,-1.53489 1.60146,-1.89795 -0.89662,-3.44185 -2.84408,-1.75774 -5.38506,-5.52457 -6.5751,-9.74716 -1.53867,-5.45957 -1.84872,-20.62562 -0.59998,-29.34783 1.73441,-12.11446 1.97548,-12.73223 2.53973,-6.50828 0.59665,6.58125 1.80974,11.36388 3.88562,15.31903 2.3448,4.46751 3.40298,5.66302 4.25681,4.80919 0.52168,-0.52167 0.26829,-1.62132 -0.95066,-4.1256 -2.34464,-4.81694 -3.84513,-12.68913 -3.40937,-17.88693 0.19532,-2.3298 1.00949,-6.87082 1.80925,-10.09116 1.26706,-5.10195 1.3533,-6.20384 0.6704,-8.5657 -2.71968,-9.40625 -2.59513,-12.16823 1.49309,-33.11055 1.20251,-6.16 2.29733,-12.064 2.43292,-13.12 0.13559,-1.056 0.28968,-0.31156 0.34243,1.6543 0.0527,1.96587 -0.91211,9.6768 -2.14411,17.13541 -2.513,15.21384 -2.67506,18.36423 -1.23443,23.99791 1.79049,7.00185 7.86666,16.62126 11.77586,18.64278 1.74098,0.90029 1.82494,0.86904 2.58332,-0.96188 0.75299,-1.81787 0.64986,-2.03155 -2.61825,-5.42477 -5.98755,-6.21677 -8.97634,-13.23827 -8.84451,-20.77821 0.0596,-3.40705 0.0961,-3.32605 0.93647,2.07367 0.93352,5.99855 3.50593,12.17738 6.44178,15.47288 l 1.6856,1.89209 1.5139,-1.89209 c 0.83264,-1.04065 1.51533,-2.11503 1.51708,-2.38752 0.002,-0.27249 -0.95652,-1.89058 -2.12948,-3.59577 -5.50923,-8.00901 -6.43529,-17.42724 -3.02736,-30.7888 1.48071,-5.80543 2.1557,-10.19457 2.46061,-16 0.37042,-7.05267 0.47302,-7.58317 0.8665,-4.48 0.70212,5.53728 -0.0491,13.70283 -2.06824,22.48244 -1.02237,4.44535 -1.85885,9.49684 -1.85885,11.22554 0,3.25192 1.40235,9.56893 2.63597,11.87397 0.67987,1.27034 0.75058,1.24517 1.98674,-0.70719 1.12382,-1.77496 1.194,-2.37299 0.56953,-4.853 -1.61198,-6.40175 -0.99142,-11.05148 3.18775,-23.88529 2.50153,-7.68195 3.89047,-13.00918 3.87345,-14.85647 -0.0373,-4.04749 -2.27508,-10.81249 -4.90618,-14.83176 l -2.23112,-3.40824 2.24573,2.51103 c 1.23517,1.38107 2.95351,3.97307 3.81856,5.76 l 1.57282,3.24897 0.0234,-3.92959 c 0.0217,-3.64255 -0.17832,-4.20356 -2.73776,-7.68 -1.51863,-2.06273 -4.90263,-5.73719 -7.52,-8.16548 -4.06415,-3.77054 -4.30261,-4.09754 -1.63347,-2.24 1.71897,1.19629 5.06621,4.27716 7.43832,6.84638 l 4.31293,4.67131 -0.58851,-3.39131 c -0.73692,-4.24652 -4.94095,-13.21253 -8.25459,-17.60471 -1.38316,-1.83338 -3.73856,-4.0393 -5.2342,-4.90207 -3.83071,-2.20975 -12.24574,-4.71503 -18.45083,-5.49308 -6.69023,-0.83888 -7.58939,-1.56067 -1.22852,-0.98616 5.78281,0.52229 15.12934,2.57467 19.52,4.28633 l 3.20001,1.2475 -1.92001,-2.03676 c -2.35134,-2.49434 -8.40473,-6.68717 -12.03217,-8.334 -1.95027,-0.8854 -4.16596,-1.2241 -8.0745,-1.23431 -6.48034,-0.0169 -6.61969,-0.64295 -0.16961,-0.76206 2.50421,-0.0463 4.4304,-0.28263 4.28042,-0.5253 -0.61439,-0.9941 -12.73116,-5.85793 -16.98823,-6.8193 -6.0572,-1.36789 -7.93628,-0.78075 -16.99821,5.31134 -8.36256,5.62192 -12.87346,7.26127 -19.98044,7.26127 -4.8167,0 -5.03976,-0.0746 -15.14298,-5.06779 -10.94677,-5.41003 -19.34081,-8.89905 -29.13427,-12.10977 -6.40527,-2.09993 -14.70605,-4.16972 -15.10848,-3.76729 -0.42557,0.42557 2.2966,2.98584 4.24704,3.99445 3.00349,1.55316 2.26011,3.32013 -2.38678,5.67322 -4.59534,2.32699 -9.37007,0.83678 -12.0677,-3.76638 -0.92714,-1.58205 -2.10373,-2.87644 -2.61466,-2.87644 -0.51092,0 -1.40873,-0.83597 -1.99513,-1.8577 -0.88082,-1.53474 -1.40415,-1.81362 -3.01023,-1.60415 -1.06923,0.13946 -6.55206,0.70812 -12.18406,1.2637 -5.632,0.55558 -14.992,1.77553 -20.8,2.71101 -9.27527,1.49393 -12.23404,1.69031 -24.32,1.61414 -8.01121,-0.0505 -17.3283,-0.51293 -22.30088,-1.10686 -11.23369,-1.34178 -10.88535,-1.36407 -9.05913,0.57986 2.33691,2.48753 0.97873,1.89063 -2.91562,-1.28136 -6.98022,-5.68548 -22.29475,-15.35499 -23.31777,-14.72272 -0.2955,0.18263 -0.65675,-0.0264 -0.80277,-0.46441 -0.63154,-1.89461 -6.64332,2.59273 -9.61371,7.17591 -1.18414,1.82706 -1.70158,2.3032 -1.40474,1.29258 1.23928,-4.21914 5.07376,-8.21588 11.3348,-11.81448 l 3.0402,-1.74738 -1.1202,-1.93043 c -0.6161,-1.06174 -1.51075,-2.08486 -1.9881,-2.27361 -1.46931,-0.58095 -6.10078,2.11275 -10.36967,6.0311 -2.85217,2.61797 -3.64518,3.12954 -2.65192,1.71074 3.12512,-4.46398 7.93161,-8.02804 14.61895,-10.84008 1.12902,-0.47476 1.26754,-0.84367 0.789,-2.10134 -0.53163,-1.3972 -0.83082,-1.49117 -3.55754,-1.11743 -5.69196,0.78017 -13.79122,5.53508 -21.82209,12.81129 -2.93471,2.65893 -3.31579,2.86984 -2.03488,1.12621 3.57094,-4.86094 3.42893,-4.57459 2.26862,-4.57459 -1.92519,0 -6.05322,2.52 -10.75028,6.56264 -4.59862,3.95792 -4.61487,3.98321 -2.93739,4.57315 1.32828,0.46713 2.03852,1.54583 3.34145,5.07489 0.91005,2.46492 1.54412,4.5922 1.40904,4.72727 -0.13508,0.13508 -2.20529,-0.0957 -4.60047,-0.51277 -4.01357,-0.69893 -12.18032,-0.51093 -16.27491,0.37465 -0.88,0.19033 -0.57759,-0.0568 0.67203,-0.54908 3.14732,-1.23998 10.44405,-1.81286 14.84797,-1.16574 2.024,0.29741 3.68,0.39827 3.68,0.22412 0,-0.17415 -0.48459,-1.85394 -1.07688,-3.73288 -0.8327,-2.64164 -1.37689,-3.42726 -2.4,-3.46481 -4.71777,-0.17315 -10.49851,0.2598 -13.35205,1 -3.2747,0.84944 -5.05023,0.8589 -2.38407,0.0127 0.7499,-0.23801 1.256,-0.76831 1.12465,-1.17844 -0.22343,-0.69769 -6.0186,-4.21793 -6.99776,-4.25074 -0.24536,-0.008 -2.40536,1.45358 -4.8,3.24846 l -4.35389,3.26339 3.46566,-3.55052 c 1.90612,-1.95278 4.71412,-4.21282 6.24,-5.0223 1.52589,-0.80948 2.77434,-1.63808 2.77434,-1.84132 0,-0.20324 -0.70193,-1.02897 -1.55985,-1.83494 -1.51944,-1.42744 -1.63653,-1.43927 -4.51982,-0.45684 -5.20343,1.77299 -12.83618,8.33796 -15.35324,13.20541 -0.58381,1.12896 -1.21683,1.89731 -1.40669,1.70744 -0.18987,-0.18987 0.67248,-2.00915 1.91634,-4.04286 1.24387,-2.0337 2.12345,-3.92112 1.95464,-4.19425 -0.67662,-1.0948 -2.19002,-0.35693 -4.97023,2.42328 -4.08189,4.08189 -8.93567,14.20105 -10.91429,22.75408 -0.8456,3.65531 -1.55757,5.87936 -1.58216,4.94232 -0.071,-2.70742 1.63422,-10.77752 3.08073,-14.57952 l 1.32524,-3.48323 -1.51134,-4.19677 c -1.79221,-4.97669 -3.5754,-14.8286 -3.58913,-19.82956 -0.005,-1.96195 -0.28898,-3.9992 -0.6302,-4.5272 -0.79086,-1.22377 -0.71772,-1.71428 -1.19296,8 l -0.40704,8.32 -1.1834,-4.8 c -0.65087,-2.64 -1.33737,-6.89779 -1.52556,-9.46176 -0.33832,-4.60934 -0.35659,-4.64892 -1.62494,-3.52 -2.39526,2.13197 -2.88794,4.50163 -2.28717,11.00077 0.30601,3.31045 0.43363,6.14176 0.2836,6.29179 -0.15003,0.15004 -0.63158,-1.95134 -1.0701,-4.66972 l -0.79732,-4.94253 -1.80034,2.17073 c -1.24937,1.50639 -1.80561,2.8997 -1.81756,4.5527 -0.0158,2.18929 3.06176,15.05304 4.51723,18.88121 0.34175,0.89888 0.51438,1.74132 0.38361,1.87209 -0.28319,0.28319 -1.81897,-3.17131 -3.67009,-8.25528 -0.73696,-2.024 -1.43975,-3.68 -1.56175,-3.68 -0.122,0 -0.82167,0.97058 -1.55481,2.15684 l -1.333,2.15683 1.25769,2.84323 c 3.31008,7.48298 3.77797,12.97983 2.53267,29.75437 -1.12928,15.21196 0.6234,25.40207 6.47551,37.64873 3.50149,7.32753 3.95248,7.84563 5.91511,6.79526 l 1.58805,-0.8499 -3.12371,-6.62228 c -1.71805,-3.64225 -3.11819,-6.85196 -3.11144,-7.13268 0.007,-0.28072 1.46321,2.2256 3.23655,5.5696 1.77334,3.344 3.46503,6.32281 3.7593,6.61958 0.29427,0.29677 1.27397,0.0554 2.17712,-0.53635 l 1.64208,-1.07593 -1.89366,-3.3554 c -1.04152,-1.84547 -1.89097,-3.76411 -1.88767,-4.26365 0.003,-0.49954 0.86131,0.58305 1.90667,2.40574 1.04537,1.82269 2.20483,3.50198 2.57659,3.73173 0.37176,0.22976 3.50166,-1.69353 6.95533,-4.27398 3.45366,-2.58046 7.18139,-5.17884 8.28383,-5.77418 1.57596,-0.85106 2.09324,-1.63773 2.41981,-3.68 0.51391,-3.21384 1.37568,-3.46216 1.00531,-0.28969 -0.25181,2.15699 -0.17384,2.27753 1.19277,1.84378 4.89147,-1.55249 5.57029,-2.11119 5.99341,-4.93281 0.39136,-2.60975 3.16815,-9.45884 3.83485,-9.45884 0.1724,0 -0.24829,1.2699 -0.93485,2.822 -0.68657,1.55211 -1.42953,4.14411 -1.651,5.76 -0.36691,2.67686 -0.28455,2.938 0.92652,2.938 1.60433,0 1.89254,-0.41889 4.0277,-5.85413 2.01211,-5.12199 6.343,-11.75772 10.79886,-16.54587 3.01866,-3.24377 2.94459,-3.0931 -0.94382,1.92 -4.33184,5.58479 -9.91798,15.75964 -9.91798,18.06506 0,1.11524 0.28395,1.23815 2.04622,0.8857 1.12542,-0.22509 3.64542,-0.5556 5.6,-0.73448 2.76119,-0.25269 1.69818,0.16387 -4.76622,1.86777 -14.08119,3.71154 -18.08015,5.62584 -29.16885,13.96309 -13.34889,10.03664 -30.0112,20.20709 -39.63115,24.19036 -2.64,1.09312 -5.49577,2.33287 -6.346168,2.755 -2.173792,1.07905 -4.328825,6.24619 -5.150387,12.34914 -0.383648,2.84991 -1.265869,7.16899 -1.960493,9.59796 -2.405274,8.4108 -1.839398,10.43078 6.607367,23.5862 8.027581,12.50256 14.166971,27.41675 16.743421,40.6742 1.55433,7.99795 1.74214,8.39048 7.29539,15.2478 5.50958,6.80339 11.08806,15.07312 13.78286,20.4322 0.92926,1.848 1.96608,3.36 2.30403,3.36 0.88728,0 2.36953,-2.54973 2.86507,-4.92842 0.59949,-2.87765 -1.06365,-6.29138 -7.30004,-14.98389 -2.87568,-4.00823 -4.32793,-6.27969 -3.22722,-5.04769 2.29293,2.56644 9.21511,11.6106 10.10902,13.20794 0.90101,1.61001 2.67715,0.60334 2.67715,-1.51733 0,-1.99432 -1.75485,-5.58558 -4.61797,-9.45061 -1.84519,-2.49089 -1.82585,-2.48225 0.71644,0.32 2.44363,2.69349 4.59019,6.30811 5.51101,9.28 0.3918,1.26451 0.40509,1.26487 1.09801,0.0302 0.38578,-0.6874 0.83589,-3.34523 1.00025,-5.9063 0.18508,-2.88405 0.54318,-4.50546 0.94078,-4.25973 0.6422,0.3969 0.33188,6.77869 -0.53075,10.91501 -0.36814,1.76525 -0.21307,2.15159 1.08639,2.70666 1.41368,0.60385 22.13828,2.55841 22.56826,2.12843 0.10755,-0.10755 -0.75074,-4.15076 -1.90732,-8.9849 -3.47562,-14.52708 -8.34026,-26.80825 -11.23189,-28.35581 -1.29651,-0.69386 -6.24984,-0.42887 -8.56101,0.45801 -0.6119,0.23481 -0.97874,1.31299 -1.02644,3.01692 -0.0408,1.45834 -0.19605,2.07553 -0.34492,1.37153 -0.14887,-0.704 -0.39993,-1.89205 -0.5579,-2.6401 -0.23789,-1.12648 -0.8657,-1.41233 -3.65508,-1.66417 -1.85232,-0.16724 -4.37586,-0.78342 -5.60786,-1.3693 -1.232,-0.58586 -1.664,-0.89194 -0.96,-0.68017 3.4037,1.02391 8.61762,1.69811 10.15268,1.31284 1.64056,-0.41176 1.67392,-0.50268 0.79762,-2.17441 -0.83604,-1.59495 -1.23535,-1.74513 -4.65242,-1.74976 -2.71698,-0.004 -4.75234,-0.47899 -7.45217,-1.74028 -3.88035,-1.81282 -9.73513,-5.99983 -10.31012,-7.37323 -0.18387,-0.43921 1.16839,0.39506 3.00504,1.85394 3.52037,2.79628 8.98473,5.64785 10.84293,5.65838 1.04163,0.006 3.05644,-2.94378 3.05644,-4.47462 0,-0.38744 -0.94688,-1.10007 -2.10417,-1.58362 -7.87607,-3.29083 -16.97981,-13.64643 -23.20042,-26.39069 -2.26988,-4.65036 -4.47215,-9.74547 -4.89393,-11.32246 l -0.76688,-2.86726 2.86741,-3.07755 c 3.27315,-3.51305 7.09749,-9.62839 8.22827,-13.15754 0.93532,-2.91912 1.58097,-3.17195 0.9675,-0.37887 l -0.44391,2.02112 6.31306,-0.3937 c 8.86264,-0.5527 11.88548,-1.61761 16.17721,-5.69901 1.96032,-1.86425 2.68107,-2.38154 1.60166,-1.14954 -3.73733,4.26566 -6.05548,7.58611 -5.52505,7.91393 0.29303,0.18111 1.95624,0.51799 3.69602,0.74863 3.44172,0.45627 2.33638,1.02323 14.19195,-7.27942 2.97074,-2.08046 1.99314,-0.97264 -2.33248,2.64316 -1.17533,0.98246 -2.0288,1.87548 -1.89661,1.98448 0.1322,0.109 3.98437,-0.73629 8.56037,-1.87842 4.576,-1.14213 10.55791,-2.56938 13.29313,-3.17165 l 4.97314,-1.09504 -0.34549,-3.29284 c -0.38448,-3.66444 0.42619,-2.584 1.37094,1.82717 l 0.54828,2.56 3.41434,0.19532 c 3.03364,0.17356 3.37771,0.0665 3.08577,-0.96 -0.61395,-2.15875 -1.20585,-13.31801 -0.67945,-12.80985 0.28799,0.27801 0.73247,2.69191 0.98772,5.36424 0.49675,5.20048 0.99938,6.24947 2.6846,5.60279 0.7004,-0.26877 1.09597,-1.21055 1.15127,-2.74098 l 0.0842,-2.33152 0.40083,2.24 c 0.31845,1.77961 0.66007,2.19443 1.66213,2.01833 1.61807,-0.28438 5.88845,-2.4568 6.37412,-3.24265 0.20484,-0.33143 -0.23831,-2.13554 -0.98479,-4.00914 -0.90097,-2.26138 -1.43042,-5.23529 -1.57496,-8.84654 l -0.21775,-5.44 0.55173,4.30606 c 0.57037,4.45159 1.7176,8.72299 2.60148,9.68592 0.27867,0.30359 1.49434,-0.23609 2.70148,-1.1993 l 2.19481,-1.75128 -0.29197,-4.5607 c -0.20421,-3.18977 0.15646,-6.86929 1.19984,-12.2407 l 1.49183,-7.68 0.47482,5.89509 c 0.5009,6.21881 2.57258,12.6658 4.44365,13.82846 0.76932,0.47805 1.54119,0.28368 3.00079,-0.75564 l 1.96506,-1.39925 -1.06873,-2.38433 c -1.59113,-3.54979 -1.52553,-17.11283 0.10594,-21.90433 0.65919,-1.936 1.49352,-3.808 1.85406,-4.16 0.4445,-0.43399 0.51688,-0.24878 0.22482,0.57535 -0.23688,0.66845 -0.88651,3.83645 -1.44363,7.04 -1.17252,6.74234 -0.84191,12.70959 1.00768,18.18829 0.67298,1.99341 1.17289,3.63904 1.11092,3.65698 -0.0619,0.0179 -1.33048,0.81264 -2.81894,1.76599 -1.48845,0.95337 -3.10528,1.73339 -3.59296,1.73339 -0.98994,0 -3.64073,-3.61818 -5.15772,-7.04 -0.97476,-2.19871 -0.99039,-2.12569 -0.84805,3.96158 l 0.14501,6.2016 -2.74162,2.34678 c -2.18946,1.87415 -2.59259,2.52636 -2.00163,3.23841 0.54071,0.65152 0.55008,1.12044 0.0348,1.74133 -1.11572,1.34434 -7.59543,4.30632 -10.53433,4.8154 -2.28799,0.39632 -2.64811,0.66954 -2.47698,1.87932 0.19129,1.35244 -0.0132,1.41558 -4.58667,1.41558 -3.18757,0 -4.87351,-0.25985 -5.04615,-0.77775 -0.19187,-0.57562 -2.40956,-0.29356 -8.53333,1.0853 -4.55074,1.02467 -9.39908,2.19047 -10.77407,2.59066 l -2.49999,0.72763 3.77999,2.27484 c 8.03156,4.8335 16.35078,8.1211 23.75599,9.38795 6.37366,1.09037 26.85379,1.48769 39.224,0.76095 14.3897,-0.84539 20.80707,-1.78093 37.4241,-5.45579 7.04875,-1.55884 14.5439,-3.14588 16.6559,-3.52676 5.44377,-0.98175 29.00747,-3.87846 30.98732,-3.80931 1.74956,0.0611 1.31787,0.22016 -5.22732,1.92608 -1.86661,0.48651 -2.39782,0.94008 -2.3902,2.04086 0.0216,3.11169 0.51802,3.18097 9.32361,1.30112 7.77414,-1.65966 9.23934,-1.76601 24.59557,-1.78529 l 16.32896,-0.0205 -0.48139,-5.98021 c -1.73434,-21.54469 -7.12008,-38.61019 -16.39182,-51.93983 -1.67386,-2.40644 -2.27206,-3.62045 -1.41913,-2.88 2.41995,2.10079 7.70889,10.37082 10.60656,16.58488 7.27844,15.60869 10.94429,41.18748 8.35462,58.29512 -1.56494,10.33815 -1.60901,9.6 0.57316,9.6 1.6934,0 2.03035,-0.34791 3.09918,-3.2 0.65957,-1.76 1.75762,-5.216 2.44011,-7.68 1.06007,-3.82714 1.19566,-4.05547 0.93045,-1.56682 -0.17074,1.60224 -1.05723,5.27718 -1.96997,8.16651 l -1.65953,5.25333 2.7499,3.19318 c 1.51245,1.75624 2.96042,3.19331 3.21771,3.19349 0.59777,4e-4 1.11018,-2.07014 2.11745,-8.55621 0.62548,-4.02756 0.82241,-4.58424 0.87142,-2.46329 0.0828,3.58208 1.97441,9.15072 5.8778,17.30326 2.74708,5.73749 3.34948,6.57677 4.59361,6.4 0.78755,-0.1119 1.36867,-0.49145 1.29136,-0.84345 -0.0773,-0.352 -1.00123,-4.24 -2.05318,-8.64 -1.95125,-8.16156 -3.38361,-17.08584 -2.59716,-16.18152 0.23989,0.27583 0.80383,2.66152 1.25321,5.30152 0.92656,5.44344 4.104,16.58227 5.50064,19.28308 0.51166,0.98944 1.54698,2.12902 2.30071,2.5324 1.21017,0.64766 1.31661,0.59376 0.91027,-0.46103 -0.97157,-2.522 -2.15692,-8.55445 -1.68091,-8.55445 0.27472,0 0.65695,0.9703 0.8494,2.15622 0.19245,1.18592 0.99553,3.65702 1.78463,5.49133 1.27175,2.95626 2.09576,3.77719 7.25384,7.22672 6.70506,4.48409 13.95028,10.39975 18.77798,15.33205 3.84036,3.92357 5.56974,8.01264 6.71659,15.88116 0.62812,4.30952 0.57728,5.32501 -0.39389,7.868 -1.54754,4.05216 -5.09112,9.2933 -11.17095,16.52242 -9.9782,11.8644 -16.42576,17.54991 -24.14313,21.28963 -3.1405,1.52183 -4.31531,2.5819 -6.66432,6.01339 -3.6862,5.38487 -9.61289,11.37517 -14.61556,14.77242 -3.77263,2.56194 -4.75367,4.00532 -3.32324,4.88937 0.35442,0.21904 2.50915,-0.59194 4.7883,-1.80217 4.9473,-2.62703 4.91018,-1.87192 -0.0454,0.92487 -1.90695,1.07622 -3.60953,2.18709 -3.78352,2.46861 -0.74274,1.20178 1.71114,1.06983 5.82096,-0.31302 3.71281,-1.24926 4.97543,-2.08608 7.93535,-5.2592 1.936,-2.07545 4.6,-5.62285 5.92,-7.88311 2.60785,-4.46548 2.968,-4.69442 1.37058,-0.87127 -1.27279,3.04622 -4.28496,7.58013 -6.85525,10.31849 l -1.93911,2.0659 2.33134,0.9741 c 3.01399,1.25933 4.92615,1.21294 6.60214,-0.16014 1.85949,-1.52343 6.6495,-7.77435 6.65387,-8.68324 0.006,-1.21272 1.34819,-5.6841 1.62372,-5.40857 0.13968,0.13968 -0.31331,3.51352 -1.00666,7.49741 -0.69335,3.98387 -1.26063,7.73836 -1.26063,8.34329 0,0.86894 2.31662,2.58534 3.48942,2.58534 0.12606,0 0.12533,-1.8 -0.002,-4 -0.21782,-3.77493 -0.19907,-3.83795 0.33326,-1.12 0.99894,5.10044 0.87194,5.76246 -1.10106,5.73965 -0.968,-0.0112 -2.29902,-0.42855 -2.95781,-0.92746 -1.03139,-0.78106 -1.1344,-1.41462 -0.74141,-4.55997 0.25101,-2.00909 0.59022,-4.11174 0.75378,-4.67255 0.16357,-0.56082 -0.22279,-0.29967 -0.85858,0.58033 -0.63579,0.88 -2.29752,2.85097 -3.69273,4.37993 -2.38648,2.61524 -2.68739,2.75584 -5.07948,2.37333 -1.3985,-0.22363 -3.53014,-0.87515 -4.73698,-1.44783 -1.83131,-0.86902 -2.41326,-0.90446 -3.5184,-0.21429 -0.72829,0.45482 -2.67878,1.29538 -4.33443,1.86791 -2.6718,0.92391 -3.41548,1.64766 -6.61416,6.43691 -1.98213,2.96777 -3.38247,5.61222 -3.11185,5.87655 1.8004,1.7585 33.45409,2.2983 36.76879,0.62703 z M 417.38107,531.84 c 0,-0.88 0.14527,-1.24 0.32281,-0.8 0.17755,0.44 0.17755,1.16 0,1.6 -0.17754,0.44 -0.32281,0.08 -0.32281,-0.8 z M 141.44001,489.41268 c -5.18623,-5.00334 -5.84356,-5.80211 -2.88,-3.49973 2.112,1.6408 4.992,3.97735 6.4,5.19231 1.408,1.21497 2.776,2.07632 3.04,1.91412 0.264,-0.16221 0.48,-1.25123 0.48,-2.42005 0,-1.76803 -0.51084,-2.53287 -3.04,-4.55157 -4.41236,-3.52179 -4.64524,-3.84909 -1.52225,-2.1394 5.72422,3.13374 7.03049,5.81214 5.01338,10.27949 l -0.77113,1.70786 z m 300.63879,2.00441 c 0.33877,-4.23191 -0.51927,-6.57786 -2.81088,-7.6851 -0.96982,-0.4686 -2.31549,-1.85999 -2.99037,-3.09199 l -1.22705,-2.24 1.72115,2.08 c 0.94663,1.144 2.10037,2.08 2.56386,2.08 0.46349,0 1.46588,0.50461 2.22754,1.12136 1.13104,0.91587 1.39494,1.83535 1.44006,5.0175 0.0304,2.14287 -0.2267,4.39995 -0.57131,5.01573 -0.44921,0.80269 -0.54913,0.15241 -0.353,-2.2975 z M 384.10107,446.72 c 0,-0.88 0.14527,-1.24 0.32281,-0.8 0.17754,0.44 0.17754,1.16 0,1.6 -0.17754,0.44 -0.32281,0.08 -0.32281,-0.8 z M 369.44142,427.2 c 0.007,-1.408 0.13817,-1.90864 0.29125,-1.11254 0.15308,0.7961 0.14727,1.9481 -0.0129,2.56 -0.16019,0.6119 -0.28544,-0.0395 -0.27834,-1.44746 z M 113.56304,413.50716 c 0.68367,-0.76992 1.74707,-3.33199 2.3631,-5.6935 1.04479,-4.00505 1.12256,-4.11994 1.15697,-1.70927 0.0409,2.86575 -2.28037,8.06431 -3.8031,8.51713 -0.70126,0.20854 -0.62497,-0.0918 0.28303,-1.11436 z m 311.05067,-26.34974 c -0.23202,-0.37542 -0.2846,-0.81984 -0.11683,-0.9876 0.16775,-0.16777 0.47555,0.1394 0.684,0.68258 0.43275,1.12775 0.0639,1.32612 -0.56717,0.30502 z M 190.82106,384.64 c 0,-0.88 0.14527,-1.24 0.32281,-0.8 0.17754,0.44 0.17754,1.16 0,1.6 -0.17754,0.44 -0.32281,0.08 -0.32281,-0.8 z m 10.18948,-8.05333 c 0.0307,-0.74557 0.18236,-0.89722 0.38666,-0.38667 0.18488,0.462 0.16215,1.014 -0.0505,1.22667 -0.21267,0.21266 -0.36393,-0.16534 -0.33615,-0.84 z m 0,-2.56 c 0.0307,-0.74557 0.18236,-0.89722 0.38666,-0.38667 0.18488,0.462 0.16215,1.014 -0.0505,1.22667 -0.21267,0.21266 -0.36393,-0.16534 -0.33615,-0.84 z m 132.15519,-7.67239 c -0.2354,-0.93792 -0.28401,-1.84932 -0.10801,-2.02532 0.176,-0.176 0.51261,0.4474 0.74801,1.38532 0.23541,0.93793 0.28401,1.84933 0.10801,2.02533 -0.176,0.176 -0.5126,-0.4474 -0.74801,-1.38533 z m 3.53118,-5.2368 c -0.80549,-1.65794 -2.32582,-4.17162 -3.37851,-5.58596 l -1.91398,-2.57152 2.02677,2.24 c 2.00413,2.21497 5.44109,8.22108 4.97257,8.68959 -0.13328,0.13328 -0.90136,-1.11417 -1.70685,-2.77211 z m -5.41228,0.32252 -1.15136,-2.08 1.31915,1.6 c 1.16992,1.41901 1.68942,2.56 1.16559,2.56 -0.10011,0 -0.70013,-0.936 -1.33338,-2.08 z M 163.10059,313.60484 c 3.26014,-2.75512 10.09889,-3.21459 14.88164,-0.99985 1.4972,0.69331 1.67776,0.89196 0.57778,0.63565 -0.88,-0.20504 -3.63983,-0.53085 -6.13297,-0.72402 -3.72514,-0.28862 -5.0938,-0.10995 -7.68,1.00257 -3.00907,1.29444 -3.08125,1.29819 -1.64645,0.0857 z m 5.49515,-6.73677 c 3.54166,-1.69576 9.78323,-2.50742 13.16427,-1.7119 1.87294,0.44069 1.2437,0.59145 -3.84,0.92006 -3.344,0.21615 -7.34021,0.84543 -8.88047,1.39839 -3.9535,1.41933 -4.14067,1.16352 -0.4438,-0.60655 z m -9.87573,-2.46971 c 0,-0.13289 0.504,-0.63689 1.12,-1.12 1.01508,-0.79608 1.03771,-0.77344 0.24164,0.24164 -0.83608,1.06608 -1.36164,1.40511 -1.36164,0.87836 z m 62.0824,-5.96059 c 0.004,-1.93506 2.32583,-5.10789 4.41443,-6.03239 1.50816,-0.66758 1.89014,-1.1753 1.62437,-2.15911 -0.34241,-1.26754 -0.33302,-1.26818 0.64566,-0.044 1.36387,1.70607 1.25339,2.18798 -0.60875,2.65534 -1.74195,0.4372 -4.79811,3.66888 -4.79811,5.07368 0,0.48021 -0.288,1.05111 -0.64,1.26866 -0.352,0.21755 -0.63892,-0.12545 -0.6376,-0.76223 z m -55.0424,0.16727 c 0,-0.176 0.576,-0.62827 1.28,-1.00504 0.704,-0.37677 1.28,-0.54104 1.28,-0.36504 0,0.176 -0.576,0.62827 -1.28,1.00504 -0.704,0.37677 -1.28,0.54104 -1.28,0.36504 z m 3.84,-2.28504 c 0.528,-0.34122 1.248,-0.6204 1.6,-0.6204 0.352,0 0.208,0.27918 -0.32,0.6204 -0.528,0.34122 -1.248,0.6204 -1.6,0.6204 -0.352,0 -0.208,-0.27918 0.32,-0.6204 z m 66.59282,283.90669 c 10.44494,-1.69559 24.81405,-6.58272 27.96718,-9.51203 1.9753,-1.83508 1.9936,-7.23371 0.0396,-11.6758 l -1.40814,-3.20114 -3.87572,10e-4 -3.87572,0.001 0.16681,-4.16 c 0.0917,-2.288 0.41969,-5.024 0.72877,-6.08 0.37062,-1.26627 0.44555,0.0871 0.22008,3.97488 l -0.34187,5.89486 2.4931,-0.34943 c 4.19395,-0.58782 4.0858,-0.42924 4.18738,-6.14023 l 0.0943,-5.30008 0.44417,5.44 c 0.42086,5.15461 2.12127,10.13326 3.81935,11.18273 0.74699,0.46167 4.50794,-1.36218 4.50794,-2.1861 0,-0.31378 -0.57327,-1.90789 -1.27393,-3.54248 -1.76202,-4.11061 -2.70051,-10.61025 -2.1092,-14.60753 0.46034,-3.11194 0.51671,-2.89294 0.87352,3.39338 0.2613,4.60362 0.75388,7.47585 1.56405,9.12 1.11793,2.26871 1.34834,2.4 4.21175,2.4 4.86909,0 5.08803,-0.21505 3.7863,-3.71917 -1.40342,-3.77786 -2.09717,-7.33815 -1.33854,-6.86929 0.31607,0.19534 0.76096,1.45779 0.98865,2.80545 0.4325,2.55996 2.4975,6.50301 3.40567,6.50301 0.28989,0 1.01541,-0.36 1.61226,-0.8 1.01509,-0.74833 1.00233,-1.01743 -0.19768,-4.16687 -1.87047,-4.90907 -1.74101,-12.07671 0.33692,-18.65454 0.89088,-2.82012 1.84202,-5.26484 2.11365,-5.43272 0.27164,-0.16788 -0.1789,1.70075 -1.0012,4.15251 -1.58944,4.73909 -2.54636,13.79575 -1.60169,15.15891 0.44098,0.63634 1.22203,0.45085 3.5277,-0.83783 2.71746,-1.51881 2.91111,-1.78718 2.35155,-3.25895 -1.61228,-4.24059 -0.0341,-12.42215 3.58869,-18.60389 4.0857,-6.97173 14.07076,-15.39164 22.1334,-18.66403 2.93951,-1.19306 3.88562,-2.03223 6.29201,-5.58081 2.68479,-3.95911 2.79062,-4.28323 2.03233,-6.22419 -2.94109,-7.52817 -4.12875,-11.97976 -4.13199,-15.48759 -0.007,-7.70948 3.45458,-16.9617 10.20618,-27.27842 4.9458,-7.55737 11.36939,-13.70236 20.33035,-19.4486 l 6.60299,-4.23419 0.42129,-4.5329 c 0.23171,-2.49309 0.30937,-4.64483 0.17258,-4.78161 -0.13679,-0.1368 -3.78626,-0.56368 -8.10995,-0.94863 -12.0449,-1.07241 -30.85929,0.8593 -41.61346,4.27254 -1.1866,0.37661 -1.86967,-1.17772 -1.88546,-4.29042 -0.005,-0.94722 -0.22474,-1.84785 -0.48874,-2.00139 -0.48953,-0.28472 -17.86586,1.77515 -20.4765,2.42737 -3.68694,0.92084 -12.32347,23.72877 -12.32347,32.54444 0,2.73888 0.1822,3.0554 2.79295,4.85164 l 2.79295,1.9216 0.71355,-6.21086 c 0.39244,-3.41596 1.14712,-7.50685 1.67706,-9.09085 0.52993,-1.584 0.79879,-2.016 0.59746,-0.96 -1.10686,5.80575 -1.52695,9.38045 -1.53027,13.02188 l -0.004,4.06187 3.78494,4.1306 c 4.23491,4.62165 6.38492,9.19836 8.00444,17.03895 1.38982,6.72852 1.33895,14.91672 -0.10938,17.60735 -0.616,1.14438 -5.35882,6.79724 -10.5396,12.56192 -9.51459,10.58693 -18.34702,18.64809 -23.98588,21.89138 -8.35277,4.80425 -10.51338,6.65628 -12.12762,10.39555 -4.03698,9.35139 -8.44425,15.11613 -14.083,18.42066 -1.53115,0.8973 -2.7839,1.98222 -2.7839,2.41092 0,0.42869 0.8347,1.57914 1.85489,2.55655 1.50369,1.44062 2.08974,1.65141 3.09523,1.11328 1.78247,-0.95394 8.93199,-8.73181 10.09664,-10.98399 0.54236,-1.0488 1.15116,-1.90692 1.35289,-1.90692 0.53122,0 -2.08211,4.31899 -4.7011,7.76939 -1.23963,1.63316 -3.48855,4.00145 -4.99758,5.26285 -2.46041,2.05664 -2.99076,3.03863 -5.1364,9.5106 -1.31597,3.96944 -2.52517,7.57716 -2.6871,8.01716 -0.39767,1.08056 3.74568,1.04461 10.75534,-0.0933 z m 0.60718,-14.73308 c 0,-0.30898 0.96521,-1.74344 2.14491,-3.1877 1.1797,-1.44425 3.04623,-4.06591 4.14784,-5.82591 2.7689,-4.42375 2.55446,-2.72604 -0.24727,1.95765 -2.22035,3.7118 -6.04548,8.17628 -6.04548,7.05596 z m 11.78828,-6.76622 c 0.23849,-2.10793 0.85751,-4.91593 1.37561,-6.24 0.51809,-1.32406 0.77143,-1.68739 0.56297,-0.80739 -0.20847,0.88 -0.54016,3.688 -0.73711,6.24 -0.19694,2.552 -0.6454,4.64 -0.99657,4.64 -0.40187,0 -0.4778,-1.42045 -0.2049,-3.83261 z m 64.70327,-64.77782 c 1.82909,-2.17375 1.81874,-1.98991 0.62282,-11.06957 -0.28851,-2.1904 -0.1521,-2.00559 0.9448,1.28 1.73896,5.2088 1.65709,7.47841 -0.35605,9.87089 -0.9113,1.08301 -1.9449,1.96911 -2.2969,1.96911 -0.352,0 0.1364,-0.92269 1.08533,-2.05043 z m -28.14675,-39.02573 c -0.56488,-1.90216 -0.9446,-5.38156 -0.89052,-8.16 l 0.0943,-4.84384 0.45323,5.44 c 0.24927,2.992 0.92685,6.55517 1.50573,7.91816 1.23228,2.90146 1.24119,2.96184 0.43729,2.96184 -0.33836,0 -1.05836,-1.49228 -1.6,-3.31616 z M 40.118075,470.94706 c 6.903698,-5.42828 16.407586,-15.19471 18.734256,-19.25179 2.28683,-3.98762 2.430334,-6.31927 0.602211,-9.78475 -1.951844,-3.7 -2.098296,-3.75841 -4.480233,-1.78657 L 52.804718,441.92 54.007063,440 c 0.66129,-1.056 1.77564,-2.55226 2.476334,-3.32501 l 1.273989,-1.40501 -3.53585,-3.71499 c -3.526956,-3.70565 -8.141533,-10.14951 -8.141533,-11.36896 0,-0.35374 0.770168,0.50369 1.711485,1.90541 2.331465,3.47177 6.033357,7.99278 6.525611,7.96953 0.63411,-0.03 4.900797,-7.77294 4.727011,-8.57836 -0.08574,-0.39737 -1.597741,-2.25826 -3.36,-4.13529 -4.06721,-4.33213 -4.182279,-5.32998 -0.164107,-1.42311 l 3.04,2.95579 0.207097,-2.16779 c 0.171435,-1.79449 -0.226235,-2.62105 -2.309356,-4.8 -2.713386,-2.8382 -5.679068,-7.04854 -7.489133,-10.63221 -1.535744,-3.04056 -1.014457,-2.43499 2.754653,3.2 1.765832,2.64 4.076013,5.62435 5.133737,6.6319 l 1.923134,1.8319 0.650926,-2.35746 c 0.599277,-2.17041 0.480584,-2.58063 -1.495848,-5.1699 -4.638218,-6.0764 -6.107283,-12.78669 -6.650232,-30.37644 l -0.404978,-13.12 -2.24,0.16977 -2.24,0.16978 1.94174,-0.88075 c 2.765953,-1.2546 5.583479,-4.27113 7.034552,-7.53143 0.687216,-1.54405 1.867256,-3.30598 2.622311,-3.91539 0.755055,-0.60941 1.835923,-2.26541 2.401931,-3.68 1.140224,-2.8497 1.923727,-3.44803 1.309269,-0.99983 -0.444526,1.77113 -0.60928,1.70512 7.38895,2.96034 2.628314,0.41248 5.220314,0.98177 5.76,1.26508 0.539687,0.28331 2.25456,0.80466 3.810836,1.15854 2.233331,0.50784 3.223616,0.43966 4.699475,-0.32353 2.744986,-1.41949 2.842631,-0.61614 0.12896,1.061 l -2.329299,1.43959 1.334253,1.33425 c 1.212147,1.21215 1.524723,1.25625 3.415635,0.48195 5.2709,-2.15837 10.2749,-3.92919 10.491393,-3.7127 0.130886,0.13089 -1.707821,1.00858 -4.086017,1.95044 -5.293126,2.09628 -10.574855,5.34028 -10.25536,6.29878 0.264518,0.79355 5.761389,2.53303 8.062336,2.55132 0.820026,0.007 3.160052,-0.73719 5.200052,-1.65269 2.04,-0.9155 4.68107,-1.82819 5.86904,-2.0282 1.63887,-0.27592 1.25785,0.0214 -1.579395,1.23268 -4.627111,1.97534 -4.778605,2.12724 -3.25394,3.26262 0.969146,0.7217 2.672525,0.83943 7.953285,0.54972 5.75271,-0.31561 7.45258,-0.16235 11.80948,1.06477 2.79922,0.78839 5.51322,1.59604 6.03111,1.79477 0.71216,0.27328 0.82551,0.0613 0.46517,-0.86977 -2.95173,-7.62686 -3.77333,-12.35999 -4.15544,-23.93893 l -0.39032,-11.82783 -4.48,-1.11412 c -3.40013,-0.84556 -3.7858,-1.03719 -1.6,-0.79501 1.584,0.1755 3.816,0.48742 4.96,0.69316 1.96793,0.35392 2.08,0.27053 2.08,-1.54777 0,-2.36197 -0.40091,-2.48444 -10.95431,-3.34668 -4.3034,-0.3516 -7.99117,-0.80823 -8.195032,-1.01474 -0.352787,-0.35737 7.558082,0.0252 15.469342,0.74811 l 3.68,0.33626 V 319.71178 316.16 l -8.8,6.4e-4 c -15.304587,10e-4 -31.712172,2.34266 -53.600007,7.64853 -7.04,1.70659 -14.240001,3.27308 -16.000001,3.4811 -3.856859,0.45585 -6.289244,2.74408 -7.360786,6.92453 -0.970716,3.78709 -2.646496,8.67838 -5.486425,16.01385 -2.350313,6.07079 -2.381749,6.26163 -1.23939,7.52392 0.644647,0.71233 1.327444,1.13979 1.517326,0.94991 0.831568,-0.83157 2.715893,10.31083 3.249078,19.21246 1.110854,18.54607 -0.964157,35.21047 -5.539157,44.48506 l -2.36776,4.8 -0.02644,14.87913 -0.02644,14.87914 2.4,6.4e-4 2.4,6.4e-4 0.04332,-3.04 c 0.03195,-2.24207 0.182911,-2.70403 0.575148,-1.76 1.174211,2.82605 2.612513,8.39057 3.972555,15.36908 0.787941,4.04301 1.642434,7.35092 1.898873,7.35092 0.25644,0 2.717121,-1.76983 5.468181,-3.93295 z M 35.765761,450.08 c -0.04083,-2.728 -0.196046,-4.384 -0.344918,-3.68 -0.954423,4.51335 -0.480223,4.16 -5.582789,4.16 h -4.697563 l 1.12572,-4.96 c 0.619146,-2.728 1.402442,-6.832 1.740658,-9.12 l 0.614937,-4.16 0.06677,3.2 c 0.03672,1.76 -0.349517,5.504 -0.858311,8.32 -0.508794,2.816 -0.930746,5.192 -0.937671,5.28 -0.0069,0.088 1.540595,0.16 3.438935,0.16 4.110221,0 4.190165,-0.12482 4.713871,-7.36 0.304755,-4.21028 0.464715,-4.77885 0.900281,-3.2 0.291323,1.056 0.718015,4.728 0.948204,8.16 0.230189,3.432 0.527447,6.24 0.660572,6.24 0.714019,0 7.888532,-3.93441 8.755557,-4.80144 0.736622,-0.73662 0.941933,-1.84835 0.743884,-4.02799 l -0.273549,-3.01057 0.716452,3.45976 c 0.684115,3.30362 0.646645,3.51631 -0.830173,4.71237 -1.439808,1.16609 -9.741247,5.58787 -10.490649,5.58787 -0.184787,0 -0.369386,-2.232 -0.410218,-4.96 z m 13.007256,-9.55539 c -3.03398,-3.23159 -8.024743,-12.2518 -8.788746,-15.88461 -0.222083,-1.056 0.580284,0.27449 1.783038,2.95665 2.599502,5.79691 4.170501,8.18258 8.052737,12.2286 1.596533,1.66389 2.697827,3.23021 2.447321,3.48072 -0.250505,0.2505 -1.822963,-1.00111 -3.49435,-2.78136 z m -14.162489,-5.05794 c 0.03071,-0.74557 0.182362,-0.89722 0.386667,-0.38667 0.184877,0.462 0.16214,1.014 -0.05053,1.22667 -0.212667,0.21266 -0.36393,-0.16534 -0.336141,-0.84 z m 15.31141,-89.55176 c 0.881383,-2.31821 0.79853,-5.17735 -0.269326,-9.29405 -0.733256,-2.82677 -0.743106,-3.2734 -0.05133,-2.32734 1.593086,2.17867 2.394915,7.06964 1.626709,9.92254 -0.386525,1.43544 -0.982076,2.78251 -1.323446,2.9935 -0.391546,0.24198 -0.385126,-0.23595 0.01739,-1.29465 z m 228.042722,75.74565 c 2.06916,-3.95083 3.31448,-6.95437 2.80182,-6.75765 -0.50755,0.19477 -2.23985,0.55162 -3.84955,0.79301 l -2.92673,0.43889 -1.90286,5.21259 -1.90286,5.2126 1.38777,1.10577 c 0.76327,0.60817 1.67577,1.10595 2.02777,1.10617 0.352,2.1e-4 2.31609,-3.1999 4.36464,-7.11138 z m 81.89592,-113.40142 c 1.13269,-0.47348 2.4346,-1.31325 2.89314,-1.86618 0.70486,-0.84996 0.63678,-1.06781 -0.44059,-1.40975 -0.70085,-0.22245 -2.12155,-1.36944 -3.1571,-2.54886 l -1.88283,-2.14442 -1.82407,1.19658 c -1.00325,0.65811 -2.62171,1.37176 -3.5966,1.58588 -2.13174,0.46821 -2.18381,0.87211 -0.40411,3.13462 2.2586,2.87135 4.90683,3.51738 8.41216,2.05213 z m -49.46056,-7.01885 c 5.456,-0.86995 15.176,-2.09409 21.6,-2.72032 l 11.68,-1.13859 v -1.67228 c 0,-2.01333 -3.3138,-5.31236 -84.93248,-84.5538 l -19.49244,-18.9247 -4.72474,4.5247 -4.72475,4.5247 -5.52475,12.8 c -3.03862,7.04 -6.47712,14.96 -7.64111,17.6 -5.02348,11.39352 -5.07917,11.56559 -4.19909,12.97482 2.24343,3.5923 5.79935,18.59283 5.79935,24.46437 v 2.81422 l 1.83896,-0.64106 c 1.01143,-0.35259 3.5289,-0.5536 5.59439,-0.44671 3.28507,0.17001 3.84956,0.39476 4.50687,1.79436 1.37565,2.92911 1.30331,4.14246 -0.26022,4.36451 -1.80237,0.25598 -1.79308,0.49159 0.14331,3.63549 2.07209,3.36423 2.01449,3.91606 -0.46331,4.43889 -2.00825,0.42375 -2.03584,0.4717 -0.8,1.39023 0.704,0.52324 3.728,2.40698 6.72,4.18609 2.992,1.7791 7.312,4.61385 9.6,6.29945 5.10082,3.75781 7.81805,4.39558 23.36001,5.48292 3.168,0.22163 5.904,0.55102 6.08,0.73196 0.176,0.18094 6.08,0.17677 13.12,-0.009 9.09972,-0.24047 15.66772,-0.7955 22.72,-1.91998 z m 45.03345,-0.9839 c 1.50067,-1.32833 2.40412,-3.62955 1.92012,-4.89083 -0.4702,-1.22532 -1.44235,-1.2284 -2.78995,-0.009 -0.58144,0.5262 -2.44706,1.14724 -4.14581,1.38007 -2.56592,0.3517 -3.23384,0.22477 -3.94661,-0.75 -1.05238,-1.43921 -2.05397,-0.67316 -1.10339,0.8439 0.91508,1.46041 5.25533,1.73437 8.17174,0.51581 1.91413,-0.79977 2.30045,-0.81326 2.30045,-0.0803 0,2.81493 -7.04755,4.71481 -9.26476,2.4976 -1.16777,-1.16777 -1.96282,-0.79273 -1.40441,0.66249 0.90233,2.35144 7.53827,2.24157 10.26262,-0.16991 z m -3.11345,-0.73639 1.28,-0.55004 h -1.28 c -0.704,0 -1.856,0.24752 -2.56,0.55004 l -1.28,0.55004 h 1.28 c 0.704,0 1.856,-0.24752 2.56,-0.55004 z m -211.16216,-2.63319 c 1.22992,-2.37841 5.55577,-7.17332 8.11684,-8.99696 1.6893,-1.20289 1.92355,-1.22502 2.96738,-0.28038 1.05095,0.9511 1.3158,0.86958 3.6456,-1.12208 2.67972,-2.29078 7.82669,-5.0834 10.59515,-5.74866 1.18713,-0.28526 2.18061,-0.0128 3.37278,0.92496 1.51957,1.19529 3.98948,4.97318 3.47159,5.31002 -0.11395,0.0741 -0.92719,0.43662 -1.80719,0.80557 -1.59945,0.67058 -1.59908,0.67129 1.07658,2.03662 1.47211,0.7512 2.8281,1.61099 3.01331,1.91066 0.18521,0.29967 2.71961,0.40691 5.63202,0.23831 l 5.29529,-0.30653 3.72642,-3.63518 c 5.02923,-4.90607 10.03403,-7.87644 13.46634,-7.99234 2.07656,-0.0701 3.5114,-0.69482 6.20557,-2.7018 1.92746,-1.43582 4.15247,-2.94437 4.94447,-3.35232 1.22169,-0.62928 1.44,-1.26126 1.44,-4.16852 0,-6.23917 -4.05241,-23.31283 -5.78783,-24.38538 -0.34556,-0.21357 -2.02954,1.14293 -3.74217,3.01445 -1.71264,1.87151 -4.42833,4.34466 -6.03488,5.4959 -2.42838,1.74015 -2.07232,1.23415 2.11133,-3.00041 5.75349,-5.8235 6.48722,-7.17671 16.68539,-30.77274 3.57515,-8.272 7.02329,-16.24803 7.66253,-17.72451 l 1.16226,-2.68451 -1.58998,0.60451 c -3.27044,1.24342 -2.98088,0.478 0.49896,-1.31891 1.98308,-1.02403 5.15108,-3.29712 7.04,-5.05133 l 3.43439,-3.18947 -6.81417,-6.84834 -6.81417,-6.84834 -1.95484,1.39196 c -1.07516,0.76558 -3.62478,2.14717 -5.66583,3.07019 -3.23699,1.46387 -4.69194,1.70011 -11.39099,1.84959 l -7.68,0.17136 5.76,-0.53878 c 7.11715,-0.66572 13.32588,-2.56445 16.93527,-5.17907 l 2.74629,-1.98941 -4.40078,-4.46594 c -6.97323,-7.07646 -15.88393,-15.06656 -15.04318,-13.489 1.52021,2.85248 -1.58635,5.70972 -5.42499,4.98958 -1.50293,-0.28195 -2.17261,-0.16759 -2.17261,0.37103 0,1.56596 -2.12901,3.11939 -4.27518,3.11939 -1.18624,0 -3.79562,-0.576 -5.79862,-1.28 -2.00301,-0.704 -5.01673,-1.28 -6.69715,-1.28 -3.55359,0 -8.55244,-1.75071 -12.18318,-4.26681 -2.25024,-1.55941 -3.05142,-1.74779 -6.79836,-1.5984 -2.45746,0.098 -6.00068,-0.28302 -8.40751,-0.90406 -3.10792,-0.80194 -5.67783,-0.98365 -10.16158,-0.71849 -3.30086,0.1952 -6.22946,0.5918 -6.508,0.88133 -0.6122,0.63639 1.82066,8.25301 3.39893,10.64112 1.27284,1.92594 5.14224,4.09623 9.43065,5.28949 1.584,0.44075 2.4365,0.82712 1.89446,0.85859 -1.9134,0.11111 -8.4738,-1.90331 -10.19879,-3.13161 l -1.74733,-1.24421 -0.39673,5.58903 c -0.21819,3.07397 -0.83709,7.88741 -1.37532,10.69653 -0.53824,2.80912 -1.46177,10.75955 -2.0523,17.66764 l -1.07369,12.56014 2.1357,8.23986 c 1.17464,4.53191 2.32121,8.606 2.54794,9.05351 0.22672,0.44752 0.93931,-1.21852 1.58352,-3.70229 0.64421,-2.48377 1.28666,-4.40058 1.42767,-4.25957 0.29067,0.29066 -1.98458,13.43383 -3.36243,19.42332 -1.9142,8.32108 -2.72444,19.64526 -2.10926,29.47975 0.69697,11.14201 3.25511,24.48513 4.69428,24.48513 0.17568,0 0.78323,-0.89693 1.35013,-1.99319 z M 185.01895,231.68 c -0.0314,-0.528 0.37402,-3.408 0.90106,-6.4 2.44225,-13.86467 -0.0403,-22.05051 -9.64812,-31.81304 -4.1526,-4.21948 -4.52242,-5.09851 -0.75188,-1.78715 9.02058,7.92203 13.245,16.88006 12.36861,26.22803 -0.41323,4.4077 -2.75735,15.65764 -2.86967,13.77216 z m -36.17511,-35.91092 c 0.44137,-0.71415 5.0672,-3.11503 7.29795,-3.78776 0.89002,-0.2684 2.12222,-0.69281 2.73822,-0.94314 0.6215,-0.25255 1.12,-0.1715 1.12,0.18212 0,0.35048 -1.08,0.83577 -2.4,1.07841 -1.32,0.24264 -3.91182,1.25489 -5.75959,2.24944 -1.84778,0.99456 -3.19623,1.54398 -2.99658,1.22093 z m 11.79617,-4.3607 c 0,-0.30329 0.432,-0.71721 0.96,-0.91982 0.528,-0.20261 0.96,-0.12024 0.96,0.18306 0,0.30329 -0.432,0.71721 -0.96,0.91982 -0.528,0.20261 -0.96,0.12024 -0.96,-0.18306 z M 172.26106,187.52 c 0,-0.88 0.14527,-1.24 0.32281,-0.8 0.17754,0.44 0.17754,1.16 0,1.6 -0.17754,0.44 -0.32281,0.08 -0.32281,-0.8 z m 34.66561,-13.18459 c -0.51634,-1.34553 1.01422,-2.25209 2.47886,-1.46824 1.2589,0.67375 1.56226,1.85283 0.47671,1.85283 -0.37278,0 -0.51843,-0.25782 -0.32367,-0.57294 0.19475,-0.31511 -0.0951,-0.7453 -0.64408,-0.95597 -0.76504,-0.29357 -0.90359,-0.085 -0.5932,0.89294 0.484,1.52493 -0.816,1.75925 -1.39462,0.25138 z m -59.3796,-10.45162 c -0.44201,-0.71519 2.19223,-2.69213 2.95724,-2.21933 0.29464,0.18209 0.5357,0.89009 0.5357,1.57331 0,0.89037 -0.4425,1.24223 -1.56223,1.24223 -0.85922,0 -1.72804,-0.26829 -1.93071,-0.59621 z M 150.40001,163.2 c 0,-0.352 -0.432,-0.64 -0.96,-0.64 -0.528,0 -0.96,0.288 -0.96,0.64 0,0.352 0.432,0.64 0.96,0.64 0.528,0 0.96,-0.288 0.96,-0.64 z m 203.32148,131.45251 c 1.1523,-0.71657 1.33657,-1.2714 1.03647,-3.1207 -0.52928,-3.26158 0.89457,-9.62706 3.22061,-14.39809 2.83813,-5.82141 9.0863,-11.8676 20.69805,-20.02898 18.17317,-12.77312 30.32253,-23.72651 36.63279,-33.02673 3.50208,-5.16143 6.72074,-12.14646 7.75018,-16.81916 1.0538,-4.78323 0.46595,-18.15227 -1.01567,-23.09885 -1.09028,-3.64003 -1.12864,-3.68 -3.53142,-3.68 -5.03096,0 -9.09416,-2.79173 -8.82845,-6.06582 0.0863,-1.0638 -0.18526,-2.56325 -0.60353,-3.33211 -1.33662,-2.45694 -0.95826,-5.25941 0.81943,-6.06938 0.86897,-0.39592 1.43406,-0.95589 1.25577,-1.24437 -0.17828,-0.28847 -1.32125,-0.049 -2.53993,0.53213 -2.21447,1.056 -2.21577,1.05922 -2.21577,5.5143 0,3.45045 0.36023,5.19513 1.59428,7.72146 3.29539,6.74629 3.61176,16.02718 0.92921,27.25859 -2.62801,11.00308 -8.11856,19.3923 -19.53771,29.85243 -3.49017,3.19706 -9.81665,8.99033 -14.05882,12.87394 -15.54679,14.23272 -24.1239,25.73619 -26.86274,36.02785 -0.93123,3.49927 -1.2909,11.57097 -0.54866,12.3132 0.56541,0.56542 4.15364,-0.18222 5.80591,-1.20971 z M 330.74065,278.0361 c -20.68883,-20.39349 -39.96594,-39.2611 -70.58064,-69.08129 -14.432,-14.05747 -32.2966,-31.54308 -39.69911,-38.85692 -11.32103,-11.18543 -15.02089,-14.41257 -15.02089,-13.10174 0,0.30222 22.82781,22.78817 56,55.16137 32.08289,31.31013 45.69802,44.62494 69.06426,67.54085 8.06533,7.9099 14.76792,14.07387 14.89463,13.69773 0.12671,-0.37614 -6.4695,-7.28814 -14.65825,-15.36 z m 16.07422,5.65469 c 2.31123,-11.42335 12.6654,-24.45882 35.94179,-45.24924 16.38068,-14.63119 21.15442,-21.1375 24.39277,-33.24581 1.61,-6.01986 2.20044,-18.31589 1.05843,-22.04208 l -0.84784,-2.76633 -6.72,-2.22962 c -7.78416,-2.5827 -12.46353,-2.89834 -18.24,-1.23035 -2.112,0.60986 -8.16,2.08402 -13.44,3.27592 -28.00116,6.32096 -28.51925,6.37433 -36.72226,3.783 l -5.10834,-1.61372 -6.72773,1.71073 -6.72773,1.71074 -5.27134,-1.7422 c -4.69193,-1.5507 -6.73714,-1.80647 -18.60724,-2.32699 -14.98747,-0.65722 -26.01306,-2.5968 -38.27537,-6.73328 -0.66806,-0.22535 -2.35166,1.77603 -5.53631,6.58132 l -4.57632,6.90514 2.33632,2.56099 c 1.28497,1.40855 9.10431,9.17951 17.37631,17.2688 8.27201,8.08929 20.51201,20.05743 27.20001,26.59585 6.688,6.53843 22.23277,21.79552 34.54395,33.90464 25.17448,24.76132 22.31202,22.98267 23.9509,14.88249 z M 242.21409,183.72267 c 5.5167,-9.08145 10.03599,-14.01773 13.78592,-15.05793 1.45509,-0.40363 1.4261,-0.3328 -0.32,0.782 -1.056,0.6742 -2.29859,1.68442 -2.76132,2.24491 -1.17226,1.41995 -0.23574,1.8332 10.36721,4.57467 10.68818,2.7635 22.53789,3.87105 36.55412,3.41659 5.28,-0.1712 9.312,-0.23108 8.96,-0.13307 -0.352,0.098 -1.504,0.37773 -2.56,0.6216 -1.79173,0.41379 -1.60571,0.54951 2.78452,2.03166 l 4.70451,1.58826 5.67693,-1.40271 5.67692,-1.40272 -1.50113,-2.01296 c -3.01771,-4.04665 -3.19277,-5.26642 -0.32189,-2.24284 2.76631,2.91344 6.18176,4.63825 12.42014,6.27221 5.3372,1.39793 10.71311,0.56216 37.76,-5.87035 14.97895,-3.56241 18.30203,-3.71819 25.54243,-1.19736 7.15378,2.49068 7.92754,2.539 6.53118,0.40789 -0.73429,-1.12067 -1.03361,-3.06292 -1.03361,-6.70699 v -5.12951 l 2.44282,-1.24624 c 1.34354,-0.68542 2.79267,-1.66778 3.22027,-2.18301 0.91624,-1.104 1.157,-4.12872 0.45504,-5.71677 -0.3973,-0.89881 -0.18137,-1.12 1.0934,-1.12 0.87366,0 2.48847,-0.18 3.58847,-0.4 1.52419,-0.30484 2,-0.17311 2,0.55369 0,0.52453 0.60931,1.72829 1.35401,2.67503 1.0459,1.32965 1.81046,1.67696 3.36,1.52631 2.25221,-0.21897 2.2747,-0.42283 0.67469,-6.11503 l -0.94445,-3.36 h -9.99055 -9.99055 l -2.72795,2.51453 c -8.18681,7.54635 -20.44283,8.87049 -42.56311,4.59855 -11.78738,-2.27643 -25.27515,-3.62176 -30.10855,-3.00317 -1.90494,0.2438 -5.83714,1.2281 -8.73821,2.18733 l -5.27467,1.74406 2.04523,2.53935 c 1.51893,1.8859 1.65037,2.20997 0.51077,1.25935 -0.84395,-0.704 -2.12671,-1.91174 -2.85056,-2.68387 -0.72386,-0.77212 -4.51844,-3.14812 -8.43241,-5.28 L 296.4874,149.12 h -23.34463 -23.34462 l -6.65907,5.05096 c -6.51229,4.93963 -10.66046,9.7912 -15.57497,18.21597 l -1.2359,2.11866 6.6759,6.48505 c 3.67175,3.56677 6.72705,6.49501 6.78957,6.5072 0.0625,0.0122 1.1517,-1.68664 2.42041,-3.77517 z m 40.82593,-14.56384 c 0.616,-0.16097 1.624,-0.16097 2.24,0 0.616,0.16098 0.112,0.29269 -1.12,0.29269 -1.232,0 -1.736,-0.13171 -1.12,-0.29269 z m -11.5866,-1.2469 c -2.85844,-0.56237 -7.00509,-2.08623 -10.56,-3.88072 -3.21938,-1.6251 -7.00541,-3.3468 -8.41341,-3.82601 l -2.56,-0.87127 2.33818,0.28276 c 1.286,0.15553 5.462,1.73349 9.28,3.5066 5.129,2.38195 8.69672,3.54927 13.66183,4.47 4.8914,0.90707 5.93632,1.24595 3.84,1.24539 -1.584,-4.3e-4 -4.99798,-0.41746 -7.5866,-0.92675 z m 152.22683,9.22038 c 1.84941,-1.9851 1.48151,-4.1131 -0.64023,-3.70322 -2.45573,0.47441 -7.80647,0.35629 -9.67325,-0.21355 -1.32191,-0.40351 -1.76725,-0.26582 -2.1209,0.65577 -0.32152,0.83786 0.10768,1.6627 1.52336,2.92761 1.68209,1.50295 2.5287,1.76108 5.77596,1.76108 3.11201,0 4.04721,-0.26001 5.13506,-1.42769 z m 0.96212,-5.23499 c 1.5829,-1.03716 2.64051,-4.07047 1.73497,-4.97601 -0.33806,-0.33806 -1.73076,-0.31353 -3.39202,0.0597 -1.93819,0.43549 -4.28333,0.40553 -7.50869,-0.0959 -5.03721,-0.78311 -6.06395,-0.37979 -5.409,2.12476 0.99388,3.80061 10.35166,5.6545 14.57474,2.88744 z M 227.9218,168.8 c 1.47922,-2.2 3.79395,-5.33597 5.14385,-6.96882 1.3499,-1.63285 2.45436,-3.14485 2.45436,-3.36 0,-0.21515 -5.8273,-0.39118 -12.94956,-0.39118 h -12.94956 l 7.33912,7.36 c 4.03652,4.048 7.54909,7.36 7.80572,7.36 0.25662,0 1.67686,-1.8 3.15607,-4 z m 198.02731,-3.97091 c 1.45236,-1.45235 2.14286,-4.68381 1.20191,-5.62476 -0.20295,-0.20295 -1.711,0.22462 -3.35121,0.95017 -2.57294,1.13813 -3.48923,1.23532 -6.6768,0.70815 -4.2034,-0.69517 -5.28479,-0.32479 -4.67364,1.60075 0.84144,2.65116 3.39693,3.9366 7.82605,3.9366 3.50271,0 4.33255,-0.22976 5.67369,-1.57091 z m -233.3091,-4.20311 -2.24,-1.86778 3.36687,1.2609 c 4.02059,1.50573 6.74632,1.61043 7.83313,0.3009 0.97292,-1.17229 0.23758,-2.23323 -2.88573,-4.16354 -1.156,-0.71445 -2.58806,-2.04109 -3.18235,-2.9481 -1.06497,-1.62534 -1.05901,-1.64251 0.41378,-1.19247 0.82187,0.25114 2.76818,1.02823 4.32514,1.72686 3.51656,1.57792 6.78093,1.71977 8.1467,0.354 1.6359,-1.63591 0.67375,-2.75717 -4.81735,-5.61395 -3.58203,-1.86358 -5.01558,-2.9392 -4.77004,-3.57906 0.4059,-1.05776 1.46717,-1.32643 7.45118,-1.88637 4.56915,-0.42755 5.77595,-1.35139 4.47319,-3.42436 -0.47335,-0.75321 -2.19109,-1.16742 -6.34185,-1.52926 -3.13097,-0.27294 -8.28467,-0.7359 -11.45267,-1.0288 l -5.76,-0.53255 4.32,-0.0912 c 2.376,-0.0502 4.32,-0.29638 4.32,-0.54716 0,-0.25077 -0.76991,-1.06986 -1.71092,-1.8202 l -1.71092,-1.36424 -7.08908,2.47596 c -7.03243,2.45617 -7.14943,2.47337 -14.64088,2.15234 -14.46928,-0.62005 -18.7019,-1.66945 -39.8082,-9.86974 -11.33339,-4.40329 -9.15436,-4.12169 3.63779,0.47013 13.91269,4.99403 15.88104,5.51319 27.08221,7.14318 11.47851,1.67033 14.51166,1.46352 23.40366,-1.59577 3.60597,-1.24063 6.96686,-2.2557 7.46862,-2.2557 0.50176,0 2.17413,1.03398 3.71638,2.29773 1.78122,1.45958 3.72995,2.42192 5.34226,2.63817 2.29844,0.30829 2.91381,0.0459 6.51499,-2.77773 l 3.97681,-3.11817 -2.97981,-0.19541 c -2.26949,-0.14883 -3.20877,-0.54486 -3.94033,-1.66136 -0.52829,-0.80627 -1.66476,-1.78682 -2.52548,-2.17899 -2.3888,-1.08841 -6.45807,-10.02124 -7.19949,-15.80424 -0.18051,-1.408 -0.72633,-2.79031 -1.21291,-3.0718 -1.15674,-0.66918 -1.13941,-2.95063 0.0258,-3.39777 0.73794,-0.28317 0.67729,-0.58263 -0.32,-1.57991 -1.22796,-1.22797 -1.57573,-3.426219 -0.84379,-5.333624 0.26245,-0.68393 0.86029,-0.888928 1.86039,-0.63792 1.56885,0.393747 4.15291,-0.652538 4.15291,-1.681491 0,-0.339616 -0.87113,-0.617485 -1.93584,-0.617485 -2.1431,0 -3.18416,-1.694957 -3.18416,-5.184179 0,-1.692435 -0.13814,-1.826925 -1.25992,-1.226567 -0.69296,0.370861 -1.99802,1.933773 -2.90016,3.473146 -1.86592,3.183942 -3.85279,4.053933 -5.61539,2.458803 -1.48845,-1.347033 -1.60484,-1.17959 -4.70795,6.773437 -2.15606,5.52581 -5.06283,10.21244 -5.84742,9.42786 -0.18236,-0.18237 0.0328,-0.77053 0.478,-1.30703 1.03675,-1.2492 0.71511,-1.22744 -3.00347,0.20329 -1.68503,0.64832 -3.61894,1.37895 -4.29758,1.62362 -1.0388,0.37452 -0.53279,0.96017 3.2,3.70371 2.43864,1.79236 6.37789,4.51584 8.75389,6.05218 2.376,1.53633 4.32,2.92462 4.32,3.08506 0,0.47177 -8.88504,-4.6883 -13.98259,-8.12051 -4.80895,-3.23791 -12.65172,-6.31943 -18.19464,-7.14891 -5.57331,-0.83403 -14.47139,1.91444 -19.76093,6.10383 l -2.55203,2.02124 3.40509,1.8545 c 1.8728,1.01998 4.2691,2.72682 5.3251,3.79299 l 1.92,1.93848 -3.33607,-2.22309 c -5.37324,-3.58062 -8.82914,-4.43861 -16.71679,-4.15024 -5.94984,0.21751 -7.3206,0.48999 -10.66714,2.12038 l -3.84,1.8708 3.52,0.40428 c 3.42118,0.39293 3.37627,0.40784 -1.6,0.53093 -2.816,0.0697 -7.392107,0.53156 -10.169118,1.02644 -6.510093,1.16016 -18.69883,5.45523 -17.549518,6.1841 0.516038,0.32727 -0.299974,0.53562 -2.12137,0.54165 -5.975469,0.0198 -6.781792,0.43912 -7.628134,3.96709 -0.728173,3.03535 -0.689229,3.25194 0.879155,4.88938 0.902592,0.94233 2.090157,2.7884 2.63904,4.10237 1.282099,3.06926 4.406362,4.66686 10.126503,5.17822 5.839232,0.52201 7.448084,1.5269 1.913299,1.19505 l -4.329862,-0.2596 2.14094,2.24199 c 1.177524,1.23309 4.201524,3.20798 6.720001,4.38864 l 4.579059,2.14666 14.400005,-0.0234 c 12.49655,-0.0203 15.45747,-0.2267 22.4,-1.56151 9.95296,-1.9136 17.37301,-2.03882 23.22977,-0.39205 3.74305,1.05245 4.80733,1.11742 7.63019,0.46583 3.12122,-0.72046 3.3605,-0.68062 4.93023,0.82077 2.72914,2.61032 8.64878,4.93694 14.01419,5.50806 2.70359,0.28777 6.49962,0.94184 8.43562,1.45346 3.30821,0.87426 3.59701,0.856 4.8,-0.30359 1.27633,-1.23028 1.27358,-1.23918 -0.96,-3.1016 z m 1.60572,-13.52124 c 0.22085,-0.5804 0.0939,-1.24539 -0.28209,-1.47778 -1.19159,-0.73644 -0.73877,-3.20519 0.75637,-4.12367 1.43562,-0.88191 1.43628,-0.88043 0.21846,0.48865 -1.04315,1.17271 -1.10878,1.62076 -0.44936,3.06802 0.56449,1.23894 0.58161,1.88375 0.0636,2.3974 -0.51641,0.5121 -0.59967,0.41648 -0.30701,-0.35262 z m -73.40572,-23.38193 c 0.46199,-0.18488 1.01399,-0.16214 1.22667,0.0505 0.21266,0.21266 -0.16534,0.36393 -0.84,0.33614 -0.74557,-0.0307 -0.89722,-0.18237 -0.38667,-0.38667 z m -7.72,-1.26667 c 0.44,-0.17754 1.16,-0.17754 1.6,0 0.44,0.17754 0.08,0.32281 -0.8,0.32281 -0.88,0 -1.24,-0.14527 -0.8,-0.32281 z M 186.65079,116 c -0.53785,-3.25403 -0.43086,-11.35392 0.19655,-14.88 0.36753,-2.06553 0.53511,-0.0294 0.59256,7.2 0.044,5.544 -0.0262,10.08 -0.15615,10.08 -0.12994,0 -0.41477,-1.08 -0.63296,-2.4 z m 230.19769,41.6 c -0.60558,-0.968 -1.16651,-1.8583 -1.24652,-1.97844 -0.08,-0.12013 -0.74318,-0.0287 -1.47371,0.20313 -1.99925,0.63454 -1.70188,2.75368 0.43177,3.07691 3.48009,0.52719 3.44502,0.54714 2.28846,-1.3016 z m 12.0169,-1.62043 c 1.62462,-1.09105 2.2269,-2.00193 2.38126,-3.60138 0.30128,-3.12174 -0.60964,-3.59759 -3.33994,-1.74476 -1.29185,0.87667 -2.66886,1.70063 -3.06003,1.83102 -0.80343,0.26781 0.47233,4.97555 1.34834,4.97555 0.27265,0 1.47431,-0.6572 2.67037,-1.46043 z m 31.74028,-0.82007 c 8.55545,-2.20849 24.77176,-8.10266 25.49007,-9.26491 0.78801,-1.27503 -15.30026,-8.12406 -26.82715,-11.42075 -7.57992,-2.16786 -8.70855,-2.3392 -8.70855,-1.32206 0,1.13601 1.71711,4.06623 3.13447,5.34892 0.74004,0.66973 1.34553,1.46105 1.34553,1.75849 0,0.29744 -2.02504,0.54081 -4.50009,0.54081 -3.40968,0 -4.58935,-0.23261 -4.86847,-0.96 -0.48373,-1.26058 -1.91109,-1.22948 -2.40297,0.0523 -0.21367,0.55679 -0.38847,3.01383 -0.38847,5.46009 0,3.58542 0.2097,4.52821 1.08161,4.86279 0.60388,0.23173 1.1928,0.0815 1.33334,-0.34008 0.24231,-0.72693 9.10505,-1.15589 9.10505,-0.44069 0,0.17296 -1.008,1.63502 -2.24,3.24902 -2.37807,3.11544 -2.83154,4.75652 -1.31437,4.75652 0.5091,0 4.90111,-1.02622 9.76,-2.2805 z m -245.05622,-1.2021 c 5.2287,-3.22371 5.99569,-3.35165 1.73057,-0.28868 -1.584,1.13755 -2.88,2.30745 -2.88,2.59977 0,0.29233 1.22707,0.53151 2.72684,0.53151 2.1554,0 3.66422,-0.61095 7.2,-2.91541 4.13392,-2.69432 4.27901,-2.74357 1.91316,-0.64952 -1.408,1.24624 -2.776,2.27017 -3.04,2.27541 -0.264,0.005 -0.48,0.29752 -0.48,0.64952 0,0.352 1.1678,0.64 2.59512,0.64 1.96024,0 3.56509,-0.638 6.56,-2.60791 l 3.96488,-2.6079 -2.88,2.5888 -2.88,2.58881 3.38023,0.0191 c 3.13396,0.0177 3.73651,-0.24902 8.27028,-3.66091 l 4.89004,-3.68 -17.15191,-0.1706 c -18.11044,-0.18014 -19.22182,-0.02 -18.5462,2.67183 0.23125,0.92139 -0.0967,1.79907 -0.96619,2.58597 -0.72393,0.65515 -1.31625,1.43455 -1.31625,1.732 0,1.2299 2.56967,0.37384 6.90943,-2.3018 z m 170.87073,1.87587 c 4.82611,-1.13783 8.23406,-2.80396 10.33141,-5.05099 l 1.55157,-1.66228 h -48.43157 c -26.63736,0 -48.43156,0.11898 -48.43156,0.2644 0,0.54523 9.74434,5.4956 10.81757,5.4956 0.61561,0 3.25749,-0.74975 5.87086,-1.66611 8.53161,-2.99155 17.2423,-2.76285 38.35157,1.00693 5.808,1.03722 11.568,1.99576 12.8,2.13009 5.45666,0.59498 13.44414,0.35375 17.14015,-0.51764 z M 425.60002,149.76 c 0,-0.352 -0.432,-0.64 -0.96,-0.64 -0.528,0 -0.96,0.288 -0.96,0.64 0,0.352 0.432,0.64 0.96,0.64 0.528,0 0.96,-0.288 0.96,-0.64 z m 15.88056,-4.64 -0.20055,-2.08 -113.78838,-0.16177 c -100.19964,-0.14244 -114.01049,-0.0469 -115.64823,0.8 -1.03639,0.53595 -3.52687,0.96177 -5.62496,0.96177 -4.29879,0 -5.30366,0.53536 -3.19852,1.70406 1.16309,0.64571 25.58352,0.8152 120.06063,0.83326 L 441.68113,147.2 Z m -194.79257,-4.22988 c -0.3344,-0.30243 -2.768,-2.12779 -5.408,-4.05636 -4.51579,-3.29887 -4.98041,-3.48983 -7.84691,-3.22513 l -3.04692,0.28136 2.88692,2.20432 c 4.12006,3.1459 3.56807,3.29595 -0.91797,0.24954 -2.89813,-1.96809 -4.42333,-2.58385 -6.4,-2.58385 -1.42732,0 -2.59512,0.19503 -2.59512,0.43339 0,0.23837 0.936,1.26562 2.08,2.28278 l 2.08,1.84939 -2.99531,-1.96278 c -2.40995,-1.5792 -3.66067,-1.95941 -6.4,-1.94556 l -3.40469,0.0172 2.24,1.97764 c 2.27705,2.01034 1.5291,1.72172 -2.82672,-1.09076 -1.27111,-0.82075 -1.77581,-0.85564 -2.83238,-0.1958 -1.27235,0.79461 -1.2696,0.82199 0.26672,2.6478 0.85381,1.0147 1.55238,2.2548 1.55238,2.7558 0,0.76511 2.73475,0.91089 17.088,0.91089 9.56993,0 16.82051,-0.24193 16.48,-0.54988 z m 20.83201,0.006 c 0,-0.29918 -0.81861,-1.66718 -1.81913,-3.04 -5.41548,-7.43059 -18.45068,-15.91831 -26.911,-17.52277 -7.06276,-1.33943 -7.70849,-1.14614 -14.59699,4.36922 -3.45008,2.76235 -6.99289,5.66228 -7.87289,6.44427 l -1.6,1.4218 11.33305,-0.38135 11.33305,-0.38136 6.47261,4.81709 6.47262,4.81708 h 8.59434 c 4.72689,1.4e-4 8.59434,-0.24465 8.59434,-0.54383 z m 140.14576,-1.01856 c 1.07739,-2.83374 1.4363,-10.83315 0.71566,-15.95022 -2.09424,-14.87039 -7.74987,-24.144668 -22.78142,-37.357622 -11.47705,-10.088499 -27.06956,-26.072057 -30.92838,-31.70405 -4.60182,-6.716426 -7.6169,-13.462786 -8.54766,-19.125736 -0.42484,-2.584831 -1.08521,-5.177362 -1.46747,-5.761182 -0.59791,-0.913156 -8.07545,4.855342 -53.51008,41.279999 C 262.09816,94.54633 237.2552,114.4915 235.93985,115.58111 l -2.39153,1.9811 4.02584,0.67702 c 2.21422,0.37236 5.66955,1.29695 7.6785,2.05465 7.49193,2.82563 18.61225,11.41109 22.98263,17.74376 1.23888,1.79513 2.42748,2.76547 3.60633,2.94411 0.96712,0.14656 31.78953,0.30962 68.49424,0.36236 l 66.73584,0.0959 0.59408,-1.56254 z m 13.43076,0.32642 c 2.45101,-4.57976 3.55427,-18.92477 1.97224,-25.64388 -2.05628,-8.73333 -7.6236,-17.809358 -16.62454,-27.101882 -6.59158,-6.805108 -13.33931,-12.289639 -28.09224,-22.83328 -6.09842,-4.358423 -12.72242,-9.671713 -14.72,-11.807314 -4.60347,-4.921529 -7.76458,-11.253065 -8.6351,-17.295689 l -0.6616,-4.592348 -3.24764,0.297479 c -1.7862,0.163613 -3.3766,0.41344 -3.53422,0.55517 -0.84082,0.756059 1.45757,9.233002 3.75486,13.848746 4.74874,9.541201 14.12134,20.364157 28.77692,33.23 17.85217,15.672052 24.13337,23.448738 27.54177,34.099118 3.01048,9.40696 3.87379,20.09343 2.18446,27.04 -0.34255,1.40859 -0.2305,1.44 5.13668,1.44 4.76692,0 5.57366,-0.1622 6.14841,-1.23612 z M 275.43031,82.473178 c 37.00934,-29.615755 68.13894,-54.662524 69.17689,-55.659488 1.03795,-0.996966 1.72167,-1.978175 1.51938,-2.180466 -0.33237,-0.332368 -134.35038,106.572136 -138.11202,110.170246 -0.94309,0.90209 -1.23874,1.51653 -0.72972,1.51653 0.47067,0 31.13612,-24.23107 68.14547,-53.846822 z m -64.04974,45.289302 c 2.39922,-1.02229 4.60162,-3.29458 5.24432,-5.41071 0.24859,-0.81853 0.57775,-1.36247 0.73146,-1.20876 0.54428,0.54427 -1.14112,4.00146 -2.79679,5.73699 -2.52917,2.65115 -0.89178,2.10507 2.56045,-0.85393 2.53422,-2.17214 3.04,-2.97251 3.04,-4.81062 v -2.20496 l 1.63287,1.06989 c 1.90736,1.24976 3.57691,0.36201 1.91426,-1.01787 -1.59322,-1.32225 -1.14082,-2.27534 1.07687,-2.2687 1.45724,0.004 2.12953,-0.32306 2.28692,-1.11381 0.16071,-0.80735 -0.19215,-1.12273 -1.26399,-1.1298 -2.90821,-0.0192 -4.9234,-2.87456 -3.67499,-5.20724 0.65137,-1.2171 0.59823,-1.3242 -0.45749,-0.92208 -0.78046,0.29727 -0.97263,0.23878 -0.55445,-0.16877 0.352,-0.34305 1.36,-0.72011 2.24,-0.83791 2.88565,-0.38631 1.91876,-2.11339 -1.30084,-2.32358 -2.41911,-0.15794 -3.15502,0.0812 -4.43155,1.44 -2.09032,2.22503 -3.64203,2.04761 -6.24683,-0.71429 -2.09549,-2.22185 -2.296,-3.05272 -1.38826,-5.75233 0.13612,-0.4048 -0.0405,-0.780013 -0.39252,-0.833805 -0.352,-0.05376 -0.73995,0.421408 -0.86212,1.056005 -0.12217,0.63459 -0.47714,1.42238 -0.78883,1.75063 -0.31169,0.32826 -0.25238,-0.39174 0.13181,-1.6 0.38419,-1.208254 0.82188,-3.06083 0.97266,-4.11683 0.24813,-1.737894 0.12286,-1.646842 -1.32078,0.96 -1.91178,3.4522 -2.19447,2.93088 -0.36028,-0.664429 0.82572,-1.618541 1.14735,-3.111622 0.89062,-4.134502 -0.54402,-2.167559 -1.21528,-2.012871 -2.07834,0.478931 -0.67609,1.951955 -0.69383,1.961805 -0.28828,0.16 0.23769,-1.056 0.44822,-2.828499 0.46785,-3.938886 0.0197,-1.110388 0.21841,-1.905965 0.44171,-1.767949 0.60787,0.37568 1.66301,-4.700647 1.79191,-8.620941 0.0978,-2.97472 -0.12883,-3.70057 -1.6518,-5.290208 -2.00509,-2.092864 -5.99165,-3.400026 -8.4713,-2.77767 -1.6154,0.40544 -1.63034,0.451366 -0.43173,1.327808 0.68285,0.499315 1.75248,0.907846 2.37695,0.907846 1.34921,0 5.43657,3.449837 6.35974,5.36777 0.42461,0.882163 0.17507,0.740409 -0.71784,-0.40777 -2.26309,-2.910061 -2.60914,-2.007955 -0.98202,2.56 1.44103,4.04553 1.4553,4.211597 0.22466,2.613824 -0.72277,-0.938394 -1.92399,-3.20233 -2.66936,-5.030976 -1.10484,-2.710522 -1.76908,-3.473082 -3.59523,-4.127386 -1.232,-0.44142 -2.72173,-1.00775 -3.31051,-1.258508 -1.51515,-0.645287 -3.72949,1.768601 -3.72949,4.06558 0,1.024397 0.86377,3.688397 1.9195,5.92 1.3038,2.75602 1.91966,5.044948 1.92,7.136103 l 5e-4,3.07863 2.37941,-0.19863 c 1.88953,-0.157741 2.69504,-0.659827 3.91243,-2.438637 1.25347,-1.831539 1.44848,-1.948243 1.0694,-0.64 -1.48374,5.120595 -4.49241,8.312045 -7.84124,8.317606 -1.68732,0.0026 -1.98534,1.953069 -0.48831,3.195494 1.3267,1.10107 3.72777,0.35459 6.39657,-1.988646 3.52638,-3.096198 2.6369,-1.414649 -1.2687,2.398466 -1.93624,1.89039 -3.95224,3.43708 -4.48,3.43708 -0.52776,0 -0.95956,0.25719 -0.95956,0.57153 0,1.13549 2.0402,1.31621 4.35578,0.38581 l 2.36422,-0.94994 -2.4,1.97838 c -2.61839,2.1584 -2.91455,3.48276 -1.42356,6.366 1.07851,2.08562 1.33393,2.16753 3.9419,1.26411 1.51225,-0.52385 1.61284,-0.49815 0.62622,0.16 -3.32487,2.21795 -3.21096,1.98714 -2.26782,4.59534 0.48328,1.33649 1.22154,2.56154 1.64057,2.72234 0.41902,0.1608 0.60464,0.7021 0.41247,1.20288 -0.23214,0.60496 0.4399,1.24032 2.00251,1.89321 2.2209,0.92796 2.47832,0.90457 4.62121,-0.4198 1.24811,-0.77138 2.65789,-2.29516 3.13284,-3.38619 0.47496,-1.09102 0.87483,-1.60937 0.88861,-1.15189 0.0527,1.74929 -1.88802,4.40293 -4.0855,5.58634 -2.31675,1.24766 -2.63469,1.6633 -1.86278,2.43521 0.67987,0.67987 2.64734,0.49787 4.87389,-0.45085 z m 3.25899,-13.50137 c -0.19816,-0.51639 -0.23678,-1.30839 -0.0858,-1.76 0.15096,-0.45161 0.42619,-0.0291 0.61163,0.93889 0.36207,1.89006 0.0634,2.35651 -0.5258,0.82111 z m 2.4215,-0.34111 c 0,-0.88 0.14527,-1.24 0.32281,-0.8 0.17754,0.44 0.17754,1.16 0,1.6 -0.17754,0.44 -0.32281,0.08 -0.32281,-0.8 z m 2.88562,0.21333 c -0.23467,-0.23466 -0.42667,-0.72426 -0.42667,-1.088 0,-0.40102 0.2981,-0.36324 0.75733,0.096 0.41654,0.41654 0.60854,0.90614 0.42667,1.088 -0.18187,0.18187 -0.52267,0.13867 -0.75733,-0.096 z M 211.85962,111.68 c 0,-0.352 0.27917,-1.072 0.62039,-1.6 0.34122,-0.528 0.6204,-0.672 0.6204,-0.32 0,0.352 -0.27918,1.072 -0.6204,1.6 -0.34122,0.528 -0.62039,0.672 -0.62039,0.32 z M 197.98984,87.2 c -0.20351,-0.616 -1.11808,-2.656736 -2.03239,-4.534976 -1.53786,-3.159194 -1.59089,-3.542336 -0.7079,-5.115469 1.18188,-2.10567 2.86042,-2.490425 4.47808,-1.026464 1.29434,1.171367 1.63764,3.150906 0.65207,3.760019 -0.31918,0.197261 -0.44315,-0.165862 -0.27551,-0.806937 0.36905,-1.411239 -1.21188,-2.864832 -2.78609,-2.561671 -1.78345,0.343463 -1.73639,2.176608 0.17111,6.6648 1.79932,4.233632 3.26325,5.10649 3.0081,1.793568 -0.1359,-1.764697 -0.10873,-1.785068 0.57101,-0.428102 0.54063,1.07927 0.51743,1.661261 -0.0957,2.4 -1.08294,1.304864 -2.52707,1.234778 -2.98281,-0.144768 z m 19.61619,18.07274 c 0.47342,-0.57042 1.67373,-1.45755 2.66737,-1.97138 1.60095,-0.82788 1.80661,-0.82308 1.80661,0.0422 0,1.41057 0.96812,1.19972 2.12837,-0.46357 0.84328,-1.20889 1.00988,-1.26025 1.03806,-0.32 0.0243,0.81032 0.56446,1.12 1.95357,1.12 1.54382,0 1.92,-0.27226 1.92,-1.3896 0,-3.160994 -3.93584,-4.773192 -7.24207,-2.966498 -0.76886,0.420141 -1.82993,0.784898 -2.35793,0.810558 -0.528,0.0257 -2.20964,0.45519 -3.73696,0.95448 -2.22897,0.72866 -3.0268,0.75179 -4.04296,0.11719 -1.17554,-0.73414 -1.25149,-0.63972 -1.06303,1.32162 0.29509,3.07118 2.93591,3.25833 6.51472,0.46169 l 2.64823,-2.06943 -2.72,2.84422 c -1.496,1.56432 -2.72,3.05945 -2.72,3.32252 0,0.66556 2.16464,-0.55921 3.20602,-1.814 z m 4.78697,-8.654839 c -0.18864,-0.594355 0.25552,-1.766746 0.98833,-2.608698 l 1.33096,-1.529203 -0.72055,1.480909 c -0.96144,1.975987 0.22127,3.592653 1.95103,2.666912 0.84452,-0.451975 1.43408,-0.359552 2.12709,0.333446 0.92969,0.929696 5.53015,1.381069 5.53015,0.542592 0,-0.228877 -0.41575,-2.604877 -0.92389,-5.28 -0.50814,-2.675123 -1.09723,-6.201472 -1.30909,-7.836333 -0.34499,-2.662252 -0.53244,-2.9376 -1.7961,-2.638297 -1.81565,0.430035 -3.01092,1.943763 -3.01092,3.813094 0,1.564397 -0.98794,2.028499 -1.44259,0.677677 -0.21457,-0.63751 -0.4689,-0.63527 -1.25221,0.01101 -0.54063,0.446074 -1.45146,0.631264 -2.02408,0.411526 -1.23907,-0.475475 -1.35621,-1.318208 -0.24112,-1.73472 0.52558,-0.196313 0.38672,-0.4688 -0.40478,-0.794342 -0.67778,-0.278771 -1.6974,-0.187866 -2.33099,0.207821 -1.26908,0.79255 -1.90423,0.420045 -1.90423,-1.116794 0,-0.866317 0.75566,-1.037273 4.47911,-1.013331 2.93099,0.01882 4.47943,-0.222266 4.48,-0.697594 0.001,-1.078745 -3.20889,-2.990278 -5.71045,-3.400313 -2.08479,-0.341722 -2.13702,-0.413504 -1.07428,-1.476237 1.3421,-1.342106 4.41917,-1.46615 5.45351,-0.219846 0.40954,0.493459 1.4528,1.07495 2.31837,1.292192 0.86556,0.217241 1.57374,0.821497 1.57374,1.34279 0,1.479386 1.89519,1.112147 2.54006,-0.492192 0.54277,-1.350342 0.58133,-1.322445 0.61937,0.448 0.0252,1.171213 0.26596,1.657171 0.63424,1.28 0.73936,-0.757197 1.63615,-13.686464 1.09803,-15.830502 -0.47122,-1.877518 -2.93318,-3.031486 -7.06134,-3.309799 -1.62842,-0.109785 -3.34718,-0.520308 -3.81948,-0.912274 -1.52762,-1.267815 -6.69275,0.149985 -8.74932,2.401641 -1.89477,2.074499 -3.10519,7.538844 -2.25991,10.202102 0.292,0.919987 0.0781,1.403725 -0.7349,1.662291 -0.95463,0.303597 -1.14516,1.089613 -1.13726,4.691616 0.005,2.379808 -0.24368,5.046925 -0.5531,5.926925 -1.40173,3.986547 0.80368,13.352909 3.63271,15.42811 0.29101,0.21347 2.67052,-0.34061 5.28781,-1.231291 3.80691,-1.295513 4.69017,-1.835328 4.41608,-2.698918 z m -41.74487,-3.447175 c 1.31553,-2.964096 2.39188,-5.7144 2.39188,-6.111782 0,-1.287872 1.84549,-4.333408 2.86235,-4.72361 0.77043,-0.295641 0.71243,0.0064 -0.26181,1.362445 -1.49753,2.08473 -2.35758,6.221299 -1.41466,6.804051 0.3663,0.226388 1.20893,-0.810649 1.89055,-2.326707 C 186.79277,86.67081 188.17727,84.72 189.19307,83.84 l 1.84694,-1.6 -1.36002,1.6 c -2.05776,2.420851 -2.80343,4.177715 -2.76641,6.517926 l 0.0335,2.122074 1.07376,-1.6 c 0.59056,-0.88 2.0316,-2.580934 3.20229,-3.779853 l 2.12853,-2.179859 -1.37986,-3.207558 c -0.75892,-1.76416 -1.37985,-4.154996 -1.37985,-5.312967 0,-2.075264 -0.022,-2.090995 -1.536,-1.098976 -0.8448,0.553536 -1.536,1.351143 -1.536,1.772461 0,0.421318 -0.86244,1.403667 -1.91653,2.182989 -3.39355,2.508979 -8.32344,13.034643 -8.32344,17.771181 0,2.711142 0.92145,1.656032 3.36812,-3.856692 z m -1.96658,-5.348096 c 2.76786,-5.793062 10.62763,-14.473139 15.18819,-16.773363 4.15609,-2.096224 9.33574,-1.630573 12.79627,1.150381 2.58479,2.07719 3.894,2.548627 3.894,1.402195 0,-1.081478 -4.56637,-5.758822 -5.67447,-5.812371 -0.73375,-0.03546 -0.79286,-0.151488 -0.19823,-0.389101 0.46602,-0.186214 1.97802,0.570093 3.36,1.680685 2.18016,1.752026 2.5127,1.859002 2.5127,0.808294 0,-2.026003 -4.77019,-5.238918 -7.80822,-5.259148 -0.80947,-0.0051 -1.90378,-0.285229 -2.43178,-0.621863 -2.00841,-1.280495 4.21406,0.132864 7.25907,1.648807 3.64438,1.814342 3.62093,1.810355 3.62093,0.615424 0,-1.121229 -3.4327,-3.775006 -6.08,-4.700377 -1.056,-0.369127 -1.55075,-0.693877 -1.09944,-0.721667 1.2095,-0.07447 5.35863,1.760853 6.67602,2.953075 1.06205,0.961135 1.14342,0.942767 1.14342,-0.2581 0,-0.711085 -0.62795,-2.123721 -1.39543,-3.139191 l -1.39544,-1.84631 1.97819,1.824892 c 1.94125,1.790817 1.99128,1.800427 2.6794,0.514662 0.60033,-1.12172 0.35534,-1.650303 -1.70275,-3.673878 -1.32218,-1.300007 -1.82797,-2.062049 -1.12397,-1.693428 0.704,0.36862 1.9782,1.416664 2.83156,2.328986 1.41952,1.517601 3.88844,2.285391 3.88844,1.209234 0,-0.247242 -0.936,-1.435366 -2.08,-2.640275 -1.62217,-1.708537 -1.76304,-2.027247 -0.64,-1.447951 1.16559,0.601243 2.2777,1.916447 3.71338,4.391507 0.0554,0.09556 0.73039,-0.05915 1.49991,-0.34382 l 1.39912,-0.517569 -1.4662,-1.342347 c -0.80641,-0.738289 -2.61821,-1.960739 -4.02621,-2.716553 -1.60709,-0.862686 -1.96443,-1.224348 -0.96,-0.971608 2.16579,0.544966 6.37769,3.3153 6.82915,4.491807 0.47678,1.242467 4.05085,3.131936 4.05085,2.141523 0,-1.626605 -2.41735,-4.619895 -5.11876,-6.338301 -2.63326,-1.675067 -7.4774,-3.380173 -11.52124,-4.055403 -1.19511,-0.199557 -1.03316,-0.285039 0.64,-0.337799 1.232,-0.03885 4.256,0.616748 6.72,1.456881 2.464,0.840132 4.55413,1.454568 4.64473,1.365412 0.22147,-0.217928 -6.71572,-6.748085 -9.12473,-8.589343 l -1.92,-1.467501 2.14585,1.165436 c 3.40647,1.850089 9.89881,8.110608 12.61604,12.165543 1.371,2.045941 2.51943,3.788893 2.55208,3.873226 0.0326,0.08433 1.02545,0.346551 2.20623,0.582705 l 2.14685,0.429371 -2.19352,-3.065614 c -1.20644,-1.686088 -4.06553,-4.80779 -6.35353,-6.937115 -2.288,-2.129324 -3.296,-3.265727 -2.24,-2.525339 2.14408,1.503266 8.96741,8.444333 11.09748,11.288969 l 1.38252,1.846309 v -1.910988 c 0,-2.206421 -2.53348,-7.310973 -5.01363,-10.101631 l -1.70637,-1.92 2.1371,1.92 c 3.47631,3.123169 5.33197,6.882524 5.70768,11.563103 0.36955,4.6037 0.78823,4.808929 1.5199,0.74501 0.38078,-2.114976 0.41726,-1.867067 0.16658,1.131887 -0.59048,7.063974 -0.57552,7.55671 0.23785,7.835456 1.08845,0.373011 2.71089,-3.657997 2.71089,-6.735307 0,-1.748971 -0.77042,-3.745401 -2.66291,-6.900556 -3.3653,-5.610612 -7.90733,-11.569798 -9.70963,-12.739109 -1.49631,-0.970786 -9.48188,-2.549009 -10.75327,-2.125214 -0.426,0.142 0.78703,1.167686 2.69564,2.279302 3.67341,2.13949 6.35017,4.223895 6.35017,4.944907 0,0.238868 -0.90505,-0.327249 -2.01124,-1.258038 -3.5121,-2.955244 -13.34876,-7.41386 -13.34876,-6.050533 0,0.397339 -0.41821,0.418411 -1.12,0.05643 -2.36066,-1.21763 -11.34642,-2.234521 -13.9503,-1.578711 l -2.5297,0.637129 2.56,0.455503 c 6.52048,1.160195 6.75366,1.468449 0.87882,1.16174 -5.34807,-0.279207 -6.38009,-0.162057 -7.81989,0.887671 -0.91229,0.665131 -1.66776,1.451165 -1.67882,1.746742 -0.0111,0.295577 -0.66811,1.077995 -1.46011,1.738708 -1.43755,1.199253 -1.43238,1.201494 3.04,1.31848 2.464,0.06445 3.616,0.219773 2.56,0.345159 -9.51803,1.130144 -14.02159,2.998267 -15.4459,6.40712 -1.17692,2.816746 -0.85342,3.196784 1.47037,1.727392 1.39521,-0.882225 1.20706,-0.544426 -0.8127,1.459092 -1.44552,1.433902 -2.77407,3.37001 -2.95232,4.302462 -0.28321,1.481522 -0.19473,1.593753 0.7015,0.889771 0.56408,-0.443078 0.19179,0.202403 -0.82731,1.434403 l -1.85291,2.24 2.03413,0.201632 c 1.60286,0.15888 2.62652,-0.316038 4.82821,-2.24 1.53675,-1.342897 3.76222,-2.966078 4.94551,-3.607068 l 2.15142,-1.165436 -1.92,1.479235 c -4.36739,3.364786 -7.46842,6.645336 -9.28804,9.825707 -2.18639,3.821395 -5.75196,12.198547 -5.75196,13.513959 0,1.616505 0.95341,0.888364 2.41977,-1.848026 0.80166,-1.496 2.03635,-3.44 2.74376,-4.32 0.70741,-0.88 0.267,0.295917 -0.97867,2.613152 -1.24567,2.317229 -2.26486,4.82023 -2.26486,5.562227 0,1.468371 1.23967,2.669843 1.34379,1.302394 0.0351,-0.460775 0.26372,-0.119283 0.50807,0.758867 0.81401,2.925472 2.22244,2.200819 4.10027,-2.109645 0.97496,-2.237939 2.55457,-4.925875 3.51026,-5.97319 0.95568,-1.047322 1.39703,-1.455149 0.98076,-0.906291 -1.68293,2.218963 -5.4379,10.970336 -5.09287,11.869478 0.6624,1.726182 1.3334,1.004282 3.73126,-4.014362 z m 3.82978,-13.503884 c 0.81877,-1.012692 2.06468,-2.210304 2.76868,-2.661357 0.7066,-0.452717 0.27654,0.34784 -0.96,1.787085 -2.53453,2.949984 -4.09791,3.705689 -1.80868,0.874272 z M 181.12423,71.84 c 0.0122,-1.384806 6.05408,-8.549576 8.16022,-9.676746 0.66531,-0.356066 -0.61151,1.20999 -2.83739,3.480125 -2.2329,2.277293 -4.04705,4.698848 -4.04705,5.402067 0,0.701005 -0.288,1.274554 -0.64,1.274554 -0.352,0 -0.6381,-0.216 -0.63578,-0.48 z m 10.23578,-5.92 c 0.528,-0.341222 1.248,-0.620397 1.6,-0.620397 0.352,0 0.208,0.279175 -0.32,0.620397 -0.528,0.341222 -1.248,0.620397 -1.6,0.620397 -0.352,0 -0.208,-0.279175 0.32,-0.620397 z m 5.29218,-1.723514 c 0.6227,-0.162265 1.4867,-0.151596 1.92,0.02368 0.4333,0.175316 -0.0762,0.308077 -1.13218,0.295034 -1.056,-0.01306 -1.41052,-0.15648 -0.78782,-0.318746 z m -10.72101,-1.458409 c -0.54906,-0.8884 1.41597,-3.653184 3.75329,-5.280859 1.61187,-1.122485 1.46709,-0.853229 -0.75306,1.400455 -1.51173,1.534567 -2.60078,3.175368 -2.42009,3.646225 0.38017,0.990701 -0.0142,1.149891 -0.58014,0.234179 z m 14.90883,-2.37527 c 0.462,-0.184877 1.014,-0.16214 1.22667,0.05053 0.21267,0.212667 -0.16534,0.36393 -0.84,0.336141 -0.74557,-0.03071 -0.89722,-0.182362 -0.38667,-0.386667 z m -8.2,-8.797771 c 0,-0.176 0.576,-0.628267 1.28,-1.005036 0.704,-0.376769 1.28,-0.541036 1.28,-0.365036 0,0.176 -0.576,0.628267 -1.28,1.005036 -0.704,0.376769 -1.28,0.541036 -1.28,0.365036 z m 6.08,-2.925036 c 1.76,-0.649437 3.632,-1.180795 4.16,-1.180795 0.528,0 -0.48,0.531358 -2.24,1.180795 -1.76,0.649437 -3.632,1.180795 -4.16,1.180795 -0.528,0 0.48,-0.531358 2.24,-1.180795 z m 6.56,-1.70386 c 0.44,-0.177544 1.16,-0.177544 1.6,0 0.44,0.177544 0.08,0.322807 -0.8,0.322807 -0.88,0 -1.24,-0.145263 -0.8,-0.322807 z m -2.52,-3.853333 c 0.462,-0.184877 1.014,-0.16214 1.22667,0.05053 0.21267,0.212667 -0.16534,0.36393 -0.84,0.336141 -0.74557,-0.03071 -0.89722,-0.182362 -0.38667,-0.386667 z M 355.3899,29.382834 c 0.95157,-0.433561 1.73012,-1.26302 1.73012,-1.84324 0,-2.15541 -1.59578,-3.286004 -5.35881,-3.796658 -2.04792,-0.277909 -3.94798,-0.868508 -4.22234,-1.312441 -0.38199,-0.618062 -0.60948,-0.628149 -0.97109,-0.04306 -0.77733,1.257758 0.69257,2.111569 4.53231,2.632632 4.30705,0.58448 5.61667,1.534989 3.8809,2.816734 -2.03234,1.500748 -6.02452,1.852918 -7.80203,0.688255 -1.49245,-0.977894 -1.57894,-0.966212 -1.57894,0.213262 0,0.686304 0.504,1.39527 1.12,1.575479 1.69757,0.496618 6.72043,-0.04273 8.66988,-0.930963 z m -1.83236,-1.797415 c 1.61308,-0.631688 0.7483,-1.115145 -2.99752,-1.675769 -2.81128,-0.420755 -3.04,-0.353218 -3.04,0.897682 0,1.144413 0.3695,1.345743 2.4,1.307686 1.32,-0.02474 2.95688,-0.26306 3.63752,-0.529599 z m 3.88901,-5.838037 c 0.54966,-1.06294 2.16772,-2.778956 3.59569,-3.813369 l 2.5963,-1.88075 -2.11342,-1.285246 c -3.09291,-1.880917 -5.30884,-2.195462 -7.4966,-1.064125 -2.02261,1.045932 -4.22154,4.105141 -4.89708,6.812952 -0.38647,1.549068 -0.22612,1.672451 2.99011,2.300862 1.86916,0.365211 3.60707,0.708631 3.86203,0.763157 0.25497,0.05453 0.9133,-0.770541 1.46297,-1.833481 z"
       id="path3189" />
  </g>
</svg>
