<?xml version="1.0" standalone="no"?>
<!DOCTYPE svg PUBLIC "-//W3C//DTD SVG 20010904//EN"
 "http://www.w3.org/TR/2001/REC-SVG-20010904/DTD/svg10.dtd">
<svg version="1.0" xmlns="http://www.w3.org/2000/svg"
 width="2016.000000pt" height="1512.000000pt" viewBox="0 0 2016.000000 1512.000000"
 preserveAspectRatio="xMidYMid meet">
<metadata>
Created by potrace 1.12, written by Peter Selinger 2001-2015
</metadata>
<g transform="translate(0.000000,1512.000000) scale(0.100000,-0.100000)"
fill="#000000" stroke="none">
<path d="M12086 11812 c-3 -6 -1 -14 5 -17 15 -10 25 3 12 16 -7 7 -13 7 -17
1z"/>
<path d="M12520 11655 c0 -8 5 -15 10 -15 6 0 10 7 10 15 0 8 -4 15 -10 15 -5
0 -10 -7 -10 -15z"/>
<path d="M15911 11586 c-9 -10 -7 -38 5 -115 12 -70 14 -110 8 -133 -9 -32
-10 -32 -84 -35 -41 -2 -88 -8 -104 -13 -16 -6 -44 -10 -63 -10 -19 0 -44 -5
-56 -12 -12 -6 -38 -15 -57 -19 -180 -40 -156 -59 44 -35 200 23 269 35 280
46 6 6 15 10 21 10 10 0 11 -20 5 -263 -1 -39 0 -83 3 -97 4 -14 9 -42 12 -62
3 -21 10 -38 15 -38 8 0 12 13 24 93 15 93 17 171 6 236 -17 103 -18 211 -1
241 20 35 23 130 5 137 -9 3 -12 13 -8 29 11 42 -30 71 -55 40z"/>
<path d="M15040 11494 c-25 -7 -57 -13 -72 -13 -34 -1 -58 -35 -65 -90 -3 -22
-12 -42 -20 -45 -8 -3 -34 5 -57 19 -54 32 -76 32 -76 2 0 -44 81 -93 138 -83
47 7 69 30 78 79 4 23 9 37 11 31 2 -7 15 0 31 16 38 38 119 47 167 19 35 -21
54 -70 41 -105 -4 -9 -2 -22 3 -28 5 -6 11 -27 13 -46 7 -81 62 -14 59 73 -3
80 -38 128 -121 166 -51 23 -66 24 -130 5z"/>
<path d="M13676 11478 c-12 -19 -14 -31 -6 -58 6 -19 10 -78 10 -130 -1 -83
-2 -93 -14 -77 -13 17 -26 18 -138 13 -138 -7 -173 -12 -206 -34 -13 -8 -40
-15 -60 -16 -30 -1 -38 -5 -40 -23 -5 -37 28 -46 82 -22 35 15 86 23 199 32
84 6 156 16 160 21 5 6 6 -5 4 -24 -5 -39 21 -271 32 -283 4 -4 26 2 49 13 34
17 42 26 42 48 0 16 -5 33 -11 39 -6 6 -13 33 -15 59 -2 27 -9 76 -14 109 -5
33 -12 118 -14 189 -5 111 -8 133 -25 149 -19 19 -19 19 -35 -5z"/>
<path d="M12761 11451 c-76 -32 -151 -104 -169 -161 -17 -55 -6 -166 21 -202
11 -14 21 -41 23 -60 8 -64 40 -145 72 -182 18 -20 60 -50 95 -66 139 -66 288
-21 369 110 24 39 40 135 35 201 -6 57 -26 129 -37 129 -3 0 -6 -33 -7 -73 -1
-69 -17 -139 -35 -164 -5 -6 -6 -23 -2 -36 4 -19 -1 -35 -21 -61 -37 -48 -93
-75 -175 -82 -67 -7 -70 -6 -117 29 -71 52 -96 83 -110 135 -17 67 -16 69 16
26 15 -22 39 -47 53 -56 35 -23 128 -33 175 -18 82 26 151 124 155 219 3 69
-4 81 -93 169 -69 68 -112 97 -135 88 -8 -3 -14 0 -14 6 0 19 110 -1 163 -30
28 -15 62 -43 76 -64 23 -32 71 -58 71 -37 0 15 -51 103 -72 126 -12 12 -42
30 -67 39 -25 10 -51 21 -57 26 -6 5 -43 10 -82 12 -58 2 -81 -2 -131 -23z
m-17 -86 c-4 -9 -15 -20 -25 -26 -29 -15 -24 -30 6 -19 24 9 25 9 11 -13 -18
-27 -35 -118 -28 -152 2 -15 0 -25 -7 -25 -6 0 -11 -19 -11 -46 0 -25 -4 -43
-9 -39 -15 9 -11 127 6 168 18 41 10 62 -11 31 -44 -61 -45 -61 -46 -32 0 41
16 74 61 123 42 46 63 58 53 30z m226 -107 l72 -73 -7 -59 c-7 -61 -38 -116
-77 -137 -28 -15 -33 -5 -33 64 l0 62 35 0 c47 0 46 23 -2 54 -34 22 -38 29
-38 68 0 41 -3 45 -35 59 -41 17 -46 34 -10 34 17 0 45 -22 95 -72z m-110 -64
c0 -26 -26 -44 -63 -44 -27 0 -40 -20 -30 -46 5 -12 14 -15 43 -10 37 6 38 5
43 -27 2 -17 9 -46 15 -64 10 -32 10 -32 -16 -20 -77 33 -87 42 -96 91 -7 38
-4 57 13 102 11 31 31 64 43 74 22 17 22 17 35 -7 7 -14 13 -36 13 -49z"/>
<path d="M5335 11421 c-105 -29 -144 -48 -164 -82 -14 -23 -17 -38 -11 -59 5
-16 6 -30 4 -33 -2 -2 5 -12 17 -23 24 -21 83 -24 243 -9 71 6 90 5 97 -6 12
-19 11 -60 -2 -97 -9 -25 -18 -33 -47 -38 -20 -4 -48 -2 -63 3 -23 9 -31 8
-43 -6 -21 -23 -21 -25 10 -89 15 -31 35 -81 45 -111 11 -30 25 -64 33 -75 7
-12 24 -51 37 -88 21 -60 27 -68 49 -67 19 0 33 13 58 49 17 28 32 54 32 58 0
5 7 22 15 39 8 16 19 63 25 104 6 40 20 98 32 127 17 41 20 58 12 80 -10 29
-17 30 -91 17 l-42 -7 6 58 c8 87 21 95 147 91 55 -2 111 -9 123 -15 12 -7 30
-12 41 -12 26 0 86 56 79 73 -3 8 -36 38 -73 66 -59 44 -75 51 -119 53 -27 1
-63 3 -80 5 -16 1 -91 5 -165 8 -113 4 -147 2 -205 -14z m423 -47 c55 -4 103
-27 138 -65 l19 -22 -30 8 c-56 14 -152 21 -181 12 -16 -4 -60 -12 -99 -17
-38 -5 -115 -16 -169 -25 -138 -21 -173 -20 -202 8 -43 41 -31 53 91 94 65 21
81 22 225 17 85 -3 179 -7 208 -10z m-118 -335 c5 -8 2 -32 -6 -54 -7 -22 -16
-60 -20 -85 -11 -77 -45 -170 -64 -170 -13 0 -96 185 -113 252 -6 21 -3 30 13
38 11 6 25 8 30 5 5 -3 24 2 42 12 39 21 107 22 118 2z"/>
<path d="M15007 11350 c-4 -32 -4 -66 -1 -75 5 -11 -1 -15 -25 -15 -24 0 -32
-5 -37 -24 -8 -32 2 -46 31 -46 38 0 56 -44 46 -114 -4 -31 -13 -62 -19 -68
-12 -12 -19 2 -43 82 -17 57 -73 120 -106 120 -75 0 -175 -116 -110 -128 10
-2 32 10 49 27 18 17 40 31 49 31 28 0 67 -56 75 -108 3 -26 12 -59 20 -73 20
-39 86 -80 140 -86 41 -4 52 -1 100 32 35 24 60 51 74 79 20 42 28 116 12 116
-5 0 -14 10 -20 23 -9 18 -11 13 -10 -36 1 -46 -3 -61 -18 -71 -10 -8 -36 -28
-58 -45 -45 -36 -97 -41 -135 -12 -23 18 -23 18 -4 32 30 22 45 72 41 138 l-3
59 37 4 38 3 -5 -35 c-3 -19 -7 -54 -9 -77 -3 -23 -11 -51 -18 -62 -15 -24 -3
-39 20 -25 22 14 42 85 43 152 1 36 6 55 15 59 17 6 19 53 2 54 -7 1 -20 1
-28 0 -12 -1 -14 10 -12 62 3 49 0 66 -13 77 -26 22 -37 0 -26 -51 17 -74 15
-86 -20 -91 -30 -5 -30 -5 -24 34 10 57 -3 118 -24 118 -15 0 -19 -12 -24 -60z"/>
<path d="M4120 11265 c-10 -12 -24 -14 -62 -9 -45 6 -50 5 -55 -15 -6 -25 -12
-26 -40 -6 -47 33 -163 27 -163 -8 0 -9 -15 -17 -37 -20 -48 -8 -83 -32 -83
-58 0 -11 -15 -38 -32 -61 -32 -39 -33 -42 -30 -126 2 -59 9 -97 21 -121 10
-20 23 -48 29 -63 6 -14 24 -34 41 -44 17 -10 31 -23 31 -29 0 -13 42 -55 54
-55 4 0 33 -22 65 -50 32 -27 62 -50 69 -50 6 0 24 -11 40 -25 36 -30 133 -42
171 -21 17 10 35 11 64 4 66 -15 91 -8 94 26 1 17 -6 40 -17 54 -26 33 -25 38
10 51 36 12 100 79 100 104 0 10 -5 28 -11 39 -10 19 -7 25 21 48 37 30 43 69
15 100 -17 19 -17 21 9 54 37 49 34 85 -9 127 -19 19 -35 39 -35 46 0 13 -87
73 -106 73 -7 0 -30 11 -50 25 -42 28 -85 32 -104 10z m78 -70 c16 -14 47 -28
68 -33 35 -7 39 -11 45 -46 7 -41 21 -56 57 -56 31 0 28 -23 -10 -66 l-32 -36
24 -42 c12 -24 20 -48 16 -54 -4 -6 -25 -17 -47 -23 -50 -16 -66 -33 -48 -55
7 -9 24 -20 37 -25 23 -9 23 -9 5 -39 -28 -48 -61 -65 -97 -52 -21 9 -33 9
-43 1 -20 -17 -17 -24 27 -65 48 -46 53 -69 13 -59 -16 3 -35 15 -43 26 -13
16 -23 18 -65 13 -28 -4 -60 -14 -72 -21 -24 -16 -43 -10 -43 12 0 8 -11 22
-25 31 -14 9 -25 23 -25 31 0 12 -7 14 -31 9 -26 -5 -30 -3 -25 10 4 9 4 26 0
37 -5 16 -12 18 -45 13 -44 -7 -46 -5 -22 35 25 41 7 58 -43 40 -43 -15 -49
-11 -49 37 0 30 -4 38 -22 40 -37 5 -45 25 -24 65 18 36 18 37 0 58 -11 12
-19 27 -19 34 0 17 33 45 60 50 36 7 45 21 32 50 -14 30 -12 31 58 43 37 6 46
12 48 31 3 19 8 22 30 16 14 -3 41 -20 59 -36 42 -36 80 -38 93 -5 8 21 14 24
42 20 25 -5 38 -1 52 15 24 27 28 26 64 -4z"/>
<path d="M4070 11035 c-97 -35 -115 -50 -124 -105 -9 -49 19 -90 84 -124 45
-24 56 -26 85 -16 46 15 125 104 125 139 0 32 -49 83 -100 105 -29 12 -41 12
-70 1z m80 -75 c28 -28 25 -45 -11 -77 -41 -37 -76 -43 -116 -20 -40 23 -46
41 -25 66 42 50 118 65 152 31z"/>
<path d="M15361 11231 c-19 -12 -6 -41 17 -41 27 0 45 23 30 38 -14 14 -28 15
-47 3z"/>
<path d="M10431 11190 c-32 -12 -53 -30 -77 -66 -19 -27 -34 -56 -34 -64 0
-17 -19 -40 -32 -40 -5 0 -6 22 -2 49 5 41 3 56 -15 84 -23 38 -52 47 -152 47
-82 0 -88 -12 -54 -103 33 -88 36 -120 13 -125 -12 -2 -18 3 -18 16 0 32 -39
111 -63 126 -45 30 -74 30 -109 1 -50 -42 -62 -69 -44 -103 8 -16 31 -42 51
-60 31 -26 36 -36 31 -57 -9 -34 -20 -32 -62 15 -41 45 -64 49 -111 20 -67
-40 -82 -118 -33 -165 33 -32 38 -45 15 -45 -47 0 -105 -63 -105 -115 0 -60
59 -115 123 -115 45 0 48 -18 12 -66 -14 -18 -25 -40 -25 -48 0 -51 94 28 115
96 13 43 12 47 -7 65 -13 11 -41 20 -81 23 -75 6 -92 25 -61 67 25 33 48 40
81 22 33 -17 74 -1 92 36 13 27 12 30 -10 44 -61 40 -104 79 -107 95 -5 23 26
56 52 56 12 -1 29 -14 41 -32 36 -56 51 -58 92 -14 32 35 35 42 29 80 -5 30
-16 49 -42 73 -43 38 -44 72 0 88 25 8 31 6 52 -18 14 -16 24 -41 24 -58 0
-17 4 -39 10 -49 7 -13 6 -21 -5 -30 -8 -7 -15 -16 -15 -20 0 -8 83 15 114 32
13 7 21 6 26 -2 11 -18 64 -8 68 13 4 22 -25 33 -50 18 -17 -11 -19 -9 -17 21
1 18 -8 62 -20 97 -11 35 -19 67 -16 70 11 10 111 -1 125 -15 12 -12 12 -18 2
-34 -18 -30 -15 -66 11 -105 26 -41 38 -42 97 -12 40 20 46 27 52 66 9 52 29
78 70 86 56 13 55 -10 -6 -76 -31 -34 -56 -68 -56 -76 0 -7 15 -29 33 -49 31
-34 69 -45 112 -34 19 5 60 0 74 -9 10 -7 11 -13 1 -31 -10 -19 -18 -21 -48
-16 -21 3 -45 7 -56 8 -53 8 -33 -101 24 -134 40 -23 38 -38 -5 -38 -25 0 -37
-6 -46 -22 -11 -21 -12 -21 -25 -3 -8 10 -14 38 -14 61 0 31 -7 51 -24 71 -21
24 -31 28 -73 26 -41 -1 -52 -7 -82 -38 -29 -33 -33 -42 -28 -78 3 -22 9 -43
14 -46 19 -14 64 -113 61 -134 -2 -17 -10 -22 -32 -22 -25 0 -31 5 -38 32 -19
73 -110 87 -143 22 -21 -40 -19 -51 20 -108 37 -53 43 -79 23 -99 -18 -18 -63
-15 -80 6 -18 20 -33 142 -18 142 6 0 10 7 10 15 0 19 -29 32 -39 18 -3 -6
-18 -11 -34 -11 -38 1 -104 -48 -112 -81 -3 -16 1 -39 10 -57 45 -86 -29 -128
-90 -50 -18 22 -25 26 -25 14 0 -34 25 -70 59 -84 42 -18 77 -11 102 19 23 28
24 57 2 102 -15 31 -15 37 -2 49 7 8 23 16 34 18 17 3 20 -3 22 -42 1 -25 2
-51 2 -57 1 -7 20 -26 43 -43 107 -78 235 6 165 108 -42 61 -53 92 -37 102 18
11 30 3 30 -20 0 -30 47 -60 95 -60 47 0 61 11 75 59 12 41 -12 121 -45 153
-31 29 -33 72 -3 92 43 31 77 11 78 -46 1 -13 9 -39 18 -58 14 -28 25 -36 58
-42 35 -7 50 -4 111 26 75 37 88 53 74 89 -12 31 -30 45 -65 49 -49 5 -44 28
6 28 34 0 50 6 66 23 34 36 28 74 -18 119 -43 40 -81 49 -121 28 -21 -12 -59
2 -59 21 0 10 25 37 74 77 25 21 28 28 22 65 -4 29 -16 51 -36 70 -35 31 -31
31 -89 7z"/>
<path d="M7170 11073 c-21 -27 -23 -68 -4 -117 11 -29 -11 -16 -34 20 -48 74
-153 83 -204 16 -16 -19 -28 -41 -28 -48 0 -27 67 -100 113 -122 36 -17 47
-28 47 -46 0 -32 -28 -54 -80 -62 -52 -8 -100 -50 -100 -88 0 -32 40 -63 93
-71 70 -10 97 -25 97 -51 0 -32 -21 -74 -37 -74 -7 0 -22 -15 -33 -32 l-20
-33 25 -22 c53 -46 158 -14 191 58 29 65 94 77 102 20 2 -13 13 -23 29 -27 30
-8 96 10 118 32 34 34 9 143 -41 183 -40 32 -31 58 29 85 86 39 118 88 97 151
-14 44 -44 65 -91 65 -30 0 -38 4 -43 23 -3 12 -1 24 4 25 16 6 12 65 -6 91
-23 33 -74 51 -143 51 -53 0 -62 -3 -81 -27z m158 -49 c22 -15 22 -17 7 -40
-34 -53 26 -152 85 -139 15 3 34 0 45 -9 17 -12 18 -17 6 -39 -12 -22 -38 -37
-117 -67 -14 -6 -24 -21 -29 -47 -11 -53 -8 -63 30 -103 47 -48 59 -83 36
-104 -18 -16 -38 -10 -93 28 -26 19 -67 21 -102 5 -21 -10 -32 -26 -66 -99 -9
-20 -57 -46 -66 -37 -4 4 7 22 24 40 27 28 32 41 32 81 0 39 -5 53 -29 77 -26
25 -37 29 -88 29 -105 1 -124 52 -25 65 71 9 87 19 126 77 l36 53 -25 9 c-14
6 -25 15 -25 21 0 11 -41 35 -60 35 -6 0 -18 7 -27 15 -10 8 -27 21 -38 29
-16 12 -18 18 -9 33 28 46 107 52 124 9 13 -33 52 -64 87 -67 55 -6 95 50 58
81 -15 13 -21 61 -8 73 13 13 89 7 111 -9z"/>
<path d="M7247 10891 c-3 -13 -13 -21 -26 -21 -26 0 -50 -45 -34 -61 8 -8 21
0 47 27 39 42 40 43 27 62 -6 10 -10 9 -14 -7z"/>
<path d="M7280 10796 c0 -18 16 -29 30 -21 13 8 1 35 -16 35 -8 0 -14 -6 -14
-14z"/>
<path d="M7217 10753 c-14 -13 -6 -33 13 -33 13 0 20 7 20 20 0 19 -20 27 -33
13z"/>
<path d="M7132 10728 c3 -7 15 -15 27 -16 16 -3 22 1 19 10 -3 7 -15 15 -27
16 -16 3 -22 -1 -19 -10z"/>
<path d="M7144 10675 c-7 -18 3 -35 21 -35 15 0 24 19 18 38 -6 17 -32 15 -39
-3z"/>
<path d="M7260 10635 c-9 -11 -10 -19 -2 -27 14 -14 32 -1 32 23 0 23 -13 25
-30 4z"/>
<path d="M7270 10571 c0 -16 6 -21 26 -21 33 0 30 33 -4 38 -17 3 -22 -2 -22
-17z"/>
<path d="M7152 10548 c2 -15 10 -23 23 -23 30 0 27 39 -3 43 -20 3 -23 0 -20
-20z"/>
<path d="M5140 10983 c-27 -12 -80 -16 -225 -18 -182 -3 -410 -27 -428 -45 -5
-4 -7 -16 -5 -26 3 -17 12 -19 72 -17 37 1 84 7 104 13 20 6 123 13 227 15
222 6 312 19 336 49 34 42 -13 59 -81 29z"/>
<path d="M10260 10896 c-6 -8 -18 -12 -25 -10 -8 3 -20 2 -29 -3 -16 -9 -66
-79 -66 -92 0 -17 33 -21 50 -6 9 8 29 15 43 15 22 0 27 5 27 25 0 14 9 34 20
45 12 12 18 25 15 30 -9 14 -21 12 -35 -4z"/>
<path d="M10025 10856 c-24 -50 -17 -71 23 -69 32 1 62 18 62 34 0 4 -6 14
-13 21 -7 7 -16 21 -20 31 -10 28 -35 20 -52 -17z"/>
<path d="M10430 10864 c0 -17 22 -14 28 4 2 7 -3 12 -12 12 -9 0 -16 -7 -16
-16z"/>
<path d="M13767 10810 c-3 -11 -1 -22 3 -25 5 -3 11 -19 15 -36 9 -39 39 -36
43 4 6 53 -49 104 -61 57z"/>
<path d="M13630 10800 c0 -5 14 -32 31 -60 25 -41 34 -48 45 -39 18 14 8 56
-19 87 -21 22 -57 30 -57 12z"/>
<path d="M15945 10768 c3 -13 9 -33 12 -46 7 -29 37 -25 41 5 5 31 -15 63 -40
63 -17 0 -19 -4 -13 -22z"/>
<path d="M15776 10771 c-9 -14 3 -34 40 -65 24 -20 38 -26 45 -19 16 16 -17
72 -47 83 -31 12 -31 12 -38 1z"/>
<path d="M16061 10739 c-39 -40 -45 -59 -16 -59 16 0 85 81 79 92 -9 15 -21 8
-63 -33z"/>
<path d="M9937 10758 c-2 -7 2 -29 8 -49 12 -32 11 -37 -6 -47 -10 -7 -19 -21
-19 -32 0 -13 -7 -20 -20 -20 -23 0 -23 0 -11 -33 13 -33 45 -40 76 -15 23 18
25 26 23 81 -1 34 -5 69 -9 77 -4 8 -10 23 -13 33 -6 20 -22 23 -29 5z"/>
<path d="M10069 10758 c-29 -24 -51 -69 -41 -81 6 -7 12 -23 14 -36 4 -28 28
-41 28 -16 0 10 11 26 24 36 34 26 44 78 20 96 -22 16 -26 16 -45 1z"/>
<path d="M13916 10758 c-20 -64 -25 -110 -16 -128 14 -27 17 -26 35 16 16 38
19 81 9 108 -7 19 -23 21 -28 4z"/>
<path d="M13477 10743 c-15 -14 -5 -24 39 -43 60 -26 84 -26 84 1 0 31 -100
66 -123 42z"/>
<path d="M15671 10664 c-43 -18 -32 -30 37 -37 43 -5 54 -3 59 10 7 18 -21 43
-46 43 -9 -1 -31 -7 -50 -16z"/>
<path d="M10168 10658 c9 -9 15 -9 24 0 9 9 7 12 -12 12 -19 0 -21 -3 -12 -12z"/>
<path d="M16155 10651 c-51 -23 -129 -88 -115 -96 13 -8 161 65 168 83 9 26
-13 31 -53 13z"/>
<path d="M13450 10646 c0 -14 56 -33 67 -22 3 3 3 12 0 21 -8 20 -67 21 -67 1z"/>
<path d="M14075 10652 c-32 -4 -119 -68 -110 -82 5 -9 129 40 148 59 16 16 -2
27 -38 23z"/>
<path d="M13483 10575 c-47 -20 -41 -32 20 -37 60 -5 68 -1 56 30 -10 25 -30
27 -76 7z"/>
<path d="M5611 10546 c-7 -8 -9 -34 -6 -67 3 -30 8 -88 10 -129 5 -76 30 -259
37 -265 1 -2 12 -5 23 -7 19 -3 20 2 17 87 -1 50 -7 114 -13 142 -6 29 -11 92
-11 140 0 49 -5 94 -10 101 -14 16 -33 15 -47 -2z"/>
<path d="M15672 10550 c-18 -4 -42 -16 -52 -25 -22 -19 -27 -45 -9 -45 22 0
120 53 116 63 -5 15 -16 16 -55 7z"/>
<path d="M16113 10507 c-79 -15 -84 -57 -6 -50 72 6 93 12 93 26 0 21 -42 33
-87 24z"/>
<path d="M16481 10507 c-6 -8 -9 -16 -6 -19 2 -2 0 -67 -5 -144 -11 -170 -22
-434 -26 -609 -1 -71 -6 -148 -9 -170 -4 -22 -8 -93 -10 -158 -2 -97 0 -119
12 -124 26 -10 33 11 37 132 3 66 9 147 15 180 6 33 10 105 9 160 -1 55 4 119
11 142 l11 41 103 6 c56 3 131 5 167 5 36 -1 144 2 240 8 120 7 180 7 192 0
28 -18 48 9 48 65 0 41 6 57 40 103 54 73 127 129 192 148 151 43 164 45 241
22 99 -30 170 -72 200 -117 15 -23 27 -50 27 -59 0 -10 4 -20 9 -23 15 -10 22
-101 10 -135 -15 -42 0 -60 26 -31 10 11 22 44 26 73 6 44 2 64 -23 129 -32
86 -75 131 -161 173 -91 45 -266 74 -327 54 -71 -22 -145 -60 -177 -90 -55
-53 -114 -137 -118 -168 -2 -16 -10 -41 -17 -55 -14 -26 -16 -27 -138 -31 -69
-3 -163 -9 -210 -15 -47 -5 -110 -9 -140 -8 -30 0 -64 0 -75 -1 -68 -7 -111
-6 -116 2 -4 5 -3 23 1 38 9 29 2 69 -19 107 -8 15 -8 53 0 139 17 197 18 207
13 226 -6 20 -37 23 -53 4z"/>
<path d="M14006 10475 c-15 -8 -35 -15 -42 -15 -18 0 -18 -14 1 -30 11 -9 22
-9 46 -1 18 6 47 11 65 11 40 0 54 18 29 37 -25 17 -63 17 -99 -2z"/>
<path d="M13517 10449 c-15 -11 -35 -22 -45 -23 -9 -2 -18 -13 -20 -25 -3 -19
0 -21 25 -15 53 13 104 44 101 62 -5 24 -29 25 -61 1z"/>
<path d="M15673 10416 c-33 -31 -45 -48 -38 -55 12 -12 104 55 105 76 1 27
-21 20 -67 -21z"/>
<path d="M16000 10410 c0 -13 9 -22 25 -26 14 -3 25 -9 25 -13 0 -13 46 -29
59 -21 10 6 9 13 -4 34 -21 32 -45 46 -79 46 -19 0 -26 -5 -26 -20z"/>
<path d="M13588 10373 c-7 -15 -22 -32 -33 -38 -11 -6 -32 -19 -47 -29 -63
-42 -9 -50 61 -9 54 31 70 50 71 81 0 32 -36 29 -52 -5z"/>
<path d="M15952 10383 c-5 -10 -8 -25 -7 -33 1 -8 3 -23 3 -32 3 -27 29 -21
36 7 7 29 -2 75 -15 75 -4 0 -12 -8 -17 -17z"/>
<path d="M13920 10375 c0 -19 30 -34 83 -41 55 -8 71 10 36 37 -30 24 -119 27
-119 4z"/>
<path d="M15782 10378 c-7 -7 -12 -18 -12 -25 0 -7 -16 -35 -35 -62 -34 -47
-43 -71 -27 -71 25 0 120 148 105 164 -9 9 -18 7 -31 -6z"/>
<path d="M15843 10358 c-2 -18 -8 -45 -14 -61 -14 -34 -3 -49 17 -23 26 36 31
116 7 116 -4 0 -9 -15 -10 -32z"/>
<path d="M13823 10294 c-3 -9 -1 -19 4 -23 5 -3 13 -23 16 -45 7 -45 11 -50
32 -43 19 8 19 36 -1 87 -17 41 -40 52 -51 24z"/>
<path d="M13633 10283 c-4 -10 -26 -40 -50 -68 -24 -27 -43 -53 -43 -57 0 -5
10 -8 23 -8 39 0 107 90 107 141 0 16 -31 9 -37 -8z"/>
<path d="M13727 10254 c-12 -13 -8 -54 9 -79 22 -34 34 -31 34 9 0 35 -29 83
-43 70z"/>
<path d="M13920 10253 c1 -22 84 -82 96 -70 10 10 -29 59 -53 68 -29 11 -43
11 -43 2z"/>
<path d="M7285 10230 c-15 -16 -16 -24 -7 -43 6 -12 13 -71 16 -132 19 -394
18 -385 46 -385 18 0 20 7 22 68 2 124 1 156 -12 281 -7 68 -10 138 -7 156 3
21 0 41 -9 54 -19 26 -26 26 -49 1z"/>
<path d="M9990 10149 c-7 -11 -9 -28 -5 -37 4 -9 8 -120 10 -247 2 -126 7
-238 10 -247 10 -25 21 -22 34 10 13 34 22 500 9 525 -12 23 -45 22 -58 -4z"/>
<path d="M17590 10163 c-67 -13 -172 -120 -189 -192 -12 -57 16 -231 39 -231
4 0 18 -10 31 -23 70 -67 92 -76 170 -73 136 6 169 15 229 63 53 43 110 112
110 134 0 6 -32 -19 -71 -55 -39 -36 -79 -66 -89 -66 -9 0 -30 -7 -47 -15 -17
-8 -55 -18 -86 -21 -65 -7 -114 8 -183 58 -40 28 -43 34 -52 97 -9 63 -7 74
19 136 5 11 8 28 6 39 -1 13 16 31 55 58 48 33 67 40 120 43 93 7 119 -3 145
-54 39 -76 19 -148 -61 -213 -61 -52 -105 -52 -152 -2 -42 44 -43 72 -5 113
36 38 68 40 81 6 7 -19 5 -33 -11 -59 -18 -31 -18 -34 -3 -40 26 -10 84 50 84
86 0 40 -28 78 -68 95 -31 13 -38 12 -78 -7 -69 -34 -101 -89 -84 -149 12 -44
52 -90 103 -115 33 -17 43 -18 95 -6 48 10 64 20 103 63 71 76 84 138 49 224
-31 74 -69 99 -160 105 -41 3 -86 3 -100 1z"/>
<path d="M5638 10008 c-17 -14 -44 -140 -33 -157 6 -11 -61 -49 -70 -39 -3 3
-7 15 -10 26 -5 27 -20 56 -38 71 -12 9 -21 9 -42 -1 -20 -9 -31 -9 -46 0 -29
18 -57 14 -73 -11 -16 -24 -25 -184 -12 -205 4 -6 8 -32 11 -57 2 -25 15 -66
30 -91 15 -25 24 -51 21 -57 -3 -7 -16 -30 -29 -51 -22 -37 -25 -39 -79 -41
-31 -2 -91 -14 -135 -28 -43 -14 -94 -28 -113 -32 -19 -4 -48 -14 -64 -22 -19
-10 -68 -16 -151 -17 -140 -4 -128 -12 -140 94 -3 30 -16 92 -28 137 -25 98
-23 97 -157 67 -55 -12 -99 -18 -105 -13 -19 18 -52 8 -73 -20 -19 -26 -21
-38 -16 -93 4 -35 10 -70 15 -78 21 -42 -43 -376 -78 -405 -22 -18 45 -81 106
-99 86 -25 244 -16 311 19 17 9 31 10 42 4 9 -5 24 -6 34 -2 17 6 17 44 -2
246 l-5 47 49 0 c27 0 75 9 107 20 32 11 70 20 85 20 14 0 30 4 36 8 17 16 99
42 149 47 51 6 113 20 151 35 20 8 22 4 34 -67 17 -106 67 -202 144 -275 33
-32 68 -60 76 -62 8 -3 84 -21 167 -42 189 -45 207 -41 250 57 14 32 -6 96
-39 121 -31 24 -45 22 -52 -5 -22 -90 -233 -39 -324 78 -56 72 -85 138 -77
174 7 34 56 91 76 91 21 -1 47 -42 58 -91 13 -59 42 -86 78 -73 22 7 29 18 35
52 10 62 18 68 39 33 10 -17 23 -31 29 -31 5 0 10 -7 10 -15 0 -12 28 -35 44
-35 16 0 50 102 53 160 4 75 -7 101 -34 84 -13 -8 -19 -27 -21 -70 -2 -32 -7
-62 -11 -67 -4 -4 -20 20 -35 53 -24 55 -30 61 -53 58 -21 -2 -30 -13 -46 -56
-12 -31 -24 -49 -29 -44 -11 11 -32 134 -30 181 1 45 37 81 88 88 47 6 79 -16
90 -61 l7 -29 -22 22 c-27 27 -37 27 -54 -5 -12 -23 -15 -24 -26 -10 -18 21
-34 20 -56 -4 -15 -16 -15 -22 -5 -35 17 -20 47 -19 59 2 9 16 11 16 28 1 14
-12 31 -15 71 -11 73 8 84 37 48 126 -14 37 -73 67 -131 67 -96 0 -165 -72
-165 -171 0 -35 -2 -38 -32 -41 -22 -2 -36 -10 -44 -25 -6 -13 -18 -31 -26
-40 -52 -60 -64 -141 -31 -206 26 -50 88 -139 115 -164 40 -37 115 -71 186
-83 67 -12 72 -12 123 13 30 14 55 24 57 23 1 -2 -1 -17 -4 -35 -9 -41 -43
-59 -79 -43 -14 7 -35 12 -46 12 -11 0 -62 10 -114 21 -89 21 -95 24 -157 83
-35 34 -73 81 -85 106 -30 63 -55 160 -50 190 10 48 59 121 92 137 18 9 39 27
46 40 11 21 10 26 -9 45 -18 18 -23 19 -37 8 -13 -11 -19 -9 -40 10 -13 13
-22 27 -19 32 3 5 0 15 -6 23 -7 8 -9 22 -6 31 12 30 -5 92 -26 97 -17 5 -19
11 -13 39 4 18 11 37 16 42 11 13 31 -42 24 -66 -5 -14 1 -22 29 -33 20 -9 36
-20 36 -25 0 -21 53 -9 97 21 39 27 48 30 70 20 20 -9 30 -9 49 4 29 19 30 23
3 51 -15 16 -22 36 -22 64 0 52 18 73 39 46 8 -11 14 -28 14 -38 0 -32 32 -98
52 -109 30 -16 40 5 35 72 -5 54 4 92 16 72 9 -14 27 -132 29 -193 3 -62 25
-79 52 -38 13 20 13 35 1 123 -17 128 -35 171 -81 193 -35 16 -36 16 -54 -6
l-19 -22 -37 25 c-42 29 -45 29 -66 13z m-1084 -498 c14 -5 26 -17 26 -27 0
-13 -3 -14 -12 -5 -18 18 -45 15 -67 -7 -11 -11 -39 -25 -61 -32 -50 -15 -75
-4 -75 32 0 18 8 27 35 36 43 15 120 16 154 3z m51 -132 c5 -15 15 -62 21
-101 2 -16 6 -32 9 -37 5 -8 13 -60 19 -130 2 -14 6 -46 10 -71 11 -68 -1 -85
-71 -94 -32 -5 -101 -8 -154 -9 -122 -1 -134 7 -125 79 5 46 46 164 66 190 4
6 20 43 35 83 21 53 34 74 49 76 12 3 41 9 66 14 64 14 70 14 75 0z m165 -133
c10 -13 9 -15 -8 -15 -22 0 -36 13 -25 24 10 10 20 7 33 -9z"/>
<path d="M15444 9982 c-16 -10 -33 -170 -22 -207 10 -35 12 -210 3 -259 -5
-24 -11 -33 -21 -29 -7 3 -12 10 -11 16 3 18 -87 20 -199 4 -54 -8 -120 -12
-146 -10 -46 5 -48 4 -48 -20 0 -14 5 -29 11 -33 21 -12 144 -12 214 2 39 7
98 15 131 18 l62 6 6 -33 c10 -53 8 -334 -2 -354 -8 -13 -5 -24 9 -41 15 -19
22 -21 38 -12 20 10 21 19 20 323 -1 300 2 372 16 418 4 12 1 32 -6 46 -12 22
-11 27 6 39 11 8 44 14 79 14 34 0 126 7 206 15 80 9 182 15 226 14 45 -1 87
2 94 6 6 4 81 10 165 14 85 3 157 10 161 14 4 4 2 18 -5 31 -13 23 -18 24
-120 24 -60 1 -130 -5 -162 -13 -30 -8 -102 -15 -160 -15 -57 0 -124 -2 -149
-5 -25 -2 -116 -7 -202 -10 l-156 -7 -4 23 c-3 25 -17 33 -34 21z"/>
<path d="M14388 9816 c-10 -7 -18 -18 -18 -25 0 -6 -11 -29 -25 -51 -14 -22
-25 -42 -25 -45 0 -3 -12 -16 -27 -29 -26 -23 -25 -46 2 -46 7 0 33 23 58 51
l44 50 26 -43 c29 -49 81 -108 95 -108 5 0 7 -19 5 -43 -3 -27 1 -57 11 -81
15 -35 15 -46 1 -110 -16 -78 -34 -136 -46 -150 -4 -4 -30 12 -57 38 -54 51
-92 61 -92 24 1 -15 16 -34 46 -56 24 -18 54 -49 67 -68 15 -23 28 -33 42 -32
11 2 18 6 15 10 -3 4 2 13 11 20 20 16 39 81 53 178 l11 75 42 3 c34 3 47 10
72 40 46 57 61 70 135 123 68 50 97 56 94 22 -2 -33 2 -68 12 -83 8 -13 11
-13 26 2 15 14 16 25 7 77 -8 50 -7 63 6 76 22 22 2 37 -38 29 -18 -4 -35 -13
-38 -20 -7 -19 -23 -18 -23 1 0 8 -4 15 -8 15 -5 0 -29 18 -53 41 -81 75 -93
75 -128 3 -30 -62 -49 -84 -73 -84 -10 0 -30 -7 -43 -16 -24 -15 -25 -15 -34
8 -5 13 -17 30 -26 38 -10 8 -32 37 -51 64 -26 39 -31 53 -23 68 22 41 -15 63
-53 34z m401 -160 c15 -13 39 -28 55 -33 l28 -9 -42 -29 c-22 -16 -52 -42 -66
-58 l-24 -29 0 30 c0 17 -10 40 -25 56 -14 15 -25 33 -25 40 0 19 39 50 69 55
3 1 16 -10 30 -23z m-132 -106 c19 0 26 -39 13 -71 -26 -63 -104 -39 -92 28 7
39 22 55 46 49 12 -3 26 -6 33 -6z"/>
<path d="M14475 9793 c-3 -13 -4 -27 -1 -31 4 -6 103 -6 185 0 39 3 52 26 25
42 -11 6 -60 11 -111 12 -89 1 -92 0 -98 -23z"/>
<path d="M1290 9690 c0 -5 5 -10 11 -10 5 0 7 5 4 10 -3 6 -8 10 -11 10 -2 0
-4 -4 -4 -10z"/>
<path d="M7547 9638 c-57 -87 -76 -101 -139 -95 -29 3 -67 8 -84 12 -25 6 -36
2 -57 -19 -22 -21 -35 -26 -79 -26 -45 0 -59 5 -91 31 -21 17 -44 46 -52 65
-18 43 -41 53 -65 28 -16 -17 -17 -28 -8 -109 5 -49 12 -172 14 -272 4 -156 2
-183 -10 -183 -28 0 -26 -18 3 -51 27 -29 32 -31 58 -21 15 6 53 13 83 17 91
10 130 27 185 77 29 26 57 48 62 48 5 0 24 -16 43 -35 41 -42 82 -62 135 -66
49 -4 137 30 130 49 -3 8 -5 18 -5 23 0 13 -28 11 -32 -3 -6 -16 -87 -17 -119
-1 -38 18 -129 107 -129 125 0 9 -11 25 -25 35 -19 14 -27 33 -35 83 -5 36
-10 80 -10 98 l0 32 65 0 c74 0 127 18 167 57 15 15 30 24 34 21 3 -3 7 -28 9
-55 7 -117 36 -281 57 -328 26 -57 37 -68 55 -53 17 14 16 47 -3 83 -9 17 -18
41 -21 55 -28 151 -36 197 -43 270 -5 47 -7 94 -4 106 6 23 -18 54 -41 54 -8
0 -30 -24 -48 -52z m-486 -142 c23 -30 94 -47 162 -39 46 6 47 5 48 -23 1 -16
3 -38 4 -49 2 -11 6 -64 9 -119 5 -80 4 -103 -9 -122 -21 -32 -79 -60 -140
-67 -27 -4 -59 -9 -70 -12 -19 -6 -20 -1 -22 142 -1 81 -5 185 -9 231 -3 45
-3 82 1 82 4 0 16 -11 26 -24z"/>
<path d="M14228 9593 c-13 -16 -5 -26 25 -29 12 -1 25 -3 28 -3 9 -1 17 -166
9 -190 -3 -9 3 -16 12 -19 26 -5 41 40 40 119 l-1 66 50 -13 c40 -10 55 -11
70 -1 39 25 21 46 -51 59 -114 21 -171 24 -182 11z"/>
<path d="M8498 9577 c-15 -12 -38 -30 -52 -40 -19 -13 -26 -27 -26 -51 0 -34
41 -123 66 -142 18 -14 18 -29 -2 -59 -14 -21 -14 -26 1 -54 26 -52 83 -37 68
18 -7 27 17 28 40 3 20 -22 21 -42 5 -77 -10 -22 -18 -25 -58 -25 -52 0 -78
-18 -58 -38 16 -16 83 -15 116 2 51 27 74 60 74 112 1 43 -2 50 -38 78 -21 16
-64 55 -96 86 -47 46 -55 59 -51 82 8 40 48 63 112 63 57 0 80 17 68 49 -10
27 -134 22 -169 -7z"/>
<path d="M8750 9574 c-48 -35 -53 -48 -46 -111 8 -67 26 -96 78 -123 79 -41
108 -69 104 -101 -5 -39 -21 -57 -67 -70 -30 -9 -42 -9 -54 1 -18 15 -45 7
-45 -14 0 -8 10 -18 23 -22 12 -3 29 -12 37 -19 18 -16 87 -6 125 19 26 17 55
74 55 108 0 37 -40 98 -83 124 -23 15 -43 31 -45 35 -2 5 -10 9 -18 9 -20 0
-47 58 -40 86 7 26 40 48 62 40 7 -3 11 -12 8 -20 -3 -8 -1 -17 5 -21 6 -3 11
-19 11 -35 0 -41 10 -60 30 -60 30 0 43 26 35 73 -3 23 -9 57 -12 75 -6 39 -5
38 -73 45 -48 5 -60 2 -90 -19z"/>
<path d="M1812 9550 c-94 -10 -128 -26 -241 -116 -73 -58 -73 -58 -146 -219
-23 -50 -26 -115 -5 -125 62 -31 119 -55 140 -60 16 -3 26 -13 28 -28 4 -29
36 -45 76 -39 17 3 69 11 116 17 132 18 210 51 287 123 18 17 38 27 46 24 19
-7 49 26 45 50 -2 15 4 18 37 18 36 0 42 4 73 50 18 28 35 61 39 75 3 14 13
33 21 43 13 14 13 21 3 41 -13 24 -47 38 -137 55 -28 6 -87 28 -132 51 -92 46
-132 52 -250 40z m133 -60 c4 -6 -8 -10 -28 -10 -40 0 -191 -37 -229 -56 -45
-23 -55 -15 -19 16 40 34 109 52 223 57 26 2 50 -2 53 -7z m109 -75 c15 -8 39
-15 52 -15 12 0 26 -4 29 -10 3 -5 24 -10 46 -10 28 0 39 -4 39 -15 0 -8 -4
-15 -9 -15 -6 0 -27 -25 -47 -56 -20 -30 -57 -72 -82 -92 -24 -20 -60 -52 -80
-69 -19 -18 -40 -33 -47 -33 -13 0 -25 77 -30 196 -2 40 -6 81 -10 93 -5 16
-1 23 17 30 35 15 90 13 122 -4z m-219 -30 c1 -11 8 -32 18 -45 9 -13 17 -40
17 -59 0 -19 5 -72 12 -118 12 -86 9 -98 -26 -105 -20 -3 -18 -9 -56 193 -5
30 -10 79 -10 108 0 49 2 52 23 49 14 -2 22 -10 22 -23z m-108 -27 c10 -13 28
-127 39 -250 l6 -68 -35 0 c-31 0 -36 4 -42 30 -6 27 -11 30 -43 30 -38 0 -96
13 -144 32 -51 19 -31 72 54 147 48 43 125 91 144 91 6 0 16 -6 21 -12z"/>
<path d="M11278 9530 c-43 -4 -83 -11 -88 -16 -7 -7 -40 -9 -83 -6 -98 6 -108
-5 -96 -103 5 -38 7 -76 4 -82 -3 -9 -31 -13 -89 -13 -62 0 -99 -6 -136 -20
-28 -11 -60 -20 -72 -20 -23 0 -81 -17 -110 -31 -28 -14 -66 -10 -76 8 -11 19
-69 20 -145 2 -53 -12 -68 -32 -45 -56 13 -12 22 -13 57 -2 32 9 47 10 67 0
14 -6 30 -8 36 -4 12 7 157 24 201 23 15 0 51 10 79 22 32 14 53 18 55 11 3
-7 15 -7 41 0 21 5 62 7 92 3 l55 -7 2 -206 c1 -131 5 -209 12 -216 8 -8 20
-8 44 0 17 6 73 11 123 12 50 0 104 5 119 11 21 8 30 8 35 -1 9 -13 12 -378 4
-436 -5 -34 -11 -44 -37 -54 -17 -7 -46 -28 -65 -46 l-34 -34 4 -84 c4 -74 8
-89 30 -113 26 -28 48 -107 48 -170 0 -21 5 -53 11 -72 6 -19 11 -93 12 -164
2 -127 3 -128 30 -152 27 -23 87 -34 87 -15 0 5 12 23 26 40 22 26 25 38 20
69 -27 166 -38 438 -18 455 22 18 42 64 42 96 0 35 -30 94 -69 133 l-26 27 0
272 0 273 50 14 c28 7 79 17 115 20 49 5 66 11 68 23 7 37 -77 41 -194 10 -92
-24 -195 -40 -276 -43 -48 -1 -89 0 -92 2 -2 3 -7 84 -10 180 -3 96 -8 216
-12 267 -7 91 -6 92 17 101 72 28 279 49 320 33 23 -9 22 -10 -11 -11 -39 -2
-57 -4 -185 -26 -49 -8 -93 -18 -98 -21 -5 -3 -6 -26 -3 -52 4 -25 8 -65 11
-89 5 -43 15 -225 15 -274 0 -16 9 -37 21 -49 27 -27 77 -21 193 23 52 19 103
31 141 32 l60 2 -1 139 c-1 213 -7 304 -21 310 -7 2 -13 9 -13 15 0 16 43 11
66 -8 23 -19 32 -80 39 -277 6 -155 24 -243 46 -229 12 7 11 91 0 99 -6 3 -6
17 1 35 5 17 8 41 4 53 -17 69 22 85 191 82 77 -2 140 2 170 10 27 7 113 19
193 25 112 10 147 16 156 29 16 21 25 11 26 -30 0 -19 6 -40 12 -48 8 -10 11
-109 11 -318 0 -228 3 -303 12 -303 21 0 26 20 30 124 2 55 6 107 8 114 3 7
21 12 42 12 21 0 80 9 130 19 103 22 189 17 221 -12 10 -9 24 -17 30 -17 18 0
42 55 42 98 0 98 39 147 167 209 l93 45 80 -7 c44 -4 82 -11 85 -15 2 -4 33
-18 67 -31 90 -33 154 -74 168 -109 45 -109 -25 -257 -153 -321 -23 -12 -50
-28 -59 -36 -10 -9 -47 -17 -95 -20 -89 -6 -122 6 -185 67 -70 69 -85 138 -47
216 30 64 101 105 187 112 63 4 70 2 101 -24 35 -29 61 -78 61 -116 0 -58 -83
-127 -157 -130 -29 -1 -42 5 -65 30 -35 40 -35 52 -2 92 21 25 33 30 58 28 29
-3 31 -5 29 -42 -2 -21 -7 -44 -13 -51 -22 -27 10 -25 40 2 42 38 55 94 29
127 -43 55 -133 42 -192 -28 -39 -47 -44 -68 -24 -102 40 -69 88 -104 142
-104 191 0 280 176 161 317 -65 77 -163 90 -280 35 -63 -29 -126 -92 -133
-130 -17 -108 -16 -120 16 -172 17 -27 31 -53 31 -55 0 -9 70 -67 116 -97 53
-33 55 -34 173 -8 161 35 241 91 301 211 39 76 45 160 15 222 -19 41 -74 93
-127 118 -65 33 -194 68 -269 75 -69 6 -80 4 -125 -20 -27 -14 -53 -26 -58
-26 -25 0 -126 -75 -154 -114 -25 -34 -52 -113 -52 -150 0 0 -47 -1 -103 -1
-63 0 -109 -4 -118 -11 -11 -10 -152 -54 -170 -54 -2 0 -4 89 -4 197 0 109 -3
211 -8 226 -7 24 -12 27 -43 25 -21 -1 -39 3 -44 11 -6 11 -23 12 -72 7 -34
-4 -101 -9 -148 -12 -47 -3 -112 -12 -145 -19 -33 -8 -96 -14 -140 -14 -44 1
-108 0 -142 -1 -72 -1 -69 -6 -77 115 -3 39 -9 86 -14 105 l-8 35 -144 0 c-80
0 -180 -2 -222 -5z m201 -167 c-2 -21 3 -49 11 -62 12 -23 17 -212 6 -230 -3
-4 -18 -8 -35 -9 -17 -1 -55 -11 -84 -21 -98 -35 -146 -45 -161 -32 -9 7 -16
46 -20 114 -3 56 -9 132 -12 168 l-6 66 68 17 c65 15 107 20 197 24 38 2 38 2
36 -35z m-116 -1095 c34 3 94 -57 103 -103 4 -25 -1 -37 -33 -72 l-39 -42 8
-68 c5 -37 11 -130 13 -205 3 -99 9 -146 20 -168 14 -28 14 -31 0 -37 -27 -10
-35 10 -45 98 -4 46 -16 120 -25 165 -9 44 -15 85 -14 90 2 5 -1 40 -5 79 -9
74 -35 139 -61 148 -9 4 -15 19 -15 38 0 36 36 93 53 82 6 -4 24 -6 40 -5z"/>
<path d="M11305 9334 c-16 -9 -45 -30 -62 -47 -50 -47 -43 -113 19 -186 29
-34 43 -39 51 -17 3 8 25 20 49 28 85 29 117 130 60 194 -33 39 -76 49 -117
28z m69 -60 c39 -15 -1 -134 -45 -134 -28 0 -45 28 -31 51 7 10 12 32 12 47 0
16 3 32 7 35 8 9 36 9 57 1z"/>
<path d="M9930 9498 c-28 -29 -31 -38 -26 -73 9 -73 73 -97 136 -50 62 46 66
76 16 123 -46 43 -83 43 -126 0z m106 -49 c3 -6 2 -14 -3 -18 -5 -3 -12 -14
-16 -23 -9 -26 -61 -9 -65 22 -3 19 -1 22 10 13 10 -9 18 -8 32 3 24 17 33 18
42 3z"/>
<path d="M8576 9474 c-7 -19 10 -54 27 -54 14 0 37 20 37 31 0 12 -31 39 -45
39 -7 0 -16 -7 -19 -16z"/>
<path d="M10126 9431 c-37 -38 -38 -40 -26 -75 6 -20 25 -46 41 -58 22 -17 26
-24 17 -35 -6 -8 -8 -31 -5 -58 l7 -45 -32 0 c-17 0 -40 -8 -51 -17 -19 -17
-19 -17 -12 5 5 16 1 29 -11 43 -32 35 -79 18 -118 -44 -17 -28 -17 -30 6 -63
13 -18 31 -34 40 -34 9 0 20 -5 23 -10 4 -6 11 -8 16 -4 6 3 19 -3 30 -15 13
-14 32 -21 55 -21 30 0 35 4 40 28 3 15 15 32 27 37 25 11 34 49 16 71 -10 12
-9 13 5 8 9 -3 32 -3 52 0 47 9 44 39 -5 46 -19 3 -36 11 -39 18 -3 10 4 12
29 7 28 -5 39 -1 62 20 15 14 27 29 27 34 0 10 -34 41 -45 41 -14 0 -54 49
-44 55 16 11 10 61 -11 83 -29 31 -51 27 -94 -17z m64 -40 c0 -24 -27 -48 -40
-35 -6 6 -4 18 6 32 19 27 34 28 34 3z m60 -141 c0 -5 -4 -10 -10 -10 -5 0
-10 5 -10 10 0 6 5 10 10 10 6 0 10 -4 10 -10z m-216 -115 c-4 -8 -17 -15 -30
-15 -42 0 -25 27 18 29 12 1 15 -4 12 -14z m106 -44 c0 -6 -5 -13 -10 -16 -15
-9 -43 3 -35 15 8 13 45 13 45 1z"/>
<path d="M14751 9436 c-16 -19 -7 -23 69 -35 34 -6 65 -13 68 -15 7 -7 -17
-61 -45 -103 -31 -45 -27 -77 8 -81 24 -3 30 4 55 52 16 31 32 56 36 56 4 0
15 11 24 25 19 29 10 65 -16 65 -10 0 -21 8 -25 19 -9 30 -151 44 -174 17z"/>
<path d="M14356 9343 c-136 -137 -112 -136 73 2 83 62 96 88 49 93 -21 3 -42
-14 -122 -95z"/>
<path d="M9760 9384 c-29 -74 13 -152 75 -140 37 8 79 37 83 60 2 10 -15 36
-41 61 -54 55 -101 62 -117 19z m104 -69 c6 -17 -13 -29 -40 -23 -27 5 -28 26
-2 31 13 2 26 5 29 6 4 0 10 -6 13 -14z"/>
<path d="M8279 9376 c-9 -9 -83 -15 -254 -22 -140 -5 -180 -7 -225 -13 -16 -2
-12 -51 4 -57 8 -3 41 0 73 6 31 7 134 13 228 14 139 2 176 5 203 20 39 20 40
49 2 54 -14 2 -28 1 -31 -2z"/>
<path d="M14654 9356 c-3 -7 9 -37 27 -67 17 -30 35 -61 39 -69 10 -21 50 -26
50 -6 0 8 -4 17 -9 20 -4 3 -11 18 -14 33 -6 30 -62 103 -78 103 -5 0 -12 -6
-15 -14z"/>
<path d="M8732 9267 c-14 -16 -5 -54 15 -61 23 -9 53 12 53 38 0 34 -46 49
-68 23z"/>
<path d="M16517 9264 c-14 -14 -7 -91 8 -104 24 -20 37 1 33 56 -2 34 -8 50
-18 52 -9 1 -19 0 -23 -4z"/>
<path d="M16617 9263 c-11 -18 9 -78 27 -81 23 -5 41 12 30 30 -5 7 -8 22 -9
33 0 20 -38 34 -48 18z"/>
<path d="M16337 9228 c12 -63 83 -143 83 -94 0 35 -50 120 -73 124 -14 3 -16
-2 -10 -30z"/>
<path d="M9774 9215 c-12 -8 -27 -35 -34 -59 -11 -40 -10 -49 4 -71 13 -20 25
-25 57 -25 29 0 41 5 45 18 3 9 12 29 20 44 40 74 -25 141 -92 93z m56 -65 c0
-15 -7 -20 -25 -20 -23 0 -24 2 -15 20 6 11 17 20 25 20 8 0 15 -9 15 -20z"/>
<path d="M16200 9175 c0 -17 25 -32 64 -36 43 -6 41 13 -3 34 -46 21 -61 22
-61 2z"/>
<path d="M16721 9130 l-32 -40 25 0 c25 0 66 41 66 66 0 26 -27 14 -59 -26z"/>
<path d="M14720 9150 c-14 -4 -41 -8 -61 -9 -45 -1 -64 -20 -45 -46 9 -12 20
-16 37 -12 121 29 139 37 139 63 0 15 -30 17 -70 4z"/>
<path d="M8652 9098 c-18 -23 -18 -62 1 -78 14 -12 21 -46 33 -170 8 -85 19
-163 24 -172 6 -10 10 -25 10 -33 0 -8 5 -15 10 -15 9 0 16 61 12 115 0 11 -3
67 -5 125 -3 58 -8 128 -12 155 -10 70 -46 106 -73 73z"/>
<path d="M16163 9068 c-13 -6 -23 -17 -23 -25 0 -14 29 -17 79 -7 34 7 43 34
12 34 -11 0 -25 2 -33 4 -7 3 -23 0 -35 -6z"/>
<path d="M16800 9065 c-54 -19 -51 -37 6 -33 42 3 49 6 52 26 4 25 -5 26 -58
7z"/>
<path d="M10306 9035 c-20 -21 -33 -47 -34 -67 -4 -45 -16 -54 -41 -29 -27 27
-43 26 -80 -5 -36 -30 -41 -70 -14 -115 21 -35 80 -55 121 -41 33 11 38 27 15
47 -13 11 -18 25 -15 44 l4 29 44 -25 c83 -47 131 -3 118 108 -6 52 -10 62
-35 74 -40 21 -47 19 -83 -20z m62 -87 c-4 -30 -48 -39 -48 -10 0 24 8 32 32
32 14 0 19 -6 16 -22z m-162 -88 c-1 -31 -20 -41 -30 -15 -7 20 3 45 19 45 7
0 12 -12 11 -30z"/>
<path d="M9825 8989 c-24 -21 -35 -40 -35 -58 0 -39 38 -71 82 -71 31 0 39 5
57 36 27 45 27 78 -1 104 -31 28 -62 25 -103 -11z m73 -46 c-4 -23 -48 -31
-48 -10 0 9 6 18 13 20 25 11 38 7 35 -10z"/>
<path d="M14592 8994 c-5 -9 -4 -41 3 -79 7 -35 13 -108 13 -162 1 -54 4 -132
8 -173 9 -100 10 -196 1 -247 -6 -37 -4 -44 14 -53 56 -30 71 60 42 255 -18
126 -24 294 -12 345 9 40 -3 109 -23 121 -20 13 -36 11 -46 -7z"/>
<path d="M16717 8973 c-12 -12 -7 -21 15 -26 24 -7 51 10 42 24 -6 10 -48 12
-57 2z"/>
<path d="M16230 8951 c-19 -10 -37 -26 -39 -36 -3 -15 2 -17 30 -11 42 8 79
32 79 51 0 20 -28 19 -70 -4z"/>
<path d="M15365 8942 c-3 -8 -1 -19 6 -22 6 -4 23 -32 38 -61 31 -63 58 -73
53 -19 -4 39 -50 112 -75 116 -8 1 -18 -5 -22 -14z"/>
<path d="M15530 8900 c0 -17 6 -33 14 -36 8 -3 12 -12 9 -19 -8 -23 6 -38 23
-24 30 25 10 109 -26 109 -16 0 -20 -7 -20 -30z"/>
<path d="M15630 8888 c0 -36 15 -58 38 -58 9 0 12 12 10 43 -2 35 -7 43 -25
45 -20 3 -23 -1 -23 -30z"/>
<path d="M9967 8872 c-52 -54 -22 -121 54 -122 45 0 60 16 62 69 1 31 -4 45
-22 61 -33 28 -62 25 -94 -8z m63 -53 c0 -5 -7 -9 -15 -9 -15 0 -20 12 -9 23
8 8 24 -1 24 -14z"/>
<path d="M15243 8864 c-4 -10 1 -20 13 -27 10 -6 29 -21 42 -34 31 -31 46 -30
37 5 -14 56 -77 95 -92 56z"/>
<path d="M1852 8823 c-19 -16 -20 -24 -12 -68 5 -27 14 -97 20 -155 7 -58 14
-121 17 -140 2 -19 4 -88 5 -152 0 -87 3 -120 13 -128 27 -22 35 0 32 79 -2
43 -1 101 3 129 3 29 2 56 -2 60 -5 5 -9 87 -9 183 -1 172 -7 209 -33 209 -8
0 -23 -8 -34 -17z"/>
<path d="M16257 8809 c-41 -34 -47 -49 -19 -49 19 0 72 52 72 70 0 17 -14 11
-53 -21z"/>
<path d="M16360 8821 c0 -6 4 -12 8 -15 16 -9 -10 -106 -28 -106 -9 0 -30 -56
-30 -79 1 -23 65 52 92 107 16 34 18 47 9 50 -7 2 -16 15 -21 28 -9 23 -30 34
-30 15z"/>
<path d="M15719 8740 c-72 -79 -78 -90 -54 -90 20 0 147 130 142 144 -8 25
-30 12 -88 -54z"/>
<path d="M16775 8801 c-3 -5 4 -13 16 -16 23 -8 34 -1 24 14 -8 13 -32 14 -40
2z"/>
<path d="M15145 8786 c-33 -24 -13 -44 39 -39 31 4 46 2 46 -6 0 -6 7 -11 15
-11 22 0 18 23 -8 48 -26 25 -64 28 -92 8z"/>
<path d="M4378 8773 c-19 -22 -21 -80 -4 -90 17 -11 49 -201 59 -352 3 -35 10
-66 16 -70 18 -12 32 -168 21 -235 -11 -67 -8 -76 25 -76 23 0 24 1 20 83 -3
45 -7 164 -10 265 -2 101 -7 187 -10 193 -11 17 -25 9 -25 -13 0 -19 -2 -20
-10 -8 -16 25 -11 40 16 50 18 7 24 15 20 26 -3 9 -6 22 -6 30 0 10 -8 14 -22
12 -22 -3 -23 0 -24 82 -1 95 -8 120 -34 120 -9 0 -24 -8 -32 -17z"/>
<path d="M16644 8735 c0 -34 17 -47 31 -25 4 6 17 3 35 -10 29 -21 60 -27 60
-11 0 8 -60 41 -76 41 -4 0 -17 9 -29 20 l-21 20 0 -35z"/>
<path d="M16528 8745 c-9 -9 16 -108 28 -112 16 -5 26 59 14 91 -9 24 -29 34
-42 21z"/>
<path d="M9922 8688 c-18 -18 -15 -57 15 -176 24 -97 26 -123 25 -276 -1 -166
5 -206 32 -206 15 0 26 -50 26 -122 0 -27 4 -48 10 -48 21 0 32 45 27 106 -3
47 -1 66 11 77 13 13 13 22 3 59 -16 55 -28 119 -46 238 -7 52 -18 111 -24
131 -6 19 -10 53 -10 75 1 38 -15 126 -26 145 -8 13 -29 11 -43 -3z"/>
<path d="M16440 8679 c0 -12 -7 -36 -16 -55 -9 -19 -14 -37 -11 -41 10 -10 35
5 53 32 14 21 14 30 4 55 -14 35 -30 39 -30 9z"/>
<path d="M15185 8657 c-68 -30 -75 -35 -68 -52 7 -20 16 -19 85 12 39 17 58
31 56 41 -5 23 -19 23 -73 -1z"/>
<path d="M15783 8653 c-28 -10 -11 -24 22 -17 35 6 44 -3 25 -22 -11 -11 -3
-44 10 -44 5 0 9 8 9 18 0 9 3 28 6 42 6 23 3 25 -27 26 -18 1 -39 -1 -45 -3z"/>
<path d="M8750 8581 c-14 -27 -13 -157 2 -181 31 -49 -36 -25 -88 32 -37 41
-64 83 -64 101 0 25 -26 40 -48 28 -15 -8 -21 -26 -26 -74 -8 -70 -1 -93 47
-165 16 -24 26 -46 23 -49 -3 -4 -38 7 -78 22 -71 28 -104 52 -125 89 -12 22
-57 16 -67 -10 -12 -31 159 -260 206 -277 9 -3 0 -20 -27 -53 -52 -63 -62 -88
-59 -148 3 -50 23 -89 57 -110 26 -16 45 11 52 72 6 61 9 68 36 82 18 10 19 8
13 -44 -10 -85 18 -182 66 -234 46 -49 112 -92 140 -92 11 0 27 11 36 25 16
25 16 27 -13 58 -28 29 -63 114 -63 151 0 22 4 20 38 -13 21 -21 36 -28 51
-24 24 6 27 18 7 30 -38 23 -45 82 -19 156 16 43 16 49 1 63 -22 22 -51 5 -85
-49 -20 -32 -28 -61 -34 -122 -6 -73 -5 -84 17 -128 29 -59 29 -61 2 -46 -25
14 -48 34 -48 44 0 3 -9 19 -21 34 -19 25 -21 40 -18 124 4 90 6 97 37 135 34
44 40 69 18 78 -39 15 -169 -83 -181 -137 -8 -35 -25 -48 -25 -19 0 11 16 51
36 89 34 65 38 69 77 75 47 8 88 41 80 63 -5 12 -20 14 -82 8 l-76 -7 -47 46
c-27 25 -48 50 -48 56 0 13 1 13 56 -10 37 -16 65 -20 128 -18 80 3 81 3 84
31 2 18 -1 27 -11 27 -22 0 -93 67 -111 105 -25 53 -14 64 19 21 55 -72 202
-145 242 -120 27 17 26 32 -2 60 -15 15 -36 41 -46 58 -19 32 -26 96 -10 96 8
0 88 -93 135 -159 10 -14 41 -43 68 -64 l48 -37 0 -72 0 -72 -46 -42 c-60 -56
-81 -117 -57 -166 9 -18 36 -51 59 -73 49 -48 46 -70 -11 -81 -52 -9 -53 -24
-1 -24 34 0 52 6 73 25 23 20 25 26 14 34 -12 8 -13 12 -1 26 11 14 8 21 -22
53 -39 41 -58 72 -58 96 0 21 68 96 97 107 30 11 39 35 23 64 -7 14 -11 49 -9
91 l4 68 -40 20 c-22 12 -42 23 -45 26 -3 3 -17 15 -31 25 -32 24 -179 200
-179 214 0 11 -32 31 -49 31 -6 0 -15 -9 -21 -19z"/>
<path d="M15148 8525 c-27 -23 -37 -45 -20 -45 13 0 82 50 82 60 0 18 -35 10
-62 -15z"/>
<path d="M15217 8479 c-55 -49 -72 -79 -44 -79 17 0 94 65 108 92 23 43 -8 37
-64 -13z"/>
<path d="M12265 8510 c-10 -16 14 -40 41 -40 31 0 41 20 19 37 -22 16 -51 17
-60 3z"/>
<path d="M12543 8512 c-14 -9 -19 -80 -6 -110 12 -30 26 -15 43 46 8 33 8 47
-1 58 -13 16 -19 17 -36 6z"/>
<path d="M12450 8473 c0 -30 4 -43 14 -43 22 0 25 35 5 61 l-19 24 0 -42z"/>
<path d="M15707 8503 c-4 -6 -1 -21 5 -35 22 -45 138 -72 138 -32 0 8 -7 17
-16 21 -12 5 -13 7 -2 14 23 14 -5 30 -64 36 -32 3 -58 1 -61 -4z"/>
<path d="M12170 8435 c-14 -17 -5 -35 19 -35 10 0 29 -9 43 -19 32 -25 74 -36
83 -21 9 14 -21 60 -39 60 -7 0 -19 7 -26 15 -16 19 -64 19 -80 0z"/>
<path d="M12663 8404 c-32 -25 -59 -49 -61 -55 -7 -19 35 -7 72 21 22 17 45
30 52 30 6 0 17 6 23 14 10 12 8 17 -7 25 -17 9 -30 3 -79 -35z"/>
<path d="M15252 8360 c-12 -16 -22 -34 -22 -40 0 -19 19 -10 41 21 29 41 11
60 -19 19z"/>
<path d="M15338 8373 c-16 -18 -22 -45 -19 -93 l2 -25 24 28 c14 15 26 39 27
53 0 13 1 29 2 36 2 19 -19 20 -36 1z"/>
<path d="M15675 8361 c5 -17 2 -21 -14 -21 -32 0 -35 -19 -5 -30 15 -6 33 -18
39 -27 16 -21 35 -9 28 17 -4 14 1 26 13 35 24 17 11 32 -35 41 -31 6 -33 5
-26 -15z"/>
<path d="M12087 8302 c-44 -46 -32 -69 19 -36 18 12 37 15 69 11 40 -6 45 -4
45 13 0 47 -92 55 -133 12z"/>
<path d="M15416 8279 c-4 -22 -4 -56 0 -74 3 -19 1 -35 -5 -39 -15 -10 -14
-26 2 -26 16 0 32 50 42 128 6 47 5 52 -13 52 -15 0 -21 -9 -26 -41z"/>
<path d="M15522 8250 c4 -86 21 -92 37 -13 15 78 15 83 -14 83 -25 0 -26 -1
-23 -70z"/>
<path d="M12694 8291 c-11 -10 -37 -26 -58 -36 -23 -11 -36 -24 -34 -33 5 -26
22 -24 70 8 35 23 53 29 72 24 30 -7 36 15 10 40 -20 21 -36 20 -60 -3z"/>
<path d="M9732 8270 c-13 -6 -69 -14 -125 -20 -94 -9 -193 -30 -217 -45 -6 -3
-37 1 -70 9 -33 9 -66 13 -74 10 -22 -9 -28 -36 -11 -53 13 -13 22 -13 60 -3
25 7 59 12 75 12 17 0 56 9 88 19 66 22 160 32 345 36 73 2 131 6 129 9 -1 3
-5 13 -8 21 -5 12 -24 15 -88 14 -44 0 -91 -4 -104 -9z"/>
<path d="M3399 8246 c-3 -3 -52 -10 -110 -16 -138 -13 -228 -29 -263 -47 -16
-8 -45 -16 -66 -18 -44 -3 -172 -97 -169 -124 5 -51 -1 -60 -38 -66 -21 -4
-54 -12 -73 -20 -47 -18 -192 -35 -325 -38 -122 -3 -147 -11 -139 -44 7 -24
40 -34 75 -20 13 5 78 11 144 13 198 6 302 27 356 71 13 11 18 9 28 -10 18
-33 112 -81 149 -75 29 4 30 3 35 -41 3 -25 10 -47 16 -49 6 -2 11 -11 11 -20
0 -9 9 -31 20 -49 21 -36 75 -56 138 -52 20 1 49 2 64 1 25 -2 27 -5 22 -30
-3 -16 1 -45 10 -67 11 -26 20 -96 27 -214 6 -97 10 -183 9 -191 -6 -105 -6
-105 23 -108 l27 -3 -32 -35 -32 -34 -36 34 c-46 44 -71 56 -115 56 -39 0 -43
-6 -64 -92 -8 -38 -8 -52 4 -75 24 -45 19 -80 -12 -97 -35 -18 -73 -68 -73
-96 0 -35 82 -113 134 -129 26 -7 51 -22 57 -32 5 -11 18 -19 28 -19 31 0 46
-26 32 -56 -18 -40 -13 -58 22 -90 48 -44 110 -74 154 -74 53 0 117 43 149
101 33 57 26 94 -27 148 -23 23 -37 42 -33 42 5 1 20 2 33 3 19 1 32 16 67 81
46 85 57 151 30 174 -17 14 -71 17 -104 6 -20 -7 -22 -5 -14 16 13 37 14 107
2 144 -8 25 -21 37 -51 49 -49 20 -69 20 -95 2 -19 -14 -20 -12 -20 58 0 39
-3 123 -8 186 -4 63 -9 153 -10 200 -2 47 -4 95 -5 108 -1 14 -10 26 -23 31
-21 8 -17 11 37 37 40 19 61 36 63 49 2 11 15 30 29 41 35 29 23 59 -33 87
-40 19 -49 20 -102 9 -32 -7 -76 -12 -97 -12 -48 0 -146 -30 -152 -47 -3 -7
-9 -13 -14 -13 -12 0 -11 97 1 105 5 3 36 13 67 21 32 8 79 23 105 34 75 32
165 36 156 8 -5 -15 56 -78 75 -78 20 0 27 20 15 43 -5 11 -5 17 1 17 6 0 13
11 17 24 5 21 10 23 48 19 39 -5 47 -2 85 32 33 30 41 44 41 72 0 42 -19 79
-62 120 -31 30 -40 33 -118 39 -47 3 -88 4 -91 0z m27 -66 c8 -8 19 -7 37 1
36 16 99 -2 126 -38 33 -40 27 -83 -13 -116 l-35 -27 -43 29 c-24 16 -53 41
-65 55 -29 33 -80 34 -161 6 -73 -27 -238 -70 -266 -70 -28 -1 -51 -20 -59
-50 -12 -46 -21 -52 -50 -39 -29 13 -39 34 -39 84 0 43 6 51 45 69 111 52 207
78 327 91 166 16 184 17 196 5z m-27 -364 c10 -12 3 -24 -33 -62 l-46 -47 -99
-5 -100 -5 -12 27 c-11 24 -10 30 14 54 23 22 41 28 119 38 129 16 144 16 157
0z m89 -824 l32 -29 -15 -49 c-9 -31 -30 -65 -55 -92 -34 -35 -39 -45 -30 -62
19 -36 110 -2 110 41 0 20 17 28 43 21 18 -4 25 -61 10 -76 -5 -4 -12 -26 -18
-49 -7 -30 -16 -43 -30 -45 -11 -1 -27 -15 -36 -31 -15 -25 -23 -29 -82 -34
-37 -3 -78 -14 -92 -23 -19 -12 -29 -14 -37 -6 -6 6 -17 8 -24 5 -15 -5 -109
36 -156 69 -19 13 -28 28 -28 47 0 54 44 68 86 26 47 -47 103 -22 63 28 -10
14 -19 29 -19 35 0 5 -9 17 -20 27 -52 47 -61 195 -11 195 34 0 60 -32 91
-113 33 -87 60 -118 86 -96 8 7 13 26 12 48 -5 97 1 132 31 162 37 36 49 36
89 1z m-27 -473 c49 -15 88 -54 71 -71 -7 -7 -12 -21 -12 -31 0 -28 -57 -77
-89 -77 -40 0 -111 64 -111 99 0 29 21 60 55 79 26 15 39 15 86 1z"/>
<path d="M15612 8218 c-17 -17 -15 -45 4 -52 19 -7 54 10 54 27 0 16 -20 37
-35 37 -6 0 -16 -5 -23 -12z"/>
<path d="M7458 8210 c-37 -5 -72 -11 -78 -15 -6 -4 -11 -30 -10 -58 0 -29 -5
-88 -10 -132 -6 -44 -11 -97 -10 -119 0 -21 -4 -44 -10 -52 -9 -10 -5 -24 15
-58 34 -58 48 -69 98 -75 l42 -6 8 -60 c4 -33 9 -94 11 -136 2 -42 7 -82 11
-89 9 -15 17 -115 15 -198 -1 -35 4 -69 10 -77 7 -8 9 -19 5 -25 -3 -5 2 -10
13 -10 32 0 42 55 26 146 -21 118 -42 331 -41 399 l2 60 45 8 c67 12 112 28
143 50 33 25 36 65 7 137 -11 27 -18 50 -15 50 2 0 -9 31 -25 69 -28 70 -46
129 -42 145 2 4 -4 19 -12 32 -13 19 -20 21 -43 15 -16 -5 -37 -5 -48 0 -23 9
-19 9 -107 -1z m126 -69 c26 -5 31 -13 48 -76 10 -38 22 -79 27 -90 5 -11 12
-33 14 -50 3 -16 9 -39 13 -50 8 -20 8 -20 -20 -1 -21 13 -47 18 -93 18 -77
-1 -141 -10 -149 -23 -3 -5 -10 -9 -16 -9 -11 0 -8 74 8 205 10 79 16 85 82
84 31 -1 70 -4 86 -8z m35 -319 c19 -9 36 -22 38 -28 8 -25 -100 -47 -123 -24
-6 6 -26 3 -56 -8 -82 -29 -96 22 -16 58 55 24 113 25 157 2z"/>
<path d="M12117 8189 c-15 -9 -87 -101 -87 -113 0 -18 30 -1 65 35 22 22 50
45 63 50 13 5 21 13 18 18 -9 14 -42 19 -59 10z"/>
<path d="M12656 8171 c-52 -30 -44 -41 31 -39 37 0 79 -1 92 -3 32 -5 36 12
11 39 -26 27 -91 29 -134 3z"/>
<path d="M2814 8153 c-17 -17 -17 -18 5 -21 27 -4 47 11 37 27 -10 16 -22 14
-42 -6z"/>
<path d="M14475 8157 c-29 -18 -44 -39 -45 -63 0 -42 90 -144 207 -236 29 -22
78 -73 109 -114 31 -41 59 -74 61 -74 29 0 96 27 104 42 12 22 -8 88 -27 88
-6 0 -24 17 -40 38 -16 20 -72 80 -124 133 -52 52 -107 109 -122 125 -74 78
-85 84 -123 61z m152 -179 c23 -24 58 -58 78 -77 37 -36 41 -53 5 -28 -51 36
-170 149 -164 158 8 13 32 -3 81 -53z m164 -180 c11 -21 11 -22 -4 -9 -10 7
-17 17 -17 22 0 15 9 10 21 -13z"/>
<path d="M1761 8130 c-22 -16 -23 -23 -21 -116 6 -293 4 -359 -13 -385 -17
-25 -16 -26 16 -50 29 -22 41 -24 134 -23 112 1 124 5 190 71 l37 38 5 110 c9
214 5 269 -24 320 -21 34 -33 45 -53 46 -185 8 -250 6 -271 -11z m248 -49 c10
-6 16 -30 17 -65 2 -53 -6 -70 -22 -45 -4 7 -21 9 -46 5 -44 -7 -44 8 -1 25
23 9 25 13 19 49 -6 42 3 50 33 31z m-149 -8 c0 -4 -10 -17 -21 -30 l-22 -22
31 -29 c36 -34 33 -42 -16 -42 l-34 0 5 63 c3 34 6 63 7 65 1 6 50 1 50 -5z
m93 -243 c-2 -68 10 -97 28 -69 5 8 9 32 9 54 0 51 10 86 21 79 10 -6 12 -106
3 -153 -5 -25 -10 -30 -26 -25 -13 4 -27 -3 -43 -20 -34 -37 -80 -36 -100 4
-16 32 -18 62 -9 134 8 53 23 64 84 65 l35 1 -2 -70z m52 -180 c-10 -11 -23
-20 -29 -20 -6 1 0 10 13 20 30 26 39 26 16 0z"/>
<path d="M8349 8130 c-37 -15 -84 -20 -235 -25 -113 -4 -199 -11 -214 -18 -29
-14 -38 -42 -16 -50 28 -11 399 15 433 30 17 8 44 16 58 18 31 3 70 38 61 54
-10 15 -34 13 -87 -9z"/>
<path d="M6245 8101 c-33 -10 -94 -33 -135 -52 -67 -30 -85 -33 -170 -35 -134
-1 -166 -23 -120 -81 40 -51 36 -54 -120 -78 -58 -9 -113 -20 -122 -26 -10 -5
-28 -9 -40 -9 -13 0 -52 -7 -88 -16 -36 -9 -105 -16 -154 -17 -72 -2 -91 -5
-100 -19 -8 -14 -7 -22 7 -35 16 -17 20 -17 66 0 27 9 58 17 70 17 12 0 48 9
80 20 48 16 88 20 212 21 107 0 164 5 187 15 33 13 33 13 47 -20 8 -19 17 -71
21 -117 4 -46 11 -90 17 -96 20 -26 52 -13 109 47 61 63 97 78 152 62 16 -4
35 -17 43 -29 13 -19 12 -23 -7 -41 -11 -10 -39 -28 -60 -38 -45 -21 -51 -51
-10 -46 46 4 80 24 80 44 0 16 5 19 25 14 19 -5 28 -1 40 17 8 14 13 32 9 41
-4 11 1 22 15 32 24 18 27 41 7 70 -8 11 -17 37 -21 57 -6 29 -4 37 8 37 8 0
21 -7 28 -17 20 -23 89 -53 126 -53 60 0 147 102 145 169 -2 60 -110 151 -180
151 -15 0 -37 7 -48 15 -24 18 -45 18 -119 -4z m179 -79 c45 -12 106 -67 106
-97 0 -31 -60 -92 -97 -99 -31 -5 -61 12 -113 64 -3 3 -20 13 -39 23 -30 16
-36 16 -49 4 -12 -13 -12 -27 1 -106 8 -50 12 -91 10 -91 -2 0 -14 7 -26 15
-52 33 -173 7 -230 -50 -15 -15 -29 -26 -30 -24 -9 13 -27 106 -28 142 -1 23
-4 53 -8 67 -13 44 -2 68 32 73 18 2 55 12 82 20 28 9 70 21 95 27 25 6 59 16
75 22 83 28 140 31 219 10z"/>
<path d="M12640 8076 c-10 -13 -9 -24 9 -61 12 -25 25 -45 31 -45 37 0 31 113
-6 118 -12 2 -26 -4 -34 -12z"/>
<path d="M12135 8035 c-36 -34 -46 -48 -37 -57 8 -8 17 -7 34 4 41 27 78 67
78 83 0 26 -24 17 -75 -30z"/>
<path d="M12230 8016 c-10 -24 -23 -47 -29 -50 -6 -4 -11 -16 -11 -27 0 -10
-4 -19 -10 -19 -5 0 -10 -7 -10 -15 0 -23 16 -18 54 15 38 33 81 113 71 130
-16 25 -46 9 -65 -34z"/>
<path d="M12535 8040 c-4 -6 1 -33 10 -60 9 -27 14 -59 10 -70 -4 -13 -2 -20
7 -20 38 0 50 62 24 125 -15 34 -38 46 -51 25z"/>
<path d="M14352 8011 c-12 -21 -29 -44 -37 -51 -21 -17 -19 -43 5 -65 11 -10
20 -24 20 -30 0 -26 118 -133 203 -184 20 -13 42 -33 49 -44 6 -12 34 -48 61
-79 57 -67 80 -72 133 -32 37 28 43 54 18 75 -13 10 -20 10 -44 -5 -38 -22
-58 -11 -102 52 -35 52 -66 81 -85 82 -7 0 -13 4 -13 9 0 5 -23 23 -50 41 -61
39 -130 115 -130 143 0 18 6 16 43 -19 23 -23 56 -51 72 -63 60 -45 119 -97
185 -164 61 -62 70 -68 89 -58 25 14 27 35 5 53 -18 14 -114 102 -193 178 -25
25 -63 56 -83 70 -38 25 -58 57 -58 90 0 19 -27 40 -53 40 -7 0 -23 -17 -35
-39z"/>
<path d="M12397 7993 c-11 -10 -8 -62 4 -85 8 -15 8 -27 0 -44 -8 -19 -8 -24
3 -24 21 0 39 27 33 50 -3 11 -2 35 3 54 5 22 4 38 -3 45 -12 12 -30 14 -40 4z"/>
<path d="M4940 7970 c-7 -14 -17 -19 -29 -15 -24 7 -70 -11 -78 -31 -3 -8 0
-26 7 -38 6 -13 10 -45 8 -71 -4 -55 17 -80 47 -55 14 12 16 25 11 72 -7 57
-7 58 18 58 27 0 56 -41 56 -78 0 -10 3 -22 7 -25 3 -4 8 -23 10 -44 3 -29 -2
-44 -27 -74 -16 -21 -30 -42 -30 -47 0 -19 39 -19 68 -2 42 26 56 75 48 169
-10 113 -21 151 -52 178 -33 28 -50 29 -64 3z"/>
<path d="M12292 7968 c-7 -7 -12 -38 -12 -70 0 -51 2 -58 19 -58 26 0 27 4 36
78 6 57 5 62 -12 62 -10 0 -24 -5 -31 -12z"/>
<path d="M4593 7954 c-3 -8 -1 -20 6 -27 6 -6 11 -22 11 -35 0 -19 -3 -22 -13
-14 -13 11 -86 13 -282 8 -130 -3 -122 0 -145 -46 -27 -53 -25 -70 16 -103 29
-25 45 -33 75 -36 4 -1 17 -12 30 -25 44 -44 93 -64 294 -123 61 -18 145 -11
233 18 56 19 112 55 112 73 0 13 -67 5 -115 -13 -27 -10 -80 -22 -116 -25 -57
-6 -76 -4 -140 19 -41 15 -93 32 -117 37 -29 7 -59 25 -94 58 -36 34 -63 51
-90 55 -44 8 -56 21 -37 40 10 10 52 15 159 16 80 1 152 0 160 -1 9 -2 28 0
43 4 25 6 27 4 27 -24 0 -33 24 -50 42 -32 7 7 11 42 11 79 -1 65 -1 67 12 38
8 -16 14 -56 15 -87 0 -60 7 -72 35 -62 13 5 16 18 14 55 -2 27 0 52 4 55 4 4
7 3 8 -2 5 -69 17 -91 44 -80 14 5 16 13 9 44 -4 20 -10 57 -13 82 -6 42 -8
45 -34 43 -15 -1 -27 2 -27 8 0 15 -42 10 -61 -7 -16 -14 -18 -14 -24 5 -8 25
-43 28 -52 5z"/>
<path d="M12480 7925 c-9 -11 -10 -19 -3 -26 7 -7 14 -5 23 6 9 11 10 19 3 26
-7 7 -14 5 -23 -6z"/>
<path d="M13353 7855 c-39 -17 -63 -61 -63 -114 0 -31 6 -43 28 -60 15 -11 23
-21 17 -21 -5 -1 -35 -2 -66 -3 l-56 -2 30 38 c17 21 32 48 33 60 6 56 -41
107 -100 107 -29 0 -81 -41 -99 -79 -19 -39 -10 -67 34 -102 l41 -32 -53 -26
c-46 -22 -58 -35 -86 -86 -20 -38 -32 -75 -32 -101 -1 -22 -4 -44 -8 -48 -16
-15 -31 -123 -23 -164 7 -40 39 -95 79 -139 30 -32 132 -76 187 -81 46 -4 59
0 132 43 45 26 84 50 87 55 6 9 -21 40 -36 40 -19 0 -8 47 16 70 31 30 29 59
-6 79 -23 13 -30 12 -73 -9 -26 -12 -50 -29 -53 -36 -3 -8 7 -28 21 -45 37
-44 34 -52 -21 -46 -34 3 -50 1 -58 -9 -18 -25 -55 -4 -91 52 -18 30 -34 61
-34 69 0 22 79 63 162 84 42 10 80 21 86 25 19 12 114 -26 153 -61 34 -31 43
-34 62 -25 12 6 32 14 44 17 31 9 43 58 28 110 -7 22 -18 60 -25 85 -32 116
-61 149 -127 150 -42 0 -57 12 -29 23 24 10 49 74 43 111 -9 58 -34 86 -76 86
-20 -1 -50 -7 -68 -15z m85 -57 c33 -33 1 -68 -62 -68 -42 0 -46 15 -15 54 22
27 57 34 77 14z m-237 -8 c23 -13 24 -27 3 -68 -19 -38 -33 -40 -63 -8 -20 21
-21 27 -10 48 20 38 37 45 70 28z m314 -221 c20 -20 27 -42 38 -122 8 -53 12
-99 9 -101 -2 -3 -18 8 -35 24 -19 18 -55 35 -93 46 -58 15 -67 15 -141 -1
-43 -9 -106 -27 -140 -41 -90 -35 -94 -34 -91 29 1 28 -1 61 -5 72 -5 15 2 31
24 58 46 56 95 67 267 64 136 -3 144 -4 167 -28z m-467 -355 c38 -62 68 -97
99 -119 30 -21 33 -25 13 -20 -57 17 -71 26 -109 74 -42 54 -57 97 -45 133 6
20 8 18 21 -17 8 -22 18 -45 21 -51z"/>
<path d="M10025 7811 c-43 -11 -92 -38 -98 -54 -3 -8 -1 -32 4 -53 4 -22 9
-42 9 -45 0 -3 -19 -11 -42 -18 -48 -14 -108 -56 -108 -74 0 -7 12 -30 26 -50
14 -21 24 -40 22 -42 -1 -1 -19 -10 -38 -20 -54 -27 -70 -45 -70 -80 0 -26 10
-42 48 -77 27 -25 58 -49 70 -52 15 -5 22 -15 22 -33 0 -27 25 -53 83 -84 45
-24 91 -18 117 14 17 20 17 20 73 -25 45 -37 62 -45 81 -40 29 9 106 77 106
95 0 8 9 22 20 32 11 10 20 23 19 29 -3 28 3 36 30 36 62 0 113 100 81 160 -7
13 -5 24 10 43 33 42 23 66 -42 106 -41 24 -46 35 -24 48 8 4 17 20 21 34 5
21 -3 36 -46 87 -28 34 -60 64 -71 68 -25 8 -75 -4 -81 -20 -3 -8 -17 -16 -31
-20 -19 -5 -31 0 -50 19 -26 26 -75 32 -141 16z m346 -87 c9 -11 19 -26 22
-35 7 -20 -35 -67 -69 -75 -28 -7 -51 -41 -36 -56 5 -5 32 -11 60 -13 54 -5
92 -22 92 -41 0 -23 -30 -37 -69 -31 -31 4 -44 1 -57 -14 -16 -18 -16 -21 -2
-35 9 -9 40 -19 69 -22 41 -5 55 -11 57 -25 5 -28 -17 -47 -54 -47 -26 0 -41
8 -65 35 -33 36 -62 51 -79 40 -6 -4 0 -15 15 -27 17 -14 23 -26 20 -41 -6
-26 2 -40 33 -56 12 -6 22 -17 22 -24 -1 -20 -65 -101 -92 -116 -23 -12 -29
-11 -57 10 -29 21 -30 24 -24 79 4 38 2 60 -6 64 -20 13 -48 -4 -61 -35 -17
-41 -64 -89 -87 -89 -10 0 -27 7 -37 15 -19 15 -19 16 19 51 38 35 39 36 20
50 -11 8 -26 12 -35 8 -44 -17 -80 -16 -114 6 -83 51 -91 102 -19 114 21 4 58
10 83 14 38 6 45 11 45 29 0 17 -12 29 -45 45 -61 31 -66 61 -14 83 31 13 44
13 66 4 15 -6 34 -9 43 -5 20 7 19 45 -1 67 -9 10 -19 34 -24 53 -10 43 -1 50
77 60 51 6 53 6 68 -23 8 -17 15 -36 15 -44 0 -8 7 -20 15 -27 12 -10 20 -9
40 4 14 9 25 21 25 27 0 16 39 63 58 70 18 7 55 -15 83 -47z"/>
<path d="M10120 7573 c-8 -3 -25 -15 -37 -26 -41 -37 -23 -156 25 -171 25 -8
93 1 106 14 5 5 12 38 14 73 4 61 3 64 -28 90 -31 26 -50 31 -80 20z m44 -59
c16 -6 22 -49 9 -57 -5 -2 -20 -7 -35 -11 -24 -5 -28 -3 -28 16 0 12 7 30 17
40 18 21 16 20 37 12z"/>
<path d="M14469 7676 c-7 -7 -112 -15 -279 -22 -91 -3 -187 -9 -215 -13 -27
-3 -99 -3 -160 1 -97 7 -111 6 -122 -8 -10 -14 -8 -21 13 -39 23 -20 34 -22
117 -18 51 2 126 6 167 10 41 4 79 6 84 4 5 -1 88 3 185 10 206 13 192 13 211
8 10 -3 15 5 16 28 2 30 -7 49 -17 39z"/>
<path d="M6024 7569 c-3 -6 1 -18 10 -27 15 -15 17 -15 34 1 15 16 15 19 2 27
-20 13 -37 12 -46 -1z"/>
<path d="M6110 7475 c-6 -7 -9 -28 -6 -47 11 -63 14 -276 6 -314 -11 -49 4
-70 41 -55 23 8 25 13 22 77 -1 38 -5 83 -8 99 -2 17 -5 68 -5 115 -1 47 -4
95 -7 107 -6 27 -28 36 -43 18z"/>
<path d="M4725 7420 c-3 -5 -1 -18 4 -29 6 -10 12 -68 15 -128 2 -67 10 -128
21 -161 12 -36 14 -57 8 -63 -7 -7 -7 -18 1 -35 14 -29 24 -34 54 -23 21 8 22
13 16 61 -4 29 -15 71 -25 94 -10 23 -18 67 -19 105 -1 35 -7 92 -13 127 -9
55 -13 62 -33 62 -13 0 -26 -4 -29 -10z"/>
<path d="M7581 7069 c-23 -4 -64 -21 -90 -36 -25 -15 -72 -40 -103 -55 -31
-15 -68 -42 -81 -60 -59 -80 -84 -218 -52 -293 23 -56 110 -141 180 -175 54
-26 72 -30 147 -30 58 0 108 7 154 21 63 19 75 27 146 102 42 44 76 88 76 96
0 9 3 30 7 46 28 113 12 162 -82 259 -50 50 -87 78 -140 102 -75 35 -89 37
-162 23z m167 -77 c92 -49 182 -151 182 -207 0 -12 -7 -14 -27 -9 l-28 5 23
-19 c26 -24 28 -44 6 -77 -9 -14 -13 -32 -10 -41 5 -12 -11 -34 -51 -74 -50
-49 -68 -61 -130 -79 -135 -40 -253 -20 -333 58 -72 70 -94 120 -85 195 4 35
17 78 31 101 13 22 26 48 30 57 3 10 23 23 43 28 20 6 70 28 111 50 97 51 159
54 238 12z"/>
<path d="M7616 6974 c3 -12 1 -25 -5 -28 -6 -4 -11 -11 -11 -17 0 -17 26 -9
49 14 26 29 19 57 -15 55 -19 -2 -22 -7 -18 -24z"/>
<path d="M7504 6943 c-10 -16 -17 -37 -16 -48 0 -11 -6 -30 -14 -42 -17 -27
-8 -29 24 -7 13 9 22 24 20 34 -2 10 5 27 16 39 18 19 16 51 -3 51 -5 0 -17
-12 -27 -27z"/>
<path d="M7766 6894 c-10 -25 -7 -44 7 -44 16 0 40 38 32 50 -9 15 -32 12 -39
-6z"/>
<path d="M7393 6845 c-3 -9 -3 -18 0 -22 10 -10 37 6 37 22 0 20 -29 20 -37 0z"/>
<path d="M7585 6851 c-68 -17 -104 -52 -112 -109 -4 -33 -1 -44 26 -74 40 -46
80 -62 138 -55 50 5 82 34 83 74 0 12 5 25 10 28 16 10 12 36 -12 87 -27 57
-55 68 -133 49z m89 -84 c8 -22 6 -32 -10 -54 -11 -14 -27 -31 -35 -36 -21
-13 -69 0 -69 19 0 8 -4 13 -9 10 -13 -8 -20 29 -9 48 13 23 66 46 98 43 17
-1 28 -11 34 -30z"/>
<path d="M7812 6808 c-15 -15 -16 -38 -2 -38 12 0 23 25 18 40 -2 7 -7 7 -16
-2z"/>
<path d="M7344 6719 c-6 -10 11 -28 28 -29 17 0 17 20 -1 30 -14 7 -22 7 -27
-1z"/>
<path d="M7461 6631 c-40 -10 -38 -31 3 -31 25 0 36 5 36 14 0 20 -10 24 -39
17z"/>
<path d="M7736 6621 c-3 -5 1 -14 8 -21 12 -9 17 -7 26 9 9 18 8 21 -9 21 -11
0 -22 -4 -25 -9z"/>
<path d="M7618 6559 c-24 -13 -23 -26 3 -39 28 -16 77 14 58 36 -13 16 -37 18
-61 3z"/>
<path d="M6205 7028 c-55 -16 -113 -30 -129 -29 -35 0 -104 -53 -112 -86 -7
-26 -77 -93 -99 -93 -8 0 -19 -9 -25 -19 -13 -26 -13 -122 1 -158 16 -41 37
-172 37 -226 0 -76 28 -94 88 -58 16 10 46 21 65 24 19 3 68 10 109 17 41 6
98 18 126 26 28 8 63 14 77 14 22 0 27 5 27 23 0 13 9 42 20 65 11 22 20 46
20 52 0 6 12 33 26 60 41 78 15 91 -81 38 l-58 -31 6 24 c13 60 48 176 57 191
6 10 10 26 11 35 0 21 39 -94 39 -118 0 -23 23 -50 37 -41 9 6 8 31 -3 107 -9
55 -17 110 -18 122 -3 27 -24 53 -42 53 -17 0 -34 -31 -34 -63 0 -13 -18 -49
-40 -81 -22 -31 -40 -65 -40 -75 0 -9 -10 -45 -21 -80 -17 -49 -19 -65 -9 -71
19 -12 2 -30 -27 -30 -20 0 -24 4 -18 18 6 16 44 150 65 231 5 19 7 38 4 43
-10 16 36 86 61 92 20 5 26 12 23 29 -4 31 -27 30 -143 -5z m-11 -83 c-4 -8
-8 -15 -10 -15 -2 0 -4 7 -4 15 0 8 4 15 10 15 5 0 7 -7 4 -15z m-95 -37 c0
-13 -4 -32 -9 -43 -7 -18 -10 -16 -24 17 -21 48 -21 48 9 48 19 0 25 -5 24
-22z m62 -107 c-7 -37 -31 -55 -31 -24 0 18 29 68 35 61 2 -2 0 -19 -4 -37z
m-135 5 c3 -8 -4 -27 -15 -43 -12 -16 -25 -51 -29 -79 -8 -47 -39 -114 -53
-114 -16 0 -15 41 2 67 22 32 27 65 7 45 -7 -7 -16 -12 -20 -12 -13 0 -9 85 4
98 20 20 27 13 21 -23 -10 -65 40 -28 52 38 7 38 21 48 31 23z m118 -134 c-7
-33 -34 -45 -34 -15 0 16 30 57 37 50 2 -2 0 -18 -3 -35z m-95 -49 c11 -23 10
-29 -7 -42 -11 -9 -25 -27 -32 -39 -17 -34 -20 -24 -9 33 15 85 26 96 48 48z
m335 -18 c3 -8 -6 -31 -19 -51 -14 -20 -25 -41 -25 -45 0 -11 -40 -32 -48 -25
-7 8 38 108 57 124 19 16 28 15 35 -3z m-130 -72 c-8 -49 -25 -66 -67 -67 -19
-1 -41 -7 -48 -13 -13 -10 -86 -43 -96 -43 -3 0 4 15 15 33 11 17 23 45 27 62
9 40 23 55 51 55 19 0 24 -5 24 -26 0 -32 20 -27 38 9 9 19 21 27 38 27 23 0
24 -2 18 -37z m-286 -73 c-7 -10 -14 -17 -17 -15 -4 4 18 35 25 35 2 0 -1 -9
-8 -20z m12 -34 c0 -3 -4 -8 -10 -11 -5 -3 -10 -1 -10 4 0 6 5 11 10 11 6 0
10 -2 10 -4z"/>
<path d="M13153 6943 c-23 -48 -15 -133 12 -133 21 0 45 -118 47 -230 2 -106
-2 -162 -16 -235 -8 -40 -7 -41 29 -60 36 -20 37 -20 51 -1 8 11 12 27 10 35
-3 9 -8 90 -11 181 -7 181 -8 198 -18 220 -3 8 -8 47 -11 85 -3 39 -8 86 -12
105 -12 61 -59 80 -81 33z"/>
<path d="M4988 6925 c-10 -10 -119 -35 -153 -35 -19 0 -46 5 -60 12 -21 10
-31 9 -54 -5 -15 -9 -50 -23 -77 -33 -89 -29 -121 -82 -111 -180 9 -88 73
-144 162 -144 35 0 35 -1 35 -43 0 -42 21 -87 41 -87 6 0 23 -9 37 -21 23 -18
35 -20 87 -14 99 11 178 60 189 117 2 14 10 36 16 48 13 25 13 25 -30 140 -25
66 -33 102 -34 160 0 41 -5 78 -11 82 -12 9 -29 10 -37 3z m21 -107 c-1 -24 3
-81 10 -127 7 -46 10 -85 8 -87 -2 -2 -39 1 -83 6 -53 7 -91 7 -114 0 -19 -5
-35 -10 -36 -10 -1 0 -6 12 -12 28 -11 26 -17 122 -14 191 2 31 4 33 30 29 22
-4 120 1 200 10 8 2 12 -11 11 -40z m-319 -17 c0 -13 -22 -27 -52 -35 -34 -8
-37 7 -6 28 24 17 58 21 58 7z m14 -77 c8 -20 8 -24 -1 -24 -17 0 -35 19 -29
29 10 16 23 14 30 -5z m-3 -86 c20 -15 22 -19 9 -27 -8 -6 -24 -11 -34 -11
-25 0 -66 38 -66 61 0 15 4 15 33 5 18 -6 44 -19 58 -28z m253 -88 c21 -5 48
-17 58 -28 19 -19 19 -20 0 -53 -21 -38 -43 -47 -127 -48 -70 -1 -85 9 -85 56
0 69 57 96 154 73z"/>
<path d="M7090 6770 c-19 -5 -64 -11 -100 -14 -36 -2 -72 -7 -80 -10 -25 -9
-81 -15 -180 -22 -132 -9 -171 -16 -184 -37 -16 -25 9 -39 59 -32 82 12 113
15 245 30 262 28 311 41 296 80 -6 17 -6 17 -56 5z"/>
<path d="M4340 6750 c-36 -3 -74 -11 -85 -17 -14 -8 -70 -10 -177 -7 -128 3
-158 1 -168 -10 -18 -23 -8 -49 22 -57 23 -6 287 13 328 24 44 11 95 19 138
22 52 2 102 19 102 34 0 12 -78 17 -160 11z"/>
<path d="M11287 6560 c-65 -11 -110 -43 -154 -109 -43 -64 -54 -113 -38 -167
21 -68 50 -108 109 -149 54 -37 61 -40 129 -39 103 0 181 16 212 42 37 30 75
113 82 174 12 115 -48 191 -189 235 -78 25 -79 25 -151 13z m43 -60 c0 -5 -7
-10 -15 -10 -8 0 -15 5 -15 10 0 6 7 10 15 10 8 0 15 -4 15 -10z m175 -64 c0
-10 -9 -25 -21 -33 -18 -11 -23 -11 -32 0 -9 10 -7 19 6 35 20 26 47 25 47 -2z
m-269 -25 c7 -13 18 -27 24 -31 23 -15 1 -29 -30 -20 -35 10 -35 10 -55 10
-19 0 -19 20 1 48 19 28 44 25 60 -7z m168 -77 c13 -33 -30 -56 -64 -34 -12 7
-12 12 4 29 23 25 51 27 60 5z m-230 -40 c18 -7 21 -30 5 -40 -12 -7 -29 12
-29 34 0 14 2 14 24 6z m271 -97 c26 -20 10 -37 -28 -30 -42 7 -56 21 -37 33
21 14 43 12 65 -3z"/>
<path d="M10090 6506 c-14 -9 -34 -19 -45 -25 -36 -16 -43 -33 -38 -91 6 -68
6 -90 4 -160 -2 -30 2 -109 8 -174 13 -135 22 -150 81 -141 19 3 75 10 123 16
l88 12 25 48 c13 27 24 59 24 73 0 14 4 27 8 30 13 8 37 116 37 166 0 58 -48
133 -80 124 -35 -11 -40 -9 -37 8 4 23 -20 67 -50 94 -31 29 -114 40 -148 20z
m116 -68 c21 -16 26 -110 10 -150 -17 -39 -12 -97 8 -110 6 -4 21 -8 32 -8 23
0 34 23 34 71 0 32 32 75 48 65 26 -16 2 -165 -39 -238 -5 -10 -9 -24 -9 -33
0 -25 -42 -42 -122 -49 -43 -4 -78 -6 -79 -4 0 2 -3 62 -6 133 -2 72 -8 157
-13 190 -6 50 -4 67 13 102 13 26 28 43 41 45 28 4 68 -2 82 -14z"/>
<path d="M8892 6372 c-5 -16 -43 -66 -83 -110 -210 -232 -218 -253 -153 -399
35 -78 144 -97 233 -40 28 17 53 39 56 47 3 8 12 23 19 33 15 19 18 18 76 -15
46 -26 66 -29 110 -18 57 15 75 31 111 102 25 50 27 60 17 90 -17 50 -40 79
-117 143 -69 58 -163 115 -187 115 -12 0 -34 -29 -34 -44 0 -2 37 -24 81 -48
129 -68 186 -127 204 -209 10 -45 -32 -106 -81 -115 -50 -9 -128 23 -132 54
-2 12 -7 22 -12 22 -5 0 -10 12 -12 28 -4 39 -40 37 -48 -3 -22 -105 -141
-188 -204 -142 -19 14 -56 99 -56 128 0 28 74 136 152 221 112 122 121 135
114 163 -9 35 -41 33 -54 -3z"/>
<path d="M10731 6328 c-64 -10 -132 -15 -151 -12 -27 4 -40 0 -52 -13 -15 -17
-16 -21 -1 -51 14 -29 43 -45 43 -22 0 5 17 12 38 15 20 3 64 11 97 17 33 6
74 12 90 13 63 4 152 17 163 24 6 4 9 17 6 29 -6 19 -12 21 -62 19 -30 -1
-108 -10 -171 -19z"/>
<path d="M4954 6309 c-13 -22 -16 -127 -8 -329 4 -127 5 -162 1 -235 -2 -24 2
-30 18 -30 18 1 20 -7 24 -70 8 -147 10 -140 -24 -137 -193 16 -202 16 -257
-13 -70 -37 -151 -110 -232 -208 -67 -82 -178 -301 -200 -396 -13 -57 -13 -62
4 -71 10 -6 21 -10 24 -10 3 0 14 30 26 68 11 37 29 86 40 109 11 24 20 47 20
52 0 5 16 30 35 55 19 26 35 52 36 59 1 20 53 100 68 105 10 3 12 -3 8 -24 -7
-40 8 -74 35 -74 42 0 88 23 88 45 0 29 64 77 97 73 26 -3 23 -6 -42 -63 -88
-76 -266 -267 -282 -303 -6 -15 -36 -49 -67 -77 -31 -27 -56 -55 -56 -61 0
-21 35 -43 58 -37 12 3 22 9 22 14 0 5 14 23 30 41 17 17 30 35 30 40 0 26 43
68 68 68 35 0 72 26 72 50 0 13 -5 17 -20 13 -11 -3 -20 -1 -20 5 0 14 40 42
61 42 9 0 50 34 90 75 81 83 177 159 160 127 -6 -11 -10 -39 -9 -63 0 -24 -2
-84 -6 -134 -5 -75 -3 -101 15 -157 11 -37 29 -77 39 -90 10 -13 24 -39 33
-59 19 -47 75 -109 96 -109 10 0 23 11 29 25 17 36 15 45 -9 45 -25 0 -35 10
-80 80 -64 101 -73 129 -65 227 3 49 14 116 23 151 20 76 8 118 -30 109 -18
-5 -15 0 13 24 19 16 37 29 41 29 9 0 29 -57 22 -64 -3 -3 6 -11 21 -17 31
-15 33 -30 5 -55 -11 -10 -25 -26 -30 -35 -18 -35 34 -129 71 -129 17 0 81 62
99 97 18 36 13 70 -14 91 -23 19 -24 20 -6 36 19 17 36 22 27 7 -4 -5 -1 -11
5 -13 6 -2 20 -28 32 -58 43 -114 20 -289 -50 -373 -13 -16 -23 -32 -23 -37 0
-5 -3 -16 -6 -25 -6 -14 -3 -14 23 2 42 26 87 80 113 138 19 42 23 66 22 148
-1 93 -8 128 -44 217 -20 48 -25 55 -47 58 -16 3 -21 10 -21 32 0 16 -4 31 -9
34 -9 6 -31 109 -36 171 -10 105 -7 152 9 176 9 15 17 48 17 79 2 51 0 55 -46
97 -30 28 -54 43 -65 40 -15 -4 -18 6 -24 82 -4 47 -6 121 -6 164 1 54 -4 89
-15 113 -9 19 -13 39 -10 44 3 6 4 10 1 10 -3 0 -8 -5 -12 -11z m-9 -870 c5
-6 2 -9 -9 -9 -24 0 -155 -66 -180 -90 -19 -18 -20 -18 -38 5 -11 14 -31 25
-51 27 -32 3 -32 3 28 37 33 19 74 38 90 41 36 9 146 1 160 -11z m-314 -166
c-7 -27 -31 -44 -31 -22 0 11 28 49 36 49 1 0 -1 -12 -5 -27z m449 -161 c0
-14 -11 -21 -26 -15 -8 3 -11 9 -8 14 7 11 34 12 34 1z m-424 -40 c-16 -15
-25 -20 -21 -12 13 25 38 50 44 45 3 -3 -8 -18 -23 -33z"/>
<path d="M9880 6279 c-19 -4 -109 -13 -198 -19 -90 -7 -182 -18 -203 -25 -69
-25 -86 -56 -49 -90 19 -17 21 -17 38 -2 10 10 24 17 31 17 6 0 24 8 38 17 15
10 56 21 92 25 99 12 129 16 211 28 41 6 85 11 97 11 24 -1 40 16 27 29 -16
14 -48 18 -84 9z"/>
<path d="M3426 6191 c-4 -5 -6 -22 -6 -38 -1 -15 -1 -39 -1 -53 0 -14 3 -64 7
-111 4 -59 3 -89 -5 -93 -15 -10 -14 -38 4 -72 11 -21 14 -44 9 -82 -7 -59 5
-82 41 -82 38 0 47 21 31 68 -16 45 -23 95 -31 212 -3 41 -9 102 -14 135 -6
33 -9 73 -8 89 2 29 -16 46 -27 27z"/>
<path d="M7713 6158 c-6 -7 -13 -24 -15 -37 -2 -17 -12 -27 -30 -32 -15 -4
-40 -16 -56 -28 -16 -11 -32 -18 -36 -14 -10 10 -7 48 5 60 8 8 8 17 0 32 -13
24 -19 25 -75 9 -57 -16 -69 -27 -62 -58 4 -22 -5 -37 -47 -84 l-52 -58 -13
46 c-6 25 -18 46 -25 46 -20 0 -37 -21 -37 -45 0 -13 -18 -38 -45 -62 -41 -37
-44 -42 -38 -79 3 -21 12 -49 20 -62 8 -13 12 -29 10 -36 -13 -34 43 -116 126
-184 11 -10 36 -8 116 7 56 11 105 22 110 26 5 3 11 1 13 -5 2 -6 21 -3 48 6
25 9 59 14 75 11 21 -4 38 1 56 17 37 30 102 152 94 176 -3 11 -1 29 5 40 9
17 8 25 -5 40 -13 14 -18 41 -20 107 -3 118 -25 167 -76 171 -21 2 -40 -2 -46
-10z m-178 -127 c-4 -20 -9 -40 -12 -45 -9 -13 -32 36 -25 53 18 53 47 46 37
-8z m175 5 c0 -14 -116 -63 -127 -53 -9 10 17 37 36 37 9 0 21 4 27 9 8 8 31
16 57 20 4 0 7 -5 7 -13z m82 -2 c2 -9 1 -39 -1 -66 -2 -39 -6 -48 -19 -46
-23 4 -26 31 -11 84 14 46 25 56 31 28z m-354 -96 c-12 -18 -28 -42 -34 -53
-6 -11 -19 -21 -28 -23 -22 -5 -22 36 1 45 9 4 30 22 46 40 37 42 47 36 15 -9z
m260 9 c18 -21 -17 -54 -66 -62 -43 -7 -44 -7 -40 21 2 23 10 32 38 41 46 16
55 16 68 0z m-409 -157 l2 -65 -21 33 c-23 37 -25 69 -8 107 11 24 13 25 19 8
3 -10 7 -47 8 -83z m147 35 c-14 -11 -26 -24 -26 -28 0 -4 -16 -29 -36 -57
-25 -35 -42 -50 -57 -49 -21 1 -21 2 -2 6 28 7 46 32 39 59 -4 17 1 26 25 40
17 10 31 21 31 25 0 3 10 19 22 35 20 25 23 26 27 9 2 -12 -7 -27 -23 -40z
m360 16 c-5 -8 -82 -26 -151 -35 -16 -2 -42 -7 -57 -11 -16 -4 -36 -4 -45 -1
-26 10 3 26 47 26 19 0 55 7 80 14 50 16 134 21 126 7z m-55 -115 c-12 -12
-21 -29 -21 -37 0 -12 -13 -16 -51 -17 -28 0 -76 -10 -108 -21 -31 -11 -70
-21 -87 -23 -26 -3 -29 0 -32 29 -3 29 1 34 32 47 20 8 36 20 36 26 0 6 17 10
43 9 41 -1 137 8 144 14 1 2 17 2 34 -1 l30 -4 -20 -22z"/>
<path d="M13172 6161 c-11 -7 -13 -36 -7 -152 4 -79 10 -148 13 -154 3 -5 8
-27 9 -47 3 -31 1 -38 -13 -38 -10 0 -26 -8 -36 -17 -19 -17 -119 -53 -148
-53 -8 0 -28 -11 -44 -25 -16 -14 -35 -25 -43 -25 -24 0 -91 -49 -98 -72 -9
-26 24 -58 60 -58 12 0 39 -11 59 -25 20 -14 41 -25 46 -25 20 0 9 -18 -30
-54 -43 -39 -49 -56 -25 -76 13 -11 13 -16 -5 -45 -11 -18 -20 -42 -20 -54 0
-28 55 -85 75 -77 10 3 15 -1 15 -14 0 -11 10 -25 22 -31 20 -11 26 -8 59 30
42 47 54 50 87 19 16 -15 38 -24 65 -25 23 -1 51 -3 62 -5 17 -3 20 3 23 44 4
64 24 78 53 39 26 -36 74 -43 83 -13 5 14 16 17 68 15 35 -1 76 -5 91 -9 24
-5 33 -1 61 32 29 33 32 41 22 65 -8 24 -7 30 13 46 12 10 23 28 24 41 1 16 8
22 24 22 29 0 63 33 63 63 0 16 12 29 48 47 60 32 69 65 22 81 -28 10 -30 14
-24 44 6 36 -9 75 -30 75 -7 0 -26 10 -41 22 -22 17 -31 19 -46 10 -37 -23
-49 -15 -49 32 0 84 -74 102 -162 39 -29 -21 -54 -41 -56 -45 -2 -4 -29 -22
-59 -39 -54 -31 -57 -31 -69 -14 -8 11 -15 44 -15 74 -1 31 -3 100 -4 153 -1
53 -8 110 -15 127 -12 31 -33 40 -45 21 -11 -18 -21 -11 -30 22 -10 34 -30 45
-53 29z m76 -127 c1 -16 4 -56 6 -89 2 -33 6 -96 10 -140 3 -46 2 -86 -3 -95
-9 -13 -11 -13 -15 0 -7 23 -16 124 -22 249 -4 91 -3 112 8 109 7 -3 14 -18
16 -34z m377 -234 c3 -5 -2 -24 -12 -40 -13 -23 -15 -35 -7 -48 13 -20 82 -34
106 -21 23 12 65 11 74 -2 9 -15 -9 -31 -48 -44 -25 -8 -32 -15 -30 -30 2 -11
3 -34 3 -52 0 -18 4 -35 9 -38 6 -3 10 -13 10 -21 0 -12 -10 -15 -37 -14 -21
1 -44 2 -50 1 -17 -1 -16 -31 2 -55 16 -22 10 -42 -9 -27 -20 16 -59 -16 -52
-43 4 -15 -5 -32 -30 -59 -19 -20 -39 -37 -43 -37 -11 0 -74 34 -108 58 -27
19 -32 20 -43 6 -9 -9 -23 -13 -39 -9 -37 7 -56 -9 -56 -47 0 -30 -3 -33 -28
-30 -18 2 -29 -2 -33 -12 -9 -25 -31 -19 -54 14 -26 37 -42 38 -68 5 -17 -21
-28 -25 -70 -25 -28 0 -54 5 -57 11 -4 5 6 28 21 50 24 35 26 44 17 69 -12 31
-1 46 60 83 30 19 36 51 11 65 -8 5 -21 20 -27 33 -8 14 -23 25 -39 27 -43 5
-40 27 8 62 25 17 50 33 57 34 7 2 25 6 40 11 39 10 43 1 12 -28 -32 -29 -30
-61 3 -65 12 -2 43 4 68 14 27 10 49 13 54 8 5 -5 -1 -33 -15 -69 -29 -70 -31
-100 -9 -109 26 -10 52 12 76 64 13 28 27 50 32 50 4 0 29 -15 55 -34 77 -56
151 -69 151 -27 0 24 -88 104 -137 126 -26 11 -43 25 -43 35 0 24 11 32 27 18
11 -9 22 -3 53 27 21 21 41 48 44 60 4 16 16 26 35 30 16 3 35 13 42 21 13 16
65 19 74 4z m185 -220 c0 -13 -11 -13 -30 0 -12 8 -11 10 8 10 12 0 22 -4 22
-10z"/>
<path d="M11418 6069 c-25 -14 -24 -92 1 -128 18 -24 19 -37 11 -141 -8 -120
0 -165 30 -165 22 0 35 253 19 350 -16 92 -26 105 -61 84z"/>
<path d="M8945 5848 c-3 -8 -1 -26 4 -41 6 -14 7 -28 2 -31 -4 -3 -6 -99 -3
-213 2 -114 3 -238 3 -275 0 -68 3 -73 39 -68 33 4 38 18 23 73 -8 32 -15 138
-19 280 -3 125 -9 239 -13 254 -8 30 -28 42 -36 21z"/>
<path d="M10999 5567 c-63 -35 -99 -65 -99 -80 0 -6 -7 -19 -17 -29 -11 -13
-16 -38 -17 -84 -1 -65 0 -67 39 -101 l40 -35 87 5 87 4 50 49 c112 107 97
248 -29 283 -76 21 -83 20 -141 -12z m59 -75 c2 -7 -2 -10 -12 -6 -9 3 -16 11
-16 16 0 13 23 5 28 -10z m115 -26 c3 -8 3 -17 0 -20 -9 -9 -34 15 -27 25 8
13 21 11 27 -5z m-178 -8 c14 -6 24 -16 22 -22 -8 -24 -107 -56 -107 -35 0 13
42 69 51 69 5 0 20 -5 34 -12z m145 -83 c14 -16 6 -35 -16 -35 -8 0 -14 10
-14 25 0 28 12 32 30 10z m-60 -34 c0 -17 -6 -31 -16 -35 -20 -8 -94 -8 -94 0
0 17 58 62 83 63 23 1 27 -3 27 -28z m-146 -2 c-8 -14 -24 -10 -24 6 0 9 6 12
15 9 8 -4 12 -10 9 -15z"/>
<path d="M11453 5551 c-43 -50 -52 -74 -33 -86 22 -14 -3 -24 -44 -19 -46 7
-45 8 -102 -88 -24 -40 -78 -98 -91 -98 -22 0 -73 -42 -73 -60 0 -36 55 -55
79 -26 7 8 22 11 38 8 27 -5 27 -5 -11 -19 -81 -27 -138 -93 -82 -93 14 0 37
-13 53 -28 26 -25 34 -28 101 -27 40 1 77 6 83 12 12 12 14 45 4 86 -5 17 -3
27 4 27 6 0 11 -6 11 -13 0 -17 53 -48 66 -39 6 4 14 15 17 25 6 17 15 18 90
12 89 -7 127 6 114 38 -5 14 -17 15 -74 11 -37 -3 -81 -10 -97 -15 -37 -12
-96 -12 -96 0 0 5 -3 16 -6 25 -4 11 -1 16 10 16 9 0 16 6 16 13 0 22 85 40
159 33 73 -7 101 -2 101 20 0 9 -12 14 -35 14 -19 0 -35 3 -35 8 0 4 -17 16
-37 27 -53 28 -104 81 -97 99 7 18 90 67 98 58 3 -3 6 -20 6 -38 0 -18 5 -36
10 -39 6 -3 7 -17 4 -31 -6 -22 -3 -24 25 -24 17 0 31 -4 31 -8 0 -5 20 -23
44 -41 l44 -33 -17 -29 c-14 -25 -14 -32 -2 -51 12 -19 11 -23 -5 -35 -10 -7
-19 -20 -20 -28 -1 -9 -14 -32 -29 -51 -26 -34 -26 -37 -12 -67 12 -24 13 -33
4 -39 -20 -13 -27 -9 -27 12 0 39 -73 39 -85 0 -12 -38 9 -54 100 -74 111 -24
115 -21 90 76 l-18 71 32 29 c18 16 36 26 41 23 4 -3 20 -1 34 5 33 12 33 40
1 68 -14 12 -25 27 -25 32 0 6 -12 21 -27 34 l-26 23 39 6 c87 15 112 27 143
69 35 48 38 78 11 128 -11 19 -26 50 -35 68 -11 22 -21 32 -31 28 -7 -3 -30 6
-50 19 -21 14 -51 25 -70 25 -34 0 -96 -24 -125 -48 -24 -19 -85 -5 -108 24
-10 13 -23 24 -27 24 -5 0 -28 -22 -51 -49z m307 -18 c-1 -38 -27 -67 -62 -69
-67 -4 -69 27 -3 68 38 23 65 23 65 1z m30 -53 c0 -5 -5 -10 -11 -10 -5 0 -7
5 -4 10 3 6 8 10 11 10 2 0 4 -4 4 -10z m100 -27 c29 -25 25 -33 -12 -29 -18
3 -43 5 -56 5 -13 1 -21 5 -17 11 3 5 12 7 19 4 7 -3 19 2 26 11 16 19 15 19
40 -2z m-201 -32 c15 -10 7 -31 -13 -31 -21 0 -40 27 -24 33 19 8 22 8 37 -2z
m156 -43 c25 -7 44 -17 42 -22 -2 -5 -20 -19 -41 -29 -47 -25 -70 -15 -74 32
-4 36 3 38 73 19z m-353 -48 c18 -11 41 -20 50 -20 9 0 20 -5 24 -12 4 -6 3
-8 -3 -5 -5 3 -34 -5 -64 -19 -32 -15 -64 -23 -79 -21 -14 3 -50 -3 -80 -14
-30 -10 -72 -19 -94 -19 l-40 0 44 46 c42 43 48 45 85 40 31 -4 50 0 80 19 22
13 41 24 42 24 2 1 17 -8 35 -19z m-182 -140 c0 -5 -10 -10 -22 -10 -19 0 -20
2 -8 10 19 13 30 13 30 0z m-20 -90 c0 -13 -28 -25 -38 -16 -3 4 0 11 8 16 20
13 30 12 30 0z"/>
<path d="M12640 5496 c-52 -7 -117 -11 -145 -9 -302 14 -348 14 -366 -3 -14
-13 -16 -20 -8 -30 6 -7 8 -22 4 -34 -8 -27 21 -39 38 -16 18 24 46 27 287 30
184 3 343 15 356 28 2 3 -3 14 -12 26 -17 24 -16 24 -154 8z"/>
<path d="M7564 5488 c-4 -6 -6 -46 -5 -87 1 -42 3 -150 5 -241 1 -110 6 -173
14 -187 13 -24 27 -29 37 -13 3 5 8 122 11 260 6 262 3 280 -37 280 -10 0 -21
-5 -25 -12z"/>
<path d="M2046 5465 c-4 -14 -4 -30 -2 -34 3 -5 1 -23 -4 -42 -6 -19 -13 -54
-16 -79 -3 -25 -8 -47 -10 -49 -2 -2 1 -10 8 -18 13 -16 12 -127 -3 -200 -7
-34 -7 -59 -1 -70 7 -11 5 -32 -4 -62 -8 -25 -14 -55 -14 -65 0 -10 -6 -24
-14 -30 -7 -6 -16 -33 -20 -59 -5 -44 -4 -48 19 -57 14 -5 25 -17 25 -28 0
-10 11 -25 25 -32 20 -11 30 -11 62 2 36 14 38 16 35 57 -1 23 3 61 10 84 6
23 13 69 14 102 2 33 6 113 9 178 4 77 2 117 -5 117 -18 0 -11 39 10 57 23 20
25 41 7 68 -7 11 -24 51 -36 90 -26 82 -36 95 -66 95 -16 0 -25 -8 -29 -25z
m84 -240 c10 -12 9 -30 -2 -87 -10 -49 -12 -88 -6 -117 10 -54 2 -87 -17 -71
-15 13 -38 -10 -30 -32 3 -7 -1 -22 -9 -33 -14 -19 -15 -18 -16 20 0 35 15
215 24 286 6 49 31 64 56 34z m-27 -384 c-4 -16 -8 -19 -14 -10 -4 7 -3 19 3
26 14 18 19 12 11 -16z m-8 -50 c3 -5 1 -12 -5 -16 -5 -3 -10 1 -10 9 0 18 6
21 15 7z"/>
<path d="M3255 5450 c-5 -9 112 -130 126 -130 15 0 17 29 3 40 -8 7 -14 20
-14 29 0 42 -95 93 -115 61z"/>
<path d="M3464 5415 c-3 -8 1 -24 10 -37 9 -12 16 -30 16 -38 0 -16 39 -60 53
-60 10 0 8 78 -2 98 -5 9 -12 25 -15 35 -7 21 -54 23 -62 2z"/>
<path d="M3620 5411 c-6 -13 -7 -36 0 -72 6 -28 10 -53 10 -55 0 -2 5 -4 10
-4 6 0 10 8 10 18 0 9 7 26 15 36 16 21 19 53 9 80 -8 22 -41 20 -54 -3z"/>
<path d="M3102 5353 c2 -22 12 -31 49 -45 38 -14 50 -15 64 -4 16 11 13 16
-31 44 -61 41 -87 42 -82 5z"/>
<path d="M3820 5300 c0 -5 4 -10 9 -10 6 0 13 5 16 10 3 6 -1 10 -9 10 -9 0
-16 -4 -16 -10z"/>
<path d="M3707 5247 c-21 -22 -36 -42 -33 -44 6 -6 92 32 100 45 8 14 -4 42
-18 41 -6 -1 -28 -20 -49 -42z"/>
<path d="M3117 5224 c-3 -4 -21 -9 -39 -13 -24 -5 -33 -12 -33 -26 0 -18 6
-20 49 -17 28 2 58 8 69 14 18 9 18 11 1 29 -17 19 -35 24 -47 13z"/>
<path d="M3798 5131 c-61 -31 -62 -45 0 -37 50 7 122 34 122 46 0 4 -16 10
-37 12 -25 3 -50 -3 -85 -21z"/>
<path d="M8930 5097 c-47 -9 -63 -18 -106 -63 -28 -29 -63 -75 -76 -103 -23
-46 -25 -58 -20 -143 4 -78 10 -102 36 -153 17 -33 34 -61 39 -63 4 -2 7 -15
7 -28 0 -19 5 -24 18 -22 11 2 27 -3 36 -11 21 -18 151 -16 222 2 28 8 78 35
116 63 119 88 163 204 123 326 -25 77 -91 148 -139 148 -10 0 -41 14 -68 30
-53 33 -88 36 -188 17z m-24 -97 c-19 -17 -44 -49 -56 -72 -19 -36 -20 -43 -6
-56 24 -24 62 -8 79 35 20 51 47 74 94 80 35 5 43 1 74 -32 47 -51 64 -59 84
-39 9 9 14 23 11 30 -3 8 -9 21 -12 29 -10 26 14 16 51 -19 42 -41 56 -75 56
-136 1 -65 -23 -111 -83 -165 -69 -62 -143 -96 -225 -103 -74 -6 -107 7 -129
50 -8 15 -21 28 -29 28 -8 0 -17 12 -21 28 -3 15 -10 38 -16 52 -16 39 -10
143 11 192 21 50 101 128 131 128 18 0 16 -4 -14 -30z"/>
<path d="M9087 4793 c-9 -11 -15 -31 -13 -48 3 -25 9 -31 41 -39 28 -6 39 -5
46 5 17 25 22 62 12 78 -15 23 -66 26 -86 4z"/>
<path d="M8877 4762 c-42 -44 -31 -82 23 -82 49 0 81 59 50 90 -27 27 -41 25
-73 -8z"/>
<path d="M3100 5091 c-57 -18 -109 -51 -104 -66 9 -24 45 -18 104 18 69 42 69
69 0 48z"/>
<path d="M2553 5077 c-21 -5 -58 -6 -82 -3 -48 7 -71 -5 -71 -35 0 -10 9 -23
19 -29 26 -14 97 -13 124 2 13 7 56 11 107 10 142 -3 265 26 236 56 -10 10
-286 9 -333 -1z"/>
<path d="M3130 5009 c-14 -16 -38 -45 -53 -64 -27 -32 -23 -55 6 -38 57 33
101 91 91 117 -9 23 -17 20 -44 -15z"/>
<path d="M3746 5013 c-3 -4 -16 -8 -27 -10 -30 -4 -59 -22 -59 -35 0 -8 23 -9
75 -5 63 6 75 4 75 -8 0 -18 5 -18 31 -5 21 12 25 40 7 58 -13 13 -90 17 -102
5z"/>
<path d="M3514 4899 c-3 -6 -1 -16 5 -22 6 -6 11 -34 11 -62 0 -54 12 -75 42
-75 16 0 17 6 12 43 -4 23 -13 52 -20 64 -8 12 -14 31 -14 43 0 21 -24 28 -36
9z"/>
<path d="M3170 4865 c-26 -26 -31 -38 -22 -47 8 -8 20 -2 47 25 19 19 35 40
35 46 0 21 -26 11 -60 -24z"/>
<path d="M3646 4881 c-10 -16 97 -91 129 -91 2 0 2 11 1 25 -4 38 -114 93
-130 66z"/>
<path d="M7504 4846 c-81 -41 -138 -88 -158 -131 -10 -19 -28 -43 -42 -52 -14
-9 -34 -33 -44 -53 -11 -21 -26 -40 -35 -43 -17 -7 -21 -37 -4 -37 6 0 31 13
55 29 38 26 44 28 49 12 3 -9 -4 -34 -15 -56 -34 -66 -19 -86 33 -45 24 19 47
26 47 14 0 -3 -20 -30 -45 -59 -28 -32 -42 -56 -35 -60 15 -9 68 4 77 19 14
23 53 39 67 26 16 -13 15 -56 -2 -87 -19 -34 -15 -45 16 -41 23 3 28 9 36 45
8 35 14 42 38 45 29 5 29 5 22 -36 -11 -61 -10 -79 3 -83 17 -6 32 27 36 87 3
37 10 58 23 67 29 21 46 16 44 -14 -5 -74 7 -82 40 -28 21 34 22 56 6 95 -3 9
8 30 29 54 l35 38 0 -41 c0 -28 4 -41 14 -41 36 0 41 33 34 196 -3 67 -5 74
-38 104 -57 54 -120 90 -146 84 -13 -3 -32 1 -46 10 -27 19 -18 20 -94 -18z
m30 -71 c3 -8 -3 -19 -13 -24 -11 -7 -20 -26 -24 -52 -3 -23 -10 -46 -16 -52
-21 -21 -12 64 11 104 23 42 33 47 42 24z m177 -12 c16 -15 39 -42 50 -60 l21
-33 -21 -43 c-12 -24 -21 -48 -21 -54 0 -14 -39 -63 -51 -63 -5 0 -9 29 -9 65
0 35 -6 88 -14 117 -18 69 -19 71 -17 86 2 20 29 14 62 -15z m-121 -23 c0 -5
-2 -10 -4 -10 -3 0 -8 5 -11 10 -3 6 -1 10 4 10 6 0 11 -4 11 -10z m-164 -54
c-9 -26 -16 -58 -16 -71 0 -35 -13 -31 -26 8 -6 17 -14 40 -19 49 -5 13 -1 20
17 27 13 5 30 16 37 25 22 26 24 12 7 -38z m204 -71 c0 -43 -16 -111 -28 -119
-4 -2 -7 43 -7 100 0 100 1 103 17 81 10 -12 18 -40 18 -62z m-95 -146 c9 -29
-4 -38 -21 -15 -18 25 -18 36 0 36 8 0 18 -9 21 -21z"/>
<path d="M6207 4837 c-47 -12 -77 -44 -77 -84 0 -8 -4 -12 -9 -9 -4 3 -7 17
-5 31 4 38 -46 67 -101 58 -50 -7 -65 -19 -65 -49 0 -18 -12 -31 -49 -51 -43
-24 -66 -51 -110 -123 -27 -46 -49 -100 -56 -135 -8 -41 -8 -119 1 -145 6 -20
104 -90 125 -90 10 0 21 -4 24 -10 3 -5 14 -10 23 -10 9 0 31 -14 49 -32 30
-29 34 -30 55 -16 20 14 25 13 62 -13 23 -15 62 -31 87 -34 46 -7 46 -6 122
62 43 37 77 74 77 80 0 17 6 16 34 -2 22 -14 25 -14 40 0 9 9 16 22 16 30 0 7
15 22 34 32 64 35 116 78 122 103 11 42 16 44 40 14 21 -25 26 -27 43 -17 30
19 148 36 202 30 26 -3 62 -2 79 3 17 5 59 10 94 11 88 3 106 11 106 50 0 28
-3 31 -22 25 -39 -11 -230 -28 -255 -23 -14 2 -57 0 -96 -5 -40 -5 -87 -9
-106 -8 -18 0 -39 -4 -45 -9 -10 -8 -12 10 -12 82 1 108 -11 136 -87 200 -46
39 -50 41 -132 45 -47 3 -85 8 -85 13 0 12 -64 10 -123 -4z m240 -73 c19 -5
23 -12 21 -33 -3 -24 1 -26 39 -32 24 -3 46 -9 50 -13 10 -10 9 -87 -1 -108
-6 -14 -4 -18 9 -18 20 0 17 -29 -9 -92 -30 -71 -45 -46 -51 89 -7 134 -23
152 -155 183 -30 7 -76 13 -103 12 -26 0 -45 3 -42 8 6 10 205 13 242 4z
m-239 -82 c44 4 165 -13 193 -28 28 -14 43 -58 29 -85 -10 -17 -72 -39 -112
-39 -14 0 -42 7 -61 15 -62 26 -113 18 -162 -25 -11 -10 -36 -21 -55 -24 -19
-4 -47 -9 -61 -12 -35 -8 -43 8 -25 50 13 31 20 35 63 41 64 9 84 24 108 78
17 38 23 44 38 35 10 -5 30 -8 45 -6z m-248 -16 c0 -8 -4 -17 -9 -21 -21 -12
-63 -103 -68 -145 -3 -25 -5 -78 -4 -117 3 -84 -5 -89 -55 -39 -27 27 -34 42
-34 73 0 74 51 177 119 241 27 25 51 29 51 8z m290 -183 c8 -8 -64 -62 -83
-63 -14 0 -16 5 -11 28 9 36 31 53 63 45 14 -3 28 -8 31 -10z m-125 -25 c-4
-13 -8 -30 -11 -38 -5 -18 -84 -65 -84 -50 0 22 30 68 57 89 36 27 46 26 38
-1z m183 -10 c7 -7 12 -15 12 -20 0 -10 -90 -51 -97 -44 -7 7 50 76 63 76 5 0
15 -5 22 -12z m52 -64 c0 -12 -46 -43 -65 -44 -11 0 -30 -7 -41 -15 -22 -15
-34 -11 -34 12 0 7 10 13 23 13 12 0 36 9 52 19 29 19 65 27 65 15z m-73 -108
c1 -1 -12 -13 -30 -28 l-33 -25 4 33 c4 31 6 33 31 28 14 -4 27 -7 28 -8z
m-213 -17 c-17 -19 -34 -17 -34 4 0 7 12 13 26 13 24 2 24 1 8 -17z m56 -28
c0 -11 3 -27 7 -36 5 -14 2 -16 -18 -10 -39 12 -55 31 -39 49 18 23 50 20 50
-3z"/>
<path d="M3440 4820 c-12 -8 -13 -13 -3 -29 6 -10 9 -28 6 -40 -3 -12 0 -28 7
-36 6 -8 9 -23 5 -35 -4 -14 -2 -20 9 -20 20 0 33 118 17 149 -13 23 -19 25
-41 11z"/>
<path d="M3224 4776 c-10 -8 -16 -18 -11 -22 8 -8 57 15 57 28 0 13 -24 9 -46
-6z"/>
<path d="M8485 4780 c-22 -4 -45 -6 -51 -3 -13 5 -133 -19 -204 -40 -25 -8
-83 -15 -130 -16 -90 -2 -113 -12 -108 -45 3 -19 10 -21 78 -22 54 -1 87 4
116 18 74 33 145 46 268 47 116 1 122 2 144 27 12 14 20 30 17 35 -7 10 -72
10 -130 -1z"/>
<path d="M4251 4744 c-21 -27 -28 -54 -13 -54 15 0 52 46 52 63 0 25 -16 21
-39 -9z"/>
<path d="M3360 4709 c0 -5 5 -7 10 -4 6 3 10 8 10 11 0 2 -4 4 -10 4 -5 0 -10
-5 -10 -11z"/>
<path d="M4615 4355 c-75 -13 -156 -40 -266 -87 -43 -19 -101 -76 -145 -142
-15 -24 -18 -45 -16 -115 2 -47 10 -105 18 -129 8 -24 11 -54 8 -66 -4 -17 3
-33 25 -59 17 -19 38 -51 46 -71 12 -28 21 -36 40 -36 20 0 27 6 32 30 7 35 5
35 46 13 23 -13 54 -17 112 -16 118 2 149 9 229 47 88 43 154 99 186 160 13
26 29 51 37 57 7 6 13 20 13 30 0 10 7 37 17 60 15 40 15 44 -6 108 -47 138
-90 187 -189 213 -78 20 -81 20 -187 3z m217 -82 c23 -13 43 -40 67 -89 43
-88 46 -166 11 -234 l-24 -45 -7 33 c-8 40 -16 49 -49 57 -20 5 -32 -1 -53
-23 -40 -42 -34 -71 21 -99 l42 -21 -32 -20 c-95 -58 -158 -84 -217 -89 -68
-6 -73 0 -43 45 59 86 72 111 72 139 0 38 -8 41 -109 42 -96 1 -111 -4 -111
-34 0 -33 21 -45 79 -46 63 -2 65 -15 12 -67 -30 -29 -39 -44 -34 -60 4 -17 1
-22 -13 -22 -20 0 -64 38 -64 56 0 6 -7 17 -15 24 -34 28 -53 -38 -22 -78 5
-7 7 -16 3 -20 -4 -4 -12 1 -17 11 -6 9 -20 26 -31 37 -24 22 -37 82 -45 201
-5 80 9 125 58 188 21 26 99 71 125 71 9 0 32 10 51 21 19 12 51 23 71 26 36
4 34 3 -33 -40 -55 -34 -70 -49 -70 -68 0 -34 36 -37 77 -6 39 29 102 57 130
57 11 0 35 -7 53 -16 44 -20 79 -15 83 12 3 24 -31 51 -78 61 -17 3 -33 10
-37 16 -11 17 114 1 149 -20z"/>
<path d="M7347 4303 c-10 -9 -9 -23 2 -23 5 0 11 7 15 15 5 15 -5 20 -17 8z"/>
<path d="M7450 4250 c0 -5 5 -10 10 -10 6 0 10 5 10 10 0 6 -4 10 -10 10 -5 0
-10 -4 -10 -10z"/>
<path d="M7555 4083 c3 -38 7 -90 9 -118 2 -27 7 -96 10 -153 4 -57 11 -114
16 -127 6 -16 4 -41 -6 -75 -14 -47 -14 -54 1 -76 18 -28 29 -25 49 14 16 31
15 105 -2 217 -5 39 -13 117 -16 175 -11 173 -20 210 -52 210 -11 0 -13 -15
-9 -67z"/>
<path d="M6184 4066 c-4 -10 -4 -41 0 -69 4 -29 9 -101 12 -162 3 -60 7 -117
11 -125 7 -16 12 -95 13 -200 0 -77 11 -100 37 -84 12 8 18 23 17 45 -3 100
-15 228 -23 255 -5 18 -10 83 -10 146 -2 138 -4 151 -30 184 -18 23 -22 24
-27 10z"/>
<path d="M4725 3546 c-29 -29 -30 -36 -11 -102 15 -48 26 -115 31 -184 1 -19
6 -62 10 -95 8 -57 10 -93 14 -193 1 -50 23 -65 51 -36 16 17 17 31 10 149 -4
72 -13 158 -19 193 -27 151 -31 181 -31 224 0 62 -20 79 -55 44z"/>
<path d="M8060 3550 c-14 -4 -40 -8 -59 -9 -18 -1 -54 -12 -80 -25 -25 -13
-62 -30 -81 -37 -19 -7 -67 -27 -107 -46 -39 -18 -80 -33 -91 -33 -12 0 -32
-4 -47 -10 -14 -5 -45 -12 -68 -14 -56 -6 -144 -23 -187 -36 -19 -5 -36 -10
-37 -10 -1 0 -9 7 -17 16 -21 21 -63 11 -105 -24 l-33 -27 15 -60 c8 -33 16
-89 16 -125 1 -36 6 -83 11 -105 5 -22 10 -61 10 -86 0 -50 21 -79 57 -79 11
0 55 9 99 21 43 11 95 23 114 26 19 3 95 28 169 55 95 35 144 48 164 44 19 -4
43 2 75 19 26 14 55 25 65 25 10 0 28 5 40 12 31 16 238 68 248 62 14 -8 49
16 49 34 0 9 -8 46 -19 82 -25 86 -43 157 -49 199 -2 19 -16 57 -31 85 -23 46
-30 51 -61 53 -19 1 -46 -2 -60 -7z m6 -97 c9 -20 18 -49 20 -63 2 -14 7 -38
12 -55 5 -16 7 -35 5 -42 -2 -7 0 -21 6 -31 8 -15 6 -23 -7 -34 -16 -14 -111
-43 -117 -36 -2 2 0 26 2 55 5 46 8 52 26 50 27 -3 52 44 39 70 -6 10 -17 42
-25 71 -15 50 -15 52 4 52 14 0 25 -12 35 -37z m-140 -63 c-2 -28 0 -53 5 -56
12 -7 11 -44 -1 -44 -5 0 -10 11 -10 25 0 20 -5 25 -25 25 -23 0 -25 4 -25 44
0 44 7 54 42 55 15 1 17 -7 14 -49z m-106 -22 c23 -50 26 -82 8 -74 -7 3 -21
9 -30 12 -10 4 -18 11 -19 18 0 6 -2 28 -5 49 -6 53 21 50 46 -5z m-196 -126
c-14 -21 -14 -25 0 -41 9 -10 16 -29 16 -42 0 -14 5 -30 12 -37 9 -9 6 -14
-13 -20 -35 -14 -46 -6 -58 45 -9 33 -9 48 0 59 6 8 9 37 7 69 l-3 56 27 -33
c25 -31 26 -35 12 -56z m-124 56 c0 -6 7 -20 17 -30 15 -17 15 -19 -2 -38 -14
-16 -17 -30 -12 -72 4 -28 11 -56 17 -62 5 -5 10 -13 10 -16 0 -14 -52 -29
-122 -36 l-73 -6 -17 41 c-26 60 -24 143 5 175 12 13 32 27 44 31 20 5 21 2
25 -61 2 -55 0 -68 -15 -76 -19 -10 -13 -32 7 -25 7 3 18 -4 24 -14 14 -21 51
-26 53 -6 1 6 3 26 5 42 5 51 5 58 -2 109 -5 35 -3 50 7 56 15 10 29 4 29 -12z
m237 -6 c6 -4 14 -29 18 -57 4 -27 16 -60 27 -72 26 -28 16 -43 -28 -43 -27 0
-34 4 -34 19 0 11 -4 23 -10 26 -13 8 -8 135 5 135 6 0 15 -4 22 -8z m131 -79
c10 -37 10 -48 0 -54 -21 -14 -30 -5 -34 32 -1 19 -4 39 -5 45 -10 53 24 33
39 -23z m82 -13 c0 -5 -2 -10 -4 -10 -3 0 -8 5 -11 10 -3 6 -1 10 4 10 6 0 11
-4 11 -10z"/>
<path d="M6396 3238 c-11 -6 -47 -14 -80 -18 -145 -18 -245 -48 -275 -84 -14
-17 -14 -16 50 -107 80 -111 103 -272 54 -378 -14 -30 -22 -57 -16 -60 5 -3
10 -15 12 -25 6 -31 35 -43 57 -23 10 9 32 17 49 17 17 0 60 16 97 35 37 19
74 35 81 35 8 0 29 9 47 20 18 11 43 20 56 20 46 0 12 75 -45 99 -31 13 -66
60 -77 105 -27 108 -9 205 49 274 20 22 38 54 41 71 6 31 6 31 -37 31 -24 0
-53 -6 -63 -12z m-111 -88 c3 -5 -1 -10 -10 -10 -9 0 -13 5 -10 10 3 6 8 10
10 10 2 0 7 -4 10 -10z m100 0 c-3 -5 -11 -10 -16 -10 -6 0 -7 5 -4 10 3 6 11
10 16 10 6 0 7 -4 4 -10z m-165 -19 c0 -6 -4 -13 -10 -16 -5 -3 -10 1 -10 9 0
9 5 16 10 16 6 0 10 -4 10 -9z m114 -118 c-4 -20 -7 -51 -8 -68 -1 -19 -6 -30
-16 -31 -8 -1 -21 -2 -27 -3 -7 0 -13 -6 -13 -13 0 -6 -8 -20 -17 -30 -16 -18
-18 -16 -35 44 -9 35 -17 73 -18 84 0 24 21 37 45 28 8 -4 21 -2 28 4 10 9 35
17 60 21 4 0 5 -16 1 -36z m26 -196 c0 -7 20 -34 45 -61 43 -47 49 -66 20 -66
-7 0 -16 11 -19 25 -4 15 -16 27 -31 31 -14 3 -25 13 -25 21 0 8 -9 17 -20 20
-24 6 -25 11 -4 34 17 19 34 17 34 -4z m-108 -19 c-7 -7 -12 -8 -12 -2 0 14
12 26 19 19 2 -3 -1 -11 -7 -17z m106 -113 c-2 -9 -18 -25 -36 -37 l-33 -20
23 35 c23 37 52 50 46 22z"/>
<path d="M5060 2940 c-30 -10 -81 -20 -112 -23 -31 -3 -70 -12 -85 -21 -29
-15 -86 -28 -203 -47 -36 -5 -76 -14 -90 -19 -14 -6 -50 -11 -80 -11 -30 -1
-68 -8 -83 -16 -27 -14 -28 -16 -21 -73 7 -59 6 -60 -19 -60 -24 0 -57 -23
-57 -39 0 -18 31 -32 62 -29 l32 3 11 -75 c6 -41 13 -80 17 -86 4 -6 27 -17
52 -24 44 -12 78 -7 143 23 13 6 25 8 28 5 3 -3 11 -34 17 -69 12 -71 30 -93
93 -115 88 -31 157 -13 242 64 33 29 46 50 57 92 8 30 14 71 13 89 -2 31 3 38
38 58 26 16 52 22 74 20 26 -2 36 2 48 20 13 19 13 26 2 39 -15 18 -48 194
-49 256 0 60 -33 70 -130 38z m65 -84 c0 -19 -74 -48 -195 -75 -30 -7 -91 -22
-135 -33 -44 -11 -100 -24 -125 -28 -25 -4 -83 -15 -130 -24 -47 -9 -86 -16
-87 -16 -2 0 -3 11 -3 23 0 23 32 62 42 52 3 -3 25 4 49 14 24 11 69 23 99 27
30 3 82 15 115 26 62 21 273 55 335 54 27 -1 35 -5 35 -20z m20 -151 l0 -57
-45 -14 c-25 -7 -57 -15 -72 -19 -31 -6 -36 -27 -16 -70 9 -21 8 -32 -6 -61
-9 -20 -14 -45 -10 -56 7 -24 -16 -51 -74 -86 -100 -58 -176 -14 -190 109 -9
80 -23 90 -88 62 -27 -12 -70 -24 -96 -28 -46 -7 -48 -6 -59 21 -17 44 -23
110 -10 118 12 8 14 8 131 31 47 9 101 20 120 25 19 5 71 14 115 20 77 11 121
22 230 54 28 8 55 13 60 12 6 -1 10 -29 10 -61z"/>
<path d="M4839 2615 c-124 -31 -116 -19 -91 -145 16 -86 61 -135 111 -120 44
12 78 39 102 77 18 28 20 43 14 81 -3 26 -6 61 -6 77 1 49 -28 55 -130 30z
m69 -87 c19 -19 14 -53 -13 -82 -29 -31 -50 -33 -65 -7 -18 35 -12 81 13 91
31 12 51 12 65 -2z"/>
<path d="M5940 2910 c-25 -5 -65 -16 -90 -25 -25 -9 -76 -18 -115 -20 -38 -3
-101 -12 -140 -21 -38 -9 -86 -18 -105 -21 -61 -9 -81 -44 -36 -64 19 -9 36
-7 81 10 40 15 88 23 159 26 69 2 122 11 166 26 36 12 92 25 125 28 59 6 60 7
60 36 0 26 -4 30 -30 32 -16 0 -50 -3 -75 -7z"/>
</g>
</svg>
