<svg id="svg" version="1.1" xmlns="http://www.w3.org/2000/svg" xmlns:xlink="http://www.w3.org/1999/xlink" width="400" height="387.3015873015873" viewBox="0, 0, 400,387.3015873015873"><g id="svgg"><path id="path0" d="M188.566 29.091 C 185.768 29.251,182.062 29.740,180.233 30.190 C 178.421 30.636,175.019 31.186,172.674 31.413 C 167.441 31.920,165.177 32.391,162.352 33.562 C 161.151 34.060,158.516 34.714,156.497 35.014 C 154.031 35.381,152.267 35.885,151.122 36.549 C 150.185 37.093,148.411 37.797,147.180 38.114 C 145.949 38.432,144.118 39.210,143.111 39.843 C 142.103 40.477,140.361 41.208,139.240 41.468 C 138.118 41.728,136.598 42.349,135.861 42.849 C 135.124 43.349,133.334 44.112,131.884 44.543 C 130.434 44.975,128.661 45.762,127.943 46.291 C 127.225 46.821,125.729 47.443,124.617 47.673 C 123.257 47.956,122.245 48.459,121.524 49.212 C 120.934 49.828,119.905 50.554,119.237 50.827 C 118.570 51.099,117.238 51.876,116.279 52.552 C 115.320 53.229,114.138 53.904,113.652 54.052 C 113.167 54.201,112.001 54.963,111.061 55.746 C 109.172 57.321,107.751 58.303,104.829 60.053 C 103.754 60.697,102.370 61.750,101.752 62.395 C 101.135 63.039,100.409 63.566,100.139 63.566 C 99.869 63.566,98.872 64.307,97.923 65.213 C 96.973 66.119,95.265 67.679,94.125 68.679 C 92.986 69.680,90.746 71.698,89.147 73.163 C 87.548 74.629,85.455 76.542,84.496 77.414 C 83.537 78.286,81.880 80.082,80.814 81.407 C 79.748 82.731,77.795 84.926,76.474 86.286 C 75.153 87.645,73.583 89.399,72.986 90.182 C 72.388 90.966,71.463 92.085,70.930 92.670 C 70.397 93.255,69.389 94.490,68.689 95.413 C 67.989 96.337,66.818 97.878,66.086 98.837 C 65.355 99.797,64.285 101.366,63.709 102.326 C 63.133 103.285,62.354 104.419,61.977 104.845 C 61.601 105.271,60.921 106.492,60.466 107.558 C 60.012 108.624,59.225 109.932,58.717 110.465 C 58.209 110.998,57.505 112.132,57.153 112.984 C 56.801 113.837,56.101 115.080,55.598 115.747 C 55.096 116.414,54.336 117.875,53.911 118.994 C 53.486 120.113,52.712 121.661,52.192 122.433 C 51.672 123.205,51.031 124.535,50.769 125.388 C 50.507 126.240,49.985 127.287,49.610 127.713 C 48.637 128.818,47.859 130.521,47.321 132.721 C 47.065 133.769,46.451 135.339,45.957 136.209 C 45.463 137.079,44.762 139.012,44.400 140.504 C 44.038 141.996,43.422 143.740,43.032 144.380 C 42.168 145.797,41.625 147.670,40.891 151.767 C 40.584 153.485,39.953 155.748,39.490 156.795 C 38.938 158.042,38.407 160.676,37.948 164.438 C 37.563 167.595,36.881 171.437,36.432 172.976 C 34.470 179.711,34.571 208.515,36.588 217.054 C 37.116 219.293,37.736 223.271,37.965 225.896 C 38.223 228.849,38.692 231.508,39.197 232.873 C 40.344 235.978,41.085 238.755,41.085 239.946 C 41.085 241.193,42.381 245.048,43.187 246.198 C 43.511 246.662,44.062 248.361,44.411 249.974 C 44.759 251.587,45.454 253.517,45.956 254.264 C 46.457 255.010,47.146 256.824,47.487 258.296 C 47.836 259.805,48.614 261.709,49.270 262.662 C 49.909 263.592,50.684 265.198,50.991 266.232 C 51.298 267.265,51.905 268.563,52.341 269.117 C 52.776 269.671,53.492 271.218,53.931 272.555 C 54.370 273.892,55.235 275.562,55.853 276.266 C 56.471 276.970,56.977 277.801,56.977 278.113 C 56.977 278.425,57.561 279.335,58.275 280.135 C 58.988 280.935,59.878 282.402,60.252 283.395 C 60.626 284.389,61.437 285.686,62.055 286.278 C 62.673 286.870,63.178 287.564,63.178 287.821 C 63.178 288.078,63.707 288.961,64.352 289.784 C 64.998 290.606,66.263 292.212,67.163 293.353 C 68.062 294.494,69.245 296.090,69.792 296.901 C 70.888 298.529,72.866 300.984,73.927 302.035 C 74.304 302.408,74.874 302.989,75.194 303.325 C 75.514 303.662,76.429 304.595,77.229 305.398 C 78.028 306.201,78.682 307.033,78.682 307.247 C 78.682 307.735,88.233 317.425,91.026 319.771 C 92.165 320.728,93.938 322.297,94.965 323.256 C 98.885 326.916,99.604 327.519,100.044 327.519 C 100.293 327.519,101.213 328.138,102.089 328.895 C 105.023 331.429,107.935 333.553,109.167 334.058 C 109.839 334.333,110.794 334.990,111.288 335.516 C 111.783 336.043,112.953 336.813,113.888 337.226 C 114.823 337.640,116.186 338.503,116.916 339.144 C 117.646 339.785,118.499 340.310,118.811 340.310 C 119.123 340.310,120.041 340.909,120.851 341.642 C 121.750 342.454,123.073 343.158,124.244 343.447 C 125.299 343.707,126.705 344.389,127.368 344.962 C 128.031 345.536,129.426 346.216,130.469 346.475 C 131.511 346.734,133.024 347.471,133.830 348.113 C 134.692 348.800,136.448 349.595,138.094 350.044 C 139.632 350.464,141.328 351.121,141.860 351.505 C 142.975 352.308,144.839 352.938,147.160 353.296 C 148.049 353.434,149.584 354.058,150.570 354.683 C 151.986 355.581,153.216 355.940,156.420 356.390 C 159.015 356.754,161.252 357.326,162.628 357.977 C 164.392 358.812,165.834 359.092,170.615 359.528 C 177.037 360.113,178.929 360.394,179.931 360.912 C 184.055 363.040,217.333 363.133,225.380 361.040 C 227.655 360.448,231.646 359.824,235.070 359.524 C 239.731 359.115,241.378 358.808,243.330 357.983 C 244.694 357.407,247.430 356.720,249.538 356.424 C 252.508 356.007,253.718 355.639,255.256 354.683 C 256.483 353.921,258.118 353.324,259.663 353.075 C 262.054 352.690,264.072 351.912,264.507 351.208 C 264.625 351.017,265.956 350.558,267.465 350.188 C 269.067 349.796,270.983 348.983,272.069 348.236 C 273.092 347.532,274.693 346.754,275.627 346.506 C 276.561 346.258,277.674 345.743,278.101 345.363 C 279.157 344.420,280.340 343.840,282.542 343.186 C 283.566 342.882,284.630 342.359,284.908 342.025 C 285.186 341.690,286.123 341.058,286.990 340.620 C 287.857 340.182,289.002 339.338,289.535 338.743 C 290.068 338.149,291.157 337.460,291.956 337.212 C 292.755 336.965,294.123 336.165,294.997 335.435 C 295.870 334.706,296.742 334.109,296.935 334.109 C 297.127 334.109,297.939 333.537,298.739 332.838 C 299.539 332.140,300.660 331.332,301.230 331.045 C 301.800 330.757,303.083 329.846,304.082 329.020 C 305.081 328.195,306.053 327.519,306.243 327.519 C 306.433 327.519,307.329 326.820,308.236 325.965 C 309.142 325.111,310.162 324.322,310.503 324.214 C 310.844 324.105,311.312 323.600,311.544 323.091 C 311.776 322.583,312.486 321.859,313.123 321.483 C 313.759 321.107,314.506 320.378,314.782 319.863 C 315.057 319.348,315.729 318.695,316.275 318.413 C 317.377 317.843,319.902 315.401,324.735 310.231 C 334.122 300.188,336.822 297.119,336.822 296.489 C 336.822 296.290,337.409 295.472,338.127 294.672 C 338.845 293.872,339.805 292.482,340.260 291.583 C 340.715 290.684,341.434 289.763,341.858 289.536 C 342.281 289.310,342.911 288.563,343.257 287.876 C 343.604 287.190,344.296 286.189,344.797 285.653 C 345.297 285.117,345.973 283.922,346.300 282.997 C 346.626 282.072,347.343 280.766,347.893 280.095 C 349.821 277.742,352.361 273.434,352.770 271.822 C 352.997 270.927,353.595 269.636,354.099 268.953 C 354.603 268.270,355.391 266.560,355.851 265.154 C 356.311 263.748,356.992 262.248,357.365 261.822 C 358.386 260.654,358.783 259.715,359.282 257.291 C 359.531 256.078,360.042 254.683,360.417 254.190 C 361.254 253.090,361.812 251.613,362.430 248.862 C 362.690 247.703,363.310 245.959,363.808 244.986 C 364.306 244.013,364.973 241.589,365.289 239.599 C 365.605 237.610,366.309 235.010,366.853 233.822 C 367.854 231.635,368.237 229.641,368.983 222.731 C 369.210 220.631,369.744 217.566,370.171 215.921 C 371.795 209.656,371.877 185.841,370.301 178.488 C 369.547 174.973,368.776 169.823,368.245 164.758 C 367.948 161.924,367.531 160.102,366.847 158.657 C 366.271 157.440,365.630 154.976,365.280 152.639 C 364.930 150.295,364.240 147.648,363.587 146.144 C 362.982 144.747,362.294 142.683,362.058 141.556 C 361.823 140.429,361.118 138.511,360.491 137.293 C 359.864 136.074,359.229 134.380,359.079 133.527 C 358.929 132.674,358.242 131.105,357.551 130.039 C 356.860 128.973,356.079 127.403,355.816 126.550 C 355.553 125.698,354.823 124.183,354.195 123.184 C 353.566 122.185,352.869 120.706,352.646 119.896 C 352.422 119.087,351.561 117.478,350.732 116.320 C 349.903 115.162,349.225 113.901,349.225 113.516 C 349.225 113.132,348.715 112.238,348.093 111.529 C 347.470 110.819,346.531 109.266,346.004 108.076 C 345.478 106.887,344.851 105.791,344.610 105.642 C 344.369 105.493,343.739 104.518,343.210 103.475 C 342.682 102.432,341.902 101.392,341.477 101.165 C 341.053 100.938,340.419 100.191,340.068 99.504 C 338.431 96.298,333.502 90.225,326.026 82.198 C 321.804 77.666,317.055 73.049,311.646 68.217 C 310.572 67.258,308.988 65.819,308.126 65.019 C 307.264 64.220,306.392 63.566,306.188 63.566 C 305.983 63.566,305.162 62.979,304.362 62.262 C 303.562 61.545,302.297 60.649,301.550 60.270 C 300.804 59.892,299.621 59.083,298.921 58.473 C 298.220 57.863,297.496 57.364,297.310 57.364 C 297.124 57.364,296.259 56.768,295.387 56.039 C 294.514 55.310,292.948 54.431,291.907 54.085 C 290.866 53.739,289.688 53.094,289.290 52.652 C 288.892 52.209,287.616 51.426,286.454 50.911 C 285.292 50.396,283.810 49.571,283.159 49.078 C 282.509 48.585,281.071 47.882,279.964 47.516 C 278.857 47.151,277.512 46.507,276.976 46.085 C 276.440 45.663,275.079 45.001,273.951 44.613 C 272.822 44.224,271.250 43.466,270.458 42.928 C 269.665 42.390,267.812 41.678,266.340 41.346 C 264.869 41.013,263.027 40.308,262.246 39.779 C 261.466 39.249,259.594 38.536,258.087 38.193 C 256.580 37.850,254.475 37.128,253.410 36.588 C 252.344 36.048,249.980 35.346,248.155 35.027 C 246.329 34.709,244.210 34.134,243.445 33.750 C 240.933 32.489,238.246 31.847,233.570 31.391 C 231.035 31.143,227.634 30.591,226.012 30.164 C 220.969 28.835,202.358 28.302,188.566 29.091 M209.109 161.344 C 213.771 162.844,217.981 166.318,219.235 169.700 C 219.604 170.696,220.218 171.966,220.598 172.521 C 222.699 175.585,221.407 177.883,215.720 181.202 C 214.624 181.841,213.159 182.734,212.463 183.187 C 210.042 184.762,205.125 183.584,207.193 181.924 C 214.878 175.757,216.402 173.678,214.631 171.777 C 214.097 171.205,213.468 170.362,213.233 169.903 C 211.517 166.561,205.586 164.903,197.466 165.495 C 189.859 166.050,186.871 168.997,186.165 176.640 C 185.937 179.106,187.669 184.109,188.750 184.109 C 188.967 184.109,189.810 184.709,190.622 185.443 C 191.434 186.176,193.077 187.143,194.273 187.590 C 195.469 188.038,196.872 188.738,197.391 189.146 C 197.909 189.554,199.583 190.234,201.109 190.657 C 202.635 191.080,204.362 191.760,204.946 192.168 C 205.530 192.576,207.031 193.228,208.281 193.615 C 209.532 194.003,211.161 194.732,211.902 195.234 C 212.642 195.737,214.236 196.671,215.442 197.311 C 222.224 200.904,225.471 206.971,224.038 213.372 C 222.240 221.406,220.539 223.825,214.729 226.609 C 203.052 232.206,184.209 227.867,180.806 218.798 C 180.406 217.733,179.731 216.380,179.306 215.793 C 178.238 214.317,178.781 212.835,180.739 211.877 C 182.575 210.979,183.364 211.516,184.285 214.290 C 185.706 218.566,189.398 221.785,193.857 222.634 C 209.872 225.684,218.876 221.486,218.963 210.930 C 218.998 206.618,218.625 205.729,215.911 203.659 C 214.834 202.838,213.953 202.039,213.953 201.884 C 213.953 201.463,205.664 197.398,204.186 197.095 C 203.483 196.950,201.946 196.342,200.771 195.743 C 199.596 195.144,197.919 194.461,197.045 194.225 C 196.170 193.990,194.819 193.366,194.042 192.838 C 193.264 192.310,191.714 191.497,190.597 191.031 C 188.275 190.061,186.240 188.355,182.679 184.393 C 181.115 182.651,180.878 181.327,181.074 175.427 C 181.234 170.630,181.477 169.741,183.063 168.156 C 183.369 167.849,183.909 167.039,184.262 166.357 C 184.615 165.675,185.042 165.116,185.211 165.116 C 185.380 165.116,186.197 164.512,187.027 163.774 C 187.858 163.035,189.241 162.263,190.102 162.058 C 190.962 161.853,192.713 161.388,193.992 161.025 C 199.673 159.414,203.349 159.492,209.109 161.344 M280.371 167.337 C 281.681 168.666,282.926 169.933,283.140 170.153 C 283.477 170.502,298.388 185.372,299.419 186.388 C 299.632 186.598,301.071 187.973,302.616 189.443 C 306.597 193.228,306.634 194.650,302.848 198.179 C 300.461 200.404,298.996 201.847,298.193 202.766 C 298.014 202.971,293.432 207.529,288.010 212.896 C 277.534 223.265,274.909 225.285,274.035 223.650 C 272.569 220.911,271.706 222.060,285.662 208.165 C 298.327 195.556,298.450 195.419,298.450 193.836 C 298.450 192.111,298.632 192.306,280.231 174.323 C 277.887 172.032,275.969 169.997,275.969 169.800 C 275.969 169.604,275.376 169.076,274.651 168.628 C 272.933 167.566,272.796 167.105,273.644 165.212 L 274.349 163.637 276.170 164.280 C 277.406 164.716,278.755 165.698,280.371 167.337 M127.362 164.746 C 129.683 165.870,129.754 166.451,127.823 168.555 C 126.173 170.352,111.412 185.027,106.492 189.762 C 102.076 194.011,101.721 193.301,114.632 206.025 C 120.547 211.855,125.649 216.896,125.969 217.228 C 126.289 217.559,127.216 218.518,128.029 219.359 C 129.790 221.181,129.596 221.999,127.099 223.273 L 125.542 224.067 115.775 214.459 C 95.285 194.303,96.512 195.610,96.510 193.937 C 96.509 192.485,96.919 192.035,110.875 178.198 C 118.777 170.363,125.350 163.953,125.483 163.953 C 125.616 163.953,126.461 164.310,127.362 164.746 " stroke="none" fill="#545c5c" fill-rule="evenodd"></path></g></svg>