<?xml version="1.0" encoding="utf-8"?>
<svg id="master-artboard" viewBox="0 0 1400 980" version="1.1" xmlns="http://www.w3.org/2000/svg" x="0px" y="0px" style="enable-background:new 0 0 1400 980;" width="1400px" height="980px"><g transform="matrix(0.9999999403953551, 0, 0, 0.9999999403953551, -81.23367834992905, -543.4255881936273)"><g transform="matrix(9.132913782825732, 0, 0, 9.132913782825732, 394.9679772490828, -0.000004722076482721604)"><metadata id="metadata5">
    
  </metadata><g transform="translate(-79.808152,-106.64765)" id="layer1">
    <g id="g1561" transform="matrix(1.1399761,0,0,1.1399761,-14.187419,-25.755935)">
      <path id="path1547" style="fill: rgb(0, 0, 0); fill-opacity: 1; stroke: none; stroke-width: 0.284001; stroke-linecap: square; stroke-dashoffset: 5.70936; paint-order: markers stroke;" d="m 137.47427,186.85582 c -0.84696,0.22694 -4.44309,8.39434 -4.69635,10.78177 -0.34702,3.27138 2.56798,4.69751 4.67017,4.33891 1.87777,-0.32032 3.64615,-2.47284 3.60138,-4.53804 -0.0785,-3.62019 -2.72824,-10.80958 -3.5752,-10.58264 z m -42.001598,13.15174 c -1.327688,-0.32679 -1.653327,1.09463 -1.878195,2.28323 -0.304529,1.60967 -0.927252,3.34764 -1.092556,4.77537 -0.153466,1.3255 0.349635,2.6213 1.682424,3.06247 2.31152,0.76514 3.770051,-1.59021 3.865837,-4.54499 0.100709,-3.10667 -1.658686,-5.34991 -2.57751,-5.57608 z m -9.266264,-5.46551 c -1.013994,0.55168 -1.175811,2.61803 -1.572084,3.97565 -1.376673,4.7164 -0.300051,4.93335 1.226343,4.96712 2.263193,0.0501 2.939563,-1.94984 2.184022,-5.62193 -0.311753,-1.51518 -0.764201,-3.9052 -1.838281,-3.32084 z m 28.778272,-78.39612 c -10.0952,0 -19.871897,4.41626 -25.805662,13.83632 -3.472536,5.51277 -3.933118,10.93418 -6.076624,20.55951 -1.725371,7.74771 0.538568,16.57772 0.538568,25.04852 0,8.35116 0.652056,13.97752 2.901015,13.97752 2.248958,0 3.042708,-3.30729 2.116666,-13.09687 -0.926041,-9.78959 -0.79375,-15.08125 0.661459,-15.08125 1.455208,0 3.042708,2.24896 2.645833,8.20208 -0.396875,5.95313 -0.529167,15.08125 -0.529167,20.10833 0,5.02709 0.529167,7.27605 2.910417,7.14375 2.38125,-0.13229 3.836458,-1.4552 3.836458,-4.10104 0,-2.64583 -0.926041,-12.17083 -0.926041,-19.05 0,-6.87916 2.248958,-9.65729 5.820838,-9.65729 3.57187,0 5.42395,1.85208 5.55625,8.86354 0.13229,7.01146 0.39687,17.59479 -0.52917,25.53229 -0.92604,7.9375 -1.5875,10.98021 3.57187,10.98021 5.15938,0 4.93355,-3.81651 4.66896,-7.91755 -0.26458,-4.10104 -1.63289,-9.13672 -1.56675,-14.82526 0.0846,-7.28037 1.46186,-10.59469 4.50457,-10.59469 3.04271,0 5.37385,1.65949 4.29947,10.31875 -0.65885,5.31015 -0.39687,7.01146 1.5875,7.01146 1.98438,0 3.175,-2.24896 2.38125,-12.7 -0.79375,-10.45104 0.26459,-14.41979 2.64584,-14.41979 2.38125,0 4.36007,0.42949 3.57187,8.86354 -0.22583,2.41644 0.007,5.15938 2.51354,5.29167 2.5069,0.13229 2.7617,-2.31547 2.91042,-6.35 0.16931,-4.59319 0.35749,-12.60709 0.52917,-16.80104 0.0979,-2.39083 1.31624,-16.72067 -3.80872,-27.80403 -3.41771,-7.39124 -9.65645,-13.33868 -20.92983,-13.33868 z" transform="matrix(1, 0, 0, 1, 4.03575272603598, 52.46478142607906)"/>
      <path id="path451-7" style="display: inline; fill: rgb(0, 0, 0); fill-opacity: 1; stroke: none; stroke-width: 0.0782233;" d="m 93.136668,137.40571 -1.633545,2.74366 c -0.03598,0.0605 -0.09934,0.0643 -0.09934,0.0643 0.08209,-0.9954 0.110724,-1.90569 -0.0041,-2.90694 -0.02726,-0.23802 -0.797057,-0.88892 -1.485527,-1.01898 -0.171571,-0.0323 -0.316129,0.1005 -0.401473,0.24242 -1.283937,2.13465 -2.463208,4.23687 -3.586103,6.53239 -0.05193,0.10611 -0.09926,0.21697 -0.08124,0.3211 0.07508,0.43286 0.728669,0.67405 1.182581,0.77241 0.180728,0.0387 0.405551,0.0221 0.503056,-0.16878 l 2.067063,-3.99084 c 0.04507,-0.0884 0.121453,-0.0922 0.121453,-0.0922 -0.09492,1.4218 -0.165644,2.68338 -0.26065,4.10666 -0.0083,0.12449 -0.0028,0.30582 0.09074,0.45252 0.206094,0.32324 1.001392,0.66428 1.439611,0.56503 0.275405,-0.0624 0.12996,-0.39845 0.239395,-0.59626 0,0 1.17328,-2.13332 1.669488,-3.03855 0.654251,-1.19355 1.386128,-2.45097 1.872306,-3.3379 0.104837,-0.19125 -0.0025,-0.43322 -0.341544,-0.60751 -0.239603,-0.12314 -0.606033,-0.22989 -0.800953,-0.27753 -0.212332,-0.0519 -0.389764,0.0647 -0.491205,0.23494 z m 36.533302,10.36799 c -0.10677,-0.0266 -0.22566,-0.0415 -0.33941,-0.0328 -1.5926,0.12189 -2.76688,1.39249 -3.39235,2.97083 -0.37332,0.94198 -0.38078,2.05634 0.17574,2.77731 0.56314,0.72952 1.50967,0.79687 2.14665,0.57919 1.76121,-0.60192 2.79098,-2.54986 3.08693,-4.42313 0.0653,-0.41425 0.0186,-1.15377 -0.15477,-1.359 -0.36609,-0.43394 -1.07199,0.30023 -1.25716,0.22904 -0.0586,-0.0222 0.16692,-0.43934 0.0874,-0.57056 -0.0307,-0.0507 -0.17503,-0.12674 -0.35304,-0.17094 z m -17.63786,2.34528 c 0.56401,0.64388 1.45845,0.69935 2.09596,0.48353 1.7627,-0.59684 2.7693,-2.57751 3.06812,-4.44129 0.0658,-0.41214 0.0338,-1.10789 -0.13919,-1.3123 -0.36559,-0.43227 -1.08167,0.25372 -1.2759,0.20655 -0.061,-0.0148 0.15751,-0.43667 0.0785,-0.56757 -0.0399,-0.0663 -0.15653,-0.11752 -0.29176,-0.15065 -0.13524,-0.0331 -0.28909,-0.0478 -0.40382,-0.0407 -1.79902,0.10991 -2.98158,1.86664 -3.42728,3.15755 -0.36494,1.05698 -0.3029,1.98184 0.29535,2.66487 z m -15.24524,-3.58975 c 0.805285,-0.0461 1.49595,-0.59632 1.812269,-1.10918 0.15856,-0.25709 0.469377,-0.72149 0.331006,-0.94934 -0.180484,-0.29721 -0.683692,-0.42835 -1.131882,-0.315 -0.41963,0.10616 -0.492601,0.77094 -0.921249,0.59904 -0.193108,-0.0775 -0.01741,-0.68978 0.128872,-1.0098 0.207561,-0.45406 0.488368,-0.91712 0.796973,-1.30384 0.204114,-0.25575 0.537141,-0.56345 0.714806,-0.57265 0.146371,-0.008 0.210102,0.14065 0.132424,0.30499 -0.08206,0.17363 -0.207904,0.37012 -0.09181,0.48286 0.185501,0.18016 0.818266,0.40762 1.208278,0.1967 0.465363,-0.25165 0.582743,-1.00647 0.581853,-1.37612 -0.001,-0.54512 -0.477843,-0.93192 -1.023289,-1.07561 -0.03637,-0.0101 -0.07304,-0.0181 -0.109779,-0.0259 -1.531581,-0.30721 -2.835542,1.00866 -3.473367,2.17238 -0.632517,1.15404 -1.134068,2.60132 -0.286001,3.56429 0.315444,0.35818 0.905725,0.44146 1.330895,0.41717 z m 36.48273,2.16952 c -0.15703,-0.0356 -0.30469,-0.0227 -0.39258,0.1015 -1.14611,1.63209 -2.03933,3.41231 -3.02159,5.21179 -0.17389,0.31858 0.27855,0.66875 1.01323,0.85207 0.20454,0.0508 0.36595,-0.0286 0.47545,-0.19287 0.10417,-0.1563 1.53696,-2.84133 1.53696,-2.84133 0.0351,1.04654 -0.20065,2.08303 -0.12486,3.1433 0.007,0.10176 0.31501,0.32657 0.67792,0.48493 0.27722,0.12103 0.64701,0.23753 0.80987,0.12692 0.16425,-0.11148 0.0794,-0.33572 0.15398,-0.4606 0.94602,-1.57155 1.90944,-3.13387 2.69978,-4.8777 0.0473,-0.10434 0.0446,-0.20823 -0.0276,-0.26902 -0.31558,-0.26541 -1.05087,-0.75947 -1.20646,-0.55051 -0.49484,0.66461 -0.87319,1.45038 -1.26856,2.23037 -0.0336,0.0665 -0.0994,0.0964 -0.0975,0.0556 0.0265,-0.57553 0.0248,-1.14776 0.0309,-1.7272 0.007,-0.59597 -0.52205,-0.98167 -0.97672,-1.18712 -0.0903,-0.0406 -0.188,-0.0789 -0.28226,-0.1001 z m -15.90596,-2.1367 c -0.0462,0.099 -0.0427,0.14954 -9.1e-4,0.18394 0.13927,0.11348 0.307,0.0705 0.44427,0.0363 0.0975,-0.0245 0.11771,0.0681 0.0861,0.12918 -0.5528,1.06669 -1.20852,1.98755 -1.67066,3.12374 -0.11822,0.29066 0.37145,1.14438 0.55998,1.32473 0.49896,0.47731 1.93761,0.4475 3.08611,-0.15187 1.14853,-0.59935 2.21296,-2.10186 2.1077,-3.55185 -0.0636,-0.87752 -0.57559,-1.50486 -1.28011,-1.8952 -0.28111,-0.15574 -0.59944,-0.27128 -0.92219,-0.35148 -0.415,-0.10305 -0.83747,-0.14793 -1.19796,-0.14499 -0.25457,0.003 -0.40516,0.0661 -0.6027,0.22318 -0.14123,0.11234 -0.43697,0.7031 -0.61021,1.07434 z m -25.261003,-1.52769 c 0.152528,0.25113 0.655863,0.57356 1.102368,0.62847 0.143789,0.0177 0.301119,0.0192 0.411857,-0.0586 0.08751,-0.0621 2.518999,-4.49917 2.641759,-4.72178 0.114664,-0.20793 0.230959,-0.41915 0.324843,-0.64685 0.05085,-0.12326 -0.04774,-0.25784 -0.134692,-0.32822 -0.190019,-0.15386 -0.495872,-0.29919 -0.778232,-0.3758 -0.282304,-0.0769 -0.541218,-0.0846 -0.637079,0.0365 -0.736198,0.92963 -2.372368,4.01301 -2.661922,4.54122 -0.260938,0.47601 -0.391537,0.72313 -0.268902,0.92509 z m 16.200733,4.265 c 0.0847,0.0771 1.71271,0.46892 1.84858,0.49593 0.11549,0.023 0.33861,0.0393 0.44652,-0.035 0.16424,-0.1131 0.3062,-0.34609 0.43559,-0.57476 0.15952,-0.28183 0.40411,-0.71654 0.25312,-0.78308 -0.51134,-0.22533 -1.04208,-0.24664 -1.58903,-0.44401 -0.0333,-0.0125 -0.0754,-0.0422 -0.047,-0.1046 0.64381,-1.40434 1.49136,-2.58549 2.1584,-3.95019 0.0553,-0.11331 -0.16934,-0.26445 -0.2542,-0.31843 -0.30154,-0.19177 -0.60566,-0.32046 -0.82808,-0.37396 -0.17296,-0.0417 -0.29654,-0.0378 -0.33095,0.0171 -0.93499,1.4911 -1.86495,2.89514 -2.60814,4.58301 -0.064,0.14572 0.0559,1.07057 0.51515,1.48808 z m 14.97605,-2.64872 c -0.0505,0.0596 -0.15831,0.28531 -0.2602,0.49514 -0.0984,0.20257 -0.17091,0.36171 -0.21577,0.44996 -0.10983,0.2162 0.0711,0.29612 0.25238,0.36721 0.0974,0.0382 0.0202,0.17292 -0.0336,0.28668 -0.0785,0.16547 -0.17183,0.33331 -0.26911,0.50625 -0.0902,0.16061 -0.26662,-0.0158 -0.49686,0.15703 -0.2472,0.18437 -0.47024,0.71043 -0.58485,0.99764 -0.13403,0.33588 0.20852,0.38263 0.11995,0.58774 -0.17273,0.39988 -0.39215,0.8388 -0.48204,1.10059 -0.0596,0.17358 0.14539,0.96438 0.5592,1.06604 l 2.06899,0.50814 c 0.12118,0.0299 0.3275,-0.0168 0.38895,-0.089 0.26657,-0.31272 0.62522,-0.8177 0.51705,-1.16755 -0.0313,-0.10139 -0.53681,-0.1642 -1.51208,-0.44279 -0.1322,-0.0376 -0.14299,-0.0882 -0.1153,-0.16998 0.0592,-0.17524 0.28307,-0.61544 0.39958,-0.59526 0.54328,0.0937 1.36775,0.40612 1.581,0.3398 0.18018,-0.056 0.27756,-0.1998 0.50078,-0.54842 0.17016,-0.26572 0.34902,-0.71202 0.23697,-0.79728 -0.0531,-0.0402 -0.25204,-0.13573 -0.58932,-0.22532 -0.29377,-0.0779 -0.78472,-0.16279 -0.89337,-0.24672 -0.13,-0.1004 0.15258,-0.40135 0.13674,-0.54884 -0.0219,-0.19903 -0.21586,-0.27427 -0.27045,-0.44211 0.66389,0.12835 1.22322,0.25971 1.88806,0.47013 0.25094,0.0792 0.44238,-0.0691 0.52012,-0.16174 0.20974,-0.25013 0.35987,-0.54832 0.49127,-1.00073 0.0739,-0.25477 -0.25655,-0.32474 -0.484,-0.39204 -0.4956,-0.14673 -1.13433,-0.31205 -1.6989,-0.44707 -0.56455,-0.13528 -1.05515,-0.23961 -1.25497,-0.26468 -0.23204,-0.0291 -0.37079,0.0542 -0.50016,0.20713 z m -24.881006,-0.22666 c -0.09613,0.17575 0.201572,0.37272 0.393856,0.48382 0.273756,0.15816 0.867406,0.45239 0.985097,0.29813 0.234613,-0.30753 0.545313,-0.89033 0.779943,-1.39549 0.0415,-0.0896 0.0825,-0.12443 0.12521,-0.12232 0,0 0.32837,1.39342 0.41629,1.74376 0.16635,0.66294 0.19491,0.93574 0.63115,0.9122 0.2061,-0.0112 0.45286,-0.0523 0.69413,-0.13279 0.38623,-0.12875 0.48537,-0.32379 0.46492,-0.4756 -0.12452,-0.92533 -0.46161,-1.76201 -0.66426,-2.68814 0.76563,-0.15089 1.4114,-0.49326 1.95337,-0.96032 0.51077,-0.44014 1.18756,-1.27163 1.26964,-1.59641 0.0256,-0.10317 -0.14659,-0.31779 -0.46811,-0.51151 -0.32039,-0.19303 -0.66671,-0.33731 -0.75535,-0.24253 -0.66145,0.70768 -1.18317,1.62278 -2.29559,1.75403 -0.0515,0.006 -0.0691,-0.0279 -0.0365,-0.0861 0.10322,-0.1828 0.27615,-0.50499 0.43687,-0.74368 0.35536,-0.52777 0.58376,-1.00125 0.50715,-1.08985 -0.20432,-0.23626 -0.5441,-0.41769 -0.88173,-0.50232 -0.15346,-0.0383 -0.3065,-0.0569 -0.44616,-0.0515 -0.15792,0.006 -0.39044,0.43338 -0.53676,0.7009 z m 7.319456,-4.04047 c -0.1007,0.11549 -0.39184,0.60759 -0.51838,0.90717 -0.0941,0.22293 0.10342,0.29197 0.28423,0.36562 0.0482,0.0197 0.0487,0.19743 -0.0102,0.28878 -0.0994,0.1497 -0.20528,0.33606 -0.30201,0.51206 -0.0885,0.16126 -0.32075,-0.003 -0.47317,0.10736 -0.24999,0.1806 -0.51967,0.77881 -0.63805,1.06409 -0.10204,0.24581 0.23016,0.31787 0.15281,0.48338 -0.18426,0.39418 -0.37551,0.74613 -0.5192,1.14683 -0.0619,0.1725 0.16322,0.99649 0.5781,1.09867 l 2.1594,0.53112 c 0.0798,0.0196 0.24714,-0.03 0.30961,-0.10111 0.27099,-0.30855 0.60944,-0.81103 0.50531,-1.16205 -0.0346,-0.11643 -1.04306,-0.31113 -1.45486,-0.43473 -0.13203,-0.0393 -0.23229,-0.0721 -0.19654,-0.15069 0.12106,-0.26583 0.31779,-0.64154 0.4343,-0.6197 0.54332,0.10174 1.52724,0.41831 1.62078,0.37258 0.17671,-0.0864 0.38409,-0.32421 0.50531,-0.55512 0.12155,-0.23154 0.36183,-0.69642 0.26129,-0.80822 -0.0447,-0.0498 -0.26139,-0.11125 -0.59831,-0.20551 -0.29349,-0.0821 -0.7865,-0.18331 -0.8943,-0.26906 -0.12901,-0.10206 0.14997,-0.40511 0.13563,-0.55272 -0.0194,-0.19912 -0.23857,-0.28611 -0.29128,-0.45456 0.6639,0.13779 1.21649,0.28166 1.88274,0.49376 0.1002,0.0315 0.34134,0.0737 0.42037,-0.0177 0.21328,-0.24684 0.50052,-0.61035 0.62512,-1.06388 0.0765,-0.27659 -0.27303,-0.37094 -0.48392,-0.44086 -0.61478,-0.20385 -1.46338,-0.43434 -2.111,-0.59212 -0.38856,-0.0946 -0.70484,-0.16311 -0.85526,-0.18379 -0.23265,-0.0318 -0.39643,0.0896 -0.52798,0.24036 z m 23.30644,8.77714 c -0.25761,0.47118 -0.55491,0.8361 -0.94761,1.11348 -0.40978,0.28944 -0.73071,-0.0163 -0.57529,-0.71227 0.0981,-0.4397 0.33312,-0.80015 0.57282,-1.15828 0.41452,-0.61935 1.11683,-0.95387 1.44902,-1.09711 0.0102,0.55483 -0.18641,1.28262 -0.49894,1.85418 z m -9.10696,-2.10517 c -0.33724,0.51446 -1.00336,1.00817 -1.63119,0.93015 0.3605,-0.85639 1.02347,-1.90016 1.22595,-2.45319 0.12252,-0.33473 -0.22262,-0.58452 -0.46779,-0.75169 0.0554,0.005 0.11081,0.0136 0.16584,0.0252 0.38497,0.0823 0.74894,0.32266 0.9223,0.66382 0.26908,0.52943 0.0857,1.12665 -0.21511,1.58561 z m -4.55601,-3.17311 c 0.0169,1.00728 -0.61262,2.30488 -1.42869,2.93751 -0.15151,0.11728 -0.37282,0.18595 -0.49982,0.0277 -0.18226,-0.22725 0.28762,-1.603 0.46352,-1.87183 0.33894,-0.51941 0.84329,-0.86003 1.46499,-1.09336 z m 22.52693,4.56385 0.63964,0.1563 c 0.13719,0.0334 0.24007,0.0935 0.3087,0.18043 0.0728,0.0919 0.0941,0.19811 0.0648,0.31907 -0.0397,0.16212 -0.14324,0.25108 -0.31097,0.26692 l -0.001,0.005 c 0.10315,0.0651 0.14699,0.16224 0.13462,0.29254 -0.005,0.0374 -0.006,0.082 -0.0298,0.20115 -0.0219,0.11918 -0.0199,0.16262 -0.003,0.17345 l -0.004,0.0169 -0.32172,-0.0787 c -0.0119,-0.0119 -0.0119,-0.0525 0.003,-0.15624 0.0156,-0.10368 0.0196,-0.13823 0.0226,-0.1666 0.0135,-0.13152 -0.0451,-0.21319 -0.17595,-0.24515 l -0.20014,-0.0488 -0.12237,0.50125 -0.33107,-0.0808 z m 0.4354,0.73269 c 0.13219,0.0323 0.21152,-0.006 0.23801,-0.11427 0.0119,-0.0499 0.006,-0.0934 -0.0174,-0.13112 -0.0262,-0.0394 -0.0703,-0.0667 -0.1326,-0.0818 l -0.25626,-0.0627 -0.0805,0.32919 z m 0.18798,-0.98179 c -0.59958,-0.14573 -1.20387,0.22246 -1.35006,0.82082 -0.14638,0.59917 0.22142,1.20453 0.82059,1.35094 0.59919,0.14637 1.20451,-0.22124 1.35088,-0.82039 0.14637,-0.59915 -0.22103,-1.20537 -0.82141,-1.35137 z m -0.0276,0.11494 c 0.53782,0.131 0.86586,0.67182 0.73473,1.20858 -0.13114,0.53673 -0.67161,0.86477 -1.20832,0.73361 -0.53674,-0.13113 -0.86503,-0.6714 -0.7339,-1.20815 0.131,-0.53595 0.6704,-0.86469 1.20749,-0.73404 z" transform="matrix(0.8173001408576965, 0, 0, 0.8173001408576965, 22.470510568590157, 79.77601666493979)"/>
    </g>
  </g></g></g></svg>